<svg xmlns="http://www.w3.org/2000/svg" xmlns:xlink="http://www.w3.org/1999/xlink" width="418" height="252" viewBox="0 0 418 252">
  <defs>
    <filter id="Trazado_787500" x="0" y="0" width="418" height="235" filterUnits="userSpaceOnUse">
      <feOffset dy="3" input="SourceAlpha"/>
      <feGaussianBlur stdDeviation="3" result="blur"/>
      <feFlood flood-opacity="0.161"/>
      <feComposite operator="in" in2="blur"/>
      <feComposite in="SourceGraphic"/>
    </filter>
  </defs>
  <g id="Grupo_1043293" data-name="Grupo 1043293" transform="translate(-591 -2594)">
    <g transform="matrix(1, 0, 0, 1, 591, 2594)" filter="url(#Trazado_787500)">
      <path id="Trazado_787500-2" data-name="Trazado 787500" d="M0,0H400V217H0Z" transform="translate(9 6)" fill="#f6f6f6"/>
    </g>
    <path id="Trazado_787501" data-name="Trazado 787501" d="M0,0H400V31H0Z" transform="translate(600 2815)" fill="#ffca00"/>
    <path id="Trazado_787502" data-name="Trazado 787502" d="M49.508,9.57a6.867,6.867,0,0,1-.594,2.945,4.472,4.472,0,0,1-1.7,1.953,5.021,5.021,0,0,1-5.059.008,4.515,4.515,0,0,1-1.719-1.941,6.67,6.67,0,0,1-.617-2.9V9.07a6.831,6.831,0,0,1,.605-2.957,4.508,4.508,0,0,1,1.711-1.961,5.014,5.014,0,0,1,5.055,0A4.508,4.508,0,0,1,48.9,6.113a6.811,6.811,0,0,1,.605,2.949Zm-2.375-.516a4.787,4.787,0,0,0-.641-2.719,2.263,2.263,0,0,0-3.648-.012A4.732,4.732,0,0,0,42.2,9.016V9.57a4.847,4.847,0,0,0,.641,2.7,2.243,2.243,0,0,0,3.656.035,4.819,4.819,0,0,0,.641-2.7Zm8.68-.391A6.134,6.134,0,0,0,55,8.6a1.654,1.654,0,0,0-1.68.867V15H51.063V6.547H53.2l.063,1.008a2.092,2.092,0,0,1,1.883-1.164,2.366,2.366,0,0,1,.7.1Zm.609,2.047a4.954,4.954,0,0,1,.926-3.133,3,3,0,0,1,2.5-1.187,2.631,2.631,0,0,1,2.164.953l.094-.8h2.047v8.172a3.613,3.613,0,0,1-.5,1.93,3.236,3.236,0,0,1-1.418,1.25,4.985,4.985,0,0,1-2.141.43,4.635,4.635,0,0,1-1.812-.371A3.217,3.217,0,0,1,56.938,17l1-1.375a2.645,2.645,0,0,0,2.047.945,1.936,1.936,0,0,0,1.4-.48,1.8,1.8,0,0,0,.5-1.363v-.453a2.612,2.612,0,0,1-2.055.883,2.992,2.992,0,0,1-2.465-1.191,4.953,4.953,0,0,1-.941-3.16Zm2.258.161a3.1,3.1,0,0,0,.461,1.809,1.465,1.465,0,0,0,1.266.655,1.567,1.567,0,0,0,1.477-.777V8.988a1.563,1.563,0,0,0-1.461-.777,1.474,1.474,0,0,0-1.277.667A3.5,3.5,0,0,0,58.68,10.872ZM70.781,15a2.507,2.507,0,0,1-.227-.758,2.732,2.732,0,0,1-2.133.914,3,3,0,0,1-2.059-.719,2.312,2.312,0,0,1-.816-1.812,2.389,2.389,0,0,1,1-2.062,4.915,4.915,0,0,1,2.879-.727h1.039V9.352a1.393,1.393,0,0,0-.3-.937,1.183,1.183,0,0,0-.949-.352,1.345,1.345,0,0,0-.895.273.929.929,0,0,0-.324.75H65.734a2.268,2.268,0,0,1,.453-1.359,3,3,0,0,1,1.281-.98,4.669,4.669,0,0,1,1.859-.355,3.689,3.689,0,0,1,2.48.785,2.747,2.747,0,0,1,.918,2.207v3.664a4.041,4.041,0,0,0,.336,1.82V15Zm-1.867-1.57a1.945,1.945,0,0,0,.922-.223,1.462,1.462,0,0,0,.625-.6V11.156h-.844q-1.7,0-1.8,1.172l-.008.133a.9.9,0,0,0,.3.7A1.153,1.153,0,0,0,68.914,13.43Zm7.625-6.883.07.977a2.951,2.951,0,0,1,2.43-1.133,2.453,2.453,0,0,1,2,.789,3.682,3.682,0,0,1,.672,2.359V15H79.453V9.581a1.47,1.47,0,0,0-.312-1.045A1.4,1.4,0,0,0,78.1,8.211a1.553,1.553,0,0,0-1.43.814V15H74.414V6.547ZM85.8,15H83.539V6.547H85.8Zm-2.4-10.641a1.112,1.112,0,0,1,.34-.836,1.465,1.465,0,0,1,1.848,0,1.105,1.105,0,0,1,.344.836,1.108,1.108,0,0,1-.348.844,1.448,1.448,0,0,1-1.836,0A1.108,1.108,0,0,1,83.406,4.359Zm3.93,6.352a4.954,4.954,0,0,1,.926-3.133,3,3,0,0,1,2.5-1.187,2.631,2.631,0,0,1,2.164.953l.094-.8h2.047v8.172a3.613,3.613,0,0,1-.5,1.93,3.236,3.236,0,0,1-1.418,1.25,4.985,4.985,0,0,1-2.141.43,4.635,4.635,0,0,1-1.812-.371A3.217,3.217,0,0,1,87.852,17l1-1.375a2.645,2.645,0,0,0,2.047.945,1.936,1.936,0,0,0,1.4-.48,1.8,1.8,0,0,0,.5-1.363v-.453a2.612,2.612,0,0,1-2.055.883,2.992,2.992,0,0,1-2.465-1.191,4.953,4.953,0,0,1-.941-3.16Zm2.258.161a3.1,3.1,0,0,0,.461,1.809,1.465,1.465,0,0,0,1.266.655,1.567,1.567,0,0,0,1.477-.777V8.988a1.563,1.563,0,0,0-1.461-.777,1.474,1.474,0,0,0-1.277.667A3.5,3.5,0,0,0,89.594,10.872Zm11.953-2.208a6.134,6.134,0,0,0-.812-.062,1.654,1.654,0,0,0-1.68.867V15H96.8V6.547H98.93l.063,1.008a2.092,2.092,0,0,1,1.883-1.164,2.366,2.366,0,0,1,.7.1ZM107.3,15a2.507,2.507,0,0,1-.227-.758,2.732,2.732,0,0,1-2.133.914,3,3,0,0,1-2.059-.719,2.312,2.312,0,0,1-.816-1.812,2.389,2.389,0,0,1,1-2.062,4.915,4.915,0,0,1,2.879-.727h1.039V9.352a1.393,1.393,0,0,0-.3-.937,1.183,1.183,0,0,0-.949-.352,1.345,1.345,0,0,0-.895.273.929.929,0,0,0-.324.75H102.25a2.268,2.268,0,0,1,.453-1.359,3,3,0,0,1,1.281-.98,4.669,4.669,0,0,1,1.859-.355,3.689,3.689,0,0,1,2.48.785,2.747,2.747,0,0,1,.918,2.207v3.664a4.041,4.041,0,0,0,.336,1.82V15Zm-1.867-1.57a1.945,1.945,0,0,0,.922-.223,1.462,1.462,0,0,0,.625-.6V11.156h-.844q-1.7,0-1.8,1.172l-.008.133a.9.9,0,0,0,.3.7A1.153,1.153,0,0,0,105.43,13.43Zm7.664-6.883.07.945a2.971,2.971,0,0,1,2.43-1.1,2.255,2.255,0,0,1,2.242,1.289,2.9,2.9,0,0,1,2.539-1.289,2.521,2.521,0,0,1,2.047.8,3.681,3.681,0,0,1,.672,2.41V15h-2.266V9.6a1.616,1.616,0,0,0-.281-1.053,1.245,1.245,0,0,0-.992-.333,1.409,1.409,0,0,0-1.406.971L118.156,15H115.9V9.6a1.6,1.6,0,0,0-.289-1.065,1.257,1.257,0,0,0-.984-.329,1.463,1.463,0,0,0-1.391.8V15h-2.258V6.547ZM129.727,15a2.507,2.507,0,0,1-.227-.758,2.732,2.732,0,0,1-2.133.914,3,3,0,0,1-2.059-.719,2.312,2.312,0,0,1-.816-1.812,2.389,2.389,0,0,1,1-2.062,4.915,4.915,0,0,1,2.879-.727h1.039V9.352a1.393,1.393,0,0,0-.3-.937,1.183,1.183,0,0,0-.949-.352,1.345,1.345,0,0,0-.895.273.929.929,0,0,0-.324.75H124.68a2.268,2.268,0,0,1,.453-1.359,3,3,0,0,1,1.281-.98,4.669,4.669,0,0,1,1.859-.355,3.689,3.689,0,0,1,2.48.785,2.747,2.747,0,0,1,.918,2.207v3.664a4.041,4.041,0,0,0,.336,1.82V15Zm-1.867-1.57a1.945,1.945,0,0,0,.922-.223,1.462,1.462,0,0,0,.625-.6V11.156h-.844q-1.7,0-1.8,1.172l-.008.133a.9.9,0,0,0,.3.7A1.153,1.153,0,0,0,127.859,13.43Zm11.734-5.961a2.818,2.818,0,0,1,2.258-1.078q2.75,0,2.789,3.2V15h-2.258V9.636a1.577,1.577,0,0,0-.312-1.077,1.338,1.338,0,0,0-1.039-.348,1.536,1.536,0,0,0-1.437.767V15h-2.258V3h2.258Zm6.4,3.227a5.013,5.013,0,0,1,.484-2.242,3.546,3.546,0,0,1,1.395-1.523,4.069,4.069,0,0,1,2.113-.539,3.849,3.849,0,0,1,2.793,1.047,4.2,4.2,0,0,1,1.207,2.844l.016.578a4.418,4.418,0,0,1-1.086,3.121,4.209,4.209,0,0,1-5.832,0,4.5,4.5,0,0,1-1.09-3.187Zm2.258.16A3.16,3.16,0,0,0,148.7,12.7a1.628,1.628,0,0,0,2.578.008,3.457,3.457,0,0,0,.461-2.015,3.128,3.128,0,0,0-.461-1.831,1.5,1.5,0,0,0-1.3-.649,1.474,1.474,0,0,0-1.281.646A3.516,3.516,0,0,0,148.25,10.856Zm11.891-2.192a6.134,6.134,0,0,0-.812-.062,1.654,1.654,0,0,0-1.68.867V15h-2.258V6.547h2.133l.063,1.008a2.092,2.092,0,0,1,1.883-1.164,2.366,2.366,0,0,1,.7.1ZM163.609,15h-2.266V6.547h2.266Zm-2.4-10.641a1.112,1.112,0,0,1,.34-.836,1.465,1.465,0,0,1,1.848,0,1.105,1.105,0,0,1,.344.836,1.109,1.109,0,0,1-.348.844,1.448,1.448,0,0,1-1.836,0A1.109,1.109,0,0,1,161.211,4.359Zm6.852,8.82H172.2V15H165.18V13.625l3.977-5.258H165.3V6.547h6.773v1.33Zm5.07-2.484a5.013,5.013,0,0,1,.484-2.242,3.546,3.546,0,0,1,1.395-1.523,4.069,4.069,0,0,1,2.113-.539,3.849,3.849,0,0,1,2.793,1.047,4.2,4.2,0,0,1,1.207,2.844l.016.578a4.418,4.418,0,0,1-1.086,3.121,4.209,4.209,0,0,1-5.832,0,4.5,4.5,0,0,1-1.09-3.187Zm2.258.16a3.16,3.16,0,0,0,.453,1.843,1.628,1.628,0,0,0,2.578.008,3.457,3.457,0,0,0,.461-2.015,3.128,3.128,0,0,0-.461-1.831,1.5,1.5,0,0,0-1.3-.649,1.474,1.474,0,0,0-1.281.646A3.516,3.516,0,0,0,175.391,10.856Zm9.219-4.309.07.977a2.951,2.951,0,0,1,2.43-1.133,2.453,2.453,0,0,1,2,.789,3.682,3.682,0,0,1,.672,2.359V15h-2.258V9.581a1.47,1.47,0,0,0-.312-1.045,1.4,1.4,0,0,0-1.039-.325,1.553,1.553,0,0,0-1.43.814V15h-2.258V6.547ZM194.2,4.469V6.547h1.445V8.2H194.2v4.219a1.007,1.007,0,0,0,.18.672.9.9,0,0,0,.688.2,3.6,3.6,0,0,0,.664-.055v1.711a4.648,4.648,0,0,1-1.367.2,2.156,2.156,0,0,1-2.422-2.4V8.2H190.7V6.547h1.234V4.469ZM201.8,15a2.507,2.507,0,0,1-.227-.758,2.732,2.732,0,0,1-2.133.914,3,3,0,0,1-2.059-.719,2.312,2.312,0,0,1-.816-1.812,2.389,2.389,0,0,1,1-2.062,4.915,4.915,0,0,1,2.879-.727h1.039V9.352a1.393,1.393,0,0,0-.3-.937,1.183,1.183,0,0,0-.949-.352,1.345,1.345,0,0,0-.895.273.929.929,0,0,0-.324.75H196.75a2.268,2.268,0,0,1,.453-1.359,3,3,0,0,1,1.281-.98,4.669,4.669,0,0,1,1.859-.355,3.689,3.689,0,0,1,2.48.785,2.747,2.747,0,0,1,.918,2.207v3.664a4.041,4.041,0,0,0,.336,1.82V15Zm-1.867-1.57a1.945,1.945,0,0,0,.922-.223,1.462,1.462,0,0,0,.625-.6V11.156h-.844q-1.7,0-1.8,1.172l-.008.133a.9.9,0,0,0,.3.7A1.153,1.153,0,0,0,199.93,13.43Zm7.93,1.57h-2.266V3h2.266Z" transform="translate(675 2819)" fill="#12263f"/>
    <g id="Grupo_1037192" data-name="Grupo 1037192" transform="translate(66.5 40.464)">
      <path id="Trazado_777321" data-name="Trazado 777321" d="M-6622.267-8760.689h-158.344v-136.75h158.344" transform="translate(7411.94 11494.667)" fill="none" stroke="#12263f" stroke-width="2"/>
      <rect id="Rectángulo_361819" data-name="Rectángulo 361819" width="52" height="18" rx="5" transform="translate(605.5 2657.536)" fill="#ffca00"/>
      <rect id="Rectángulo_361820" data-name="Rectángulo 361820" width="66" height="16" rx="5" transform="translate(678.5 2589.536)" fill="#12263f"/>
      <rect id="Rectángulo_361821" data-name="Rectángulo 361821" width="66" height="18" rx="5" transform="translate(678.5 2657.536)" fill="#12263f"/>
      <g id="Rectángulo_361823" data-name="Rectángulo 361823" transform="translate(789.5 2657.536)" fill="#fff" stroke="#12263f" stroke-width="2">
        <rect width="67" height="18" rx="5" stroke="none"/>
        <rect x="1" y="1" width="65" height="16" rx="4" fill="none"/>
      </g>
      <g id="Rectángulo_361827" data-name="Rectángulo 361827" transform="translate(789.5 2589.536)" fill="#fff" stroke="#12263f" stroke-width="2">
        <rect width="67" height="16" rx="5" stroke="none"/>
        <rect x="1" y="1" width="65" height="14" rx="4" fill="none"/>
      </g>
      <g id="Rectángulo_361830" data-name="Rectángulo 361830" transform="translate(789.5 2726.536)" fill="#fff" stroke="#12263f" stroke-width="2">
        <rect width="67" height="17" rx="5" stroke="none"/>
        <rect x="1" y="1" width="65" height="15" rx="4" fill="none"/>
      </g>
      <g id="Rectángulo_361824" data-name="Rectángulo 361824" transform="translate(789.5 2635.536)" fill="#fff" stroke="#12263f" stroke-width="2">
        <rect width="67" height="17" rx="5" stroke="none"/>
        <rect x="1" y="1" width="65" height="15" rx="4" fill="none"/>
      </g>
      <g id="Rectángulo_361828" data-name="Rectángulo 361828" transform="translate(789.5 2566.536)" fill="#fff" stroke="#12263f" stroke-width="2">
        <rect width="67" height="18" rx="5" stroke="none"/>
        <rect x="1" y="1" width="65" height="16" rx="4" fill="none"/>
      </g>
      <g id="Rectángulo_361831" data-name="Rectángulo 361831" transform="translate(789.5 2704.536)" fill="#fff" stroke="#12263f" stroke-width="2">
        <rect width="67" height="17" rx="5" stroke="none"/>
        <rect x="1" y="1" width="65" height="15" rx="4" fill="none"/>
      </g>
      <g id="Rectángulo_361825" data-name="Rectángulo 361825" transform="translate(789.5 2680.536)" fill="#fff" stroke="#12263f" stroke-width="2">
        <rect width="67" height="18" rx="5" stroke="none"/>
        <rect x="1" y="1" width="65" height="16" rx="4" fill="none"/>
      </g>
      <g id="Rectángulo_361826" data-name="Rectángulo 361826" transform="translate(789.5 2612.536)" fill="#fff" stroke="#12263f" stroke-width="2">
        <rect width="67" height="18" rx="5" stroke="none"/>
        <rect x="1" y="1" width="65" height="16" rx="4" fill="none"/>
      </g>
      <g id="Rectángulo_361829" data-name="Rectángulo 361829" transform="translate(789.5 2750.536)" fill="#fff" stroke="#12263f" stroke-width="2">
        <rect width="67" height="17" rx="5" stroke="none"/>
        <rect x="1" y="1" width="65" height="15" rx="4" fill="none"/>
      </g>
      <rect id="Rectángulo_361822" data-name="Rectángulo 361822" width="66" height="17" rx="5" transform="translate(678.5 2725.536)" fill="#12263f"/>
      <path id="Trazado_777322" data-name="Trazado 777322" d="M-6740-8788h132.51" transform="translate(7397.165 11454.848)" fill="none" stroke="#12263f" stroke-width="2"/>
      <path id="Trazado_777323" data-name="Trazado 777323" d="M-6547.188-8885.976h-27.075v-45.22h27.075" transform="translate(7336.863 11506.949)" fill="none" stroke="#12263f" stroke-width="2"/>
      <path id="Trazado_777324" data-name="Trazado 777324" d="M-6547.188-8885.976h-27.075v-45.22h27.075" transform="translate(7336.863 11576.414)" fill="none" stroke="#12263f" stroke-width="2"/>
      <path id="Trazado_777325" data-name="Trazado 777325" d="M-6547.188-8885.976h-27.075v-45.22h27.075" transform="translate(7336.863 11642.548)" fill="none" stroke="#12263f" stroke-width="2"/>
    </g>
  </g>
</svg>
