<svg xmlns="http://www.w3.org/2000/svg" xmlns:xlink="http://www.w3.org/1999/xlink" width="87" height="87" viewBox="0 0 87 87">
  <defs>
    <clipPath id="clip-path">
      <rect id="Rectángulo_361316" data-name="Rectángulo 361316" width="87" height="87" transform="translate(1177 13799)" fill="#fff"/>
    </clipPath>
  </defs>
  <g id="Enmascarar_grupo_998606" data-name="Enmascarar grupo 998606" transform="translate(-1177 -13799)" clip-path="url(#clip-path)">
    <g id="note_2015801" transform="translate(1177 13799)">
      <path id="Trazado_775495" data-name="Trazado 775495" d="M75.7,11.3V25.446a1.823,1.823,0,0,1-1.819,1.827H53.021V9.771a8.479,8.479,0,0,1,8.462-8.5h4.231A10.005,10.005,0,0,1,75.7,11.3Z" fill="#d8cecc"/>
      <path id="Trazado_775496" data-name="Trazado 775496" d="M53.021,59.728H73.879A1.823,1.823,0,0,1,75.7,61.554V75.7a10.005,10.005,0,0,1-9.985,10.025H61.482a8.479,8.479,0,0,1-8.462-8.5Z" fill="#d8cecc"/>
      <path id="Trazado_775497" data-name="Trazado 775497" d="M64.7,85.726H14.265a8.48,8.48,0,0,1-8.462-8.5V9.771a8.48,8.48,0,0,1,8.462-8.5H64.7a8.48,8.48,0,0,0-8.462,8.5V77.229A8.48,8.48,0,0,0,64.7,85.726Z" fill="#fff5f4"/>
      <path id="Trazado_775498" data-name="Trazado 775498" d="M20.188,85.726H14.265a8.48,8.48,0,0,1-8.462-8.5V9.771a8.48,8.48,0,0,1,8.462-8.5h5.923a8.48,8.48,0,0,0-8.462,8.5V77.229a8.48,8.48,0,0,0,8.462,8.5Z" fill="#ebe0da"/>
      <path id="Trazado_775499" data-name="Trazado 775499" d="M81.2,43.5a8.184,8.184,0,0,1-8.166,8.2H28.907a.835.835,0,0,1-.344-.075l-8.325-3.709-8.186-3.647a.842.842,0,0,1,0-1.536l8.186-3.648,8.325-3.709a.861.861,0,0,1,.344-.073H73.031A8.183,8.183,0,0,1,81.2,43.5Z" fill="#95dae8"/>
      <path id="Trazado_775500" data-name="Trazado 775500" d="M81.123,42.4a8.1,8.1,0,0,0-4.86-1.611H32.138a.85.85,0,0,0-.343.073L18.1,46.963l-6.049-2.695a.841.841,0,0,1,0-1.536l16.511-7.357a.848.848,0,0,1,.343-.073H73.032a8.176,8.176,0,0,1,8.091,7.1Z" fill="#60c8dd"/>
      <path id="Trazado_775501" data-name="Trazado 775501" d="M29.048,51.7l0,0h-.139a.848.848,0,0,1-.343-.073l-8.546-3.808-7.965-3.549a.841.841,0,0,1,0-1.536l8.178-3.643,8.333-3.714a.848.848,0,0,1,.343-.073h.057l.12.118,4.15,4.506a.411.411,0,0,1,0,.559L30.645,43.22a.408.408,0,0,0,0,.562l2.587,2.737a.41.41,0,0,1,0,.558Z" fill="#ffe5a0"/>
      <path id="Trazado_775502" data-name="Trazado 775502" d="M32.942,40.788h-.8c-.263,0,.688-.386-14.036,6.175l-6.049-2.695a.841.841,0,0,1,0-1.536l8.178-3.643,8.333-3.714a.874.874,0,0,1,.4-.073l.12.118,4.15,4.506a.411.411,0,0,1,0,.559Z" fill="#ffdd81"/>
      <path id="Trazado_775503" data-name="Trazado 775503" d="M32.942,40.788h-.8c-.263,0,.688-.386-14.036,6.175l-6.049-2.695a.841.841,0,0,1,0-1.536l8.178-3.643,8.333-3.714a.874.874,0,0,1,.4-.073l.12.118,4.15,4.506a.411.411,0,0,1,0,.559Z" fill="#ffdd81"/>
      <path id="Trazado_775504" data-name="Trazado 775504" d="M81.123,42.4a8.1,8.1,0,0,0-4.86-1.611H68.2V35.3h4.835a8.182,8.182,0,0,1,8.091,7.1Z" fill="#60c8dd"/>
      <path id="Trazado_775505" data-name="Trazado 775505" d="M78.8,49.3a8.123,8.123,0,0,1-5.773,2.4H68.2V35.3h4.835a8.2,8.2,0,0,1,5.773,14Z" fill="#f76c57"/>
      <path id="Trazado_775506" data-name="Trazado 775506" d="M81.123,42.4a8.1,8.1,0,0,0-4.86-1.611H68.2V35.3h4.835a8.182,8.182,0,0,1,8.091,7.1Z" fill="#e7387f"/>
      <path id="Trazado_775507" data-name="Trazado 775507" d="M20.239,39.084v8.831l-8.186-3.647a.842.842,0,0,1,0-1.536Z" fill="#777078"/>
      <path id="Trazado_775508" data-name="Trazado 775508" d="M5.651,57.331a1.274,1.274,0,0,0,1.274-1.274V9.771a7.23,7.23,0,0,1,7.222-7.222H58.195a9.886,9.886,0,0,0-1.738,2.109,1.274,1.274,0,1,0,2.171,1.336,7.183,7.183,0,0,1,6.156-3.444H65.8A8.761,8.761,0,0,1,74.555,11.3V25.446A.553.553,0,0,1,74,26h-.364a1.274,1.274,0,0,0,0,2.549H74a3.1,3.1,0,0,0,3.1-3.1V11.3A11.313,11.313,0,0,0,65.8,0H14.147A9.781,9.781,0,0,0,4.377,9.771V56.057a1.274,1.274,0,0,0,1.274,1.274Z"/>
      <path id="Trazado_775509" data-name="Trazado 775509" d="M73.151,52.972a9.472,9.472,0,0,0,0-18.944H57.562V28.547H68.54a1.274,1.274,0,0,0,0-2.549H57.562V10.189a1.274,1.274,0,0,0-2.549,0V34.028H28.668a1.275,1.275,0,0,0-.517.11L11.41,41.567a2.116,2.116,0,0,0,0,3.866l16.743,7.43a1.275,1.275,0,0,0,.517.11H55.014V77.229a9.747,9.747,0,0,0,3.2,7.222H14.147a7.23,7.23,0,0,1-7.222-7.222V61.155a1.274,1.274,0,1,0-2.549,0V77.229A9.781,9.781,0,0,0,14.147,87H65.8A11.313,11.313,0,0,0,77.1,75.7V61.554a3.1,3.1,0,0,0-3.1-3.1H57.562V52.972Zm-6.129-7.446H34.006L32.084,43.5l1.922-2.026H67.022v4.052Zm2.549-8.949h3.58a6.923,6.923,0,0,1,0,13.846h-3.58Zm-50.7,9.379L13.337,43.5l5.534-2.456v4.911Zm9.7,4.306L21.42,47.087V39.913l7.109-3.155,3.178,3.436-2.3,2.429a1.274,1.274,0,0,0,0,1.754l2.31,2.435ZM67.022,36.577v2.348H34l-2.172-2.348ZM74,61a.553.553,0,0,1,.552.552V75.7A8.761,8.761,0,0,1,65.8,84.451h-1.02a7.23,7.23,0,0,1-7.222-7.222V61ZM56.3,50.423H31.873l2.138-2.348H67.022v2.348Z"/>
      <path id="Trazado_775510" data-name="Trazado 775510" d="M47.48,12.462H14.062a1.274,1.274,0,0,0,0,2.549H47.48a1.274,1.274,0,0,0,0-2.549Z"/>
      <path id="Trazado_775511" data-name="Trazado 775511" d="M47.48,21.525H14.062a1.274,1.274,0,0,0,0,2.549H47.48a1.274,1.274,0,0,0,0-2.549Z"/>
      <path id="Trazado_775512" data-name="Trazado 775512" d="M14.062,65.475H47.48a1.274,1.274,0,1,0,0-2.549H14.062a1.274,1.274,0,1,0,0,2.549Z"/>
      <path id="Trazado_775513" data-name="Trazado 775513" d="M14.062,74.538H47.48a1.274,1.274,0,0,0,0-2.549H14.062a1.274,1.274,0,0,0,0,2.549Z"/>
    </g>
  </g>
</svg>
