<svg xmlns="http://www.w3.org/2000/svg" width="127.588" height="105.286" viewBox="0 0 127.588 105.286">
  <g id="Grupo_1043168" data-name="Grupo 1043168" transform="translate(0 -44.74)">
    <path id="Trazado_774008" data-name="Trazado 774008" d="M13.594,104.28H76.8a4.951,4.951,0,0,1,4.951,4.951V154.9a6.576,6.576,0,0,1-6.576,6.576H15.209A6.576,6.576,0,0,1,8.64,154.9V109.231a4.951,4.951,0,0,1,4.951-4.951Z" transform="translate(-6.487 -44.703)" fill="#2d54fe"/>
    <path id="Trazado_774009" data-name="Trazado 774009" d="M68.693,157.136H8.722A8.741,8.741,0,0,1,0,148.415V102.737A7.114,7.114,0,0,1,7.107,95.63H70.318a7.114,7.114,0,0,1,7.107,7.107V148.4A8.741,8.741,0,0,1,68.693,157.136ZM7.107,99.938a2.8,2.8,0,0,0-2.8,2.8V148.4a4.428,4.428,0,0,0,4.413,4.423H68.693a4.428,4.428,0,0,0,4.423-4.423V102.737a2.8,2.8,0,0,0-2.8-2.8Z" transform="translate(0 -38.209)" fill="#282828"/>
    <path id="Trazado_774010" data-name="Trazado 774010" d="M13.594,104.28H76.8a4.951,4.951,0,0,1,4.951,4.951v11.674a9.778,9.778,0,0,1-9.778,9.778H18.421a9.778,9.778,0,0,1-9.781-9.778V109.231a4.951,4.951,0,0,1,4.954-4.951Z" transform="translate(-6.487 -44.704)" fill="#d7e8ff"/>
    <path id="Trazado_774011" data-name="Trazado 774011" d="M65.491,126.352H11.934A11.946,11.946,0,0,1,0,114.411V102.737A7.114,7.114,0,0,1,7.107,95.63H70.318a7.114,7.114,0,0,1,7.107,7.107v11.674A11.946,11.946,0,0,1,65.491,126.352ZM7.107,99.938a2.8,2.8,0,0,0-2.8,2.8v11.674a7.633,7.633,0,0,0,7.625,7.625H65.491a7.633,7.633,0,0,0,7.625-7.625V102.737a2.8,2.8,0,0,0-2.8-2.8Z" transform="translate(0 -38.209)" fill="#282828"/>
    <path id="Trazado_774012" data-name="Trazado 774012" d="M122.986,61.729H97.273a2.153,2.153,0,0,1-2.153-2.153v-7.2a7.645,7.645,0,0,1,7.638-7.638H117.5a7.645,7.645,0,0,1,7.638,7.638v7.2a2.153,2.153,0,0,1-2.155,2.153Zm-23.56-4.308h21.405V52.378a3.334,3.334,0,0,0-3.329-3.337H102.755a3.334,3.334,0,0,0-3.329,3.337Z" transform="translate(-71.417)" fill="#282828"/>
    <circle id="Elipse_8719" data-name="Elipse 8719" cx="15.656" cy="15.656" r="15.656" transform="translate(23.055 73.83)" fill="#fff"/>
    <path id="Trazado_774013" data-name="Trazado 774013" d="M101.689,188.459A17.809,17.809,0,1,1,119.5,170.649,17.809,17.809,0,0,1,101.689,188.459Zm0-31.31a13.5,13.5,0,1,0,13.5,13.5A13.5,13.5,0,0,0,101.689,157.148Z" transform="translate(-62.978 -81.163)" fill="#282828"/>
    <path id="Trazado_774014" data-name="Trazado 774014" d="M155.35,195.13V202.4h5.958" transform="translate(-116.639 -112.915)" fill="#fff"/>
    <path id="Trazado_774015" data-name="Trazado 774015" d="M154.821,198.076h-5.958a2.153,2.153,0,0,1-2.153-2.153v-7.284a2.154,2.154,0,0,1,4.308,0v5.118h3.8a2.154,2.154,0,1,1,0,4.308Z" transform="translate(-110.152 -106.424)" fill="#282828"/>
    <path id="Trazado_774016" data-name="Trazado 774016" d="M38.963,252.134a2.153,2.153,0,0,1-2.153-2.153V239.1a2.154,2.154,0,0,1,4.308,0v10.879a2.153,2.153,0,0,1-2.155,2.155Z" transform="translate(-27.637 -144.31)" fill="#fff"/>
    <path id="Trazado_774017" data-name="Trazado 774017" d="M321.393,153.868,291.2,146.25,261,153.868V189.8a18.751,18.751,0,0,0,6.617,14.3L291.194,224.1l23.575-20.007a18.751,18.751,0,0,0,6.623-14.3Z" transform="translate(-195.963 -76.215)" fill="#ff5d31"/>
    <path id="Trazado_774018" data-name="Trazado 774018" d="M284.734,219.752a2.15,2.15,0,0,1-1.393-.511l-23.573-20.007a20.869,20.869,0,0,1-7.378-15.948V147.378a2.153,2.153,0,0,1,1.628-2.088l30.193-7.617a2.153,2.153,0,0,1,1.054,0l30.194,7.618a2.153,2.153,0,0,1,1.627,2.088v35.928a20.869,20.869,0,0,1-7.378,15.948l-23.575,20.007A2.15,2.15,0,0,1,284.734,219.752Zm-28.041-70.7v34.251a16.568,16.568,0,0,0,5.858,12.654l22.177,18.823,22.177-18.823a16.568,16.568,0,0,0,5.866-12.654V149.055l-28.038-7.074Z" transform="translate(-189.498 -69.726)" fill="#282828"/>
    <path id="Trazado_774019" data-name="Trazado 774019" d="M341.972,197.143l-19.99-5.044L302,197.143V222.3a12.415,12.415,0,0,0,4.381,9.469l15.606,13.244,15.607-13.244a12.414,12.414,0,0,0,4.381-9.469Z" transform="translate(-226.746 -110.64)" fill="#ffd150"/>
    <path id="Trazado_774020" data-name="Trazado 774020" d="M315.5,240.673a2.15,2.15,0,0,1-1.393-.511l-15.6-13.247a14.543,14.543,0,0,1-5.141-11.109V190.654A2.153,2.153,0,0,1,295,188.566l19.989-5.043a2.153,2.153,0,0,1,1.054,0l19.977,5.053a2.153,2.153,0,0,1,1.627,2.088v25.143a14.543,14.543,0,0,1-5.141,11.109L316.9,240.158A2.151,2.151,0,0,1,315.5,240.673Zm-17.834-48.342v23.476a10.242,10.242,0,0,0,3.621,7.822l14.2,12.063,14.2-12.063a10.241,10.241,0,0,0,3.621-7.822V192.331l-17.814-4.5Z" transform="translate(-220.266 -104.151)" fill="#282828"/>
    <path id="Trazado_774021" data-name="Trazado 774021" d="M356.751,268.868a2.153,2.153,0,0,1-1.56-.668l-6.75-7.089a2.154,2.154,0,1,1,3.12-2.97l4.8,5.046,6.92-11.438a2.154,2.154,0,1,1,3.685,2.23l-8.363,13.85a2.156,2.156,0,0,1-1.61,1.027A2.183,2.183,0,0,1,356.751,268.868Z" transform="translate(-261.168 -154.645)" fill="#282828"/>
    <path id="Trazado_774022" data-name="Trazado 774022" d="M331.353,223.568a2.155,2.155,0,0,1-.5-4.251L340.6,217a2.156,2.156,0,1,1,1.012,4.191l-9.746,2.32A2.16,2.16,0,0,1,331.353,223.568Z" transform="translate(-247.17 -129.288)" fill="#fff"/>
  </g>
</svg>
