<svg xmlns="http://www.w3.org/2000/svg" width="71.987" height="59.404" viewBox="0 0 71.987 59.404">
  <g id="Grupo_1043183" data-name="Grupo 1043183" transform="translate(0 -44.74)">
    <path id="Trazado_774008" data-name="Trazado 774008" d="M11.435,104.28H47.1a2.794,2.794,0,0,1,2.794,2.794V132.84a3.71,3.71,0,0,1-3.71,3.71H12.346a3.71,3.71,0,0,1-3.706-3.71V107.074a2.794,2.794,0,0,1,2.794-2.794Z" transform="translate(-7.425 -51.169)" fill="#2d54fe"/>
    <path id="Trazado_774009" data-name="Trazado 774009" d="M38.757,130.333H4.921A4.932,4.932,0,0,1,0,125.412V99.64a4.014,4.014,0,0,1,4.01-4.01H39.674a4.014,4.014,0,0,1,4.01,4.01v25.767A4.932,4.932,0,0,1,38.757,130.333ZM4.01,98.061A1.58,1.58,0,0,0,2.431,99.64v25.767a2.5,2.5,0,0,0,2.49,2.5H38.757a2.5,2.5,0,0,0,2.5-2.5V99.64a1.58,1.58,0,0,0-1.579-1.579Z" transform="translate(0 -43.735)" fill="#282828"/>
    <path id="Trazado_774010" data-name="Trazado 774010" d="M11.435,104.28H47.1a2.794,2.794,0,0,1,2.794,2.794v6.587a5.517,5.517,0,0,1-5.517,5.517H14.158A5.517,5.517,0,0,1,8.64,113.66v-6.587a2.794,2.794,0,0,1,2.8-2.794Z" transform="translate(-7.425 -51.169)" fill="#d7e8ff"/>
    <path id="Trazado_774011" data-name="Trazado 774011" d="M36.951,112.964H6.733A6.74,6.74,0,0,1,0,106.227V99.64a4.014,4.014,0,0,1,4.01-4.01H39.674a4.014,4.014,0,0,1,4.01,4.01v6.587A6.74,6.74,0,0,1,36.951,112.964ZM4.01,98.061A1.58,1.58,0,0,0,2.431,99.64v6.587a4.306,4.306,0,0,0,4.3,4.3H36.951a4.306,4.306,0,0,0,4.3-4.3V99.64a1.58,1.58,0,0,0-1.579-1.579Z" transform="translate(0 -43.735)" fill="#282828"/>
    <path id="Trazado_774012" data-name="Trazado 774012" d="M110.843,54.326H96.335a1.215,1.215,0,0,1-1.215-1.215V49.049a4.313,4.313,0,0,1,4.309-4.309h8.32a4.313,4.313,0,0,1,4.309,4.309v4.062a1.215,1.215,0,0,1-1.216,1.215ZM97.549,51.895h12.077V49.049a1.881,1.881,0,0,0-1.878-1.883h-8.32a1.881,1.881,0,0,0-1.878,1.883Z" transform="translate(-81.747)" fill="#282828"/>
    <circle id="Elipse_8719" data-name="Elipse 8719" cx="8.833" cy="8.833" r="8.833" transform="translate(13.008 61.153)" fill="#fff"/>
    <path id="Trazado_774013" data-name="Trazado 774013" d="M93.928,172.936a10.048,10.048,0,1,1,10.048-10.048A10.048,10.048,0,0,1,93.928,172.936Zm0-17.666a7.617,7.617,0,1,0,7.617,7.617A7.617,7.617,0,0,0,93.928,155.271Z" transform="translate(-72.087 -92.902)" fill="#282828"/>
    <path id="Trazado_774014" data-name="Trazado 774014" d="M155.35,195.13v4.1h3.362" transform="translate(-133.509 -129.246)" fill="#fff"/>
    <path id="Trazado_774015" data-name="Trazado 774015" d="M151.286,193.025h-3.362a1.215,1.215,0,0,1-1.215-1.215V187.7a1.215,1.215,0,1,1,2.431,0v2.888h2.145a1.215,1.215,0,1,1,0,2.431Z" transform="translate(-126.083 -121.817)" fill="#282828"/>
    <path id="Trazado_774016" data-name="Trazado 774016" d="M38.025,245.515A1.215,1.215,0,0,1,36.81,244.3v-6.14a1.215,1.215,0,0,1,2.431,0V244.3a1.215,1.215,0,0,1-1.216,1.216Z" transform="translate(-31.635 -165.182)" fill="#fff"/>
    <path id="Trazado_774017" data-name="Trazado 774017" d="M295.074,150.548l-17.036-4.3L261,150.548v20.271a10.579,10.579,0,0,0,3.734,8.065l13.3,11.289,13.3-11.288a10.58,10.58,0,0,0,3.737-8.066Z" transform="translate(-224.305 -87.238)" fill="#ff5d31"/>
    <path id="Trazado_774018" data-name="Trazado 774018" d="M270.639,183.954a1.213,1.213,0,0,1-.786-.288l-13.3-11.288a11.775,11.775,0,0,1-4.163-9V143.12a1.215,1.215,0,0,1,.918-1.178l17.036-4.3a1.215,1.215,0,0,1,.595,0l17.036,4.3a1.215,1.215,0,0,1,.918,1.178v20.271a11.775,11.775,0,0,1-4.163,9l-13.3,11.288A1.213,1.213,0,0,1,270.639,183.954Zm-15.821-39.888v19.325a9.348,9.348,0,0,0,3.305,7.139l12.513,10.62,12.513-10.62a9.348,9.348,0,0,0,3.31-7.139V144.066l-15.82-3.991Z" transform="translate(-216.905 -79.811)" fill="#282828"/>
    <path id="Trazado_774019" data-name="Trazado 774019" d="M324.553,194.946,313.274,192.1,302,194.946v14.193a7,7,0,0,0,2.472,5.343l8.805,7.473,8.805-7.473a7,7,0,0,0,2.472-5.343Z" transform="translate(-259.541 -126.642)" fill="#ffd150"/>
    <path id="Trazado_774020" data-name="Trazado 774020" d="M305.857,215.739a1.213,1.213,0,0,1-.786-.288l-8.8-7.474a8.205,8.205,0,0,1-2.9-6.268V187.518a1.215,1.215,0,0,1,.918-1.178l11.278-2.846a1.215,1.215,0,0,1,.595,0l11.271,2.851a1.215,1.215,0,0,1,.918,1.178v14.186a8.205,8.205,0,0,1-2.9,6.268l-8.807,7.471A1.213,1.213,0,0,1,305.857,215.739ZM295.8,188.464v13.245a5.779,5.779,0,0,0,2.043,4.413l8.014,6.806,8.014-6.806a5.778,5.778,0,0,0,2.043-4.413V188.464l-10.051-2.541Z" transform="translate(-252.124 -119.214)" fill="#282828"/>
    <path id="Trazado_774021" data-name="Trazado 774021" d="M352.87,260.955a1.215,1.215,0,0,1-.88-.377l-3.809-4a1.215,1.215,0,0,1,1.76-1.676l2.706,2.847,3.9-6.453a1.215,1.215,0,1,1,2.079,1.258l-4.718,7.814a1.216,1.216,0,0,1-.908.579,1.231,1.231,0,0,1-.135.007Z" transform="translate(-298.941 -177.012)" fill="#282828"/>
    <path id="Trazado_774022" data-name="Trazado 774022" d="M330.416,220.678a1.216,1.216,0,0,1-.281-2.4l5.5-1.309a1.216,1.216,0,1,1,.571,2.365l-5.5,1.309A1.219,1.219,0,0,1,330.416,220.678Z" transform="translate(-282.919 -147.987)" fill="#fff"/>
  </g>
</svg>
