<svg id="Grupo_1043190" data-name="Grupo 1043190" xmlns="http://www.w3.org/2000/svg" xmlns:xlink="http://www.w3.org/1999/xlink" width="70.904" height="70.906" viewBox="0 0 70.904 70.906">
  <defs>
    <clipPath id="clip-path">
      <rect id="Rectángulo_372037" data-name="Rectángulo 372037" width="70.904" height="70.906" fill="none"/>
    </clipPath>
  </defs>
  <g id="Grupo_1043189" data-name="Grupo 1043189" clip-path="url(#clip-path)">
    <path id="Trazado_786641" data-name="Trazado 786641" d="M127.7,49.168v9.138c-2.9.008-5.794.009-8.691.03-.357,0-.473-.086-.465-.456.021-.919,0-1.839-.011-2.758.02-.091.02-.168-.108-.156-1.22-.014-2.441-.063-3.66-.028-.609.018-.8-.119-.8-.776.027-6.871.017-13.742.017-20.613,0-1.517,0-1.485-1.483-1.532-.623-.019-.795.141-.793.781q.034,13.557.017,27.115a8.578,8.578,0,0,1-.1,1.715l-.114.113c-2.6.008-5.2.022-7.8.022q-6.21,0-12.421-.022l-.141-.114q-.02-.474-.041-.948l.013-.172q.019-.476.039-.953l.147-.095h17.832c.079.119.121.046.162-.032l-.014-.027c.093.006.144-.025.114-.129.007-.184.019-.368.019-.552q0-27.761,0-55.521c0-.184-.012-.368-.019-.553.038-.1-.028-.131-.1-.158a.45.45,0,0,0-.024-.1c-.2-.287-.505-.145-.756-.145q-19.675-.012-39.351,0a1.3,1.3,0,0,0-.742.077c-.3.2-.149.507-.149.758q-.018,16.672-.018,33.344l-.1.142-.95.044-.173.013-.947-.041-.114-.141c-.008-.161-.022-.321-.022-.482q0-17.657,0-35.315c0-.161.014-.321.022-.482l.113-.114c.161-.008.322-.022.483-.022Q88.818.015,111.072,0c.592,0,.654.208.653.7q-.019,13.809-.009,27.618c0,1.41,0,1.368,1.38,1.428.719.032.9-.17.9-.894-.03-7.106-.01-14.213-.032-21.319,0-.582.154-.727.725-.71,1.243.037,2.489-.009,3.733-.022.124.017.13-.053.109-.145.007-.92.019-1.841.017-2.761,0-.277-.006-.47.382-.466,2.923.027,5.845.032,8.768.044v9.138l-9-.03-.116-.108q-.027-1.592-.055-3.184.039-.144-.106-.106l-1.936-.005c-.09-.019-.17-.023-.154.109-.012,2.326-.034,4.652-.03,6.977,0,.659-.3,1.558.116,1.914.44.381,1.317.114,2,.09q.152.031.111-.119l.049-3.181.121-.1,9-.038v9.277c-.25-.017-.5-.047-.75-.048-2.6,0-5.192-.013-7.788.008-.465,0-.642-.093-.621-.6.037-.894,0-1.79-.008-2.686.024-.1,0-.151-.111-.129-.46-.009-.923.014-1.379-.037-.576-.064-.781.08-.767.725.049,2.234.019,4.469.019,6.7,0,1.767,0,1.755,1.8,1.7.367-.012.474-.118.463-.476-.024-.736.031-1.477-.019-2.211-.04-.578.089-.77.727-.761,2.763.037,5.528.005,8.292,0l.14.029v9.138c-2.469,0-4.937.008-7.406-.006-.567,0-1.321.258-1.65-.116-.278-.317-.088-1.052-.089-1.6,0-1.727,0-1.705-1.715-1.716-.483,0-.557.163-.553.589.019,2.192,0,4.384.014,6.575,0,.637-.285,1.523.113,1.849.461.377,1.32.118,2.007.09.109.022.136-.028.111-.125.007-.85.06-1.7,0-2.55-.04-.615.145-.757.751-.751,2.8.024,5.607-.009,8.411-.021v9.277c-.137-.008-.275-.023-.412-.023-2.693,0-5.386-.019-8.078.014-.563.007-.69-.165-.668-.69.037-.872,0-1.748-.008-2.622.027-.1-.007-.142-.111-.122-.528-.008-1.06.016-1.584-.035-.483-.047-.554.157-.551.582.019,2.277.009,4.555.009,6.832,0,1.771,0,1.751,1.752,1.737.459,0,.52-.171.514-.562-.017-.919.01-1.839.019-2.758l.118-.111,9-.026M125.336,5.807c0-.091-.042-.11-.119-.068-1.292,0-2.584,0-3.875-.02-.343,0-.5.081-.5.459.017,1.245.011,2.491,0,3.737,0,.258.071.372.351.37,1.292-.01,2.584-.008,3.876,0,.242,0,.32-.1.314-.331-.035-1.381.067-2.764-.054-4.145m.005,50.149c.016-1.357.021-2.714.054-4.071.009-.377-.181-.4-.467-.394-1.2.009-2.4.02-3.594-.006-.412-.009-.5.145-.49.519.02,1.2.023,2.4,0,3.594-.008.377.12.46.472.455,1.29-.019,2.58-.008,3.871-.008.1.048.141,0,.157-.089m-4.49-36.511c0,.622.016,1.245-.007,1.867-.011.32.067.446.415.441q1.832-.029,3.665,0c.376.006.472-.14.469-.484-.013-1.222-.015-2.443,0-3.665,0-.331-.1-.435-.429-.43-1.221.017-2.444.021-3.665,0-.375-.007-.47.126-.456.475.024.6.007,1.2.006,1.8M123.118,44.6c.6,0,1.2-.014,1.793.005.329.01.494-.047.486-.44-.025-1.241-.02-2.483,0-3.725.005-.348-.13-.418-.443-.414-1.219.014-2.438.022-3.656,0-.39-.008-.453.148-.45.481.013,1.219.02,2.438,0,3.656-.007.383.141.46.481.448.6-.022,1.2-.006,1.793-.006m-.008-11.448c.6,0,1.2-.014,1.8.006.334.011.5-.058.491-.447-.022-1.22-.017-2.44,0-3.66,0-.322-.093-.445-.429-.441-1.22.015-2.44.012-3.66,0-.3,0-.463.063-.459.416.016,1.243.013,2.486,0,3.73,0,.3.1.407.4.4.621-.016,1.243,0,1.865,0" transform="translate(-56.793 0)" fill="#030404"/>
    <path id="Trazado_786642" data-name="Trazado 786642" d="M28.511,302.013a.9.9,0,0,0-.08,1.227c.381.683,1.04,1.423.98,2.083-.064.7-1.012,1.165-1.566,1.74-.8.829-1.637,1.621-2.435,2.452a.537.537,0,0,1-.763.129c-.584-.324-1.19-.607-1.787-.908a3.1,3.1,0,0,0-.3-.152,3.961,3.961,0,0,0-2.649,1.286c-.269.8-.53,1.6-.794,2.4H12.751a25.67,25.67,0,0,0-.814-2.745c-.049-.21-.2-.125-.309-.171-.6-.243-1.192-.487-1.775-.761a.624.624,0,0,0-.632.046c-.66.349-1.347.647-2,1a.5.5,0,0,1-.71-.085c-1.261-1.283-2.537-2.55-3.816-3.815a.508.508,0,0,1-.114-.67,3.346,3.346,0,0,1,.246-.47,3.113,3.113,0,0,0,.142-3.915c-.111-.169-.129-.284-.369-.351-.735-.205-1.441-.515-2.174-.73-.312-.092-.421-.2-.417-.535.019-1.822.023-3.645,0-5.467a.516.516,0,0,1,.425-.573,11.121,11.121,0,0,1,1.645-.534,1.127,1.127,0,0,0,1.019-.954,4.531,4.531,0,0,1,.539-1.287.622.622,0,0,0-.01-.689c-.3-.571-.533-1.183-.868-1.733-.316-.519-.252-.786.232-1.215,1.189-1.054,2.292-2.207,3.383-3.364a.751.751,0,0,1,1.063-.174c.51.279,1.045.514,1.544.81a.913.913,0,0,0,1.285-.16c.5-.04.872-.423,1.374-.464a.512.512,0,0,0,.416-.472c.119-.726.464-1.38.633-2.087.08-.335.224-.452.592-.447q2.593.039,5.187,0c.478-.007.676.109.834.613.376,1.2.521,2.65,2.217,2.853.055.007.1.1.152.136a.829.829,0,0,0,1.025.11c.61-.37,1.3-.587,1.889-1.014a.581.581,0,0,1,.874.106c1.08,1.135,2.172,2.264,3.329,3.32.588.537.832.958.264,1.653-.29.355-.395.855-.657,1.239a1.024,1.024,0,0,0,.025,1.283,4.237,4.237,0,0,1,.535,1.162.847.847,0,0,0,.626.62c.688.2,1.361.45,2.037.689a.531.531,0,0,1,.418.583c-.029,1.728-.025,3.458-.014,5.187,0,.412-.1.641-.549.753-.649.16-1.26.471-1.908.634a.737.737,0,0,0-.573.5c-.167.439-.316.884-.473,1.326m1.244-5.705a4.755,4.755,0,0,1,.007-.76c.092-.562-.145-.827-.683-.949-.518-.117-1.013-.334-1.529-.461a.6.6,0,0,1-.529-.607,3.954,3.954,0,0,0-.646-1.917c-.624-1.057-1-2.112-.074-3.207a3.483,3.483,0,0,0,.241-.484.348.348,0,0,0-.067-.49c-.622-.574-1.079-1.438-1.863-1.69-.6-.192-1.21.478-1.824.746-.041.018-.1.012-.131.037-.26.185-.46.089-.745-.026a11.673,11.673,0,0,0-2.649-1.152,1.5,1.5,0,0,1-1.392-1.412,11.234,11.234,0,0,0-.391-1.134c-.051-.186-.1-.282-.3-.279a7.593,7.593,0,0,0-2.528.107c-.489.193-.477,1.174-.713,1.794a.321.321,0,0,0-.028.063c-.057.426-.33.607-.725.7a4.9,4.9,0,0,0-1.595.539c-1.286.848-2.562,1.138-3.882.086-.32-.255-.576-.139-.832.134A16.67,16.67,0,0,1,5.6,287.213c-.333.285-.314.517-.106.862.279.463.494.965.744,1.447a.72.72,0,0,1-.049.878,5.91,5.91,0,0,0-1.124,2.59c-.161.955-.71,1.2-1.439,1.408a2.672,2.672,0,0,1-.4.065c-.741.092-1.019.489-.917,1.239a9.332,9.332,0,0,1,.009,1.521c-.011.362.058.586.487.676.525.111,1.018.368,1.538.511a.727.727,0,0,1,.579.638,8.25,8.25,0,0,0,1.1,2.759,1.3,1.3,0,0,1-.007,1.671,1.658,1.658,0,0,0,.212,2.5c1.046,1.015.958,1.105,2.283.452.288-.142.58-.278.861-.433a.565.565,0,0,1,.646,0,8.46,8.46,0,0,0,2.841,1.25,1.413,1.413,0,0,1,1.175,1.151c.446,1.576.49,1.581,2.155,1.558,1.569-.022,1.2.318,1.68-1.254.259-.856.607-1.45,1.566-1.565a2.687,2.687,0,0,0,1.017-.38c1.115-.656,2.245-1.168,3.441-.153.519.44.924.274,1.334-.207.447-.525,1.234-.931,1.368-1.506s-.5-1.243-.823-1.856a.817.817,0,0,1,.043-.951,5.606,5.606,0,0,0,1.053-2.358,1.834,1.834,0,0,1,1.553-1.585c1.356-.373,1.342-.424,1.342-1.832" transform="translate(0 -241.363)" fill="#030404"/>
    <path id="Trazado_786643" data-name="Trazado 786643" d="M509.9,188.782l.14-.11v.139l-.14-.029" transform="translate(-439.132 -162.488)" fill="#d9d7d7"/>
    <path id="Trazado_786644" data-name="Trazado 786644" d="M92.147,75c.157-.442.307-.887.473-1.326a.737.737,0,0,1,.573-.5c.648-.163,1.259-.474,1.908-.634.454-.112.552-.341.549-.753-.011-1.729-.015-3.458.014-5.187a.531.531,0,0,0-.418-.583c-.676-.239-1.349-.49-2.037-.689a.847.847,0,0,1-.626-.62,4.236,4.236,0,0,0-.535-1.162,1.023,1.023,0,0,1-.025-1.283c.262-.384.367-.884.657-1.239.568-.7.324-1.117-.264-1.653-1.157-1.055-2.249-2.184-3.329-3.32a.581.581,0,0,0-.874-.106c-.586.427-1.279.643-1.889,1.014a.829.829,0,0,1-1.025-.11c-.056-.04-.1-.13-.152-.136-1.7-.2-1.841-1.65-2.217-2.853-.157-.5-.355-.62-.833-.613q-2.593.037-5.187,0c-.368-.005-.512.112-.592.447-.169.707-.513,1.361-.633,2.087a.512.512,0,0,1-.416.471c-.5.041-.878.424-1.374.464q0-2.822,0-5.645l.155-.119.95-.044c.1,0,.147-.038.1-.142q.005-16.672.018-33.344c0-.251-.146-.556.149-.758.274.019.547.056.821.056q14.691,0,29.382,0,5.323,0,10.646.014a.45.45,0,0,1,.024.1l.1.158c.007.184.019.368.019.553q0,27.761,0,55.521c0,.184-.012.368-.019.552l-.114.129.014.027-.162.032H98.141c-.1-.047-.147-.013-.147.095q-.02.476-.039.953l-.119.154L92.147,75m21.81-3.6-.047.014c.013-.252.037-.5.038-.756q.009-5.152.012-10.3c.119-.085.045-.124-.038-.162l-.025.014c0-.087-.025-.144-.128-.1H102.7c-.094-.034-.145-.011-.13.1q0,5.607,0,11.214c-.022.108.032.13.124.112h11.081l.058.021.061-.011c.109,0,.162-.035.066-.137m.008-13.707-.049.011c.011-.252.032-.5.032-.757q.008-5.15.011-10.3c.119-.082.046-.123-.034-.163l-.024.013c0-.094-.028-.146-.133-.114H102.7c-.1-.025-.154,0-.135.111q0,5.606,0,11.212c-.018.111.035.14.134.114h11.071l.062.025.065-.015c.1-.006.144-.043.069-.138M84.3,53.259l.064.015.061-.025h15.64c.1.027.151,0,.136-.111l0-2.074c.015-.109-.036-.137-.133-.108q-7.657-.009-15.314-.026c-.378,0-.539.084-.516.492.032.573.01,1.149.01,1.724-.1.092-.03.107.053.114M77.5,41.814c-.1-.026-.135.014-.116.112q0,1.035,0,2.07c-.016.092.015.133.112.1l2.057,0c.09.012.124-.025.1-.113l0-2.041c.032-.1-.006-.132-.1-.123l-2.06,0M100.192,44q0-1.037.006-2.074c.017-.113-.038-.139-.136-.114-1.73-.006-3.46-.018-5.19-.016q-6.4.006-12.8.022c-.1-.026-.134.013-.114.11V44c-.019.1.012.14.114.105h17.993c.1.032.144,0,.131-.1M77.381,48.565c-.019.1.014.141.117.11,1.522.006,3.045.018,4.567.017q9-.005,18-.017c.1.029.148,0,.134-.108q0-1.037,0-2.074c.016-.111-.037-.138-.135-.112-.369-.006-.738-.017-1.106-.017L77.5,46.382c-.1-.03-.139.012-.119.113q0,1.036,0,2.071M86.62,26.411c-.326.134-.44.574-.909.627a7.253,7.253,0,0,1,2.851-4.208,8.1,8.1,0,0,1,11.46,2.03,7.656,7.656,0,0,1,.185,8.337A7.527,7.527,0,0,1,93.476,37.2c-3.574.066-7.151.013-10.726.017-1.752,0-3.5.017-5.257.027-.091-.022-.125.013-.105.1q0,1.038,0,2.076c-.016.094.013.137.113.1.253.007.506.02.759.02q12.026,0,24.052,0c2.534,0,5.068.011,7.6.017l-.03.138-2.387,2.557a10.063,10.063,0,0,1,.924.9c.4.484.674.512,1.137.026,1.367-1.436,2.793-2.816,4.2-4.218.635-.635.642-.642,0-1.287-1.4-1.406-2.825-2.785-4.194-4.219-.464-.486-.761-.454-1.14.035a3.582,3.582,0,0,1-.635.634c-.4.307-.432.539-.021.9.748.654,1.443,1.371,2.292,2.189-3.3,0-6.364,0-9.427-.005-.138,0-.335.1-.411-.121-.062-.183.059-.3.174-.415a9.866,9.866,0,0,0,2.924-9.98A8.966,8.966,0,0,0,101,22.432c-.145-.147-.377-.393-.164-.5.68-.334,1.1-1,1.786-1.309a4.938,4.938,0,0,1,5.327.672.432.432,0,0,0,.286.419c.4.683,1.116,1.24.928,2.215a.973.973,0,0,1-.225-.084c-.411-.317-.7-1.054-1.158-.958s-.8.711-1.2,1.1a.491.491,0,0,1-.05.048c-.261.191-.268.354-.02.6q1.829,1.791,3.621,3.621c.265.272.4.244.651-.012.882-.912,1.792-1.8,2.684-2.7.386-.39,1.044-.787,1.058-1.2.017-.488-.726-.811-1.088-1.252-.243-.3-.42-.319-.7-.019a4.441,4.441,0,0,1-1.121,1.019,6.6,6.6,0,0,0-1.625-3.876,7.034,7.034,0,0,0-6.723-2.237A5.424,5.424,0,0,0,99.7,20.144c-.437.616-.759.6-1.235.267a9.514,9.514,0,0,0-5.241-1.465,8.942,8.942,0,0,0-3.021.534,9.783,9.783,0,0,0-6.218,5.566c-.379.822-.569,1.7-.907,2.644a3.185,3.185,0,0,0-.275-.353c-.415-.381-.781-1.121-1.242-1.061s-.813.753-1.247,1.13c-.3.261-.273.414,0,.685,1.25,1.228,2.474,2.481,3.708,3.725.086.209.178.185.273.006l4.038-4.206L86.9,26.259c-.218-.149-.218-.149-.279.151" transform="translate(-63.637 -14.354)" fill="#dfe4e9"/>
    <path id="Trazado_786645" data-name="Trazado 786645" d="M461.528,126.009c0-.6.017-1.2-.007-1.8-.014-.35.081-.482.456-.475,1.221.022,2.443.019,3.665,0,.333,0,.434.1.429.43-.017,1.221-.014,2.443,0,3.665,0,.344-.093.491-.469.484q-1.832-.031-3.665,0c-.348.006-.427-.121-.415-.441.022-.622.007-1.244.007-1.867" transform="translate(-397.469 -106.564)" fill="#f6c29f"/>
    <path id="Trazado_786646" data-name="Trazado 786646" d="M465.849,375.542c-1.29,0-2.581-.011-3.871.008-.352.005-.479-.078-.472-.455.024-1.2.022-2.4,0-3.594-.006-.374.077-.528.49-.519,1.2.026,2.4.014,3.594.005.287,0,.477.018.467.394-.033,1.357-.038,2.714-.054,4.071l-.157.089" transform="translate(-397.458 -319.496)" fill="#f6c29f"/>
    <path id="Trazado_786647" data-name="Trazado 786647" d="M463.79,292.958c-.6,0-1.2-.016-1.793.006-.34.013-.489-.064-.481-.448.023-1.218.017-2.437,0-3.656,0-.333.059-.489.45-.481,1.218.026,2.437.018,3.656,0,.313,0,.448.067.443.414-.018,1.242-.022,2.484,0,3.725.008.393-.157.451-.486.44-.6-.019-1.2-.005-1.793-.005" transform="translate(-397.465 -248.358)" fill="#f6c29f"/>
    <path id="Trazado_786648" data-name="Trazado 786648" d="M466.023,41.292c.121,1.38.018,2.763.054,4.145.006.229-.072.332-.314.331-1.292-.006-2.584-.009-3.876,0-.279,0-.352-.112-.351-.37.008-1.246.014-2.492,0-3.737-.005-.378.153-.464.5-.459,1.292.019,2.583.015,3.875.02l.12.068" transform="translate(-397.48 -35.484)" fill="#f6c29f"/>
    <path id="Trazado_786649" data-name="Trazado 786649" d="M463.8,210.69c-.622,0-1.243-.011-1.865,0-.3.008-.4-.1-.4-.4.011-1.243.014-2.487,0-3.73,0-.353.154-.418.459-.416,1.22.011,2.44.014,3.66,0,.336,0,.432.119.429.441-.014,1.22-.02,2.441,0,3.66.007.389-.156.458-.491.447-.6-.02-1.2-.006-1.8-.006" transform="translate(-397.484 -177.539)" fill="#f6c29f"/>
    <path id="Trazado_786650" data-name="Trazado 786650" d="M124.606,16.071q-5.323-.007-10.646-.014-14.691,0-29.382,0c-.274,0-.547-.036-.821-.056a1.3,1.3,0,0,1,.742-.077q19.675-.006,39.351,0c.251,0,.552-.142.756.145" transform="translate(-72.133 -13.686)" fill="#676363"/>
    <path id="Trazado_786651" data-name="Trazado 786651" d="M444.048,130.92l.111-.119q.041.15-.111.119" transform="translate(-382.422 -112.648)" fill="#d9d7d7"/>
    <path id="Trazado_786652" data-name="Trazado 786652" d="M445.185,107.158c-.015-.1.021-.139.121-.1l-.121.1" transform="translate(-383.399 -92.186)" fill="#2d2d2e"/>
    <path id="Trazado_786653" data-name="Trazado 786653" d="M445.291,90.018c-.094.023-.137-.007-.116-.108l.116.108" transform="translate(-383.388 -77.432)" fill="#090a0a"/>
    <path id="Trazado_786654" data-name="Trazado 786654" d="M66.187,262.651c-.123.022-.13-.051-.114-.141l.114.141" transform="translate(-56.898 -226.078)" fill="#090a0a"/>
    <path id="Trazado_786655" data-name="Trazado 786655" d="M81.948,262.392c.049.1,0,.138-.1.142l.1-.142" transform="translate(-70.492 -225.977)" fill="#4d4f51"/>
    <path id="Trazado_786656" data-name="Trazado 786656" d="M73.868,263.726l-.155.119a.087.087,0,0,1-.019-.106l.173-.013" transform="translate(-63.459 -227.126)" fill="#828486"/>
    <path id="Trazado_786657" data-name="Trazado 786657" d="M444.051,295.544l.111-.125c.025.1,0,.147-.111.125" transform="translate(-382.425 -254.42)" fill="#d9d7d7"/>
    <path id="Trazado_786658" data-name="Trazado 786658" d="M444.164,313.6l-.111-.122c.1-.02.138.023.111.122" transform="translate(-382.427 -269.973)" fill="#d9d7d7"/>
    <path id="Trazado_786659" data-name="Trazado 786659" d="M444.158,66.258l-.106-.106q.144-.038.106.106" transform="translate(-382.426 -56.965)" fill="#d9d7d7"/>
    <path id="Trazado_786660" data-name="Trazado 786660" d="M429.136,66.1l-.154.108c-.016-.131.064-.127.154-.108" transform="translate(-369.446 -56.921)" fill="#d9d7d7"/>
    <path id="Trazado_786661" data-name="Trazado 786661" d="M445.16,354.547c-.022-.1.023-.133.118-.111l-.118.111" transform="translate(-383.375 -305.241)" fill="#090a0a"/>
    <path id="Trazado_786662" data-name="Trazado 786662" d="M66.071.359c-.023-.1.016-.135.113-.114l-.113.114" transform="translate(-56.896 -0.206)" fill="#090a0a"/>
    <path id="Trazado_786663" data-name="Trazado 786663" d="M378.368,18.1l-.1-.158c.073.027.139.06.1.158" transform="translate(-325.771 -15.453)" fill="#babfc3"/>
    <path id="Trazado_786664" data-name="Trazado 786664" d="M444.165,148.943l-.11-.129c.112-.022.135.034.11.129" transform="translate(-382.428 -128.157)" fill="#d9d7d7"/>
    <path id="Trazado_786665" data-name="Trazado 786665" d="M444.18,396.222l-.108-.156c.128-.012.128.065.108.156" transform="translate(-382.443 -341.098)" fill="#d9d7d7"/>
    <path id="Trazado_786666" data-name="Trazado 786666" d="M492.8,403.287l.157-.089c-.016.093-.061.137-.157.089" transform="translate(-424.406 -347.242)" fill="#676363"/>
    <path id="Trazado_786667" data-name="Trazado 786667" d="M378.175,427.236l.114-.129c.03.1-.021.134-.114.129" transform="translate(-325.691 -367.832)" fill="#babfc3"/>
    <path id="Trazado_786668" data-name="Trazado 786668" d="M247.565,428.425c0-.108.047-.142.147-.1l-.147.1" transform="translate(-213.208 -368.868)" fill="#4d4f51"/>
    <path id="Trazado_786669" data-name="Trazado 786669" d="M377.109,428.263l.162-.031c-.041.078-.083.15-.162.031" transform="translate(-324.773 -368.801)" fill="#4d4f51"/>
    <path id="Trazado_786670" data-name="Trazado 786670" d="M246.428,436.161l.119-.154-.013.172-.056.01-.05-.027" transform="translate(-212.228 -375.497)" fill="#828486"/>
    <path id="Trazado_786671" data-name="Trazado 786671" d="M247.6,444.19c-.09.015-.163.009-.141-.114l.141.114" transform="translate(-213.115 -382.446)" fill="#090a0a"/>
    <path id="Trazado_786672" data-name="Trazado 786672" d="M394.3,444.085c.021.1-.016.136-.114.113l.114-.113" transform="translate(-339.478 -382.454)" fill="#090a0a"/>
    <path id="Trazado_786673" data-name="Trazado 786673" d="M444.063,48.141l.109-.145c.021.092.014.162-.109.145" transform="translate(-382.435 -41.335)" fill="#d9d7d7"/>
    <path id="Trazado_786674" data-name="Trazado 786674" d="M493.147,41.288l-.12-.068c.077-.042.119-.022.12.068" transform="translate(-424.604 -35.481)" fill="#828486"/>
    <path id="Trazado_786675" data-name="Trazado 786675" d="M43.918,310.037c0,1.409.014,1.459-1.342,1.832a1.833,1.833,0,0,0-1.553,1.585,5.6,5.6,0,0,1-1.053,2.358.817.817,0,0,0-.043.951c.322.613.96,1.267.823,1.856s-.92.981-1.368,1.506c-.41.481-.814.647-1.334.207-1.2-1.014-2.327-.5-3.441.153a2.689,2.689,0,0,1-1.017.38c-.959.115-1.307.709-1.566,1.565-.475,1.571-.111,1.232-1.68,1.254-1.665.023-1.709.018-2.155-1.558a1.413,1.413,0,0,0-1.176-1.151,8.458,8.458,0,0,1-2.841-1.25.565.565,0,0,0-.646,0c-.282.154-.573.291-.861.433-1.325.654-1.238.563-2.283-.452a1.658,1.658,0,0,1-.212-2.5,1.3,1.3,0,0,0,.007-1.671,8.25,8.25,0,0,1-1.1-2.759.727.727,0,0,0-.579-.638c-.521-.143-1.013-.4-1.538-.511-.429-.091-.5-.314-.487-.676a9.332,9.332,0,0,0-.009-1.521c-.1-.75.176-1.147.917-1.239a2.672,2.672,0,0,0,.4-.065c.73-.208,1.279-.453,1.439-1.408a5.91,5.91,0,0,1,1.124-2.59.72.72,0,0,0,.049-.878c-.25-.482-.465-.984-.744-1.447-.208-.345-.227-.577.106-.862a16.67,16.67,0,0,0,1.278-1.264c.256-.272.512-.389.832-.134,1.32,1.052,2.6.762,3.882-.085a4.9,4.9,0,0,1,1.595-.539c.4-.1.668-.276.725-.7a.322.322,0,0,1,.028-.063c.236-.62.224-1.6.713-1.794a7.589,7.589,0,0,1,2.528-.107c.2,0,.251.092.3.279a11.22,11.22,0,0,1,.391,1.134,1.5,1.5,0,0,0,1.392,1.412,11.672,11.672,0,0,1,2.649,1.152c.285.115.485.211.745.026.035-.025.089-.019.131-.037.614-.268,1.225-.938,1.824-.746.783.251,1.24,1.115,1.863,1.689a.348.348,0,0,1,.067.49,3.473,3.473,0,0,1-.241.484c-.924,1.1-.55,2.15.074,3.207a3.953,3.953,0,0,1,.646,1.917.6.6,0,0,0,.529.607c.517.127,1.012.344,1.53.461.538.122.775.387.683.949a4.754,4.754,0,0,0-.007.76m-13.6-9.106a8.386,8.386,0,0,0-7.454,3.6,8.535,8.535,0,0,0-1.557,7.5,10.323,10.323,0,0,0,2.066,4.106,9.82,9.82,0,0,0,2.953,2.189c1.074.614,2.306.487,3.414.891a.215.215,0,0,0,.069,0,9.58,9.58,0,0,0,4.984-1.34,8.833,8.833,0,0,0,4.035-5.186,9.272,9.272,0,0,0,.189-4.971,8.85,8.85,0,0,0-8.7-6.784" transform="translate(-14.164 -255.092)" fill="#ffb000"/>
    <path id="Trazado_786676" data-name="Trazado 786676" d="M99.174,44.545c1.752-.009,3.5-.024,5.257-.027,3.575,0,7.152.049,10.726-.017a7.527,7.527,0,0,0,6.733-4.007,7.656,7.656,0,0,0-.185-8.337,8.1,8.1,0,0,0-11.46-2.03,7.254,7.254,0,0,0-2.851,4.208c.468-.053.583-.492.909-.627l.279-.151,1.435,1.355-4.038,4.206-.273-.006c-1.233-1.244-2.458-2.5-3.708-3.725-.275-.27-.3-.424,0-.685.434-.377.791-1.071,1.247-1.13s.827.68,1.242,1.061a3.184,3.184,0,0,1,.275.353c.338-.945.528-1.822.907-2.644a9.783,9.783,0,0,1,6.218-5.566,8.943,8.943,0,0,1,3.021-.534,9.514,9.514,0,0,1,5.241,1.465c.476.332.8.349,1.235-.267a5.424,5.424,0,0,1,3.567-2.165,7.034,7.034,0,0,1,6.723,2.237,6.6,6.6,0,0,1,1.625,3.876,4.441,4.441,0,0,0,1.121-1.019c.281-.3.457-.277.7.019.362.441,1.1.764,1.088,1.252-.014.412-.672.808-1.059,1.2-.893.9-1.8,1.786-2.684,2.7-.247.256-.387.284-.651.012q-1.788-1.833-3.621-3.621c-.249-.243-.241-.406.02-.6a.491.491,0,0,0,.05-.048c.395-.387.742-1,1.2-1.1s.747.641,1.158.958a.973.973,0,0,0,.225.084c.187-.975-.526-1.532-.928-2.215.006-.209,0-.412-.286-.419a4.939,4.939,0,0,0-5.327-.672c-.687.308-1.106.976-1.786,1.309-.213.1.018.351.164.5A8.967,8.967,0,0,1,124.993,34a9.867,9.867,0,0,1-2.924,9.98c-.115.114-.236.232-.174.415.076.224.273.121.411.121,3.063.007,6.126.005,9.427.005-.849-.818-1.544-1.535-2.292-2.189-.412-.36-.378-.592.021-.9a3.581,3.581,0,0,0,.635-.634c.379-.489.676-.521,1.14-.035,1.369,1.434,2.8,2.812,4.194,4.219.642.646.636.653,0,1.287-1.4,1.4-2.828,2.782-4.2,4.218-.463.487-.739.458-1.137-.026a10.082,10.082,0,0,0-.924-.9L131.562,47c.11-.024.16-.061.03-.138-2.534-.006-5.068-.016-7.6-.017q-12.026,0-24.052,0c-.253,0-.506-.013-.759-.02l-.113-.1q0-1.038,0-2.076l.105-.1m8.316-10.082c-.036-.044-.068-.1-.081-.1a.98.98,0,0,0-.165.082c.028.028.059.081.084.078a.615.615,0,0,0,.162-.064" transform="translate(-85.318 -21.652)" fill="#030404"/>
    <path id="Trazado_786677" data-name="Trazado 786677" d="M280.622,230.78h11.071l.133.114.024-.013.034.163q0,5.15-.011,10.3c0,.252-.021.5-.032.757l-.148.117H280.621l-.134-.115q0-5.606,0-11.212l.135-.111m2.1,5.672c0,.967.017,1.934-.008,2.9-.011.4.081.568.528.563,1.957-.023,3.914-.019,5.871,0,.39,0,.519-.108.505-.5-.07-1.971.108-3.946-.123-5.916-.041-.349-.155-.406-.456-.4-1.957.009-3.914.013-5.871,0-.365,0-.465.1-.455.466.026.966.009,1.934.009,2.9" transform="translate(-241.561 -198.752)" fill="#030404"/>
    <path id="Trazado_786678" data-name="Trazado 786678" d="M291.916,329.9q0,5.152-.012,10.3c0,.252-.025.5-.038.756l-.137.113H280.649l-.124-.112q0-5.607,0-11.214l.13-.1h11.07l.128.1.025-.014.038.162m-2.565,8.9c.292-.017.294-.218.294-.439,0-1.984-.011-3.967.006-5.951,0-.379-.135-.46-.481-.457-1.961.013-3.921.018-5.882,0-.425,0-.546.121-.543.545.013,1.914-.011,3.828-.012,5.742,0,.191-.1.426.153.555.2.161.44.091.661.092,1.371.006,2.742.017,4.112,0a5.337,5.337,0,0,0,1.692-.08" transform="translate(-241.593 -283.897)" fill="#030404"/>
    <path id="Trazado_786679" data-name="Trazado 786679" d="M121.706,232.967q-9,.009-18,.017c-1.522,0-3.045-.011-4.567-.017l-.117-.11q0-1.035,0-2.071l.119-.113,21.456-.017c.369,0,.738.011,1.106.017l.135.112,0,2.074-.134.108" transform="translate(-85.282 -198.646)" fill="#030404"/>
    <path id="Trazado_786680" data-name="Trazado 786680" d="M150.224,197.849q0,1.037-.006,2.074l-.131.1H132.093l-.114-.105q0-1.035,0-2.07l.114-.11q6.4-.012,12.8-.022c1.73,0,3.46.01,5.19.016l.136.114" transform="translate(-113.663 -170.278)" fill="#030404"/>
    <path id="Trazado_786681" data-name="Trazado 786681" d="M164.348,263.676l0,2.074-.136.111h-15.64l-.119-.119-.036-.016-.024.032c0-.575.022-1.151-.01-1.724-.023-.408.137-.493.516-.492q7.657.026,15.314.026l.133.108" transform="translate(-127.791 -226.967)" fill="#030404"/>
    <path id="Trazado_786682" data-name="Trazado 786682" d="M101.321,197.992q0,1.02,0,2.041c-.08,0-.106.041-.1.113l-2.057,0-.112-.1q0-1.035,0-2.07l.116-.111,2.06,0,.1.123" transform="translate(-85.299 -170.406)" fill="#030404"/>
    <path id="Trazado_786683" data-name="Trazado 786683" d="M319.262,50.027c.29.007.292.21.286.419a.431.431,0,0,1-.286-.419" transform="translate(-274.954 -43.084)" fill="#090a0a"/>
    <path id="Trazado_786684" data-name="Trazado 786684" d="M146.89,125.816l.273.006c-.095.179-.186.2-.273-.006" transform="translate(-126.504 -108.355)" fill="#090a0a"/>
    <path id="Trazado_786685" data-name="Trazado 786685" d="M165.887,85.176l-.279.151c.06-.3.06-.3.279-.151" transform="translate(-142.625 -73.27)" fill="#090a0a"/>
    <path id="Trazado_786686" data-name="Trazado 786686" d="M262.452,213.7l.131-.1c.012.106-.035.136-.131.1" transform="translate(-226.029 -183.957)" fill="#2d2d2e"/>
    <path id="Trazado_786687" data-name="Trazado 786687" d="M262.595,230.833l-.135-.112c.1-.027.151,0,.135.112" transform="translate(-226.035 -198.693)" fill="#2d2d2e"/>
    <path id="Trazado_786688" data-name="Trazado 786688" d="M280.6,230.721l-.135.111c-.02-.115.038-.137.135-.111" transform="translate(-241.537 -198.693)" fill="#2d2d2e"/>
    <path id="Trazado_786689" data-name="Trazado 786689" d="M361.364,230.836l-.133-.114c.1-.032.136.021.133.114" transform="translate(-311.099 -198.694)" fill="#2d2d2e"/>
    <path id="Trazado_786690" data-name="Trazado 786690" d="M131.947,213.589l.114.105c-.1.035-.133-.008-.114-.105" transform="translate(-113.63 -183.947)" fill="#2d2d2e"/>
    <path id="Trazado_786691" data-name="Trazado 786691" d="M362.4,231.669l-.034-.163c.08.04.153.082.034.163" transform="translate(-312.072 -199.377)" fill="#828486"/>
    <path id="Trazado_786692" data-name="Trazado 786692" d="M114.7,213.589c-.007-.072.019-.117.1-.113.025.089-.009.125-.1.113" transform="translate(-98.777 -183.849)" fill="#4d4f51"/>
    <path id="Trazado_786693" data-name="Trazado 786693" d="M262.453,246.634l.134-.108c.014.109-.036.137-.134.108" transform="translate(-226.029 -212.313)" fill="#2d2d2e"/>
    <path id="Trazado_786694" data-name="Trazado 786694" d="M99.054,213.587l.112.1c-.1.032-.127-.008-.112-.1" transform="translate(-85.304 -183.945)" fill="#2d2d2e"/>
    <path id="Trazado_786695" data-name="Trazado 786695" d="M262.6,197.9l-.136-.114c.1-.025.154,0,.136.114" transform="translate(-226.036 -170.326)" fill="#2d2d2e"/>
    <path id="Trazado_786696" data-name="Trazado 786696" d="M132.065,197.828l-.114.11c-.02-.1.016-.136.114-.11" transform="translate(-113.634 -170.366)" fill="#2d2d2e"/>
    <path id="Trazado_786697" data-name="Trazado 786697" d="M262.592,263.772l-.133-.108c.1-.029.148,0,.133.108" transform="translate(-226.035 -227.063)" fill="#2d2d2e"/>
    <path id="Trazado_786698" data-name="Trazado 786698" d="M148.225,279.424c-.084-.007-.152-.022-.053-.114l.024-.032.036.017a.239.239,0,0,0-.006.13" transform="translate(-127.566 -240.519)" fill="#828486"/>
    <path id="Trazado_786699" data-name="Trazado 786699" d="M148.82,279.527a.239.239,0,0,1,.006-.13l.119.119-.061.025Z" transform="translate(-128.162 -240.622)" fill="#2d2d2e"/>
    <path id="Trazado_786700" data-name="Trazado 786700" d="M262.454,279.561l.135-.111c.016.111-.038.138-.135.111" transform="translate(-226.03 -240.668)" fill="#2d2d2e"/>
    <path id="Trazado_786701" data-name="Trazado 786701" d="M114.828,198l-.1-.123c.095-.009.133.028.1.123" transform="translate(-98.805 -170.413)" fill="#4d4f51"/>
    <path id="Trazado_786702" data-name="Trazado 786702" d="M280.469,312.373l.134.115c-.1.025-.152,0-.134-.115" transform="translate(-241.542 -269.021)" fill="#2d2d2e"/>
    <path id="Trazado_786703" data-name="Trazado 786703" d="M361.228,312.4l.148-.117.049-.011-.069.138-.065.015Z" transform="translate(-311.096 -268.937)" fill="#2d2d2e"/>
    <path id="Trazado_786704" data-name="Trazado 786704" d="M362.143,312.413l.07-.138c.074.095.033.132-.07.138" transform="translate(-311.884 -268.937)" fill="#828486"/>
    <path id="Trazado_786705" data-name="Trazado 786705" d="M280.641,329.558l-.13.1c-.015-.109.036-.133.13-.1" transform="translate(-241.579 -283.809)" fill="#2d2d2e"/>
    <path id="Trazado_786706" data-name="Trazado 786706" d="M361.356,329.665l-.128-.1c.1-.041.128.016.128.1" transform="translate(-311.096 -283.814)" fill="#2d2d2e"/>
    <path id="Trazado_786707" data-name="Trazado 786707" d="M362.371,330.45l-.038-.162c.083.037.157.077.038.162" transform="translate(-312.048 -284.45)" fill="#828486"/>
    <path id="Trazado_786708" data-name="Trazado 786708" d="M99.13,197.817l-.116.111c-.019-.1.017-.138.116-.111" transform="translate(-85.268 -170.357)" fill="#2d2d2e"/>
    <path id="Trazado_786709" data-name="Trazado 786709" d="M99,246.514l.117.11c-.1.031-.136-.011-.117-.11" transform="translate(-85.26 -212.302)" fill="#2d2d2e"/>
    <path id="Trazado_786710" data-name="Trazado 786710" d="M333.244,181.649c.13.077.08.114-.03.138l.03-.138" transform="translate(-286.97 -156.44)" fill="#2d2d2e"/>
    <path id="Trazado_786711" data-name="Trazado 786711" d="M99.042,180.664l.113.1c-.1.039-.129,0-.113-.1" transform="translate(-85.294 -155.591)" fill="#2d2d2e"/>
    <path id="Trazado_786712" data-name="Trazado 786712" d="M99.154,164.919l-.105.1c-.02-.091.014-.126.105-.1" transform="translate(-85.298 -142.026)" fill="#090a0a"/>
    <path id="Trazado_786713" data-name="Trazado 786713" d="M280.494,411.159l.124.112c-.092.019-.146,0-.124-.112" transform="translate(-241.562 -354.098)" fill="#090a0a"/>
    <path id="Trazado_786714" data-name="Trazado 786714" d="M361.262,411.173l.137-.114.047-.014-.066.137-.061.011-.058-.021" transform="translate(-311.125 -354)" fill="#090a0a"/>
    <path id="Trazado_786715" data-name="Trazado 786715" d="M362.115,411.182l.066-.137c.1.1.044.133-.066.137" transform="translate(-311.86 -354)" fill="#828486"/>
    <path id="Trazado_786716" data-name="Trazado 786716" d="M99.112,230.722l-.119.113c-.02-.1.016-.142.119-.113" transform="translate(-85.25 -198.694)" fill="#2d2d2e"/>
    <path id="Trazado_786717" data-name="Trazado 786717" d="M58.747,330.254a8.85,8.85,0,0,1,8.7,6.784,9.271,9.271,0,0,1-.189,4.971,8.833,8.833,0,0,1-4.035,5.186,9.58,9.58,0,0,1-4.984,1.34.215.215,0,0,1-.069,0c-1.108-.4-2.34-.277-3.414-.891a9.82,9.82,0,0,1-2.953-2.189,10.324,10.324,0,0,1-2.066-4.106,8.535,8.535,0,0,1,1.557-7.5,8.387,8.387,0,0,1,7.454-3.6m-.4,15.927a6.849,6.849,0,1,0-.068-13.688c-3.916,0-6.676,3.232-6.586,7.953a5.557,5.557,0,0,0,2.047,3.748c1.3,1.15,2.74,2.167,4.607,1.987" transform="translate(-42.59 -284.415)" fill="#030404"/>
    <path id="Trazado_786718" data-name="Trazado 786718" d="M158.236,91.709a.615.615,0,0,1-.162.064c-.025,0-.056-.05-.084-.078a.98.98,0,0,1,.165-.082c.013,0,.046.053.081.1" transform="translate(-136.064 -78.898)" fill="#d9d7d7"/>
    <path id="Trazado_786719" data-name="Trazado 786719" d="M296.531,250.756c0-.967.017-1.934-.009-2.9-.01-.362.09-.469.455-.466,1.957.016,3.914.012,5.871,0,.3,0,.415.056.456.4.231,1.97.054,3.945.124,5.916.014.4-.116.508-.505.5-1.957-.017-3.914-.021-5.871,0-.447.005-.538-.158-.528-.563.025-.966.008-1.934.008-2.9m5.23-.171c.011-.3-.2-.4-.341-.541-.368-.378-.726-1-1.135-1.039-.432-.042-.794.618-1.141,1.008-.363.407-1.142.709-1,1.233.134.5.786.861,1.2,1.29.226.233.4.128.582-.055.552-.556,1.107-1.107,1.658-1.663a1.876,1.876,0,0,0,.176-.232" transform="translate(-255.37 -213.056)" fill="#ee5e56"/>
    <path id="Trazado_786720" data-name="Trazado 786720" d="M296.473,353.045c-.249-.129-.153-.364-.153-.555,0-1.914.026-3.828.012-5.742,0-.424.119-.549.543-.545,1.96.021,3.921.016,5.882,0,.346,0,.484.079.481.457-.017,1.983-.009,3.967-.006,5.951,0,.221,0,.422-.294.439-2.155-.07-4.31-.055-6.466-.008m5.318-3.78a6.807,6.807,0,0,1-.623-.488c-1.1-1.084-1.092-1.087-2.2.02-.373.373-1,.718-1.047,1.128s.647.746.991,1.137a1.649,1.649,0,0,1,.137.155c.172.253.3.291.6.076.767-.565,1.338-1.32,2.146-2.028" transform="translate(-255.181 -298.157)" fill="#ee5e56"/>
    <path id="Trazado_786721" data-name="Trazado 786721" d="M297.535,395.256c2.155-.047,4.311-.062,6.466.008a5.343,5.343,0,0,1-1.693.08c-1.37.02-2.741.01-4.112,0-.222,0-.459.069-.661-.092" transform="translate(-256.243 -340.367)" fill="#2d2d2e"/>
    <path id="Trazado_786722" data-name="Trazado 786722" d="M72.259,360.121c-1.866.18-3.306-.837-4.607-1.987a5.558,5.558,0,0,1-2.047-3.748c-.091-4.721,2.67-7.957,6.586-7.953a6.849,6.849,0,1,1,.068,13.688m-3.288-9.832c-.111.067-.224.133-.242.28a5.137,5.137,0,0,0-.74,3.545,4.649,4.649,0,0,0,5.142,3.668,4.375,4.375,0,0,0,3.844-3.743,4.25,4.25,0,0,0-2.767-4.977,4.558,4.558,0,0,0-5.238,1.227" transform="translate(-56.499 -298.355)" fill="#ffc845"/>
    <path id="Trazado_786723" data-name="Trazado 786723" d="M311.715,260.6a1.881,1.881,0,0,1-.176.232c-.551.557-1.107,1.108-1.658,1.663-.182.183-.356.288-.582.055-.417-.429-1.069-.789-1.2-1.29-.14-.523.638-.826,1-1.233.348-.389.709-1.049,1.141-1.008.409.04.768.661,1.135,1.039.137.141.352.24.341.541" transform="translate(-265.324 -223.069)" fill="#090a0a"/>
    <path id="Trazado_786724" data-name="Trazado 786724" d="M311.828,360.2c-.807.708-1.379,1.463-2.146,2.028-.292.215-.424.177-.6-.076a1.653,1.653,0,0,0-.137-.155c-.344-.391-1.038-.717-.991-1.137s.674-.755,1.047-1.128c1.107-1.107,1.1-1.1,2.2-.02a6.812,6.812,0,0,0,.623.488" transform="translate(-265.217 -309.094)" fill="#090a0a"/>
    <path id="Trazado_786725" data-name="Trazado 786725" d="M83.283,364.407a4.558,4.558,0,0,1,5.238-1.227,4.25,4.25,0,0,1,2.767,4.977,4.375,4.375,0,0,1-3.844,3.743,4.649,4.649,0,0,1-5.142-3.668,5.137,5.137,0,0,1,.74-3.545.243.243,0,0,0,.242-.28m1.248,2.949a2.254,2.254,0,0,0,2.157,2.305,2.357,2.357,0,0,0,2.407-2.321,2.423,2.423,0,0,0-2.264-2.241,2.3,2.3,0,0,0-2.3,2.257" transform="translate(-70.811 -312.472)" fill="#030404"/>
    <path id="Trazado_786726" data-name="Trazado 786726" d="M88.368,374.218a.243.243,0,0,1-.242.28c.018-.148.131-.213.242-.28" transform="translate(-75.896 -322.283)" fill="#090a0a"/>
    <path id="Trazado_786727" data-name="Trazado 786727" d="M98.839,381.462a2.3,2.3,0,0,1,2.3-2.257,2.423,2.423,0,0,1,2.264,2.241A2.357,2.357,0,0,1,101,383.768a2.254,2.254,0,0,1-2.157-2.305" transform="translate(-85.119 -326.579)" fill="#fff"/>
  </g>
</svg>
