<svg id="Grupo_1043192" data-name="Grupo 1043192" xmlns="http://www.w3.org/2000/svg" xmlns:xlink="http://www.w3.org/1999/xlink" width="70.795" height="70.8" viewBox="0 0 70.795 70.8">
  <defs>
    <clipPath id="clip-path">
      <rect id="Rectángulo_372038" data-name="Rectángulo 372038" width="70.795" height="70.8" fill="none"/>
    </clipPath>
  </defs>
  <g id="Grupo_1043191" data-name="Grupo 1043191" clip-path="url(#clip-path)">
    <path id="Trazado_786728" data-name="Trazado 786728" d="M4.582,0H54.813c0,2.162,0,4.323.006,6.484,0,.194-.149.546.27.5a7.516,7.516,0,0,1,1.992.3,15.578,15.578,0,0,1,5.148,1.9,18.208,18.208,0,0,1,3.984,3.253,16.523,16.523,0,0,1,3.734,6.3c.394,1.1.443,2.286.848,3.382v.856a.347.347,0,0,0,0,.571V24.4a.482.482,0,0,0,0,.713v.856c-.044.049-.117.092-.127.146a20.288,20.288,0,0,1-1.8,5.619,17.958,17.958,0,0,1-3.67,4.818,18.149,18.149,0,0,1-5.076,3.3c.7,1.238.308,2.372-.248,3.523.213,0,.423-.016.63,0a3.456,3.456,0,0,1,3.133,2.069,3.407,3.407,0,0,1-.352,3.359c-.125.194-.211.265-.04.517a3.4,3.4,0,0,1,.012,4.073c-.156.234-.123.307.016.518a3.427,3.427,0,0,1,.006,4.021c-.169.259-.133.338.016.574a3.438,3.438,0,0,1-3.074,5.4c-.661-.038-.875.1-.86.82a5.8,5.8,0,0,1-1.725,4.356,5.608,5.608,0,0,1-8.722-.82,5.81,5.81,0,0,1-.941-3.836c.03-.4-.088-.544-.5-.512A7.294,7.294,0,0,1,43.055,62.8,8.118,8.118,0,0,0,38.1,61.622c-1.54.112-1.568.023-1.538,1.612.01.526-.089.71-.676.709q-17.583-.03-35.166,0C.1,63.945,0,63.769,0,63.2c.023-5.278.014-10.556.014-15.835,0-2.639.019-5.278-.015-7.917-.007-.551.15-.669.668-.648,1.045.043,2.095-.035,3.137.03.673.042.792-.189.791-.813Q4.568,19.009,4.582,0M66.518,16.678l-.108-.121-.184-.178-.1-.108a3.409,3.409,0,0,0-.391-.88,17.805,17.805,0,0,0-2.93-3.109.3.3,0,0,0-.3-.152,4.437,4.437,0,0,1-.418-.242A13.46,13.46,0,0,0,55.67,9.393c-.037-.186-.091-.33-.287-.113l-1.124-.01c-.025-.074-.059-.136-.155-.109a12.491,12.491,0,0,0-4.222.482,14.019,14.019,0,0,0-6.617,3.72,14.956,14.956,0,0,0-3.474,5.31,8.981,8.981,0,0,0-.7,3.3l-.115.148-.05.142-.094.142.034.428q0,.208,0,.416a13.642,13.642,0,0,0,.246,3.715,14.948,14.948,0,0,0,3.809,7.276,14.048,14.048,0,0,0,5.25,3.528,11.344,11.344,0,0,0,3.289.989,17.148,17.148,0,0,0,5.2-.227A15.266,15.266,0,0,0,66.793,30.85a16.709,16.709,0,0,0,1.622-5.172.153.153,0,0,0-.007-.272c.086-1.05-.019-2.1-.037-3.145.2-.358-.11-.25-.262-.286.333-.711-.036-1.367-.18-2.032a24.083,24.083,0,0,0-1.275-3.1l-.122-.155ZM45.04,38.866c-.037-.05-.066-.123-.12-.157a17.245,17.245,0,0,1-8.067-18.245A15.813,15.813,0,0,1,38.967,15.1a17.8,17.8,0,0,1,4.164-4.631A15.415,15.415,0,0,1,48.8,7.585a16.7,16.7,0,0,1,3.054-.611c.451-.036.735-.18.7-.771a27.491,27.491,0,0,1,0-3.208c.032-.6-.149-.728-.735-.727Q29.7,2.3,7.582,2.269c-.591,0-.732.135-.731.729q.03,17.548,0,35.1c0,.586.126.736.726.735q13.554-.033,27.108-.009c.608,0,1.394-.266,1.771.126.289.3.08,1.081.092,1.648a.408.408,0,0,1,0,.071c-.054.34.084.446.429.439,1.117-.021,2.235-.011,3.353,0a.663.663,0,0,0,.5-.2,9.425,9.425,0,0,1,4.211-2.034M22.848,51.37c0-3.21-.015-6.421.014-9.632.005-.551-.157-.656-.675-.654q-9.632.027-19.264,0c-.487,0-.638.1-.637.618q.028,9.667,0,19.335c0,.514.15.619.637.618q9.632-.024,19.264,0c.518,0,.68-.1.675-.655-.029-3.21-.014-6.421-.014-9.632m25.038-5.124a.559.559,0,0,0-.2.047A8.082,8.082,0,0,1,42.5,47.955c-1.382-.05-1.33-.012-1.4-1.415-.041-.781.228-.947.937-.888a6.036,6.036,0,0,0,5.161-2.012.9.9,0,0,1,.758-.263q3.922.006,7.844,0a2.325,2.325,0,0,0,2.334-1.733c.119-.481.006-.561-.457-.559-3.851.018-7.7-.02-11.552.029a5.027,5.027,0,0,0-3.661,1.421,2.532,2.532,0,0,1-2.177.867c-1.012-.1-2.044.016-3.063-.039-.588-.032-.684.179-.682.71.02,4.683.012,9.365.012,14.048,0,1.24.008,1.328,1.263,1.221A10.161,10.161,0,0,1,44.4,60.861a5.133,5.133,0,0,0,2.923.8c.546-.011.652-.158.65-.675-.021-4.706-.011-9.413-.016-14.119a.97.97,0,0,0-.074-.625M34.264,51.408c0-3.21-.009-6.421.009-9.631,0-.482-.043-.725-.633-.7-1.139.055-2.283.031-3.424.008-.39-.008-.528.089-.528.507q.019,9.774,0,19.548c0,.416.129.518.525.51,1.117-.024,2.236-.036,3.353,0,.541.019.718-.108.713-.689-.032-3.186-.015-6.373-.015-9.56m18.388-5.745c-.626,0-1.242.026-1.855-.009-.431-.025-.571.095-.562.547.03,1.52.011,3.04.011,4.561,0,4.8-.008,9.6.007,14.4a3.421,3.421,0,0,0,6.841-.031c.094-1.192.094-1.192-1.1-1.2h-.142a3.375,3.375,0,0,1-3.1-4.647c.315-.763.821-1.384-.155-1.984-.021-.013.03-.12.021-.18a3.745,3.745,0,0,1,.586-3.2.335.335,0,0,0-.017-.54,2.754,2.754,0,0,1-.366-3.313c.316-.752.669-1.319-.2-1.879-.073-.047-.073-.237-.072-.36a8.305,8.305,0,0,1,.1-2.162m-27.521,5.71v8.7c0,1.578,0,1.553,1.59,1.584.551.011.709-.128.707-.7-.022-6.086-.014-12.172-.014-18.258,0-1.618,0-1.595-1.625-1.62-.527-.008-.676.119-.672.662.028,3.209.014,6.419.014,9.628m33-3.43v0c.758,0,1.517.015,2.275,0a1.142,1.142,0,1,0,0-2.272q-2.239-.025-4.479,0a1.053,1.053,0,0,0-1.108,1.1,1.066,1.066,0,0,0,1.112,1.168c.734.02,1.469,0,2.2,0m.042,11.42c-.737,0-1.474-.013-2.211,0a1.136,1.136,0,1,0,.008,2.273c1.45.015,2.9.012,4.351,0a1.333,1.333,0,0,0,1.335-1.107,1.316,1.316,0,0,0-1.342-1.171c-.713-.011-1.426,0-2.14,0m-.1-6.851c.785,0,1.57.018,2.353-.006a1.139,1.139,0,1,0-.009-2.271q-2.246-.026-4.493,0a1.054,1.054,0,0,0-1.111,1.1,1.066,1.066,0,0,0,1.12,1.166c.713.019,1.426,0,2.139.006m.079,2.284c-.689,0-1.379-.006-2.068,0-.835.009-1.283.426-1.27,1.164.012.707.45,1.11,1.246,1.115q2.1.013,4.208,0a1.342,1.342,0,0,0,1.386-1.128A1.325,1.325,0,0,0,60.3,54.8c-.713-.01-1.426,0-2.14,0" transform="translate(0)" fill="#030404"/>
    <path id="Trazado_786729" data-name="Trazado 786729" d="M493.975,171.3a.482.482,0,0,1,0-.714Z" transform="translate(-423.179 -146.184)" fill="#090a08"/>
    <path id="Trazado_786730" data-name="Trazado 786730" d="M494.027,161.18a.347.347,0,0,1,0-.571Z" transform="translate(-423.231 -137.635)" fill="#090a08"/>
    <path id="Trazado_786731" data-name="Trazado 786731" d="M86.078,52.457a9.426,9.426,0,0,0-4.211,2.034.662.662,0,0,1-.5.2c-1.117-.007-2.235-.016-3.353,0-.345.006-.483-.1-.429-.439a.41.41,0,0,0,0-.071c-.012-.567.2-1.347-.092-1.648-.377-.392-1.163-.126-1.771-.126q-13.554-.013-27.108.009c-.6,0-.727-.149-.726-.735q.029-17.548,0-35.1c0-.594.14-.73.732-.729q22.114.028,44.228,0c.586,0,.767.123.735.727a27.522,27.522,0,0,0,0,3.208c.038.591-.246.735-.7.771a16.7,16.7,0,0,0-3.054.611,15.414,15.414,0,0,0-5.667,2.88,17.792,17.792,0,0,0-4.164,4.631,15.813,15.813,0,0,0-2.115,5.368A17.245,17.245,0,0,0,85.958,52.3c.054.034.083.107.12.157m-23.334-34.3c-3.971,0-7.942.012-11.914-.014-.534,0-.658.127-.657.659q.03,10.771,0,21.543c0,.534.127.658.658.657q11.913-.029,23.827,0c.534,0,.659-.126.657-.658q-.03-10.771,0-21.543c0-.534-.127-.661-.658-.657-3.971.025-7.942.014-11.913.014m-.072,31.964H73.728c1.577,0,1.545,0,1.59-1.568.017-.6-.142-.732-.733-.73-7.584.023-15.169.015-22.754.015-1.654,0-1.628,0-1.66,1.64-.011.536.129.66.66.657,3.947-.025,7.894-.014,11.841-.014M65.1,43.272H56.329c-1.577,0-1.546,0-1.591,1.567-.017.595.138.734.731.731,6.062-.025,12.125-.015,18.187-.015,1.655,0,1.629,0,1.661-1.639.01-.534-.125-.663-.659-.658-3.185.028-6.371.014-9.557.014m-13.771,0c-1.144,0-1.144,0-1.144,1.139s0,1.144,1.139,1.144,1.144,0,1.144-1.139,0-1.144-1.139-1.144" transform="translate(-41.039 -13.591)" fill="#dfe4e9"/>
    <path id="Trazado_786732" data-name="Trazado 786732" d="M36.546,297.5c0,3.211-.015,6.421.014,9.632.005.551-.157.656-.675.655q-9.632-.027-19.264,0c-.486,0-.638-.1-.637-.618q.028-9.667,0-19.335c0-.514.15-.619.637-.618q9.632.025,19.264,0c.518,0,.68.1.675.654-.029,3.21-.014,6.421-.014,9.632" transform="translate(-13.698 -246.133)" fill="#ee5e56"/>
    <path id="Trazado_786733" data-name="Trazado 786733" d="M266.764,292.39a.97.97,0,0,1,.074.625c0,4.706-.005,9.413.016,14.119,0,.518-.1.664-.65.675a5.134,5.134,0,0,1-2.923-.8,10.161,10.161,0,0,0-6.593-1.518c-1.255.107-1.263.019-1.263-1.221,0-4.683.008-9.365-.012-14.048,0-.531.093-.742.682-.71,1.019.055,2.051-.064,3.063.039a2.532,2.532,0,0,0,2.177-.867A5.027,5.027,0,0,1,265,287.259c3.85-.049,7.7-.011,11.552-.029.464,0,.577.078.457.559a2.325,2.325,0,0,1-2.334,1.733q-3.922.01-7.844,0a.9.9,0,0,0-.758.263,6.036,6.036,0,0,1-5.161,2.012c-.709-.06-.978.107-.937.888.074,1.4.022,1.365,1.4,1.415a8.082,8.082,0,0,0,5.194-1.661.56.56,0,0,1,.2-.047" transform="translate(-218.878 -246.143)" fill="#f5c19f"/>
    <path id="Trazado_786734" data-name="Trazado 786734" d="M288.307,64a13.46,13.46,0,0,1,6.414,2.494,4.4,4.4,0,0,0,.418.242c.043.164.192.117.3.152a17.812,17.812,0,0,1,2.93,3.109,3.41,3.41,0,0,1,.391.88c-.028.1.011.128.1.108l.184.178c-.027.1.027.121.108.121l.014.014.122.155a24.054,24.054,0,0,1,1.275,3.1c.144.664.513,1.321.18,2.032.007.169.135.227.261.286.018,1.048.123,2.1.037,3.145l.007.272a16.7,16.7,0,0,1-1.622,5.172A15.265,15.265,0,0,1,289.3,93.138a17.153,17.153,0,0,1-5.2.228,11.349,11.349,0,0,1-3.29-.989,14.049,14.049,0,0,1-5.25-3.528,14.95,14.95,0,0,1-3.809-7.276,13.642,13.642,0,0,1-.246-3.715.259.259,0,0,0,0-.416l-.034-.428c.061-.028.127-.052.094-.142l.049-.142c.081-.016.138-.05.115-.148a8.984,8.984,0,0,1,.7-3.3,14.954,14.954,0,0,1,3.474-5.31,14.017,14.017,0,0,1,6.617-3.72,12.486,12.486,0,0,1,4.222-.482l.155.109,1.124.01c.051.151.167.137.287.113m-1.138,27.1.066.018.068-.013a1.351,1.351,0,0,0,.351.028,13.554,13.554,0,0,0,7.616-3.85,12.625,12.625,0,0,0,3.558-9.563c.034-.1-.035-.122-.1-.149A3.608,3.608,0,0,0,298.6,75.8a13.916,13.916,0,0,0-1.888-4.248,12.935,12.935,0,0,0-4.732-4.176,11.777,11.777,0,0,0-5.2-1.332,11.094,11.094,0,0,0-5.487.981,12.639,12.639,0,0,0-1.5.678,25.813,25.813,0,0,0-3,2.609,12.055,12.055,0,0,0-2.559,4.311,11.013,11.013,0,0,0-.509,3.863A12.609,12.609,0,0,0,287.169,91.1" transform="translate(-232.638 -54.605)" fill="#ffc845"/>
    <path id="Trazado_786735" data-name="Trazado 786735" d="M212.123,297.5c0,3.187-.017,6.374.015,9.56.006.581-.172.708-.713.689-1.116-.04-2.235-.028-3.353,0-.4.009-.526-.094-.525-.51q.019-9.774,0-19.548c0-.417.138-.514.528-.507,1.141.023,2.285.047,3.424-.008.591-.029.636.213.633.7-.018,3.21-.01,6.421-.01,9.631" transform="translate(-177.86 -246.094)" fill="#ee5e56"/>
    <path id="Trazado_786736" data-name="Trazado 786736" d="M353.6,319.151a8.3,8.3,0,0,0-.1,2.162c0,.123,0,.314.072.36.867.559.514,1.127.2,1.879a2.754,2.754,0,0,0,.366,3.313.335.335,0,0,1,.017.54,3.745,3.745,0,0,0-.586,3.2c.008.06-.042.167-.021.18.975.6.469,1.221.155,1.984a3.375,3.375,0,0,0,3.1,4.647h.142c1.194.006,1.194.006,1.1,1.2a3.421,3.421,0,0,1-6.841.031c-.015-4.8-.006-9.6-.007-14.4,0-1.52.018-3.041-.011-4.561-.009-.452.131-.572.562-.547.613.035,1.229.009,1.855.009" transform="translate(-300.95 -273.488)" fill="#818e9b"/>
    <path id="Trazado_786737" data-name="Trazado 786737" d="M175.6,297.494c0-3.209.014-6.419-.014-9.628,0-.543.145-.67.672-.662,1.625.025,1.625,0,1.625,1.62,0,6.086-.008,12.172.014,18.258,0,.569-.156.708-.707.7-1.589-.031-1.59-.006-1.59-1.584v-8.7" transform="translate(-150.473 -246.121)" fill="#ec493a"/>
    <path id="Trazado_786738" data-name="Trazado 786738" d="M386.531,321.466c-.735,0-1.47.015-2.2,0a1.066,1.066,0,0,1-1.112-1.168,1.053,1.053,0,0,1,1.108-1.1q2.24-.026,4.479,0a1.142,1.142,0,1,1,0,2.273c-.758.02-1.517,0-2.275,0Z" transform="translate(-328.398 -273.523)" fill="#f5c19f"/>
    <path id="Trazado_786739" data-name="Trazado 786739" d="M386.576,414.969c.713,0,1.427-.009,2.14,0a1.316,1.316,0,0,1,1.342,1.171,1.334,1.334,0,0,1-1.335,1.107c-1.45.01-2.9.012-4.351,0a1.136,1.136,0,1,1-.008-2.272c.737-.016,1.474,0,2.211-.005" transform="translate(-328.401 -355.607)" fill="#f5c19f"/>
    <path id="Trazado_786740" data-name="Trazado 786740" d="M386.476,353.39c-.713,0-1.427.015-2.14,0a1.066,1.066,0,0,1-1.12-1.166,1.054,1.054,0,0,1,1.111-1.1q2.246-.025,4.493,0a1.139,1.139,0,1,1,.009,2.271c-.784.023-1.569.006-2.353,0" transform="translate(-328.399 -300.88)" fill="#f5c19f"/>
    <path id="Trazado_786741" data-name="Trazado 786741" d="M386.555,383.049c.713,0,1.427-.008,2.14,0a1.325,1.325,0,0,1,1.362,1.151,1.342,1.342,0,0,1-1.386,1.128q-2.1.011-4.208,0c-.8,0-1.234-.408-1.246-1.115-.013-.738.436-1.155,1.27-1.164.689-.007,1.379,0,2.068,0" transform="translate(-328.4 -328.254)" fill="#f5c19f"/>
    <path id="Trazado_786742" data-name="Trazado 786742" d="M476.4,153.909c-.127-.059-.255-.117-.262-.286.152.036.462-.073.262.286" transform="translate(-408.029 -131.648)" fill="#090a08"/>
    <path id="Trazado_786743" data-name="Trazado 786743" d="M387.455,64.336c-.12.024-.236.038-.287-.113.2-.217.25-.073.287.113" transform="translate(-331.786 -54.943)" fill="#090a08"/>
    <path id="Trazado_786744" data-name="Trazado 786744" d="M271.706,159.648a.259.259,0,0,1,0,.416c0-.139,0-.277,0-.416" transform="translate(-232.84 -136.811)" fill="#ffc444"/>
    <path id="Trazado_786745" data-name="Trazado 786745" d="M478.233,177.879l-.007-.272a.153.153,0,0,1,.007.272" transform="translate(-409.819 -152.201)" fill="#090a08"/>
    <path id="Trazado_786746" data-name="Trazado 786746" d="M437.236,84.944c-.108-.035-.258.012-.3-.152a.3.3,0,0,1,.3.152" transform="translate(-374.435 -72.663)" fill="#090a08"/>
    <path id="Trazado_786747" data-name="Trazado 786747" d="M272.586,153.641c.023.1-.034.131-.115.148l.115-.148" transform="translate(-233.496 -131.664)" fill="#090a08"/>
    <path id="Trazado_786748" data-name="Trazado 786748" d="M465.242,116.846l-.122-.155.122.155" transform="translate(-398.588 -99.999)" fill="#090a08"/>
    <path id="Trazado_786749" data-name="Trazado 786749" d="M464.33,115.867c-.081,0-.135-.024-.108-.121l.108.121" transform="translate(-397.812 -99.189)" fill="#090a08"/>
    <path id="Trazado_786750" data-name="Trazado 786750" d="M462.3,113.853c-.093.02-.132-.012-.1-.108Z" transform="translate(-396.078 -97.475)" fill="#090a08"/>
    <path id="Trazado_786751" data-name="Trazado 786751" d="M378.378,64.113,378.223,64c.1-.027.13.035.155.109" transform="translate(-324.121 -54.843)" fill="#ffc444"/>
    <path id="Trazado_786752" data-name="Trazado 786752" d="M271.564,155.664c.034.09-.033.114-.094.142l.094-.142" transform="translate(-232.638 -133.397)" fill="#090a08"/>
    <path id="Trazado_786753" data-name="Trazado 786753" d="M76.431,31.84c3.971,0,7.942.012,11.913-.014.532,0,.66.123.658.657q-.03,10.772,0,21.543c0,.532-.123.66-.657.658q-11.913-.029-23.827,0c-.532,0-.66-.122-.658-.657q.03-10.771,0-21.543c0-.532.123-.662.657-.658,3.971.025,7.942.014,11.913.014m-.009,2.283c-3.187,0-6.373.02-9.559-.017-.617-.007-.721.176-.719.747.023,5.4.014,10.8.014,16.194,0,1.341,0,1.341,1.306,1.341.976,0,.987,0,.975-.957a7.69,7.69,0,0,1,4.092-7.144c.431-.253.368-.426.113-.761a4.543,4.543,0,0,1,1.089-6.259,4.369,4.369,0,0,1,3.677-.653,4.455,4.455,0,0,1,2.944,2.1,4.409,4.409,0,0,1-.3,4.969c-.226.345-.136.387.124.534a8.1,8.1,0,0,1,4.247,6.659c.048.489-.229,1.175.119,1.417s1.007.042,1.521.1c.542.061.66-.128.658-.658q-.032-8.489,0-16.978c0-.548-.149-.655-.668-.651-3.21.025-6.421.013-9.631.013m-.035,18.265c1.734,0,3.468-.013,5.2.01.424.006.573-.085.562-.543a6.2,6.2,0,0,0-1.769-4.61,5.681,5.681,0,0,0-9.674,4.52c.031.475.1.648.619.637,1.686-.035,3.373-.013,5.06-.013M74.149,40.97a2.29,2.29,0,0,0,2.17,2.284,2.281,2.281,0,1,0,.006-4.558,2.248,2.248,0,0,0-2.175,2.273" transform="translate(-54.726 -27.274)" fill="#030404"/>
    <path id="Trazado_786754" data-name="Trazado 786754" d="M76.349,241.611c-3.947,0-7.894-.011-11.84.014-.531,0-.671-.12-.66-.657.032-1.639.006-1.64,1.66-1.64q11.377,0,22.753-.015c.591,0,.75.132.733.73-.045,1.567-.014,1.568-1.59,1.568Z" transform="translate(-54.715 -205.081)" fill="#030404"/>
    <path id="Trazado_786755" data-name="Trazado 786755" d="M106.123,207.411c3.186,0,6.372.014,9.557-.014.534,0,.669.125.659.658-.032,1.638-.006,1.639-1.661,1.639-6.062,0-12.125-.01-18.187.015-.593,0-.748-.136-.731-.731.045-1.566.013-1.567,1.591-1.567Z" transform="translate(-82.061 -177.73)" fill="#030404"/>
    <path id="Trazado_786756" data-name="Trazado 786756" d="M65.1,207.495c1.139,0,1.139,0,1.139,1.144s0,1.139-1.144,1.139-1.139,0-1.139-1.144,0-1.139,1.144-1.139" transform="translate(-54.806 -177.814)" fill="#030404"/>
    <path id="Trazado_786757" data-name="Trazado 786757" d="M312.346,91.614a12.626,12.626,0,0,1-3.558,9.563,13.555,13.555,0,0,1-7.616,3.85,1.351,1.351,0,0,1-.351-.028c-.042-.063-.087-.065-.134-.005a12.609,12.609,0,0,1-13.443-12.616,11.018,11.018,0,0,1,.509-3.863,12.056,12.056,0,0,1,2.559-4.311,25.836,25.836,0,0,1,3-2.609,12.65,12.65,0,0,1,1.5-.678,11.094,11.094,0,0,1,5.487-.981,11.774,11.774,0,0,1,5.2,1.332,12.935,12.935,0,0,1,4.733,4.176,13.916,13.916,0,0,1,1.888,4.248,3.607,3.607,0,0,1,.126,1.773l.1.149m-22.794.811a10.255,10.255,0,1,0,20.509.124,10.255,10.255,0,1,0-20.509-.124" transform="translate(-246.155 -68.501)" fill="#060706"/>
    <path id="Trazado_786758" data-name="Trazado 786758" d="M462.124,160.685l-.1-.149c.067.027.136.053.1.149" transform="translate(-395.934 -137.572)" fill="#090a08"/>
    <path id="Trazado_786759" data-name="Trazado 786759" d="M381.223,254.853c.047-.06.092-.057.134.005l-.068.013Z" transform="translate(-326.692 -218.361)" fill="#090a08"/>
    <path id="Trazado_786760" data-name="Trazado 786760" d="M90.1,47.782c3.21,0,6.421.013,9.631-.013.519,0,.67.1.668.651q-.035,8.489,0,16.978c0,.529-.117.719-.658.658-.514-.058-1.165.147-1.521-.1s-.071-.928-.119-1.417a8.1,8.1,0,0,0-4.247-6.659c-.26-.147-.35-.189-.124-.534a4.409,4.409,0,0,0,.3-4.969,4.455,4.455,0,0,0-2.944-2.1,4.37,4.37,0,0,0-3.677.653,4.543,4.543,0,0,0-1.089,6.259c.256.335.318.508-.113.761a7.69,7.69,0,0,0-4.092,7.144c.012.957,0,.957-.975.957-1.306,0-1.306,0-1.306-1.341,0-5.4.009-10.8-.014-16.194,0-.571.1-.754.719-.747,3.186.036,6.373.017,9.559.017" transform="translate(-68.403 -40.932)" fill="#ffe189"/>
    <path id="Trazado_786761" data-name="Trazado 786761" d="M117.321,134.858c-1.687,0-3.374-.022-5.06.013-.517.011-.588-.162-.619-.637a5.681,5.681,0,0,1,9.674-4.52,6.2,6.2,0,0,1,1.769,4.61c.011.458-.138.549-.562.543-1.734-.023-3.468-.01-5.2-.01" transform="translate(-95.66 -109.744)" fill="#a6c95d"/>
    <path id="Trazado_786762" data-name="Trazado 786762" d="M135.774,82.113a2.248,2.248,0,0,1,2.175-2.273,2.281,2.281,0,1,1-.006,4.558,2.29,2.29,0,0,1-2.17-2.284" transform="translate(-116.351 -68.417)" fill="#f5c19f"/>
    <path id="Trazado_786763" data-name="Trazado 786763" d="M303.366,106.128a10.255,10.255,0,1,1,10.23,10.325,10.174,10.174,0,0,1-10.23-10.325m4.811,1.907c.96.964,1.875,1.831,2.723,2.759.387.424.582.333.931-.025q4.045-4.15,8.124-8.269c.032-.033.059-.072.1-.124A12.339,12.339,0,0,1,319,101.32c-.381-.481-.624-.413-1.032.005-2.056,2.107-4.148,4.18-6.227,6.264-.194.195-.336.457-.674.119-.392-.392-.708-1.1-1.253-1.046s-.851.761-1.3,1.139c-.107.09-.23.16-.338.234" transform="translate(-259.969 -82.204)" fill="#3dbee3"/>
    <path id="Trazado_786764" data-name="Trazado 786764" d="M337.019,138.343c.108-.074.231-.144.338-.234.449-.378.753-1.086,1.3-1.139s.861.654,1.253,1.046c.338.337.479.076.674-.119,2.079-2.084,4.171-4.156,6.227-6.264.408-.418.651-.487,1.032-.005a12.334,12.334,0,0,0,1.054,1.057c-.042.052-.068.091-.1.124q-4.065,4.131-8.124,8.269c-.349.358-.543.449-.931.025-.848-.928-1.763-1.795-2.723-2.759" transform="translate(-288.811 -112.512)" fill="#060706"/>
  </g>
</svg>
