<svg xmlns="http://www.w3.org/2000/svg" xmlns:xlink="http://www.w3.org/1999/xlink" width="557" height="294" viewBox="0 0 557 294">
  <defs>
    <clipPath id="clip-path">
      <rect id="Rectángulo_372082" data-name="Rectángulo 372082" width="557" height="294" transform="translate(-0.452 0)" fill="none"/>
    </clipPath>
  </defs>
  <g id="Grupo_1043226" data-name="Grupo 1043226" transform="translate(0.452 -0.02)">
    <g id="Grupo_1043225" data-name="Grupo 1043225" transform="translate(0 0.02)" clip-path="url(#clip-path)">
      <path id="Trazado_787210" data-name="Trazado 787210" d="M175.278,306.1H3.325A3.325,3.325,0,0,1,0,302.776V244.825A3.325,3.325,0,0,1,3.325,241.5H175.278a3.325,3.325,0,0,1,3.325,3.325v57.951a3.325,3.325,0,0,1-3.325,3.325" transform="translate(0 -126.814)" fill="#fe502d"/>
      <path id="Trazado_787211" data-name="Trazado 787211" d="M79.211,309.674a3.144,3.144,0,0,1-1.381.908,5.793,5.793,0,0,1-1.978.323,3.915,3.915,0,0,1-2-.5,3.317,3.317,0,0,1-1.327-1.444,5.083,5.083,0,0,1-.479-2.225v-.6a5.4,5.4,0,0,1,.443-2.277,3.281,3.281,0,0,1,1.278-1.472,4.211,4.211,0,0,1,4.4.236,3.182,3.182,0,0,1,1.043,2.167H77.45a1.749,1.749,0,0,0-.534-1.1,1.706,1.706,0,0,0-1.137-.35,1.605,1.605,0,0,0-1.405.694,3.645,3.645,0,0,0-.488,2.063v.561a3.47,3.47,0,0,0,.525,2.087,1.8,1.8,0,0,0,1.538.705,2,2,0,0,0,1.453-.434V307.5H75.756V306.17h3.455Z" transform="translate(-37.824 -158.514)"/>
      <path id="Trazado_787212" data-name="Trazado 787212" d="M92.717,313.4a3.2,3.2,0,0,1-2.337-.88,3.129,3.129,0,0,1-.9-2.346V310a3.942,3.942,0,0,1,.38-1.758,2.8,2.8,0,0,1,1.076-1.194,3.022,3.022,0,0,1,1.589-.419,2.706,2.706,0,0,1,2.107.844,3.429,3.429,0,0,1,.769,2.394v.712H91.246a1.621,1.621,0,0,0,.51,1.026,1.542,1.542,0,0,0,1.076.386,1.882,1.882,0,0,0,1.574-.73l.856.959a2.618,2.618,0,0,1-1.061.865,3.482,3.482,0,0,1-1.483.311m-.2-5.361a1.091,1.091,0,0,0-.842.352,1.821,1.821,0,0,0-.413,1.005h2.424v-.139a1.3,1.3,0,0,0-.314-.9,1.125,1.125,0,0,0-.856-.318" transform="translate(-46.976 -161.007)"/>
      <path id="Trazado_787213" data-name="Trazado 787213" d="M107.194,311.473a.561.561,0,0,0-.317-.5,3.591,3.591,0,0,0-1.016-.329q-2.328-.489-2.328-1.978a1.793,1.793,0,0,1,.721-1.45,2.906,2.906,0,0,1,1.884-.582,3.128,3.128,0,0,1,1.987.585,1.842,1.842,0,0,1,.745,1.52h-1.743a.844.844,0,0,0-.241-.618,1.021,1.021,0,0,0-.754-.244,1.044,1.044,0,0,0-.682.2.629.629,0,0,0-.241.506.537.537,0,0,0,.275.467,2.829,2.829,0,0,0,.926.308,7.592,7.592,0,0,1,1.1.292,1.8,1.8,0,0,1,1.381,1.755,1.7,1.7,0,0,1-.766,1.444,3.3,3.3,0,0,1-1.978.552,3.448,3.448,0,0,1-1.456-.293,2.446,2.446,0,0,1-1-.8,1.865,1.865,0,0,1-.362-1.1h1.653a.91.91,0,0,0,.343.712,1.364,1.364,0,0,0,.856.247,1.259,1.259,0,0,0,.757-.19.59.59,0,0,0,.256-.5" transform="translate(-54.246 -161.007)"/>
      <path id="Trazado_787214" data-name="Trazado 787214" d="M118.809,303.508v1.6h1.116v1.278h-1.116v3.257a.777.777,0,0,0,.139.519.7.7,0,0,0,.531.157,2.788,2.788,0,0,0,.513-.042v1.32a3.586,3.586,0,0,1-1.055.157,1.664,1.664,0,0,1-1.87-1.851V306.39h-.953v-1.278h.953v-1.6Z" transform="translate(-60.958 -159.367)"/>
      <path id="Trazado_787215" data-name="Trazado 787215" d="M126.155,302.337a.858.858,0,0,1,.262-.645,1.129,1.129,0,0,1,1.426,0,.92.92,0,0,1,0,1.3,1.118,1.118,0,0,1-1.417,0,.854.854,0,0,1-.268-.651m1.851,8.213h-1.749v-6.525h1.749Z" transform="translate(-66.23 -158.281)"/>
      <path id="Trazado_787216" data-name="Trazado 787216" d="M132.5,307.061a3.869,3.869,0,0,1,.374-1.731,2.738,2.738,0,0,1,1.076-1.176,3.141,3.141,0,0,1,1.631-.416,2.971,2.971,0,0,1,2.156.808,3.242,3.242,0,0,1,.931,2.2l.012.446a3.411,3.411,0,0,1-.838,2.409,3.249,3.249,0,0,1-4.5,0,3.47,3.47,0,0,1-.841-2.461Zm1.743.123a2.443,2.443,0,0,0,.35,1.423,1.257,1.257,0,0,0,1.99.006,2.668,2.668,0,0,0,.356-1.555,2.416,2.416,0,0,0-.356-1.414,1.158,1.158,0,0,0-1-.5,1.137,1.137,0,0,0-.989.5,2.717,2.717,0,0,0-.35,1.543m1.682-6.064h1.9l-1.671,1.87h-1.417Z" transform="translate(-69.562 -158.114)"/>
      <path id="Trazado_787217" data-name="Trazado 787217" d="M149.339,306.752l.054.754a2.279,2.279,0,0,1,1.875-.874,1.892,1.892,0,0,1,1.544.609,2.842,2.842,0,0,1,.519,1.821v4.215h-1.743V309.1a1.132,1.132,0,0,0-.241-.805,1.081,1.081,0,0,0-.8-.25,1.2,1.2,0,0,0-1.1.627v4.6H147.7v-6.525Z" transform="translate(-77.541 -161.007)"/>
      <path id="Trazado_787218" data-name="Trazado 787218" d="M168.24,307.073a3.933,3.933,0,0,1,.684-2.43,2.219,2.219,0,0,1,1.872-.9,2,2,0,0,1,1.574.712v-3.329h1.749v9.263h-1.574l-.085-.694a2.052,2.052,0,0,1-1.677.814,2.215,2.215,0,0,1-1.848-.908,4.061,4.061,0,0,1-.7-2.524m1.743.13a2.575,2.575,0,0,0,.32,1.407,1.042,1.042,0,0,0,.929.489,1.166,1.166,0,0,0,1.14-.683v-2.579a1.15,1.15,0,0,0-1.128-.682q-1.26,0-1.26,2.047" transform="translate(-88.325 -158.114)"/>
      <path id="Trazado_787219" data-name="Trazado 787219" d="M186.205,313.4a3.2,3.2,0,0,1-2.337-.88,3.129,3.129,0,0,1-.9-2.346V310a3.942,3.942,0,0,1,.38-1.758,2.8,2.8,0,0,1,1.076-1.194,3.023,3.023,0,0,1,1.589-.419,2.708,2.708,0,0,1,2.108.844,3.431,3.431,0,0,1,.769,2.394v.712h-4.155a1.621,1.621,0,0,0,.51,1.026,1.542,1.542,0,0,0,1.076.386,1.882,1.882,0,0,0,1.574-.73l.856.959a2.618,2.618,0,0,1-1.061.865,3.478,3.478,0,0,1-1.483.311m-.2-5.361a1.089,1.089,0,0,0-.841.352,1.818,1.818,0,0,0-.413,1.005h2.424v-.139a1.3,1.3,0,0,0-.314-.9,1.125,1.125,0,0,0-.856-.318" transform="translate(-96.056 -161.007)"/>
      <path id="Trazado_787220" data-name="Trazado 787220" d="M207.656,308.386a4.712,4.712,0,0,0-.627-.048,1.277,1.277,0,0,0-1.3.67v4.269H203.99v-6.525h1.646l.048.778a1.615,1.615,0,0,1,1.454-.9,1.825,1.825,0,0,1,.542.078Z" transform="translate(-107.093 -161.007)"/>
      <path id="Trazado_787221" data-name="Trazado 787221" d="M216.217,313.4a3.2,3.2,0,0,1-2.337-.88,3.129,3.129,0,0,1-.9-2.346V310a3.942,3.942,0,0,1,.379-1.758,2.794,2.794,0,0,1,1.077-1.194,3.021,3.021,0,0,1,1.589-.419,2.708,2.708,0,0,1,2.108.844,3.429,3.429,0,0,1,.769,2.394v.712h-4.155a1.621,1.621,0,0,0,.51,1.026,1.542,1.542,0,0,0,1.076.386,1.881,1.881,0,0,0,1.574-.73l.856.959a2.62,2.62,0,0,1-1.061.865,3.482,3.482,0,0,1-1.483.311m-.2-5.361a1.09,1.09,0,0,0-.841.352,1.817,1.817,0,0,0-.413,1.005h2.424v-.139a1.3,1.3,0,0,0-.314-.9,1.124,1.124,0,0,0-.856-.318" transform="translate(-111.812 -161.007)"/>
      <path id="Trazado_787222" data-name="Trazado 787222" d="M229.941,311.992a1.141,1.141,0,0,0,.784-.266.929.929,0,0,0,.314-.705h1.634a2.23,2.23,0,0,1-.362,1.215,2.382,2.382,0,0,1-.974.856,3.052,3.052,0,0,1-1.366.3,2.831,2.831,0,0,1-2.207-.89,3.519,3.519,0,0,1-.808-2.457v-.115a3.482,3.482,0,0,1,.8-2.406,2.8,2.8,0,0,1,2.2-.9,2.745,2.745,0,0,1,1.963.7,2.466,2.466,0,0,1,.751,1.854h-1.634a1.2,1.2,0,0,0-.314-.827,1.165,1.165,0,0,0-1.715.125,2.573,2.573,0,0,0-.311,1.441v.181a2.609,2.609,0,0,0,.307,1.45,1.063,1.063,0,0,0,.935.441" transform="translate(-119.15 -161.007)"/>
      <path id="Trazado_787223" data-name="Trazado 787223" d="M244.947,312.747a2.186,2.186,0,0,1-1.785.784,2.061,2.061,0,0,1-1.6-.6,2.573,2.573,0,0,1-.564-1.767v-4.276h1.743v4.22q0,1.021.929,1.02a1.258,1.258,0,0,0,1.218-.616v-4.625h1.749v6.525H245Z" transform="translate(-126.521 -161.14)"/>
      <path id="Trazado_787224" data-name="Trazado 787224" d="M259.3,308.386a4.718,4.718,0,0,0-.627-.048,1.277,1.277,0,0,0-1.3.67v4.269h-1.743v-6.525h1.646l.048.778a1.614,1.614,0,0,1,1.453-.9,1.828,1.828,0,0,1,.543.078Z" transform="translate(-134.206 -161.007)"/>
      <path id="Trazado_787225" data-name="Trazado 787225" d="M268.285,311.473a.561.561,0,0,0-.317-.5,3.59,3.59,0,0,0-1.016-.329q-2.328-.489-2.328-1.978a1.793,1.793,0,0,1,.721-1.45,2.906,2.906,0,0,1,1.884-.582,3.128,3.128,0,0,1,1.987.585,1.842,1.842,0,0,1,.745,1.52h-1.743a.844.844,0,0,0-.241-.618,1.021,1.021,0,0,0-.754-.244,1.044,1.044,0,0,0-.682.2.629.629,0,0,0-.241.506.537.537,0,0,0,.275.467,2.83,2.83,0,0,0,.926.308,7.594,7.594,0,0,1,1.1.292,1.8,1.8,0,0,1,1.381,1.755,1.7,1.7,0,0,1-.766,1.444,3.3,3.3,0,0,1-1.978.552,3.447,3.447,0,0,1-1.456-.293,2.446,2.446,0,0,1-1-.8,1.865,1.865,0,0,1-.362-1.1h1.653a.91.91,0,0,0,.344.712,1.364,1.364,0,0,0,.856.247,1.259,1.259,0,0,0,.757-.19.59.59,0,0,0,.257-.5" transform="translate(-138.818 -161.007)"/>
      <path id="Trazado_787226" data-name="Trazado 787226" d="M277.914,309.954a3.863,3.863,0,0,1,.374-1.731,2.74,2.74,0,0,1,1.076-1.176,3.142,3.142,0,0,1,1.631-.416,2.971,2.971,0,0,1,2.156.808,3.24,3.24,0,0,1,.931,2.195l.012.446a3.411,3.411,0,0,1-.838,2.409,3.249,3.249,0,0,1-4.5,0,3.469,3.469,0,0,1-.841-2.46Zm1.743.123a2.443,2.443,0,0,0,.35,1.423,1.257,1.257,0,0,0,1.99.006,2.67,2.67,0,0,0,.356-1.555,2.414,2.414,0,0,0-.356-1.413,1.158,1.158,0,0,0-1-.5,1.138,1.138,0,0,0-.989.5,2.719,2.719,0,0,0-.35,1.543" transform="translate(-145.903 -161.007)"/>
      <path id="Trazado_787227" data-name="Trazado 787227" d="M296.354,311.473a.56.56,0,0,0-.316-.5,3.594,3.594,0,0,0-1.016-.329q-2.328-.489-2.327-1.978a1.792,1.792,0,0,1,.721-1.45,2.9,2.9,0,0,1,1.884-.582,3.127,3.127,0,0,1,1.987.585,1.842,1.842,0,0,1,.745,1.52h-1.743a.842.842,0,0,0-.241-.618,1.02,1.02,0,0,0-.754-.244,1.046,1.046,0,0,0-.682.2.63.63,0,0,0-.241.506.537.537,0,0,0,.275.467,2.837,2.837,0,0,0,.926.308,7.584,7.584,0,0,1,1.1.292,1.8,1.8,0,0,1,1.381,1.755,1.7,1.7,0,0,1-.766,1.444,3.3,3.3,0,0,1-1.978.552,3.447,3.447,0,0,1-1.456-.293,2.445,2.445,0,0,1-1-.8,1.865,1.865,0,0,1-.362-1.1h1.653a.91.91,0,0,0,.343.712,1.365,1.365,0,0,0,.856.247,1.257,1.257,0,0,0,.757-.19.589.589,0,0,0,.257-.5" transform="translate(-153.554 -161.007)"/>
      <path id="Trazado_787228" data-name="Trazado 787228" d="M612.146,63.651H485.2a3.325,3.325,0,0,1-3.325-3.325v-57A3.325,3.325,0,0,1,485.2,0H612.146a3.325,3.325,0,0,1,3.325,3.325v57a3.325,3.325,0,0,1-3.325,3.325" transform="translate(-252.98 -0.028)" fill="#afafaf"/>
      <path id="Trazado_787229" data-name="Trazado 787229" d="M612.146,225.651H485.2a3.325,3.325,0,0,1-3.325-3.325v-57A3.325,3.325,0,0,1,485.2,162H612.146a3.325,3.325,0,0,1,3.325,3.325v57a3.325,3.325,0,0,1-3.325,3.325" transform="translate(-252.98 -85.077)" fill="#afafaf"/>
      <path id="Trazado_787230" data-name="Trazado 787230" d="M612.146,387.651H485.2a3.325,3.325,0,0,1-3.325-3.325v-57A3.325,3.325,0,0,1,485.2,324H612.146a3.325,3.325,0,0,1,3.325,3.325v57a3.325,3.325,0,0,1-3.325,3.325" transform="translate(-252.98 -170.125)" fill="#afafaf"/>
      <path id="Trazado_787231" data-name="Trazado 787231" d="M612.146,549.651H485.2a3.325,3.325,0,0,1-3.325-3.325v-57A3.325,3.325,0,0,1,485.2,486H612.146a3.325,3.325,0,0,1,3.325,3.325v57a3.325,3.325,0,0,1-3.325,3.325" transform="translate(-252.98 -255.174)" fill="#afafaf"/>
      <path id="Trazado_787232" data-name="Trazado 787232" d="M527.437,65.71v2.38h-1.392V61.336h2.635a3.047,3.047,0,0,1,1.339.278,2.054,2.054,0,0,1,.888.791,2.206,2.206,0,0,1,.311,1.167,1.939,1.939,0,0,1-.68,1.566,2.83,2.83,0,0,1-1.881.573Zm0-1.127h1.243a1.222,1.222,0,0,0,.842-.26.946.946,0,0,0,.29-.742,1.115,1.115,0,0,0-.292-.8,1.091,1.091,0,0,0-.807-.315h-1.276Z" transform="translate(-276.169 -32.229)"/>
      <path id="Trazado_787233" data-name="Trazado 787233" d="M541.58,66.143a3.649,3.649,0,0,0-.483-.037.982.982,0,0,0-1,.515v3.284h-1.34V64.886h1.266l.037.6a1.242,1.242,0,0,1,1.118-.691,1.412,1.412,0,0,1,.418.06Z" transform="translate(-282.844 -34.044)"/>
      <path id="Trazado_787234" data-name="Trazado 787234" d="M545.264,67.349a2.974,2.974,0,0,1,.287-1.331,2.108,2.108,0,0,1,.828-.9,2.419,2.419,0,0,1,1.255-.32,2.284,2.284,0,0,1,1.658.622,2.493,2.493,0,0,1,.717,1.688l.009.343a2.623,2.623,0,0,1-.645,1.853,2.5,2.5,0,0,1-3.463,0,2.67,2.67,0,0,1-.647-1.892Zm1.34.1a1.88,1.88,0,0,0,.269,1.094.966.966,0,0,0,1.531,0,2.053,2.053,0,0,0,.274-1.2,1.858,1.858,0,0,0-.274-1.087.89.89,0,0,0-.77-.386.876.876,0,0,0-.761.383,2.09,2.09,0,0,0-.269,1.187" transform="translate(-286.259 -34.044)"/>
      <path id="Trazado_787235" data-name="Trazado 787235" d="M558.242,68.37l.932-3.382h1.4l-1.693,5.019H557.6l-1.693-5.019h1.4Z" transform="translate(-291.847 -34.146)"/>
      <path id="Trazado_787236" data-name="Trazado 787236" d="M566.953,61.49a.661.661,0,0,1,.2-.5.87.87,0,0,1,1.1,0,.709.709,0,0,1,0,1,.86.86,0,0,1-1.09,0,.659.659,0,0,1-.207-.5m1.424,6.318h-1.345V62.789h1.345Z" transform="translate(-297.646 -31.947)"/>
      <path id="Trazado_787237" data-name="Trazado 787237" d="M574.711,68.518a.431.431,0,0,0-.244-.387,2.764,2.764,0,0,0-.781-.253Q571.9,67.5,571.9,66.356a1.379,1.379,0,0,1,.554-1.115,2.235,2.235,0,0,1,1.45-.448,2.409,2.409,0,0,1,1.529.45A1.419,1.419,0,0,1,576,66.412h-1.34a.65.65,0,0,0-.186-.475.787.787,0,0,0-.58-.188.8.8,0,0,0-.524.153.483.483,0,0,0-.186.39.413.413,0,0,0,.211.359,2.176,2.176,0,0,0,.712.237,5.852,5.852,0,0,1,.844.225,1.387,1.387,0,0,1,1.062,1.35,1.309,1.309,0,0,1-.589,1.111A2.544,2.544,0,0,1,573.9,70a2.655,2.655,0,0,1-1.121-.225,1.881,1.881,0,0,1-.768-.617,1.436,1.436,0,0,1-.278-.846h1.271a.7.7,0,0,0,.265.547,1.047,1.047,0,0,0,.658.19.971.971,0,0,0,.582-.146.455.455,0,0,0,.2-.383" transform="translate(-300.158 -34.044)"/>
      <path id="Trazado_787238" data-name="Trazado 787238" d="M582.539,61.49a.661.661,0,0,1,.2-.5.869.869,0,0,1,1.1,0,.709.709,0,0,1,0,1,.86.86,0,0,1-1.09,0,.658.658,0,0,1-.207-.5m1.424,6.318h-1.345V62.789h1.345Z" transform="translate(-305.828 -31.947)"/>
      <path id="Trazado_787239" data-name="Trazado 787239" d="M587.422,65.124a2.976,2.976,0,0,1,.288-1.331,2.1,2.1,0,0,1,.828-.9,2.416,2.416,0,0,1,1.254-.32,2.286,2.286,0,0,1,1.659.622,2.5,2.5,0,0,1,.716,1.689l.009.343a2.625,2.625,0,0,1-.645,1.853,2.5,2.5,0,0,1-3.463,0,2.669,2.669,0,0,1-.647-1.892Zm1.341.1a1.875,1.875,0,0,0,.269,1.094.966.966,0,0,0,1.531,0,2.051,2.051,0,0,0,.274-1.2,1.855,1.855,0,0,0-.274-1.087.889.889,0,0,0-.77-.385.875.875,0,0,0-.76.383,2.086,2.086,0,0,0-.269,1.187m1.294-4.664h1.461l-1.285,1.438h-1.09Z" transform="translate(-308.392 -31.819)"/>
      <path id="Trazado_787240" data-name="Trazado 787240" d="M600.374,64.886l.042.58a1.752,1.752,0,0,1,1.443-.673,1.455,1.455,0,0,1,1.188.468,2.186,2.186,0,0,1,.4,1.4V69.9H602.1v-3.21a.87.87,0,0,0-.186-.619.831.831,0,0,0-.617-.192.922.922,0,0,0-.849.482V69.9h-1.34V64.886Z" transform="translate(-314.529 -34.044)"/>
      <path id="Trazado_787241" data-name="Trazado 787241" d="M614.912,65.133a3.025,3.025,0,0,1,.526-1.87,1.709,1.709,0,0,1,1.44-.7,1.537,1.537,0,0,1,1.211.547V60.554h1.345v7.125h-1.211l-.065-.533a1.578,1.578,0,0,1-1.29.627,1.7,1.7,0,0,1-1.422-.7,3.122,3.122,0,0,1-.536-1.941m1.341.1a1.978,1.978,0,0,0,.246,1.083.8.8,0,0,0,.714.376.9.9,0,0,0,.877-.525V64.183a.884.884,0,0,0-.867-.525q-.97,0-.969,1.575" transform="translate(-322.824 -31.818)"/>
      <path id="Trazado_787242" data-name="Trazado 787242" d="M628.731,70a2.464,2.464,0,0,1-1.8-.677,2.406,2.406,0,0,1-.694-1.8v-.13a3.033,3.033,0,0,1,.292-1.352,2.149,2.149,0,0,1,.828-.919,2.325,2.325,0,0,1,1.222-.322,2.082,2.082,0,0,1,1.621.649,2.639,2.639,0,0,1,.591,1.842v.547h-3.2a1.247,1.247,0,0,0,.392.789,1.184,1.184,0,0,0,.828.3,1.447,1.447,0,0,0,1.211-.561l.658.737a2.016,2.016,0,0,1-.816.666,2.682,2.682,0,0,1-1.141.239m-.153-4.124a.835.835,0,0,0-.647.27,1.394,1.394,0,0,0-.318.773h1.865V66.81a1,1,0,0,0-.241-.692.865.865,0,0,0-.659-.245" transform="translate(-328.771 -34.044)"/>
      <path id="Trazado_787243" data-name="Trazado 787243" d="M645.233,66.143a3.656,3.656,0,0,0-.483-.037.981.981,0,0,0-1,.515v3.284h-1.341V64.886h1.266l.037.6a1.242,1.242,0,0,1,1.118-.691,1.412,1.412,0,0,1,.417.06Z" transform="translate(-337.261 -34.044)"/>
      <path id="Trazado_787244" data-name="Trazado 787244" d="M651.817,70a2.464,2.464,0,0,1-1.8-.677,2.407,2.407,0,0,1-.693-1.8v-.13a3.034,3.034,0,0,1,.292-1.352,2.149,2.149,0,0,1,.828-.919,2.325,2.325,0,0,1,1.222-.322,2.082,2.082,0,0,1,1.621.649,2.638,2.638,0,0,1,.591,1.842v.547h-3.2a1.246,1.246,0,0,0,.392.789,1.184,1.184,0,0,0,.828.3,1.447,1.447,0,0,0,1.211-.561l.658.737a2.016,2.016,0,0,1-.816.666,2.682,2.682,0,0,1-1.141.239m-.153-4.124a.835.835,0,0,0-.647.27,1.394,1.394,0,0,0-.318.773h1.865V66.81a1,1,0,0,0-.241-.692.865.865,0,0,0-.659-.245" transform="translate(-340.891 -34.044)"/>
      <path id="Trazado_787245" data-name="Trazado 787245" d="M662.374,68.917a.88.88,0,0,0,.6-.2.713.713,0,0,0,.241-.542h1.257a1.714,1.714,0,0,1-.278.935,1.839,1.839,0,0,1-.749.658A2.345,2.345,0,0,1,662.4,70a2.18,2.18,0,0,1-1.7-.684,2.707,2.707,0,0,1-.622-1.891v-.088a2.679,2.679,0,0,1,.617-1.851,2.154,2.154,0,0,1,1.693-.691,2.11,2.11,0,0,1,1.51.536,1.9,1.9,0,0,1,.578,1.426h-1.257a.92.92,0,0,0-.241-.637.9.9,0,0,0-1.32.1,1.978,1.978,0,0,0-.239,1.108v.139a2,2,0,0,0,.237,1.115.817.817,0,0,0,.719.339" transform="translate(-346.535 -34.044)"/>
      <path id="Trazado_787246" data-name="Trazado 787246" d="M673.917,69.5a1.682,1.682,0,0,1-1.373.6,1.587,1.587,0,0,1-1.231-.464,1.98,1.98,0,0,1-.434-1.359V64.989h1.34v3.246q0,.784.714.785a.967.967,0,0,0,.937-.474V64.989h1.345v5.019h-1.262Z" transform="translate(-352.206 -34.147)"/>
      <path id="Trazado_787247" data-name="Trazado 787247" d="M684.959,66.143a3.656,3.656,0,0,0-.483-.037.981.981,0,0,0-1,.515v3.284h-1.341V64.886h1.266l.037.6a1.242,1.242,0,0,1,1.118-.691,1.412,1.412,0,0,1,.418.06Z" transform="translate(-358.117 -34.044)"/>
      <path id="Trazado_787248" data-name="Trazado 787248" d="M691.87,68.518a.431.431,0,0,0-.244-.387,2.76,2.76,0,0,0-.781-.253q-1.791-.375-1.791-1.521a1.379,1.379,0,0,1,.554-1.115,2.236,2.236,0,0,1,1.45-.448,2.408,2.408,0,0,1,1.529.45,1.419,1.419,0,0,1,.573,1.169h-1.341a.65.65,0,0,0-.186-.475.787.787,0,0,0-.58-.188.8.8,0,0,0-.524.153.484.484,0,0,0-.186.39.414.414,0,0,0,.211.359,2.172,2.172,0,0,0,.712.237,5.868,5.868,0,0,1,.845.225,1.387,1.387,0,0,1,1.062,1.35,1.311,1.311,0,0,1-.589,1.111,2.543,2.543,0,0,1-1.521.424,2.655,2.655,0,0,1-1.121-.225,1.885,1.885,0,0,1-.768-.617,1.436,1.436,0,0,1-.278-.846h1.271a.7.7,0,0,0,.265.547,1.047,1.047,0,0,0,.658.19.97.97,0,0,0,.582-.146.456.456,0,0,0,.2-.383" transform="translate(-361.665 -34.044)"/>
      <path id="Trazado_787249" data-name="Trazado 787249" d="M699.278,67.349a2.974,2.974,0,0,1,.287-1.331,2.111,2.111,0,0,1,.828-.9,2.418,2.418,0,0,1,1.255-.32,2.283,2.283,0,0,1,1.658.622,2.492,2.492,0,0,1,.717,1.688l.009.343a2.625,2.625,0,0,1-.645,1.853,2.5,2.5,0,0,1-3.463,0,2.669,2.669,0,0,1-.647-1.892Zm1.341.1a1.881,1.881,0,0,0,.269,1.094.967.967,0,0,0,1.531,0,2.05,2.05,0,0,0,.274-1.2,1.855,1.855,0,0,0-.274-1.087.89.89,0,0,0-.77-.386.876.876,0,0,0-.761.383,2.091,2.091,0,0,0-.269,1.187" transform="translate(-367.115 -34.044)"/>
      <path id="Trazado_787250" data-name="Trazado 787250" d="M713.461,68.518a.431.431,0,0,0-.244-.387,2.757,2.757,0,0,0-.781-.253q-1.791-.375-1.791-1.521a1.378,1.378,0,0,1,.554-1.115,2.236,2.236,0,0,1,1.45-.448,2.408,2.408,0,0,1,1.529.45,1.418,1.418,0,0,1,.573,1.169h-1.341a.65.65,0,0,0-.186-.475.787.787,0,0,0-.58-.188.8.8,0,0,0-.524.153.484.484,0,0,0-.186.39.414.414,0,0,0,.211.359,2.172,2.172,0,0,0,.712.237,5.872,5.872,0,0,1,.844.225,1.387,1.387,0,0,1,1.062,1.35,1.311,1.311,0,0,1-.589,1.111,2.544,2.544,0,0,1-1.521.424,2.655,2.655,0,0,1-1.121-.225,1.885,1.885,0,0,1-.768-.617,1.436,1.436,0,0,1-.278-.846h1.271a.7.7,0,0,0,.265.547,1.047,1.047,0,0,0,.658.19.971.971,0,0,0,.582-.146.456.456,0,0,0,.2-.383" transform="translate(-373 -34.044)"/>
      <path id="Trazado_787251" data-name="Trazado 787251" d="M539.99,227.618h-1.109v2.472H537.49v-6.754H540a2.838,2.838,0,0,1,1.846.533,1.841,1.841,0,0,1,.649,1.508,2.082,2.082,0,0,1-.3,1.153,2.042,2.042,0,0,1-.907.735l1.462,2.76v.065h-1.494Zm-1.109-1.127H540a1.148,1.148,0,0,0,.812-.267.952.952,0,0,0,.288-.735,1.02,1.02,0,0,0-.272-.751,1.125,1.125,0,0,0-.832-.274h-1.118Z" transform="translate(-282.178 -117.278)"/>
      <path id="Trazado_787252" data-name="Trazado 787252" d="M552.178,232a2.463,2.463,0,0,1-1.8-.677,2.409,2.409,0,0,1-.694-1.8v-.13a3.034,3.034,0,0,1,.292-1.352,2.149,2.149,0,0,1,.828-.919,2.324,2.324,0,0,1,1.222-.322,2.082,2.082,0,0,1,1.621.649,2.638,2.638,0,0,1,.591,1.842v.547h-3.2a1.247,1.247,0,0,0,.392.788,1.184,1.184,0,0,0,.828.3,1.448,1.448,0,0,0,1.211-.561l.658.737a2.016,2.016,0,0,1-.816.666,2.683,2.683,0,0,1-1.141.239m-.153-4.124a.836.836,0,0,0-.647.27,1.4,1.4,0,0,0-.318.773h1.865v-.107a1,1,0,0,0-.241-.692.865.865,0,0,0-.659-.245" transform="translate(-288.581 -119.093)"/>
      <path id="Trazado_787253" data-name="Trazado 787253" d="M562.735,230.917a.879.879,0,0,0,.6-.2.715.715,0,0,0,.241-.542h1.257a1.723,1.723,0,0,1-.279.935,1.836,1.836,0,0,1-.749.658,2.344,2.344,0,0,1-1.051.234,2.179,2.179,0,0,1-1.7-.684,2.707,2.707,0,0,1-.622-1.891v-.088a2.678,2.678,0,0,1,.617-1.851,2.154,2.154,0,0,1,1.693-.691,2.111,2.111,0,0,1,1.51.536,1.9,1.9,0,0,1,.578,1.426h-1.257a.922.922,0,0,0-.241-.637.9.9,0,0,0-1.32.1,1.98,1.98,0,0,0-.239,1.108v.139a2,2,0,0,0,.237,1.115.818.818,0,0,0,.719.339" transform="translate(-294.226 -119.093)"/>
      <path id="Trazado_787254" data-name="Trazado 787254" d="M574.279,231.5a1.681,1.681,0,0,1-1.373.6,1.585,1.585,0,0,1-1.231-.464,1.979,1.979,0,0,1-.434-1.359v-3.289h1.34v3.247q0,.784.714.784a.968.968,0,0,0,.937-.473v-3.558h1.345v5.019h-1.262Z" transform="translate(-299.897 -119.195)"/>
      <path id="Trazado_787255" data-name="Trazado 787255" d="M585.321,228.143a3.652,3.652,0,0,0-.483-.037.981.981,0,0,0-1,.515v3.284H582.5v-5.019h1.267l.037.6a1.241,1.241,0,0,1,1.117-.691,1.416,1.416,0,0,1,.418.06Z" transform="translate(-305.808 -119.093)"/>
      <path id="Trazado_787256" data-name="Trazado 787256" d="M592.232,230.518a.431.431,0,0,0-.244-.387,2.762,2.762,0,0,0-.781-.253q-1.79-.376-1.791-1.521a1.379,1.379,0,0,1,.554-1.115,2.235,2.235,0,0,1,1.45-.448,2.408,2.408,0,0,1,1.529.45,1.418,1.418,0,0,1,.573,1.169h-1.34a.65.65,0,0,0-.186-.475.787.787,0,0,0-.58-.188.8.8,0,0,0-.524.153.483.483,0,0,0-.186.39.413.413,0,0,0,.211.359,2.174,2.174,0,0,0,.712.237,5.854,5.854,0,0,1,.845.225,1.387,1.387,0,0,1,1.062,1.35,1.31,1.31,0,0,1-.589,1.111,2.544,2.544,0,0,1-1.521.424,2.654,2.654,0,0,1-1.121-.225,1.88,1.88,0,0,1-.768-.617,1.435,1.435,0,0,1-.278-.846h1.271a.7.7,0,0,0,.265.547,1.048,1.048,0,0,0,.658.19.971.971,0,0,0,.582-.146.455.455,0,0,0,.2-.383" transform="translate(-309.355 -119.093)"/>
      <path id="Trazado_787257" data-name="Trazado 787257" d="M599.639,229.349a2.973,2.973,0,0,1,.287-1.331,2.107,2.107,0,0,1,.828-.9,2.419,2.419,0,0,1,1.255-.32,2.284,2.284,0,0,1,1.658.622,2.493,2.493,0,0,1,.717,1.688l.009.343a2.623,2.623,0,0,1-.645,1.853,2.5,2.5,0,0,1-3.463,0,2.67,2.67,0,0,1-.647-1.892Zm1.34.095a1.881,1.881,0,0,0,.269,1.094.967.967,0,0,0,1.531,0,2.053,2.053,0,0,0,.274-1.2,1.858,1.858,0,0,0-.274-1.087.89.89,0,0,0-.77-.386.876.876,0,0,0-.761.383,2.091,2.091,0,0,0-.269,1.187" transform="translate(-314.805 -119.093)"/>
      <path id="Trazado_787258" data-name="Trazado 787258" d="M613.823,230.518a.431.431,0,0,0-.244-.387,2.764,2.764,0,0,0-.781-.253q-1.791-.376-1.791-1.521a1.378,1.378,0,0,1,.554-1.115,2.235,2.235,0,0,1,1.45-.448,2.408,2.408,0,0,1,1.529.45,1.418,1.418,0,0,1,.573,1.169h-1.341a.651.651,0,0,0-.186-.475.787.787,0,0,0-.58-.188.8.8,0,0,0-.524.153.483.483,0,0,0-.186.39.413.413,0,0,0,.211.359,2.174,2.174,0,0,0,.712.237,5.856,5.856,0,0,1,.845.225,1.387,1.387,0,0,1,1.062,1.35,1.309,1.309,0,0,1-.589,1.111,2.544,2.544,0,0,1-1.521.424,2.654,2.654,0,0,1-1.12-.225,1.881,1.881,0,0,1-.768-.617,1.435,1.435,0,0,1-.278-.846h1.271a.7.7,0,0,0,.265.547,1.048,1.048,0,0,0,.658.19.972.972,0,0,0,.582-.146.455.455,0,0,0,.2-.383" transform="translate(-320.691 -119.093)"/>
      <path id="Trazado_787259" data-name="Trazado 787259" d="M627.922,225.208a1.673,1.673,0,0,1,1.341-.64q1.632,0,1.656,1.9v3.215h-1.341V226.5a.935.935,0,0,0-.185-.638.8.8,0,0,0-.617-.207.913.913,0,0,0-.854.455v3.567h-1.34v-7.125h1.34Z" transform="translate(-328.95 -116.868)"/>
      <path id="Trazado_787260" data-name="Trazado 787260" d="M640.812,231.5a1.681,1.681,0,0,1-1.373.6,1.585,1.585,0,0,1-1.231-.464,1.979,1.979,0,0,1-.434-1.359v-3.289h1.34v3.247q0,.784.714.784a.967.967,0,0,0,.937-.473v-3.558h1.345v5.019h-1.262Z" transform="translate(-334.826 -119.195)"/>
      <path id="Trazado_787261" data-name="Trazado 787261" d="M650.291,226.886l.042.561a1.764,1.764,0,0,1,1.443-.654,1.339,1.339,0,0,1,1.331.765,1.724,1.724,0,0,1,1.508-.765,1.5,1.5,0,0,1,1.215.475,2.182,2.182,0,0,1,.4,1.431V231.9h-1.345v-3.2a.953.953,0,0,0-.167-.624.739.739,0,0,0-.589-.2.837.837,0,0,0-.835.575l0,3.446h-1.341v-3.2a.946.946,0,0,0-.172-.631.747.747,0,0,0-.585-.195.868.868,0,0,0-.826.473V231.9h-1.341v-5.019Z" transform="translate(-340.737 -119.093)"/>
      <path id="Trazado_787262" data-name="Trazado 787262" d="M669.036,231.905a1.473,1.473,0,0,1-.134-.45,1.623,1.623,0,0,1-1.266.542,1.782,1.782,0,0,1-1.222-.427,1.372,1.372,0,0,1-.485-1.076,1.419,1.419,0,0,1,.591-1.225,2.917,2.917,0,0,1,1.71-.431h.617v-.288a.827.827,0,0,0-.179-.557.7.7,0,0,0-.564-.209.8.8,0,0,0-.531.162.55.55,0,0,0-.192.445h-1.341a1.349,1.349,0,0,1,.269-.807,1.777,1.777,0,0,1,.761-.582,2.766,2.766,0,0,1,1.1-.211,2.187,2.187,0,0,1,1.472.466,1.63,1.63,0,0,1,.545,1.31v2.176a2.385,2.385,0,0,0,.2,1.081v.079Zm-1.109-.932a1.158,1.158,0,0,0,.547-.132.873.873,0,0,0,.371-.355v-.863h-.5q-1.006,0-1.072.7l0,.079a.536.536,0,0,0,.176.413.685.685,0,0,0,.483.162" transform="translate(-349.607 -119.093)"/>
      <path id="Trazado_787263" data-name="Trazado 787263" d="M678.274,226.886l.042.58a1.752,1.752,0,0,1,1.443-.673,1.456,1.456,0,0,1,1.188.468,2.189,2.189,0,0,1,.4,1.4V231.9H680v-3.21a.87.87,0,0,0-.186-.619.831.831,0,0,0-.617-.192.921.921,0,0,0-.849.482V231.9h-1.34v-5.019Z" transform="translate(-355.426 -119.093)"/>
      <path id="Trazado_787264" data-name="Trazado 787264" d="M687.832,229.349a2.974,2.974,0,0,1,.287-1.331,2.11,2.11,0,0,1,.828-.9,2.419,2.419,0,0,1,1.255-.32,2.283,2.283,0,0,1,1.658.622,2.493,2.493,0,0,1,.717,1.688l.009.343a2.625,2.625,0,0,1-.645,1.853,2.5,2.5,0,0,1-3.463,0,2.67,2.67,0,0,1-.647-1.892Zm1.34.095a1.88,1.88,0,0,0,.269,1.094.966.966,0,0,0,1.531,0,2.049,2.049,0,0,0,.274-1.2,1.854,1.854,0,0,0-.274-1.087.89.89,0,0,0-.77-.386.876.876,0,0,0-.761.383,2.09,2.09,0,0,0-.269,1.187" transform="translate(-361.106 -119.093)"/>
      <path id="Trazado_787265" data-name="Trazado 787265" d="M702.017,230.518a.431.431,0,0,0-.244-.387,2.757,2.757,0,0,0-.781-.253q-1.791-.376-1.791-1.521a1.379,1.379,0,0,1,.554-1.115,2.236,2.236,0,0,1,1.45-.448,2.408,2.408,0,0,1,1.529.45,1.418,1.418,0,0,1,.573,1.169h-1.34a.65.65,0,0,0-.186-.475.787.787,0,0,0-.58-.188.8.8,0,0,0-.524.153.484.484,0,0,0-.186.39.414.414,0,0,0,.211.359,2.168,2.168,0,0,0,.712.237,5.878,5.878,0,0,1,.845.225,1.387,1.387,0,0,1,1.062,1.35,1.311,1.311,0,0,1-.589,1.111,2.543,2.543,0,0,1-1.521.424,2.655,2.655,0,0,1-1.121-.225,1.885,1.885,0,0,1-.768-.617,1.436,1.436,0,0,1-.278-.846h1.271a.7.7,0,0,0,.265.547,1.047,1.047,0,0,0,.658.19.971.971,0,0,0,.582-.146.456.456,0,0,0,.2-.383" transform="translate(-366.992 -119.093)"/>
      <rect id="Rectángulo_372080" data-name="Rectángulo 372080" width="1.392" height="6.754" transform="translate(264.471 183.01)"/>
      <path id="Trazado_787266" data-name="Trazado 787266" d="M563.435,388.886l.042.58a1.752,1.752,0,0,1,1.443-.673,1.455,1.455,0,0,1,1.187.468,2.186,2.186,0,0,1,.4,1.4V393.9h-1.341v-3.21a.87.87,0,0,0-.186-.619.831.831,0,0,0-.617-.192.922.922,0,0,0-.849.482V393.9h-1.341v-5.019Z" transform="translate(-295.136 -204.141)"/>
      <path id="Trazado_787267" data-name="Trazado 787267" d="M573.379,391.572v-4.036h-.747v-.983h.747v-.427a1.733,1.733,0,0,1,.485-1.311,1.877,1.877,0,0,1,1.357-.466,3.132,3.132,0,0,1,.682.093l-.014,1.039a1.7,1.7,0,0,0-.408-.042q-.756,0-.756.71v.4h1v.983h-1v4.036Z" transform="translate(-300.627 -201.809)"/>
      <path id="Trazado_787268" data-name="Trazado 787268" d="M583.421,390.143a3.644,3.644,0,0,0-.483-.037.982.982,0,0,0-1,.515V393.9H580.6v-5.019h1.266l.037.6a1.242,1.242,0,0,1,1.118-.691,1.413,1.413,0,0,1,.418.06Z" transform="translate(-304.811 -204.141)"/>
      <path id="Trazado_787269" data-name="Trazado 787269" d="M590.291,393.9a1.487,1.487,0,0,1-.134-.45,1.623,1.623,0,0,1-1.266.542,1.781,1.781,0,0,1-1.222-.427,1.372,1.372,0,0,1-.485-1.076,1.419,1.419,0,0,1,.591-1.224,2.917,2.917,0,0,1,1.71-.431h.617v-.288a.829.829,0,0,0-.179-.557.7.7,0,0,0-.564-.209.8.8,0,0,0-.531.162.551.551,0,0,0-.192.445h-1.341a1.346,1.346,0,0,1,.269-.807,1.774,1.774,0,0,1,.761-.582,2.766,2.766,0,0,1,1.1-.211,2.188,2.188,0,0,1,1.472.466,1.63,1.63,0,0,1,.545,1.31v2.176a2.391,2.391,0,0,0,.2,1.081v.079Zm-1.109-.932a1.156,1.156,0,0,0,.547-.132.873.873,0,0,0,.371-.355v-.863h-.5q-1.007,0-1.072.7l0,.079a.537.537,0,0,0,.176.413.686.686,0,0,0,.483.162" transform="translate(-308.266 -204.141)"/>
      <path id="Trazado_787270" data-name="Trazado 787270" d="M600.435,394a2.463,2.463,0,0,1-1.8-.677,2.409,2.409,0,0,1-.693-1.8v-.13a3.033,3.033,0,0,1,.292-1.352,2.149,2.149,0,0,1,.828-.919,2.323,2.323,0,0,1,1.222-.322,2.082,2.082,0,0,1,1.621.649,2.639,2.639,0,0,1,.591,1.842v.547h-3.2a1.247,1.247,0,0,0,.392.789,1.185,1.185,0,0,0,.828.3,1.448,1.448,0,0,0,1.211-.561l.658.737a2.017,2.017,0,0,1-.816.666,2.682,2.682,0,0,1-1.141.239m-.153-4.124a.836.836,0,0,0-.647.27,1.4,1.4,0,0,0-.318.773h1.865v-.107a1,1,0,0,0-.241-.692.865.865,0,0,0-.659-.245" transform="translate(-313.916 -204.141)"/>
      <path id="Trazado_787271" data-name="Trazado 787271" d="M611.572,392.518a.431.431,0,0,0-.244-.387,2.763,2.763,0,0,0-.781-.253q-1.791-.375-1.791-1.521a1.379,1.379,0,0,1,.554-1.115,2.236,2.236,0,0,1,1.45-.448,2.409,2.409,0,0,1,1.529.45,1.418,1.418,0,0,1,.573,1.169h-1.34a.65.65,0,0,0-.186-.475.787.787,0,0,0-.58-.188.8.8,0,0,0-.524.153.482.482,0,0,0-.186.39.413.413,0,0,0,.211.359,2.178,2.178,0,0,0,.712.237,5.854,5.854,0,0,1,.845.225,1.387,1.387,0,0,1,1.062,1.35,1.309,1.309,0,0,1-.589,1.111,2.544,2.544,0,0,1-1.521.424,2.654,2.654,0,0,1-1.121-.225,1.882,1.882,0,0,1-.768-.617,1.436,1.436,0,0,1-.278-.846h1.271a.7.7,0,0,0,.265.547,1.048,1.048,0,0,0,.658.19.971.971,0,0,0,.582-.146.454.454,0,0,0,.2-.383" transform="translate(-319.509 -204.141)"/>
      <path id="Trazado_787272" data-name="Trazado 787272" d="M620.506,386.391v1.234h.858v.983h-.858v2.5a.6.6,0,0,0,.107.4.535.535,0,0,0,.408.121,2.162,2.162,0,0,0,.394-.032v1.016a2.749,2.749,0,0,1-.812.121,1.28,1.28,0,0,1-1.438-1.424v-2.7h-.733v-.983h.733v-1.234Z" transform="translate(-324.672 -202.88)"/>
      <path id="Trazado_787273" data-name="Trazado 787273" d="M629,390.143a3.64,3.64,0,0,0-.483-.037.981.981,0,0,0-1,.515V393.9h-1.341v-5.019h1.266l.037.6a1.241,1.241,0,0,1,1.118-.691,1.412,1.412,0,0,1,.418.06Z" transform="translate(-328.738 -204.141)"/>
      <path id="Trazado_787274" data-name="Trazado 787274" d="M636.442,393.5a1.682,1.682,0,0,1-1.373.6,1.585,1.585,0,0,1-1.231-.465,1.976,1.976,0,0,1-.434-1.358v-3.289h1.341v3.246q0,.785.714.785a.967.967,0,0,0,.937-.474v-3.557h1.345v5.019h-1.262Z" transform="translate(-332.532 -204.244)"/>
      <path id="Trazado_787275" data-name="Trazado 787275" d="M646.52,392.917a.879.879,0,0,0,.6-.2.713.713,0,0,0,.241-.542h1.257a1.723,1.723,0,0,1-.278.935,1.833,1.833,0,0,1-.749.658,2.344,2.344,0,0,1-1.051.234,2.179,2.179,0,0,1-1.7-.684,2.71,2.71,0,0,1-.622-1.891v-.088a2.677,2.677,0,0,1,.617-1.851,2.153,2.153,0,0,1,1.693-.691,2.11,2.11,0,0,1,1.51.536,1.9,1.9,0,0,1,.578,1.426h-1.257a.92.92,0,0,0-.241-.636.9.9,0,0,0-1.32.1,1.974,1.974,0,0,0-.239,1.108v.139a2,2,0,0,0,.237,1.115.818.818,0,0,0,.719.339" transform="translate(-338.212 -204.141)"/>
      <path id="Trazado_787276" data-name="Trazado 787276" d="M656.18,386.391v1.234h.858v.983h-.858v2.5a.6.6,0,0,0,.107.4.534.534,0,0,0,.408.121,2.164,2.164,0,0,0,.394-.032v1.016a2.75,2.75,0,0,1-.812.121,1.28,1.28,0,0,1-1.438-1.424v-2.7h-.733v-.983h.733v-1.234Z" transform="translate(-343.401 -202.88)"/>
      <path id="Trazado_787277" data-name="Trazado 787277" d="M664.821,393.5a1.682,1.682,0,0,1-1.373.6,1.585,1.585,0,0,1-1.231-.465,1.976,1.976,0,0,1-.434-1.358v-3.289h1.34v3.246q0,.785.714.785a.967.967,0,0,0,.937-.474v-3.557h1.345v5.019h-1.262Z" transform="translate(-347.431 -204.244)"/>
      <path id="Trazado_787278" data-name="Trazado 787278" d="M675.862,390.143a3.634,3.634,0,0,0-.482-.037.981.981,0,0,0-1,.515V393.9h-1.341v-5.019h1.266l.037.6a1.241,1.241,0,0,1,1.118-.691,1.41,1.41,0,0,1,.418.06Z" transform="translate(-353.341 -204.141)"/>
      <path id="Trazado_787279" data-name="Trazado 787279" d="M682.732,393.9a1.486,1.486,0,0,1-.134-.45,1.623,1.623,0,0,1-1.266.542,1.781,1.781,0,0,1-1.222-.427,1.373,1.373,0,0,1-.485-1.076,1.419,1.419,0,0,1,.591-1.224,2.916,2.916,0,0,1,1.71-.431h.617v-.288a.829.829,0,0,0-.179-.557.7.7,0,0,0-.564-.209.8.8,0,0,0-.531.162.551.551,0,0,0-.192.445h-1.341a1.346,1.346,0,0,1,.269-.807,1.777,1.777,0,0,1,.76-.582,2.768,2.768,0,0,1,1.1-.211,2.189,2.189,0,0,1,1.473.466,1.629,1.629,0,0,1,.545,1.31v2.176a2.393,2.393,0,0,0,.2,1.081v.079Zm-1.109-.932a1.156,1.156,0,0,0,.547-.132.87.87,0,0,0,.372-.355v-.863h-.5q-1.007,0-1.072.7l0,.079a.537.537,0,0,0,.176.413.685.685,0,0,0,.483.162" transform="translate(-356.797 -204.141)"/>
      <path id="Trazado_787280" data-name="Trazado 787280" d="M535.99,552.7h-2.44l-.464,1.392h-1.48l2.514-6.754h1.29l2.528,6.754h-1.48Zm-2.064-1.127h1.689l-.849-2.528Z" transform="translate(-279.089 -287.375)"/>
      <path id="Trazado_787281" data-name="Trazado 787281" d="M547.337,550.886l.042.561a1.763,1.763,0,0,1,1.443-.654,1.339,1.339,0,0,1,1.331.765,1.723,1.723,0,0,1,1.508-.765,1.5,1.5,0,0,1,1.215.476,2.184,2.184,0,0,1,.4,1.431V555.9h-1.345v-3.2a.954.954,0,0,0-.167-.624.74.74,0,0,0-.589-.2.837.837,0,0,0-.835.575l0,3.446H549v-3.2a.945.945,0,0,0-.172-.631.746.746,0,0,0-.585-.195.869.869,0,0,0-.826.473V555.9h-1.34v-5.019Z" transform="translate(-286.687 -289.19)"/>
      <path id="Trazado_787282" data-name="Trazado 787282" d="M567.917,551.217a3.039,3.039,0,0,1-.515,1.881,1.706,1.706,0,0,1-1.438.675,1.568,1.568,0,0,1-1.3-.626l-.06.533h-1.206v-7.125h1.34v2.556a1.527,1.527,0,0,1,1.22-.542,1.721,1.721,0,0,1,1.441.675,3.045,3.045,0,0,1,.522,1.9Zm-1.341-.1a2,2,0,0,0-.241-1.111.814.814,0,0,0-.719-.35.885.885,0,0,0-.882.524v1.981a.9.9,0,0,0,.891.529.828.828,0,0,0,.854-.64,3.3,3.3,0,0,0,.1-.932" transform="translate(-295.777 -286.965)"/>
      <path id="Trazado_787283" data-name="Trazado 787283" d="M574.634,547.49a.66.66,0,0,1,.2-.5.87.87,0,0,1,1.1,0,.708.708,0,0,1,0,1,.86.86,0,0,1-1.09,0,.659.659,0,0,1-.206-.5m1.424,6.318h-1.345v-5.019h1.345Z" transform="translate(-301.678 -287.093)"/>
      <path id="Trazado_787284" data-name="Trazado 787284" d="M582.066,556a2.463,2.463,0,0,1-1.8-.677,2.409,2.409,0,0,1-.694-1.8v-.13a3.034,3.034,0,0,1,.292-1.352,2.149,2.149,0,0,1,.828-.919,2.323,2.323,0,0,1,1.222-.322,2.082,2.082,0,0,1,1.621.649,2.638,2.638,0,0,1,.591,1.842v.547h-3.2a1.247,1.247,0,0,0,.392.789,1.184,1.184,0,0,0,.828.3,1.448,1.448,0,0,0,1.211-.561l.658.737a2.017,2.017,0,0,1-.816.666,2.684,2.684,0,0,1-1.141.239m-.153-4.124a.836.836,0,0,0-.647.27,1.4,1.4,0,0,0-.318.773h1.865v-.107a1,1,0,0,0-.241-.692.866.866,0,0,0-.659-.245" transform="translate(-304.272 -289.19)"/>
      <path id="Trazado_787285" data-name="Trazado 787285" d="M591.97,550.886l.042.58a1.752,1.752,0,0,1,1.443-.673,1.456,1.456,0,0,1,1.188.468,2.186,2.186,0,0,1,.4,1.4V555.9H593.7v-3.21a.87.87,0,0,0-.186-.619.83.83,0,0,0-.617-.192.922.922,0,0,0-.849.482V555.9h-1.341v-5.019Z" transform="translate(-310.117 -289.19)"/>
      <path id="Trazado_787286" data-name="Trazado 787286" d="M603.055,548.391v1.234h.858v.983h-.858v2.5a.6.6,0,0,0,.107.4.534.534,0,0,0,.408.121,2.165,2.165,0,0,0,.394-.032v1.016a2.747,2.747,0,0,1-.812.121,1.28,1.28,0,0,1-1.438-1.424v-2.7h-.733v-.983h.733v-1.234Z" transform="translate(-315.51 -287.929)"/>
      <path id="Trazado_787287" data-name="Trazado 787287" d="M610.836,556a2.463,2.463,0,0,1-1.8-.677,2.408,2.408,0,0,1-.693-1.8v-.13a3.033,3.033,0,0,1,.292-1.352,2.149,2.149,0,0,1,.828-.919,2.323,2.323,0,0,1,1.222-.322,2.082,2.082,0,0,1,1.621.649,2.638,2.638,0,0,1,.591,1.842v.547h-3.2a1.247,1.247,0,0,0,.392.789,1.184,1.184,0,0,0,.828.3,1.448,1.448,0,0,0,1.211-.561l.658.737a2.016,2.016,0,0,1-.816.666,2.683,2.683,0,0,1-1.141.239m-.153-4.124a.836.836,0,0,0-.647.27,1.4,1.4,0,0,0-.318.773h1.865v-.107a1,1,0,0,0-.241-.692.865.865,0,0,0-.659-.245" transform="translate(-319.376 -289.19)"/>
      <path id="Trazado_787288" data-name="Trazado 787288" d="M624.077,551.133a3.028,3.028,0,0,1,.526-1.87,1.708,1.708,0,0,1,1.44-.7,1.538,1.538,0,0,1,1.211.547v-2.561H628.6v7.125h-1.211l-.065-.533a1.578,1.578,0,0,1-1.29.627,1.7,1.7,0,0,1-1.422-.7,3.122,3.122,0,0,1-.536-1.941m1.34.1a1.983,1.983,0,0,0,.246,1.083.8.8,0,0,0,.714.376.9.9,0,0,0,.877-.525v-1.984a.884.884,0,0,0-.867-.525q-.969,0-.969,1.575" transform="translate(-327.635 -286.964)"/>
      <path id="Trazado_787289" data-name="Trazado 787289" d="M637.9,556a2.462,2.462,0,0,1-1.8-.677,2.409,2.409,0,0,1-.694-1.8v-.13a3.032,3.032,0,0,1,.292-1.352,2.148,2.148,0,0,1,.828-.919,2.323,2.323,0,0,1,1.222-.322,2.083,2.083,0,0,1,1.621.649,2.638,2.638,0,0,1,.591,1.842v.547h-3.2a1.246,1.246,0,0,0,.392.789,1.185,1.185,0,0,0,.828.3,1.449,1.449,0,0,0,1.211-.561l.658.737a2.013,2.013,0,0,1-.816.666A2.684,2.684,0,0,1,637.9,556m-.153-4.124a.835.835,0,0,0-.647.27,1.4,1.4,0,0,0-.318.773h1.865v-.107a1,1,0,0,0-.241-.692.865.865,0,0,0-.659-.245" transform="translate(-333.582 -289.19)"/>
      <path id="Trazado_787290" data-name="Trazado 787290" d="M652.664,548.391v1.234h.858v.983h-.858v2.5a.6.6,0,0,0,.107.4.533.533,0,0,0,.408.121,2.167,2.167,0,0,0,.394-.032v1.016a2.751,2.751,0,0,1-.812.121,1.28,1.28,0,0,1-1.438-1.424v-2.7h-.733v-.983h.733v-1.234Z" transform="translate(-341.555 -287.929)"/>
      <path id="Trazado_787291" data-name="Trazado 787291" d="M661.156,552.143a3.65,3.65,0,0,0-.483-.037.981.981,0,0,0-1,.515v3.284h-1.34v-5.019H659.6l.037.6a1.241,1.241,0,0,1,1.117-.691,1.413,1.413,0,0,1,.418.06Z" transform="translate(-345.621 -289.19)"/>
      <path id="Trazado_787292" data-name="Trazado 787292" d="M668.025,555.905a1.484,1.484,0,0,1-.134-.45,1.623,1.623,0,0,1-1.266.542,1.781,1.781,0,0,1-1.222-.427,1.373,1.373,0,0,1-.485-1.076,1.419,1.419,0,0,1,.591-1.225,2.916,2.916,0,0,1,1.71-.431h.617v-.288a.829.829,0,0,0-.179-.557.7.7,0,0,0-.564-.208.8.8,0,0,0-.531.162.551.551,0,0,0-.192.445h-1.341a1.346,1.346,0,0,1,.269-.807,1.778,1.778,0,0,1,.76-.582,2.769,2.769,0,0,1,1.1-.211,2.189,2.189,0,0,1,1.473.466,1.629,1.629,0,0,1,.545,1.31v2.176a2.392,2.392,0,0,0,.2,1.081v.079Zm-1.109-.932a1.157,1.157,0,0,0,.547-.132.871.871,0,0,0,.371-.355v-.863h-.5q-1.007,0-1.072.7l0,.079a.537.537,0,0,0,.176.413.684.684,0,0,0,.483.162" transform="translate(-349.076 -289.19)"/>
      <path id="Trazado_787293" data-name="Trazado 787293" d="M680.583,551.217a3.039,3.039,0,0,1-.515,1.881,1.705,1.705,0,0,1-1.438.675,1.568,1.568,0,0,1-1.3-.626l-.06.533H676.06v-7.125h1.34v2.556a1.527,1.527,0,0,1,1.22-.542,1.721,1.721,0,0,1,1.441.675,3.044,3.044,0,0,1,.522,1.9Zm-1.341-.1a2,2,0,0,0-.241-1.111.815.815,0,0,0-.719-.35.885.885,0,0,0-.882.524v1.981a.9.9,0,0,0,.891.529.828.828,0,0,0,.854-.64,3.3,3.3,0,0,0,.1-.932" transform="translate(-354.926 -286.965)"/>
      <path id="Trazado_787294" data-name="Trazado 787294" d="M690.007,555.905a1.487,1.487,0,0,1-.135-.45,1.623,1.623,0,0,1-1.266.542,1.781,1.781,0,0,1-1.222-.427,1.373,1.373,0,0,1-.485-1.076,1.419,1.419,0,0,1,.591-1.225,2.916,2.916,0,0,1,1.71-.431h.617v-.288a.83.83,0,0,0-.179-.557.7.7,0,0,0-.564-.208.8.8,0,0,0-.531.162.551.551,0,0,0-.193.445H687.01a1.346,1.346,0,0,1,.269-.807,1.777,1.777,0,0,1,.76-.582,2.769,2.769,0,0,1,1.1-.211,2.189,2.189,0,0,1,1.473.466,1.628,1.628,0,0,1,.545,1.31v2.176a2.392,2.392,0,0,0,.2,1.081v.079Zm-1.109-.932a1.157,1.157,0,0,0,.547-.132.871.871,0,0,0,.371-.355v-.863h-.5q-1.007,0-1.072.7l0,.079a.537.537,0,0,0,.176.413.684.684,0,0,0,.483.162" transform="translate(-360.616 -289.19)"/>
      <path id="Trazado_787295" data-name="Trazado 787295" d="M698.406,548.789v5.293a1.8,1.8,0,0,1-.441,1.292,1.675,1.675,0,0,1-1.271.461,2.715,2.715,0,0,1-.663-.079v-1.062a2.494,2.494,0,0,0,.422.042q.608,0,.608-.645v-5.3Zm-1.452-1.3a.662.662,0,0,1,.2-.5.873.873,0,0,1,1.1,0,.711.711,0,0,1,0,1,.859.859,0,0,1-1.09,0,.66.66,0,0,1-.207-.5" transform="translate(-365.41 -287.093)"/>
      <path id="Trazado_787296" data-name="Trazado 787296" d="M702.8,553.349a2.98,2.98,0,0,1,.287-1.332,2.111,2.111,0,0,1,.828-.9,2.417,2.417,0,0,1,1.255-.32,2.284,2.284,0,0,1,1.658.622,2.493,2.493,0,0,1,.717,1.688l.009.343a2.623,2.623,0,0,1-.645,1.853,2.5,2.5,0,0,1-3.463,0,2.669,2.669,0,0,1-.647-1.892Zm1.341.095a1.876,1.876,0,0,0,.269,1.094.966.966,0,0,0,1.531,0,2.052,2.052,0,0,0,.274-1.2,1.857,1.857,0,0,0-.274-1.087.89.89,0,0,0-.77-.386.875.875,0,0,0-.761.383,2.086,2.086,0,0,0-.269,1.187" transform="translate(-368.963 -289.19)"/>
      <path id="Trazado_787297" data-name="Trazado 787297" d="M1010.6,225.551H873.325A3.325,3.325,0,0,1,870,222.226v-58.9A3.325,3.325,0,0,1,873.325,160H1010.6a3.325,3.325,0,0,1,3.325,3.325v58.9a3.325,3.325,0,0,1-3.325,3.325" transform="translate(-456.743 -84.027)" fill="#727997"/>
      <path id="Trazado_787298" data-name="Trazado 787298" d="M963.363,205.134a2.415,2.415,0,0,1-1.062.7,4.455,4.455,0,0,1-1.521.248,3.015,3.015,0,0,1-1.538-.382,2.556,2.556,0,0,1-1.02-1.111,3.909,3.909,0,0,1-.369-1.712v-.459a4.157,4.157,0,0,1,.341-1.751,2.52,2.52,0,0,1,.984-1.132,3.238,3.238,0,0,1,3.384.181,2.449,2.449,0,0,1,.8,1.668h-1.355a1.35,1.35,0,0,0-.41-.849,1.312,1.312,0,0,0-.874-.269,1.234,1.234,0,0,0-1.081.533,2.8,2.8,0,0,0-.376,1.587v.431a2.668,2.668,0,0,0,.4,1.605,1.381,1.381,0,0,0,1.183.543,1.545,1.545,0,0,0,1.118-.334v-1.165H960.7v-1.025h2.658Z" transform="translate(-502.864 -104.575)"/>
      <path id="Trazado_787299" data-name="Trazado 787299" d="M973.752,208a2.462,2.462,0,0,1-1.8-.677,2.406,2.406,0,0,1-.694-1.8v-.13a3.035,3.035,0,0,1,.292-1.352,2.15,2.15,0,0,1,.829-.919,2.323,2.323,0,0,1,1.222-.322,2.083,2.083,0,0,1,1.621.649,2.639,2.639,0,0,1,.591,1.842v.547h-3.2a1.246,1.246,0,0,0,.392.788,1.184,1.184,0,0,0,.828.3,1.449,1.449,0,0,0,1.211-.561l.658.737a2.017,2.017,0,0,1-.816.666,2.682,2.682,0,0,1-1.141.239m-.153-4.124a.835.835,0,0,0-.647.27,1.394,1.394,0,0,0-.318.773H974.5v-.107a1,1,0,0,0-.241-.692.865.865,0,0,0-.659-.245" transform="translate(-509.904 -106.493)"/>
      <path id="Trazado_787300" data-name="Trazado 787300" d="M983.656,202.886l.042.58a1.752,1.752,0,0,1,1.443-.673,1.456,1.456,0,0,1,1.188.468,2.189,2.189,0,0,1,.4,1.4V207.9h-1.34v-3.21a.87.87,0,0,0-.186-.619.831.831,0,0,0-.617-.192.921.921,0,0,0-.849.482V207.9h-1.34v-5.019Z" transform="translate(-515.749 -106.493)"/>
      <path id="Trazado_787301" data-name="Trazado 787301" d="M995.763,208a2.462,2.462,0,0,1-1.8-.677,2.407,2.407,0,0,1-.693-1.8v-.13a3.032,3.032,0,0,1,.292-1.352,2.149,2.149,0,0,1,.828-.919,2.324,2.324,0,0,1,1.222-.322,2.082,2.082,0,0,1,1.621.649,2.638,2.638,0,0,1,.591,1.842v.547h-3.2a1.245,1.245,0,0,0,.392.788,1.184,1.184,0,0,0,.828.3,1.449,1.449,0,0,0,1.211-.561l.658.737a2.017,2.017,0,0,1-.816.666,2.683,2.683,0,0,1-1.142.239m-.153-4.124a.834.834,0,0,0-.647.27,1.394,1.394,0,0,0-.318.773h1.865v-.107a1,1,0,0,0-.241-.692.866.866,0,0,0-.659-.245" transform="translate(-521.459 -106.493)"/>
      <path id="Trazado_787302" data-name="Trazado 787302" d="M1007.284,204.143a3.655,3.655,0,0,0-.483-.037.981.981,0,0,0-1,.515v3.284h-1.341v-5.019h1.266l.037.6a1.242,1.242,0,0,1,1.118-.691,1.413,1.413,0,0,1,.417.06Z" transform="translate(-527.335 -106.493)"/>
      <path id="Trazado_787303" data-name="Trazado 787303" d="M1014.154,207.905a1.471,1.471,0,0,1-.134-.45,1.623,1.623,0,0,1-1.266.542,1.78,1.78,0,0,1-1.222-.427,1.372,1.372,0,0,1-.485-1.076,1.419,1.419,0,0,1,.591-1.225,2.917,2.917,0,0,1,1.71-.431h.617v-.288a.829.829,0,0,0-.179-.557.705.705,0,0,0-.564-.209.8.8,0,0,0-.531.162.55.55,0,0,0-.192.445h-1.341a1.346,1.346,0,0,1,.269-.807,1.775,1.775,0,0,1,.761-.582,2.767,2.767,0,0,1,1.1-.211,2.189,2.189,0,0,1,1.472.466,1.63,1.63,0,0,1,.545,1.31v2.176a2.386,2.386,0,0,0,.2,1.081v.079Zm-1.109-.932a1.157,1.157,0,0,0,.547-.132.873.873,0,0,0,.371-.355v-.863h-.5q-1.007,0-1.072.7l0,.079a.535.535,0,0,0,.176.413.685.685,0,0,0,.483.162" transform="translate(-530.791 -106.493)"/>
      <rect id="Rectángulo_372081" data-name="Rectángulo 372081" width="1.345" height="7.125" transform="translate(485.618 94.287)"/>
      <path id="Trazado_787304" data-name="Trazado 787304" d="M1027.472,199.49a.66.66,0,0,1,.2-.5.87.87,0,0,1,1.1,0,.708.708,0,0,1,0,1,.86.86,0,0,1-1.09,0,.658.658,0,0,1-.206-.5m1.424,6.318h-1.345v-5.019h1.345Z" transform="translate(-539.414 -104.396)"/>
      <path id="Trazado_787305" data-name="Trazado 787305" d="M1032.355,203.133a3.025,3.025,0,0,1,.526-1.87,1.708,1.708,0,0,1,1.44-.7,1.537,1.537,0,0,1,1.211.547v-2.561h1.345v7.125h-1.211l-.065-.533a1.578,1.578,0,0,1-1.29.627,1.7,1.7,0,0,1-1.422-.7,3.122,3.122,0,0,1-.536-1.941m1.341.1a1.977,1.977,0,0,0,.246,1.083.8.8,0,0,0,.714.376.9.9,0,0,0,.877-.525v-1.984a.884.884,0,0,0-.867-.525q-.97,0-.969,1.575" transform="translate(-541.978 -104.267)"/>
      <path id="Trazado_787306" data-name="Trazado 787306" d="M1046.752,207.905a1.469,1.469,0,0,1-.135-.45,1.624,1.624,0,0,1-1.266.542,1.781,1.781,0,0,1-1.222-.427,1.372,1.372,0,0,1-.485-1.076,1.419,1.419,0,0,1,.591-1.225,2.915,2.915,0,0,1,1.71-.431h.616v-.288a.83.83,0,0,0-.178-.557.705.705,0,0,0-.564-.209.8.8,0,0,0-.531.162.55.55,0,0,0-.193.445h-1.341a1.346,1.346,0,0,1,.269-.807,1.776,1.776,0,0,1,.761-.582,2.764,2.764,0,0,1,1.1-.211,2.189,2.189,0,0,1,1.473.466,1.63,1.63,0,0,1,.545,1.31v2.176a2.389,2.389,0,0,0,.2,1.081v.079Zm-1.109-.932a1.157,1.157,0,0,0,.547-.132.867.867,0,0,0,.371-.355v-.863h-.5q-1.008,0-1.072.7l0,.079a.535.535,0,0,0,.176.413.683.683,0,0,0,.483.162" transform="translate(-547.904 -106.493)"/>
      <path id="Trazado_787307" data-name="Trazado 787307" d="M1054.347,203.133a3.025,3.025,0,0,1,.526-1.87,1.707,1.707,0,0,1,1.44-.7,1.538,1.538,0,0,1,1.211.547v-2.561h1.345v7.125h-1.211l-.065-.533a1.578,1.578,0,0,1-1.289.627,1.7,1.7,0,0,1-1.422-.7,3.122,3.122,0,0,1-.536-1.941m1.341.1a1.977,1.977,0,0,0,.246,1.083.8.8,0,0,0,.714.376.9.9,0,0,0,.877-.525v-1.984a.884.884,0,0,0-.868-.525q-.969,0-.969,1.575" transform="translate(-553.523 -104.267)"/>
      <path id="Trazado_787308" data-name="Trazado 787308" d="M1068.166,208a2.462,2.462,0,0,1-1.8-.677,2.407,2.407,0,0,1-.693-1.8v-.13a3.034,3.034,0,0,1,.292-1.352,2.149,2.149,0,0,1,.828-.919,2.323,2.323,0,0,1,1.222-.322,2.082,2.082,0,0,1,1.621.649,2.637,2.637,0,0,1,.592,1.842v.547h-3.2a1.243,1.243,0,0,0,.392.788,1.184,1.184,0,0,0,.828.3,1.449,1.449,0,0,0,1.211-.561l.658.737a2.018,2.018,0,0,1-.816.666,2.682,2.682,0,0,1-1.141.239m-.153-4.124a.835.835,0,0,0-.647.27,1.394,1.394,0,0,0-.318.773h1.865v-.107a1,1,0,0,0-.241-.692.865.865,0,0,0-.659-.245" transform="translate(-559.47 -106.493)"/>
      <path id="Trazado_787309" data-name="Trazado 787309" d="M1079.3,206.518a.432.432,0,0,0-.244-.387,2.765,2.765,0,0,0-.781-.253q-1.791-.376-1.791-1.521a1.379,1.379,0,0,1,.554-1.115,2.234,2.234,0,0,1,1.45-.448,2.409,2.409,0,0,1,1.528.45,1.418,1.418,0,0,1,.573,1.169h-1.34a.65.65,0,0,0-.186-.475.787.787,0,0,0-.58-.188.8.8,0,0,0-.524.153.482.482,0,0,0-.186.39.413.413,0,0,0,.211.359,2.172,2.172,0,0,0,.712.237,5.883,5.883,0,0,1,.844.225,1.387,1.387,0,0,1,1.062,1.35,1.311,1.311,0,0,1-.589,1.111,2.544,2.544,0,0,1-1.521.424,2.654,2.654,0,0,1-1.121-.225,1.882,1.882,0,0,1-.768-.617,1.437,1.437,0,0,1-.278-.846h1.271a.7.7,0,0,0,.265.547,1.046,1.046,0,0,0,.658.19.972.972,0,0,0,.582-.146.456.456,0,0,0,.2-.383" transform="translate(-565.064 -106.493)"/>
      <path id="Trazado_787310" data-name="Trazado 787310" d="M926.977,227.737a2.4,2.4,0,0,1-.8,1.716,2.83,2.83,0,0,1-1.914.627,2.54,2.54,0,0,1-2.042-.875,3.586,3.586,0,0,1-.745-2.4v-.413a4.045,4.045,0,0,1,.343-1.716,2.574,2.574,0,0,1,.981-1.139,3.066,3.066,0,0,1,3.366.23,2.573,2.573,0,0,1,.826,1.758H925.6a1.408,1.408,0,0,0-.365-.949,1.346,1.346,0,0,0-.953-.295,1.181,1.181,0,0,0-1.041.5,2.792,2.792,0,0,0-.355,1.547v.51a2.99,2.99,0,0,0,.332,1.6,1.159,1.159,0,0,0,1.045.505,1.375,1.375,0,0,0,.963-.294,1.333,1.333,0,0,0,.364-.912Z" transform="translate(-483.764 -117.175)"/>
      <path id="Trazado_787311" data-name="Trazado 787311" d="M934.362,229.349a2.974,2.974,0,0,1,.287-1.331,2.107,2.107,0,0,1,.828-.9,2.417,2.417,0,0,1,1.255-.32,2.284,2.284,0,0,1,1.658.622,2.494,2.494,0,0,1,.717,1.688l.009.343a2.625,2.625,0,0,1-.645,1.853,2.5,2.5,0,0,1-3.463,0,2.669,2.669,0,0,1-.647-1.892Zm1.34.095a1.876,1.876,0,0,0,.269,1.094.967.967,0,0,0,1.531,0,2.053,2.053,0,0,0,.273-1.2,1.858,1.858,0,0,0-.273-1.087.891.891,0,0,0-.77-.386.875.875,0,0,0-.761.383,2.086,2.086,0,0,0-.269,1.187" transform="translate(-490.532 -119.093)"/>
      <path id="Trazado_787312" data-name="Trazado 787312" d="M947.367,226.886l.042.561a1.763,1.763,0,0,1,1.443-.654,1.339,1.339,0,0,1,1.331.765,1.723,1.723,0,0,1,1.508-.765,1.5,1.5,0,0,1,1.215.475,2.184,2.184,0,0,1,.4,1.431V231.9h-1.345v-3.2a.953.953,0,0,0-.167-.624.739.739,0,0,0-.589-.2.836.836,0,0,0-.835.575l0,3.446h-1.341v-3.2a.946.946,0,0,0-.172-.631.748.748,0,0,0-.585-.195.868.868,0,0,0-.826.473V231.9h-1.34v-5.019Z" transform="translate(-496.7 -119.093)"/>
      <path id="Trazado_787313" data-name="Trazado 787313" d="M967.942,229.442a3.012,3.012,0,0,1-.526,1.858,1.688,1.688,0,0,1-1.422.7,1.563,1.563,0,0,1-1.229-.529v2.366h-1.34v-6.949h1.243l.046.492a1.576,1.576,0,0,1,1.271-.584,1.7,1.7,0,0,1,1.443.686,3.092,3.092,0,0,1,.515,1.893Zm-1.34-.1a1.979,1.979,0,0,0-.248-1.081.809.809,0,0,0-.722-.38.877.877,0,0,0-.867.482v2.055a.893.893,0,0,0,.877.5q.96,0,.96-1.573" transform="translate(-505.79 -119.093)"/>
      <path id="Trazado_787314" data-name="Trazado 787314" d="M976.794,232a2.463,2.463,0,0,1-1.8-.677,2.407,2.407,0,0,1-.693-1.8v-.13a3.032,3.032,0,0,1,.292-1.352,2.148,2.148,0,0,1,.828-.919,2.324,2.324,0,0,1,1.222-.322,2.082,2.082,0,0,1,1.621.649,2.638,2.638,0,0,1,.591,1.842v.547h-3.2a1.244,1.244,0,0,0,.392.788,1.184,1.184,0,0,0,.828.3,1.449,1.449,0,0,0,1.211-.561l.658.737a2.016,2.016,0,0,1-.816.666,2.681,2.681,0,0,1-1.141.239m-.153-4.124a.834.834,0,0,0-.647.27,1.394,1.394,0,0,0-.318.773h1.865v-.107a1,1,0,0,0-.241-.692.865.865,0,0,0-.659-.245" transform="translate(-511.501 -119.093)"/>
      <path id="Trazado_787315" data-name="Trazado 787315" d="M986.581,224.391v1.234h.858v.983h-.858v2.5a.594.594,0,0,0,.107.4.533.533,0,0,0,.408.121,2.164,2.164,0,0,0,.394-.032v1.016a2.751,2.751,0,0,1-.812.121,1.28,1.28,0,0,1-1.438-1.424v-2.7h-.733v-.983h.733v-1.234Z" transform="translate(-516.858 -117.832)"/>
      <path id="Trazado_787316" data-name="Trazado 787316" d="M994.362,232a2.462,2.462,0,0,1-1.8-.677,2.407,2.407,0,0,1-.693-1.8v-.13a3.03,3.03,0,0,1,.292-1.352,2.148,2.148,0,0,1,.828-.919,2.324,2.324,0,0,1,1.222-.322,2.082,2.082,0,0,1,1.621.649,2.638,2.638,0,0,1,.591,1.842v.547h-3.2a1.244,1.244,0,0,0,.392.788,1.184,1.184,0,0,0,.828.3,1.449,1.449,0,0,0,1.211-.561l.658.737a2.015,2.015,0,0,1-.816.666,2.682,2.682,0,0,1-1.141.239m-.153-4.124a.835.835,0,0,0-.647.27,1.393,1.393,0,0,0-.318.773h1.865v-.107a1,1,0,0,0-.241-.692.865.865,0,0,0-.659-.245" transform="translate(-520.724 -119.093)"/>
      <path id="Trazado_787317" data-name="Trazado 787317" d="M1004.266,226.886l.042.58a1.752,1.752,0,0,1,1.443-.673,1.456,1.456,0,0,1,1.188.468,2.19,2.19,0,0,1,.4,1.4V231.9H1006v-3.21a.87.87,0,0,0-.186-.619.831.831,0,0,0-.617-.192.921.921,0,0,0-.849.482V231.9H1003v-5.019Z" transform="translate(-526.569 -119.093)"/>
      <path id="Trazado_787318" data-name="Trazado 787318" d="M1016.12,230.917a.88.88,0,0,0,.6-.2.715.715,0,0,0,.241-.542h1.257a1.721,1.721,0,0,1-.278.935,1.838,1.838,0,0,1-.749.658,2.346,2.346,0,0,1-1.051.234,2.179,2.179,0,0,1-1.7-.684,2.707,2.707,0,0,1-.622-1.891v-.088a2.677,2.677,0,0,1,.617-1.851,2.153,2.153,0,0,1,1.693-.691,2.112,2.112,0,0,1,1.51.536,1.9,1.9,0,0,1,.578,1.426h-1.257a.922.922,0,0,0-.241-.637.9.9,0,0,0-1.32.1,1.975,1.975,0,0,0-.239,1.108v.139a2,2,0,0,0,.237,1.115.817.817,0,0,0,.719.339" transform="translate(-532.249 -119.093)"/>
      <path id="Trazado_787319" data-name="Trazado 787319" d="M1024.674,223.49a.658.658,0,0,1,.2-.5.869.869,0,0,1,1.1,0,.708.708,0,0,1,0,1,.86.86,0,0,1-1.09,0,.658.658,0,0,1-.206-.5m1.424,6.318h-1.345v-5.019h1.345Z" transform="translate(-537.945 -116.996)"/>
      <path id="Trazado_787320" data-name="Trazado 787320" d="M1032.684,231.905a1.469,1.469,0,0,1-.134-.45,1.623,1.623,0,0,1-1.266.542,1.78,1.78,0,0,1-1.222-.427,1.371,1.371,0,0,1-.485-1.076,1.419,1.419,0,0,1,.591-1.225,2.917,2.917,0,0,1,1.71-.431h.617v-.288a.83.83,0,0,0-.178-.557.706.706,0,0,0-.564-.209.8.8,0,0,0-.531.162.55.55,0,0,0-.192.445h-1.341a1.346,1.346,0,0,1,.269-.807,1.773,1.773,0,0,1,.761-.582,2.765,2.765,0,0,1,1.1-.211,2.189,2.189,0,0,1,1.473.466,1.63,1.63,0,0,1,.545,1.31v2.176a2.388,2.388,0,0,0,.2,1.081v.079Zm-1.109-.932a1.157,1.157,0,0,0,.547-.132.873.873,0,0,0,.371-.355v-.863h-.5q-1.006,0-1.071.7l0,.079a.536.536,0,0,0,.176.413.685.685,0,0,0,.483.162" transform="translate(-540.519 -119.093)"/>
      <path id="Trazado_787321" data-name="Trazado 787321" d="M1040.677,237.986l-.7-.366.167-.3a2.413,2.413,0,0,0,.32-1.127v-1.039h1.132l0,.928a2.421,2.421,0,0,1-.26,1.039,2.667,2.667,0,0,1-.654.867" transform="translate(-545.979 -123.481)"/>
      <path id="Trazado_787322" data-name="Trazado 787322" d="M1051.67,224.391v1.234h.858v.983h-.858v2.5a.593.593,0,0,0,.107.4.532.532,0,0,0,.408.121,2.159,2.159,0,0,0,.394-.032v1.016a2.749,2.749,0,0,1-.812.121,1.28,1.28,0,0,1-1.438-1.424v-2.7h-.733v-.983h.733v-1.234Z" transform="translate(-551.029 -117.832)"/>
      <path id="Trazado_787323" data-name="Trazado 787323" d="M1056.608,229.349a2.974,2.974,0,0,1,.287-1.331,2.107,2.107,0,0,1,.828-.9,2.415,2.415,0,0,1,1.255-.32,2.285,2.285,0,0,1,1.658.622,2.5,2.5,0,0,1,.717,1.688l.009.343a2.625,2.625,0,0,1-.644,1.853,2.5,2.5,0,0,1-3.463,0,2.669,2.669,0,0,1-.647-1.892Zm1.34.095a1.877,1.877,0,0,0,.269,1.094.966.966,0,0,0,1.531,0,2.053,2.053,0,0,0,.274-1.2,1.858,1.858,0,0,0-.274-1.087.891.891,0,0,0-.77-.386.875.875,0,0,0-.761.383,2.086,2.086,0,0,0-.269,1.187" transform="translate(-554.71 -119.093)"/>
      <path id="Trazado_787324" data-name="Trazado 787324" d="M1069.613,226.886l.042.561a1.764,1.764,0,0,1,1.443-.654,1.339,1.339,0,0,1,1.332.765,1.723,1.723,0,0,1,1.508-.765,1.5,1.5,0,0,1,1.215.475,2.185,2.185,0,0,1,.4,1.431V231.9h-1.345v-3.2a.954.954,0,0,0-.167-.624.739.739,0,0,0-.589-.2.837.837,0,0,0-.835.575l0,3.446h-1.34v-3.2a.946.946,0,0,0-.172-.631.748.748,0,0,0-.585-.195.868.868,0,0,0-.826.473V231.9h-1.341v-5.019Z" transform="translate(-560.878 -119.093)"/>
      <path id="Trazado_787325" data-name="Trazado 787325" d="M1088.358,231.905a1.469,1.469,0,0,1-.134-.45,1.623,1.623,0,0,1-1.266.542,1.78,1.78,0,0,1-1.222-.427,1.372,1.372,0,0,1-.485-1.076,1.419,1.419,0,0,1,.591-1.225,2.916,2.916,0,0,1,1.71-.431h.617v-.288a.829.829,0,0,0-.178-.557.705.705,0,0,0-.564-.209.8.8,0,0,0-.531.162.55.55,0,0,0-.192.445h-1.341a1.345,1.345,0,0,1,.269-.807,1.775,1.775,0,0,1,.761-.582,2.767,2.767,0,0,1,1.1-.211,2.188,2.188,0,0,1,1.472.466,1.63,1.63,0,0,1,.545,1.31v2.176a2.386,2.386,0,0,0,.2,1.081v.079Zm-1.109-.932a1.157,1.157,0,0,0,.547-.132.871.871,0,0,0,.371-.355v-.863h-.5q-1.007,0-1.072.7l0,.079a.535.535,0,0,0,.176.413.684.684,0,0,0,.482.162" transform="translate(-569.747 -119.093)"/>
      <path id="Trazado_787326" data-name="Trazado 787326" d="M1100.934,227.133a3.026,3.026,0,0,1,.526-1.87,1.708,1.708,0,0,1,1.44-.7,1.538,1.538,0,0,1,1.211.547v-2.561h1.345v7.125h-1.211l-.065-.533a1.578,1.578,0,0,1-1.29.627,1.7,1.7,0,0,1-1.422-.7,3.123,3.123,0,0,1-.536-1.941m1.34.1a1.98,1.98,0,0,0,.246,1.083.8.8,0,0,0,.714.376.9.9,0,0,0,.877-.525v-1.984a.884.884,0,0,0-.867-.525q-.97,0-.97,1.575" transform="translate(-577.981 -116.867)"/>
      <path id="Trazado_787327" data-name="Trazado 787327" d="M1114.753,232a2.462,2.462,0,0,1-1.8-.677,2.406,2.406,0,0,1-.693-1.8v-.13a3.032,3.032,0,0,1,.292-1.352,2.148,2.148,0,0,1,.828-.919,2.325,2.325,0,0,1,1.222-.322,2.082,2.082,0,0,1,1.621.649,2.639,2.639,0,0,1,.592,1.842v.547h-3.2a1.245,1.245,0,0,0,.392.788,1.183,1.183,0,0,0,.828.3,1.449,1.449,0,0,0,1.211-.561l.658.737a2.015,2.015,0,0,1-.816.666,2.683,2.683,0,0,1-1.141.239m-.153-4.124a.834.834,0,0,0-.647.27,1.394,1.394,0,0,0-.318.773h1.865v-.107a1,1,0,0,0-.241-.692.865.865,0,0,0-.659-.245" transform="translate(-583.928 -119.093)"/>
      <path id="Trazado_787328" data-name="Trazado 787328" d="M919.846,254.917a.879.879,0,0,0,.6-.2.715.715,0,0,0,.241-.542h1.257a1.723,1.723,0,0,1-.278.935,1.839,1.839,0,0,1-.749.658,2.346,2.346,0,0,1-1.051.234,2.178,2.178,0,0,1-1.7-.684,2.707,2.707,0,0,1-.622-1.891v-.088a2.677,2.677,0,0,1,.617-1.851,2.153,2.153,0,0,1,1.693-.691,2.111,2.111,0,0,1,1.51.536,1.9,1.9,0,0,1,.578,1.426H920.69a.922.922,0,0,0-.241-.637.9.9,0,0,0-1.32.1,1.974,1.974,0,0,0-.239,1.108v.139a2,2,0,0,0,.237,1.115.817.817,0,0,0,.719.339" transform="translate(-481.706 -131.692)"/>
      <path id="Trazado_787329" data-name="Trazado 787329" d="M927.98,253.349a2.973,2.973,0,0,1,.287-1.331,2.107,2.107,0,0,1,.828-.9,2.416,2.416,0,0,1,1.255-.32,2.284,2.284,0,0,1,1.658.622,2.5,2.5,0,0,1,.717,1.688l.009.343a2.625,2.625,0,0,1-.644,1.853,2.5,2.5,0,0,1-3.463,0,2.669,2.669,0,0,1-.647-1.892Zm1.341.095a1.876,1.876,0,0,0,.269,1.094.966.966,0,0,0,1.531,0,2.053,2.053,0,0,0,.274-1.2,1.858,1.858,0,0,0-.274-1.087.891.891,0,0,0-.77-.386.875.875,0,0,0-.761.383,2.086,2.086,0,0,0-.269,1.187" transform="translate(-487.182 -131.692)"/>
      <path id="Trazado_787330" data-name="Trazado 787330" d="M940.931,250.886l.042.58a1.752,1.752,0,0,1,1.443-.673,1.456,1.456,0,0,1,1.188.468,2.188,2.188,0,0,1,.4,1.4V255.9h-1.34v-3.21a.87.87,0,0,0-.186-.619.831.831,0,0,0-.617-.192.921.921,0,0,0-.849.482V255.9h-1.34v-5.019Z" transform="translate(-493.318 -131.692)"/>
      <path id="Trazado_787331" data-name="Trazado 787331" d="M952.785,254.917a.88.88,0,0,0,.6-.2.715.715,0,0,0,.241-.542h1.257a1.723,1.723,0,0,1-.278.935,1.839,1.839,0,0,1-.749.658,2.346,2.346,0,0,1-1.051.234,2.179,2.179,0,0,1-1.7-.684,2.707,2.707,0,0,1-.622-1.891v-.088a2.677,2.677,0,0,1,.617-1.851,2.153,2.153,0,0,1,1.693-.691,2.112,2.112,0,0,1,1.51.536,1.9,1.9,0,0,1,.578,1.426h-1.257a.923.923,0,0,0-.241-.637.9.9,0,0,0-1.32.1,1.974,1.974,0,0,0-.239,1.108v.139a2,2,0,0,0,.237,1.115.817.817,0,0,0,.719.339" transform="translate(-498.999 -131.692)"/>
      <path id="Trazado_787332" data-name="Trazado 787332" d="M961.339,247.49a.659.659,0,0,1,.2-.5.87.87,0,0,1,1.1,0,.708.708,0,0,1,0,1,.86.86,0,0,1-1.09,0,.658.658,0,0,1-.206-.5m1.424,6.318h-1.345v-5.019h1.345Z" transform="translate(-504.695 -129.596)"/>
      <path id="Trazado_787333" data-name="Trazado 787333" d="M968.771,256a2.462,2.462,0,0,1-1.8-.677,2.407,2.407,0,0,1-.693-1.8v-.13a3.034,3.034,0,0,1,.292-1.352,2.149,2.149,0,0,1,.828-.919,2.324,2.324,0,0,1,1.222-.322,2.082,2.082,0,0,1,1.621.649,2.638,2.638,0,0,1,.591,1.842v.547h-3.2a1.244,1.244,0,0,0,.392.789,1.184,1.184,0,0,0,.828.3,1.449,1.449,0,0,0,1.211-.561l.658.737a2.017,2.017,0,0,1-.816.666,2.682,2.682,0,0,1-1.141.239m-.153-4.124a.834.834,0,0,0-.647.27,1.4,1.4,0,0,0-.318.773h1.865v-.107a1,1,0,0,0-.241-.692.865.865,0,0,0-.659-.245" transform="translate(-507.289 -131.692)"/>
      <path id="Trazado_787334" data-name="Trazado 787334" d="M978.675,250.886l.042.58a1.752,1.752,0,0,1,1.443-.673,1.456,1.456,0,0,1,1.188.468,2.188,2.188,0,0,1,.4,1.4V255.9h-1.34v-3.21a.869.869,0,0,0-.186-.619.831.831,0,0,0-.617-.192.921.921,0,0,0-.849.482V255.9h-1.341v-5.019Z" transform="translate(-513.133 -131.692)"/>
      <path id="Trazado_787335" data-name="Trazado 787335" d="M990.529,254.917a.879.879,0,0,0,.6-.2.714.714,0,0,0,.241-.542h1.257a1.723,1.723,0,0,1-.278.935,1.84,1.84,0,0,1-.749.658,2.346,2.346,0,0,1-1.051.234,2.179,2.179,0,0,1-1.7-.684,2.707,2.707,0,0,1-.622-1.891v-.088a2.677,2.677,0,0,1,.617-1.851,2.153,2.153,0,0,1,1.693-.691,2.111,2.111,0,0,1,1.51.536,1.9,1.9,0,0,1,.578,1.426h-1.257a.921.921,0,0,0-.241-.637.9.9,0,0,0-1.32.1,1.974,1.974,0,0,0-.239,1.108v.139a2,2,0,0,0,.237,1.115.817.817,0,0,0,.719.339" transform="translate(-518.814 -131.692)"/>
      <path id="Trazado_787336" data-name="Trazado 787336" d="M999.083,247.49a.66.66,0,0,1,.2-.5.869.869,0,0,1,1.1,0,.708.708,0,0,1,0,1,.86.86,0,0,1-1.09,0,.658.658,0,0,1-.207-.5m1.424,6.318h-1.345v-5.019h1.345Z" transform="translate(-524.51 -129.596)"/>
      <path id="Trazado_787337" data-name="Trazado 787337" d="M1007.093,255.905a1.471,1.471,0,0,1-.134-.45,1.623,1.623,0,0,1-1.266.542,1.781,1.781,0,0,1-1.222-.427,1.372,1.372,0,0,1-.485-1.076,1.419,1.419,0,0,1,.591-1.225,2.917,2.917,0,0,1,1.71-.431h.617v-.288a.828.828,0,0,0-.179-.557.7.7,0,0,0-.564-.209.8.8,0,0,0-.531.162.55.55,0,0,0-.192.445H1004.1a1.346,1.346,0,0,1,.269-.807,1.774,1.774,0,0,1,.76-.582,2.767,2.767,0,0,1,1.1-.211,2.189,2.189,0,0,1,1.473.466,1.63,1.63,0,0,1,.545,1.31v2.176a2.385,2.385,0,0,0,.2,1.081v.079Zm-1.109-.932a1.158,1.158,0,0,0,.547-.132.872.872,0,0,0,.371-.355v-.863h-.5q-1.007,0-1.072.7l0,.079a.536.536,0,0,0,.176.413.685.685,0,0,0,.483.162" transform="translate(-527.084 -131.692)"/>
      <path id="Trazado_787338" data-name="Trazado 787338" d="M1021.429,254.11l.928-3.122h1.438l-2.018,5.8-.111.264a1.53,1.53,0,0,1-1.484.984,2.1,2.1,0,0,1-.594-.088V256.93l.2,0a1.1,1.1,0,0,0,.568-.116.761.761,0,0,0,.295-.385l.158-.413-1.758-5.033h1.443Z" transform="translate(-534.995 -131.795)"/>
      <path id="Trazado_787339" data-name="Trazado 787339" d="M1035.074,253.572v-4.036h-.747v-.983h.747v-.427a1.733,1.733,0,0,1,.485-1.311,1.876,1.876,0,0,1,1.357-.466,3.135,3.135,0,0,1,.682.093l-.014,1.039a1.7,1.7,0,0,0-.408-.042q-.756,0-.756.71v.4h1v.983h-1v4.036Z" transform="translate(-543.013 -129.36)"/>
      <path id="Trazado_787340" data-name="Trazado 787340" d="M1041.857,253.349a2.972,2.972,0,0,1,.287-1.331,2.107,2.107,0,0,1,.828-.9,2.415,2.415,0,0,1,1.255-.32,2.285,2.285,0,0,1,1.658.622,2.5,2.5,0,0,1,.717,1.688l.009.343a2.625,2.625,0,0,1-.644,1.853,2.5,2.5,0,0,1-3.463,0,2.67,2.67,0,0,1-.647-1.892Zm1.34.095a1.877,1.877,0,0,0,.269,1.094.967.967,0,0,0,1.531,0,2.052,2.052,0,0,0,.274-1.2,1.857,1.857,0,0,0-.274-1.087.891.891,0,0,0-.77-.386.875.875,0,0,0-.761.383,2.087,2.087,0,0,0-.269,1.187" transform="translate(-546.966 -131.692)"/>
      <path id="Trazado_787341" data-name="Trazado 787341" d="M1056.425,252.143a3.651,3.651,0,0,0-.483-.037.981.981,0,0,0-1,.515v3.284H1053.6v-5.019h1.266l.037.6a1.242,1.242,0,0,1,1.118-.691,1.413,1.413,0,0,1,.417.06Z" transform="translate(-553.134 -131.692)"/>
      <path id="Trazado_787342" data-name="Trazado 787342" d="M1062.157,250.886l.042.561a1.763,1.763,0,0,1,1.443-.654,1.339,1.339,0,0,1,1.332.765,1.723,1.723,0,0,1,1.508-.765,1.5,1.5,0,0,1,1.215.475,2.184,2.184,0,0,1,.4,1.431V255.9h-1.345v-3.2a.953.953,0,0,0-.167-.624.739.739,0,0,0-.589-.2.836.836,0,0,0-.835.575l0,3.446h-1.34v-3.2a.946.946,0,0,0-.172-.631.748.748,0,0,0-.585-.195.868.868,0,0,0-.826.473V255.9h-1.34v-5.019Z" transform="translate(-556.964 -131.692)"/>
      <path id="Trazado_787343" data-name="Trazado 787343" d="M1080.9,255.905a1.476,1.476,0,0,1-.135-.45,1.622,1.622,0,0,1-1.266.542,1.78,1.78,0,0,1-1.222-.427,1.372,1.372,0,0,1-.485-1.076,1.419,1.419,0,0,1,.591-1.225,2.916,2.916,0,0,1,1.71-.431h.617v-.288a.829.829,0,0,0-.178-.557.7.7,0,0,0-.564-.209.8.8,0,0,0-.531.162.55.55,0,0,0-.192.445h-1.341a1.346,1.346,0,0,1,.269-.807,1.776,1.776,0,0,1,.761-.582,2.767,2.767,0,0,1,1.1-.211,2.189,2.189,0,0,1,1.472.466,1.63,1.63,0,0,1,.545,1.31v2.176a2.388,2.388,0,0,0,.2,1.081v.079Zm-1.109-.932a1.157,1.157,0,0,0,.547-.132.872.872,0,0,0,.371-.355v-.863h-.5q-1.007,0-1.072.7l0,.079a.535.535,0,0,0,.176.413.684.684,0,0,0,.483.162" transform="translate(-565.833 -131.692)"/>
      <path id="Trazado_787344" data-name="Trazado 787344" d="M1090.793,254.917a.88.88,0,0,0,.6-.2.715.715,0,0,0,.241-.542h1.257a1.722,1.722,0,0,1-.278.935,1.839,1.839,0,0,1-.749.658,2.346,2.346,0,0,1-1.051.234,2.179,2.179,0,0,1-1.7-.684,2.707,2.707,0,0,1-.622-1.891v-.088a2.678,2.678,0,0,1,.617-1.851,2.153,2.153,0,0,1,1.693-.691,2.112,2.112,0,0,1,1.51.536,1.9,1.9,0,0,1,.578,1.426h-1.257a.923.923,0,0,0-.241-.637.9.9,0,0,0-1.32.1,1.974,1.974,0,0,0-.239,1.108v.139a2,2,0,0,0,.237,1.115.817.817,0,0,0,.719.339" transform="translate(-571.452 -131.692)"/>
      <path id="Trazado_787345" data-name="Trazado 787345" d="M1099.347,247.49a.66.66,0,0,1,.2-.5.87.87,0,0,1,1.1,0,.708.708,0,0,1,0,1,.86.86,0,0,1-1.09,0,.658.658,0,0,1-.206-.5m1.424,6.318h-1.345v-5.019h1.345Z" transform="translate(-577.148 -129.596)"/>
      <path id="Trazado_787346" data-name="Trazado 787346" d="M1104.229,251.124a2.968,2.968,0,0,1,.288-1.331,2.1,2.1,0,0,1,.828-.9,2.415,2.415,0,0,1,1.255-.32,2.286,2.286,0,0,1,1.659.622,2.5,2.5,0,0,1,.716,1.689l.009.343a2.625,2.625,0,0,1-.645,1.854,2.5,2.5,0,0,1-3.463,0,2.669,2.669,0,0,1-.647-1.892Zm1.341.1a1.875,1.875,0,0,0,.269,1.094.966.966,0,0,0,1.53,0,2.055,2.055,0,0,0,.274-1.2,1.859,1.859,0,0,0-.274-1.087.889.889,0,0,0-.77-.385.875.875,0,0,0-.76.383,2.086,2.086,0,0,0-.269,1.187m1.294-4.664h1.461l-1.285,1.438h-1.09Z" transform="translate(-579.711 -129.467)"/>
      <path id="Trazado_787347" data-name="Trazado 787347" d="M1117.181,250.886l.042.58a1.752,1.752,0,0,1,1.443-.673,1.456,1.456,0,0,1,1.187.468,2.19,2.19,0,0,1,.4,1.4V255.9h-1.34v-3.21a.869.869,0,0,0-.186-.619.83.83,0,0,0-.617-.192.921.921,0,0,0-.849.482V255.9h-1.34v-5.019Z" transform="translate(-585.848 -131.692)"/>
      <path id="Trazado_787348" data-name="Trazado 787348" d="M455.75,297.329H441.5a9.5,9.5,0,0,1-9.5-9.5V75.5a9.5,9.5,0,0,1,9.5-9.5h14.25" transform="translate(-226.796 -34.678)" fill="none" stroke="#000" stroke-miterlimit="10" stroke-width="2.2"/>
      <line id="Línea_3763" data-name="Línea 3763" x2="26.125" transform="translate(178.603 146.987)" fill="none" stroke="#000" stroke-miterlimit="10" stroke-width="2"/>
      <line id="Línea_3764" data-name="Línea 3764" x2="24" transform="translate(204.548 109)" fill="none" stroke="#000" stroke-miterlimit="10" stroke-width="1.926"/>
      <line id="Línea_3765" data-name="Línea 3765" x2="51" transform="translate(362.548 109)" fill="none" stroke="#000" stroke-miterlimit="10" stroke-width="1.926"/>
      <line id="Línea_3766" data-name="Línea 3766" x2="24" transform="translate(204.548 186)" fill="none" stroke="#000" stroke-miterlimit="10" stroke-width="1.926"/>
    </g>
  </g>
</svg>
