<svg xmlns="http://www.w3.org/2000/svg" width="915.104" height="483.078" viewBox="0 0 915.104 483.078">
  <g id="Grupo_1043337" data-name="Grupo 1043337" transform="translate(-352 -4851.898)">
    <path id="Trazado_787210" data-name="Trazado 787210" d="M287.509,347.466H5.454A5.454,5.454,0,0,1,0,342.011V246.954A5.454,5.454,0,0,1,5.454,241.5H287.509a5.454,5.454,0,0,1,5.454,5.454v95.057a5.454,5.454,0,0,1-5.454,5.454" transform="translate(353.152 4798.565)" fill="#fe502d"/>
    <path id="Trazado_787211" data-name="Trazado 787211" d="M83.8,314.663a5.156,5.156,0,0,1-2.265,1.489,9.5,9.5,0,0,1-3.244.529,6.422,6.422,0,0,1-3.279-.816,5.441,5.441,0,0,1-2.176-2.369,8.338,8.338,0,0,1-.786-3.65v-.979a8.855,8.855,0,0,1,.727-3.734,5.382,5.382,0,0,1,2.1-2.414,6.907,6.907,0,0,1,7.217.386A5.219,5.219,0,0,1,83.8,306.66H80.91a2.869,2.869,0,0,0-.876-1.81,2.8,2.8,0,0,0-1.865-.573,2.633,2.633,0,0,0-2.3,1.138,5.979,5.979,0,0,0-.8,3.383v.919a5.691,5.691,0,0,0,.861,3.423,2.946,2.946,0,0,0,2.522,1.157,3.288,3.288,0,0,0,2.383-.712V311.1h-2.7v-2.186H83.8Z" transform="translate(337.241 4785.23)"/>
    <path id="Trazado_787212" data-name="Trazado 787212" d="M94.791,317.729a5.255,5.255,0,0,1-3.833-1.444,5.132,5.132,0,0,1-1.479-3.848v-.277a6.466,6.466,0,0,1,.623-2.884,4.586,4.586,0,0,1,1.766-1.959,4.958,4.958,0,0,1,2.607-.687,4.438,4.438,0,0,1,3.456,1.384,5.625,5.625,0,0,1,1.261,3.927v1.167H92.377a2.659,2.659,0,0,0,.836,1.682,2.529,2.529,0,0,0,1.766.633,3.087,3.087,0,0,0,2.582-1.2l1.4,1.573a4.294,4.294,0,0,1-1.741,1.419,5.711,5.711,0,0,1-2.433.51m-.326-8.794a1.789,1.789,0,0,0-1.381.577,2.986,2.986,0,0,0-.677,1.649h3.977v-.228a2.131,2.131,0,0,0-.514-1.476,1.845,1.845,0,0,0-1.4-.521" transform="translate(333.392 4784.181)"/>
    <path id="Trazado_787213" data-name="Trazado 787213" d="M109.669,314.574a.92.92,0,0,0-.52-.826,5.892,5.892,0,0,0-1.667-.539q-3.818-.8-3.818-3.245a2.941,2.941,0,0,1,1.182-2.379,4.767,4.767,0,0,1,3.091-.954,5.13,5.13,0,0,1,3.259.959,3.022,3.022,0,0,1,1.222,2.492H109.56a1.384,1.384,0,0,0-.4-1.014,1.675,1.675,0,0,0-1.237-.4,1.712,1.712,0,0,0-1.118.326,1.031,1.031,0,0,0-.4.831.88.88,0,0,0,.45.767,4.642,4.642,0,0,0,1.519.5,12.452,12.452,0,0,1,1.8.479,2.958,2.958,0,0,1,2.265,2.879,2.791,2.791,0,0,1-1.256,2.369,5.415,5.415,0,0,1-3.244.905,5.655,5.655,0,0,1-2.389-.48,4.013,4.013,0,0,1-1.637-1.315,3.059,3.059,0,0,1-.594-1.805h2.711a1.493,1.493,0,0,0,.563,1.167,2.237,2.237,0,0,0,1.4.405,2.065,2.065,0,0,0,1.241-.312.968.968,0,0,0,.421-.816" transform="translate(330.333 4784.181)"/>
    <path id="Trazado_787214" data-name="Trazado 787214" d="M120.535,303.508v2.631h1.83v2.1h-1.83v5.342a1.275,1.275,0,0,0,.228.851,1.143,1.143,0,0,0,.87.257,4.571,4.571,0,0,0,.841-.069v2.166a5.88,5.88,0,0,1-1.731.257q-3.007,0-3.067-3.036v-5.767h-1.563v-2.1h1.563v-2.631Z" transform="translate(327.51 4784.871)"/>
    <path id="Trazado_787215" data-name="Trazado 787215" d="M126.155,302.912a1.407,1.407,0,0,1,.43-1.058,1.852,1.852,0,0,1,2.339,0,1.51,1.51,0,0,1,0,2.126,1.834,1.834,0,0,1-2.324,0,1.4,1.4,0,0,1-.44-1.068m3.036,13.473h-2.869v-10.7h2.869Z" transform="translate(325.292 4785.328)"/>
    <path id="Trazado_787216" data-name="Trazado 787216" d="M132.5,310.864a6.347,6.347,0,0,1,.613-2.839,4.491,4.491,0,0,1,1.766-1.928,5.153,5.153,0,0,1,2.676-.683,4.874,4.874,0,0,1,3.537,1.325,5.318,5.318,0,0,1,1.528,3.6l.02.732a5.6,5.6,0,0,1-1.375,3.952,5.329,5.329,0,0,1-7.384.005,5.692,5.692,0,0,1-1.38-4.036Zm2.859.2a4.007,4.007,0,0,0,.573,2.333,2.061,2.061,0,0,0,3.265.009,4.377,4.377,0,0,0,.584-2.55,3.964,3.964,0,0,0-.584-2.319,1.9,1.9,0,0,0-1.642-.822,1.865,1.865,0,0,0-1.622.817,4.457,4.457,0,0,0-.573,2.531m2.76-9.946h3.116l-2.74,3.067h-2.324Z" transform="translate(323.891 4785.398)"/>
    <path id="Trazado_787217" data-name="Trazado 787217" d="M150.389,306.829l.089,1.237a3.737,3.737,0,0,1,3.076-1.434,3.1,3.1,0,0,1,2.532,1,4.662,4.662,0,0,1,.851,2.987v6.914h-2.859v-6.845a1.857,1.857,0,0,0-.4-1.321,1.774,1.774,0,0,0-1.316-.411,1.965,1.965,0,0,0-1.81,1.029v7.547H147.7v-10.7Z" transform="translate(320.534 4784.181)"/>
    <path id="Trazado_787218" data-name="Trazado 787218" d="M168.24,310.884a6.452,6.452,0,0,1,1.123-3.986,3.641,3.641,0,0,1,3.071-1.484,3.276,3.276,0,0,1,2.581,1.167v-5.46h2.869v15.194H175.3l-.139-1.138a3.366,3.366,0,0,1-2.75,1.336,3.634,3.634,0,0,1-3.032-1.489,6.661,6.661,0,0,1-1.142-4.14m2.859.213a4.223,4.223,0,0,0,.524,2.309,1.709,1.709,0,0,0,1.523.8,1.912,1.912,0,0,0,1.869-1.12v-4.231a1.886,1.886,0,0,0-1.85-1.119q-2.068,0-2.067,3.358" transform="translate(315.998 4785.398)"/>
    <path id="Trazado_787219" data-name="Trazado 787219" d="M188.279,317.729a5.255,5.255,0,0,1-3.833-1.444,5.132,5.132,0,0,1-1.479-3.848v-.277a6.466,6.466,0,0,1,.623-2.884,4.586,4.586,0,0,1,1.766-1.959,4.959,4.959,0,0,1,2.607-.687,4.441,4.441,0,0,1,3.457,1.384,5.628,5.628,0,0,1,1.261,3.927v1.167h-6.815a2.659,2.659,0,0,0,.836,1.682,2.529,2.529,0,0,0,1.766.633,3.086,3.086,0,0,0,2.582-1.2l1.4,1.573a4.294,4.294,0,0,1-1.741,1.419,5.706,5.706,0,0,1-2.433.51m-.326-8.794a1.786,1.786,0,0,0-1.38.577,2.981,2.981,0,0,0-.678,1.649h3.977v-.228a2.131,2.131,0,0,0-.514-1.476,1.845,1.845,0,0,0-1.4-.521" transform="translate(312.745 4784.181)"/>
    <path id="Trazado_787220" data-name="Trazado 787220" d="M210,309.509a7.726,7.726,0,0,0-1.028-.079,2.1,2.1,0,0,0-2.127,1.1v7H203.99v-10.7h2.7l.08,1.276a2.649,2.649,0,0,1,2.384-1.473,2.994,2.994,0,0,1,.89.129Z" transform="translate(308.103 4784.181)"/>
    <path id="Trazado_787221" data-name="Trazado 787221" d="M218.291,317.729a5.256,5.256,0,0,1-3.833-1.444,5.132,5.132,0,0,1-1.478-3.848v-.277a6.466,6.466,0,0,1,.622-2.884,4.583,4.583,0,0,1,1.766-1.959,4.955,4.955,0,0,1,2.606-.687,4.441,4.441,0,0,1,3.457,1.384,5.624,5.624,0,0,1,1.261,3.927v1.167h-6.815a2.659,2.659,0,0,0,.836,1.682,2.529,2.529,0,0,0,1.766.633,3.086,3.086,0,0,0,2.582-1.2l1.4,1.573a4.3,4.3,0,0,1-1.74,1.419,5.711,5.711,0,0,1-2.433.51m-.327-8.794a1.787,1.787,0,0,0-1.38.577,2.98,2.98,0,0,0-.678,1.649h3.977v-.228a2.131,2.131,0,0,0-.514-1.476,1.844,1.844,0,0,0-1.4-.521" transform="translate(306.117 4784.181)"/>
    <path id="Trazado_787222" data-name="Trazado 787222" d="M231.852,315.425a1.872,1.872,0,0,0,1.286-.436,1.525,1.525,0,0,0,.515-1.157h2.68a3.658,3.658,0,0,1-.594,1.993,3.907,3.907,0,0,1-1.6,1.4,5.006,5.006,0,0,1-2.241.5,4.644,4.644,0,0,1-3.62-1.459,5.772,5.772,0,0,1-1.325-4.03v-.188a5.712,5.712,0,0,1,1.315-3.947,4.593,4.593,0,0,1,3.611-1.473,4.5,4.5,0,0,1,3.22,1.142,4.046,4.046,0,0,1,1.232,3.042h-2.68a1.967,1.967,0,0,0-.515-1.357,1.912,1.912,0,0,0-2.814.206,4.22,4.22,0,0,0-.51,2.363v.3a4.279,4.279,0,0,0,.5,2.378,1.744,1.744,0,0,0,1.533.723" transform="translate(303.031 4784.181)"/>
    <path id="Trazado_787223" data-name="Trazado 787223" d="M247.476,316.5a3.586,3.586,0,0,1-2.928,1.286,3.381,3.381,0,0,1-2.626-.989,4.221,4.221,0,0,1-.925-2.9v-7.013h2.859v6.922q0,1.675,1.523,1.674a2.063,2.063,0,0,0,2-1.01v-7.586h2.869v10.7h-2.69Z" transform="translate(299.93 4784.125)"/>
    <path id="Trazado_787224" data-name="Trazado 787224" d="M261.648,309.509a7.736,7.736,0,0,0-1.029-.079,2.094,2.094,0,0,0-2.127,1.1v7h-2.859v-10.7h2.7l.079,1.276a2.648,2.648,0,0,1,2.383-1.473,3,3,0,0,1,.891.129Z" transform="translate(296.697 4784.181)"/>
    <path id="Trazado_787225" data-name="Trazado 787225" d="M270.76,314.574a.92.92,0,0,0-.52-.826,5.89,5.89,0,0,0-1.667-.539q-3.818-.8-3.818-3.245a2.941,2.941,0,0,1,1.182-2.379,4.767,4.767,0,0,1,3.091-.954,5.13,5.13,0,0,1,3.259.959,3.022,3.022,0,0,1,1.222,2.492h-2.859a1.384,1.384,0,0,0-.4-1.014,1.675,1.675,0,0,0-1.237-.4,1.712,1.712,0,0,0-1.118.326,1.031,1.031,0,0,0-.4.831.88.88,0,0,0,.45.767,4.642,4.642,0,0,0,1.519.5,12.455,12.455,0,0,1,1.8.479,2.958,2.958,0,0,1,2.265,2.879,2.791,2.791,0,0,1-1.256,2.369,5.416,5.416,0,0,1-3.244.905,5.655,5.655,0,0,1-2.389-.48,4.013,4.013,0,0,1-1.637-1.315,3.059,3.059,0,0,1-.594-1.805h2.711a1.493,1.493,0,0,0,.563,1.167,2.237,2.237,0,0,0,1.4.405,2.065,2.065,0,0,0,1.241-.312.968.968,0,0,0,.421-.816" transform="translate(294.758 4784.181)"/>
    <path id="Trazado_787226" data-name="Trazado 787226" d="M277.914,312.081a6.336,6.336,0,0,1,.614-2.839,4.494,4.494,0,0,1,1.765-1.928,5.153,5.153,0,0,1,2.676-.682,4.873,4.873,0,0,1,3.537,1.325,5.314,5.314,0,0,1,1.528,3.6l.02.732a5.6,5.6,0,0,1-1.374,3.952,5.329,5.329,0,0,1-7.385,0,5.69,5.69,0,0,1-1.38-4.035Zm2.859.2a4.007,4.007,0,0,0,.573,2.334,2.061,2.061,0,0,0,3.265.009,4.379,4.379,0,0,0,.584-2.551,3.96,3.96,0,0,0-.584-2.318,1.9,1.9,0,0,0-1.642-.822,1.866,1.866,0,0,0-1.622.816,4.46,4.46,0,0,0-.573,2.531" transform="translate(291.777 4784.181)"/>
    <path id="Trazado_787227" data-name="Trazado 787227" d="M298.829,314.574a.919.919,0,0,0-.519-.826,5.9,5.9,0,0,0-1.667-.539q-3.818-.8-3.817-3.245a2.939,2.939,0,0,1,1.182-2.379,4.763,4.763,0,0,1,3.091-.954,5.129,5.129,0,0,1,3.258.959,3.022,3.022,0,0,1,1.222,2.492H298.72a1.381,1.381,0,0,0-.4-1.014,1.674,1.674,0,0,0-1.237-.4,1.715,1.715,0,0,0-1.118.326,1.034,1.034,0,0,0-.4.831.88.88,0,0,0,.45.767,4.654,4.654,0,0,0,1.519.5,12.437,12.437,0,0,1,1.8.479,2.958,2.958,0,0,1,2.265,2.879,2.791,2.791,0,0,1-1.256,2.369,5.414,5.414,0,0,1-3.244.905,5.654,5.654,0,0,1-2.388-.48,4.01,4.01,0,0,1-1.638-1.315,3.059,3.059,0,0,1-.594-1.805H295.2a1.494,1.494,0,0,0,.563,1.167,2.239,2.239,0,0,0,1.4.405,2.061,2.061,0,0,0,1.241-.312.966.966,0,0,0,.421-.816" transform="translate(288.559 4784.181)"/>
    <path id="Trazado_787228" data-name="Trazado 787228" d="M695.559,104.407H487.329a5.454,5.454,0,0,1-5.454-5.454V5.454A5.454,5.454,0,0,1,487.329,0h208.23a5.454,5.454,0,0,1,5.454,5.454v93.5a5.454,5.454,0,0,1-5.454,5.454" transform="translate(246.734 4851.898)" fill="#afafaf"/>
    <path id="Trazado_787229" data-name="Trazado 787229" d="M695.559,266.407H487.329a5.454,5.454,0,0,1-5.454-5.454v-93.5A5.454,5.454,0,0,1,487.329,162h208.23a5.454,5.454,0,0,1,5.454,5.454v93.5a5.454,5.454,0,0,1-5.454,5.454" transform="translate(246.734 4816.122)" fill="#afafaf"/>
    <path id="Trazado_787230" data-name="Trazado 787230" d="M695.559,428.407H487.329a5.454,5.454,0,0,1-5.454-5.454v-93.5A5.454,5.454,0,0,1,487.329,324h208.23a5.454,5.454,0,0,1,5.454,5.454v93.5a5.454,5.454,0,0,1-5.454,5.454" transform="translate(246.734 4780.346)" fill="#afafaf"/>
    <path id="Trazado_787231" data-name="Trazado 787231" d="M695.559,590.407H487.329a5.454,5.454,0,0,1-5.454-5.454v-93.5A5.454,5.454,0,0,1,487.329,486h208.23a5.454,5.454,0,0,1,5.454,5.454v93.5a5.454,5.454,0,0,1-5.454,5.454" transform="translate(246.734 4744.569)" fill="#afafaf"/>
    <path id="Trazado_787232" data-name="Trazado 787232" d="M528.328,68.511v3.9h-2.283V61.336h4.322a5,5,0,0,1,2.2.457,3.369,3.369,0,0,1,1.457,1.3,3.618,3.618,0,0,1,.51,1.914,3.181,3.181,0,0,1-1.115,2.568,4.642,4.642,0,0,1-3.085.94Zm0-1.849h2.039a2,2,0,0,0,1.381-.426,1.552,1.552,0,0,0,.475-1.217,1.829,1.829,0,0,0-.479-1.317,1.79,1.79,0,0,0-1.324-.517h-2.093Z" transform="translate(236.979 4838.353)"/>
    <path id="Trazado_787233" data-name="Trazado 787233" d="M543.386,67.007a5.984,5.984,0,0,0-.792-.061,1.61,1.61,0,0,0-1.636.845v5.387h-2.2V64.946h2.077l.061.981a2.037,2.037,0,0,1,1.833-1.134,2.317,2.317,0,0,1,.685.1Z" transform="translate(234.171 4837.589)"/>
    <path id="Trazado_787234" data-name="Trazado 787234" d="M545.264,68.986a4.879,4.879,0,0,1,.471-2.184,3.457,3.457,0,0,1,1.358-1.484,3.968,3.968,0,0,1,2.059-.525,3.746,3.746,0,0,1,2.72,1.02,4.089,4.089,0,0,1,1.176,2.769l.015.563a4.3,4.3,0,0,1-1.057,3.039,4.1,4.1,0,0,1-5.68,0,4.379,4.379,0,0,1-1.061-3.1Zm2.2.156a3.084,3.084,0,0,0,.441,1.8,1.585,1.585,0,0,0,2.511.007,3.368,3.368,0,0,0,.449-1.962,3.048,3.048,0,0,0-.449-1.783,1.46,1.46,0,0,0-1.263-.633,1.436,1.436,0,0,0-1.248.629,3.428,3.428,0,0,0-.441,1.947" transform="translate(232.735 4837.589)"/>
    <path id="Trazado_787235" data-name="Trazado 787235" d="M559.735,70.535l1.53-5.547h2.3l-2.777,8.233h-2.1l-2.777-8.233h2.3Z" transform="translate(230.385 4837.546)"/>
    <path id="Trazado_787236" data-name="Trazado 787236" d="M566.953,61.933a1.084,1.084,0,0,1,.331-.814,1.426,1.426,0,0,1,1.8,0,1.163,1.163,0,0,1,0,1.636,1.411,1.411,0,0,1-1.788,0,1.08,1.08,0,0,1-.339-.822M569.289,72.3h-2.207V64.064h2.207Z" transform="translate(227.945 4838.472)"/>
    <path id="Trazado_787237" data-name="Trazado 787237" d="M576.615,70.9a.707.707,0,0,0-.4-.635,4.534,4.534,0,0,0-1.282-.415Q572,69.237,572,67.357a2.261,2.261,0,0,1,.909-1.829,3.666,3.666,0,0,1,2.378-.735,3.951,3.951,0,0,1,2.507.738,2.327,2.327,0,0,1,.94,1.918h-2.2a1.066,1.066,0,0,0-.3-.78,1.29,1.29,0,0,0-.951-.308,1.314,1.314,0,0,0-.859.251.792.792,0,0,0-.3.64.677.677,0,0,0,.346.589,3.57,3.57,0,0,0,1.168.388,9.6,9.6,0,0,1,1.385.369,2.275,2.275,0,0,1,1.742,2.214,2.148,2.148,0,0,1-.966,1.822,4.173,4.173,0,0,1-2.5.7,4.356,4.356,0,0,1-1.838-.369,3.085,3.085,0,0,1-1.259-1.012,2.356,2.356,0,0,1-.457-1.388h2.085a1.147,1.147,0,0,0,.434.9,1.718,1.718,0,0,0,1.08.312,1.593,1.593,0,0,0,.955-.239.746.746,0,0,0,.323-.628" transform="translate(226.889 4837.589)"/>
    <path id="Trazado_787238" data-name="Trazado 787238" d="M582.539,61.933a1.083,1.083,0,0,1,.331-.814,1.426,1.426,0,0,1,1.8,0,1.162,1.162,0,0,1,0,1.636,1.411,1.411,0,0,1-1.788,0,1.08,1.08,0,0,1-.339-.822M584.875,72.3h-2.206V64.064h2.206Z" transform="translate(224.503 4838.472)"/>
    <path id="Trazado_787239" data-name="Trazado 787239" d="M587.422,68.05a4.881,4.881,0,0,1,.472-2.184,3.448,3.448,0,0,1,1.358-1.484,3.962,3.962,0,0,1,2.058-.525,3.749,3.749,0,0,1,2.721,1.02,4.092,4.092,0,0,1,1.175,2.77l.016.563a4.306,4.306,0,0,1-1.058,3.04,4.1,4.1,0,0,1-5.68,0,4.378,4.378,0,0,1-1.061-3.1Zm2.2.156a3.076,3.076,0,0,0,.442,1.8,1.585,1.585,0,0,0,2.51.008,3.365,3.365,0,0,0,.45-1.963,3.042,3.042,0,0,0-.45-1.784,1.459,1.459,0,0,0-1.263-.632,1.435,1.435,0,0,0-1.247.628,3.422,3.422,0,0,0-.442,1.947m2.123-7.651h2.4l-2.108,2.359h-1.788Z" transform="translate(223.425 4838.525)"/>
    <path id="Trazado_787240" data-name="Trazado 787240" d="M601.181,64.945l.069.951a2.873,2.873,0,0,1,2.366-1.1,2.387,2.387,0,0,1,1.948.768,3.585,3.585,0,0,1,.655,2.3v5.319h-2.2V67.913a1.427,1.427,0,0,0-.3-1.016,1.362,1.362,0,0,0-1.012-.316,1.513,1.513,0,0,0-1.393.791v5.806h-2.2V64.945Z" transform="translate(220.843 4837.589)"/>
    <path id="Trazado_787241" data-name="Trazado 787241" d="M614.912,68.064A4.963,4.963,0,0,1,615.775,65a2.8,2.8,0,0,1,2.362-1.141,2.521,2.521,0,0,1,1.986.9v-4.2h2.207V72.241h-1.986l-.106-.875a2.588,2.588,0,0,1-2.115,1.028,2.794,2.794,0,0,1-2.332-1.145,5.122,5.122,0,0,1-.879-3.184m2.2.164a3.244,3.244,0,0,0,.4,1.776,1.313,1.313,0,0,0,1.171.617,1.471,1.471,0,0,0,1.438-.861V66.506a1.449,1.449,0,0,0-1.423-.861q-1.591,0-1.59,2.583" transform="translate(217.354 4838.525)"/>
    <path id="Trazado_787242" data-name="Trazado 787242" d="M630.326,73.33a4.041,4.041,0,0,1-2.948-1.111,3.948,3.948,0,0,1-1.138-2.96v-.213a4.975,4.975,0,0,1,.479-2.218,3.525,3.525,0,0,1,1.359-1.507,3.814,3.814,0,0,1,2-.528,3.416,3.416,0,0,1,2.659,1.065,4.328,4.328,0,0,1,.97,3.021v.9h-5.243a2.046,2.046,0,0,0,.643,1.293,1.943,1.943,0,0,0,1.358.487,2.374,2.374,0,0,0,1.986-.92l1.08,1.209a3.306,3.306,0,0,1-1.339,1.092,4.4,4.4,0,0,1-1.872.392m-.251-6.765a1.37,1.37,0,0,0-1.061.443,2.286,2.286,0,0,0-.521,1.268h3.059V68.1a1.64,1.64,0,0,0-.4-1.135,1.418,1.418,0,0,0-1.081-.4" transform="translate(214.852 4837.589)"/>
    <path id="Trazado_787243" data-name="Trazado 787243" d="M647.039,67.007a6,6,0,0,0-.792-.061,1.609,1.609,0,0,0-1.635.845v5.387h-2.2V64.946h2.077l.061.981a2.037,2.037,0,0,1,1.833-1.134,2.316,2.316,0,0,1,.685.1Z" transform="translate(211.28 4837.589)"/>
    <path id="Trazado_787244" data-name="Trazado 787244" d="M653.412,73.33a4.041,4.041,0,0,1-2.948-1.111,3.948,3.948,0,0,1-1.137-2.96v-.213a4.977,4.977,0,0,1,.479-2.218,3.525,3.525,0,0,1,1.359-1.507,3.814,3.814,0,0,1,2.005-.528,3.415,3.415,0,0,1,2.659,1.065,4.327,4.327,0,0,1,.97,3.021v.9h-5.243a2.045,2.045,0,0,0,.644,1.293,1.942,1.942,0,0,0,1.358.487,2.374,2.374,0,0,0,1.986-.92l1.08,1.209a3.306,3.306,0,0,1-1.339,1.092,4.4,4.4,0,0,1-1.872.392m-.251-6.765a1.37,1.37,0,0,0-1.061.443,2.286,2.286,0,0,0-.521,1.268h3.059V68.1a1.64,1.64,0,0,0-.4-1.135,1.419,1.419,0,0,0-1.081-.4" transform="translate(209.754 4837.589)"/>
    <path id="Trazado_787245" data-name="Trazado 787245" d="M663.844,71.558a1.444,1.444,0,0,0,.99-.335,1.169,1.169,0,0,0,.395-.89h2.063a2.812,2.812,0,0,1-.456,1.533,3.017,3.017,0,0,1-1.229,1.08,3.846,3.846,0,0,1-1.723.384,3.576,3.576,0,0,1-2.785-1.122,4.44,4.44,0,0,1-1.02-3.1v-.144a4.395,4.395,0,0,1,1.012-3.036,3.533,3.533,0,0,1,2.777-1.134,3.462,3.462,0,0,1,2.477.879,3.112,3.112,0,0,1,.948,2.34h-2.062a1.508,1.508,0,0,0-.395-1.044,1.472,1.472,0,0,0-2.165.159,3.244,3.244,0,0,0-.392,1.817v.228A3.286,3.286,0,0,0,662.665,71a1.34,1.34,0,0,0,1.179.556" transform="translate(207.379 4837.589)"/>
    <path id="Trazado_787246" data-name="Trazado 787246" d="M675.863,72.385a2.759,2.759,0,0,1-2.252.99,2.6,2.6,0,0,1-2.02-.761,3.248,3.248,0,0,1-.711-2.229V64.989h2.2v5.325q0,1.287,1.172,1.287a1.586,1.586,0,0,0,1.536-.777V64.989h2.207v8.233h-2.07Z" transform="translate(204.994 4837.546)"/>
    <path id="Trazado_787247" data-name="Trazado 787247" d="M686.765,67.007a6,6,0,0,0-.792-.061,1.609,1.609,0,0,0-1.635.845v5.387h-2.2V64.946h2.077l.061.981a2.037,2.037,0,0,1,1.833-1.134,2.316,2.316,0,0,1,.685.1Z" transform="translate(202.507 4837.589)"/>
    <path id="Trazado_787248" data-name="Trazado 787248" d="M693.774,70.9a.708.708,0,0,0-.4-.635,4.528,4.528,0,0,0-1.282-.415q-2.938-.616-2.937-2.5a2.261,2.261,0,0,1,.909-1.829,3.667,3.667,0,0,1,2.378-.735,3.949,3.949,0,0,1,2.507.738,2.327,2.327,0,0,1,.94,1.918h-2.2a1.067,1.067,0,0,0-.3-.78,1.291,1.291,0,0,0-.951-.308,1.314,1.314,0,0,0-.859.251.794.794,0,0,0-.3.64.679.679,0,0,0,.346.589,3.561,3.561,0,0,0,1.168.388,9.62,9.62,0,0,1,1.385.369,2.276,2.276,0,0,1,1.742,2.214,2.15,2.15,0,0,1-.966,1.822,4.172,4.172,0,0,1-2.5.7,4.355,4.355,0,0,1-1.838-.369,3.091,3.091,0,0,1-1.259-1.012,2.356,2.356,0,0,1-.456-1.388h2.085a1.144,1.144,0,0,0,.434.9,1.717,1.717,0,0,0,1.08.312,1.591,1.591,0,0,0,.955-.239.748.748,0,0,0,.324-.628" transform="translate(201.015 4837.589)"/>
    <path id="Trazado_787249" data-name="Trazado 787249" d="M699.278,68.986a4.877,4.877,0,0,1,.471-2.184,3.462,3.462,0,0,1,1.358-1.484,3.967,3.967,0,0,1,2.058-.525,3.745,3.745,0,0,1,2.72,1.02,4.088,4.088,0,0,1,1.176,2.769l.015.563a4.306,4.306,0,0,1-1.057,3.039,4.1,4.1,0,0,1-5.68,0,4.379,4.379,0,0,1-1.061-3.1Zm2.2.156a3.085,3.085,0,0,0,.441,1.8,1.586,1.586,0,0,0,2.511.007,3.362,3.362,0,0,0,.449-1.962,3.042,3.042,0,0,0-.449-1.783,1.461,1.461,0,0,0-1.263-.633,1.437,1.437,0,0,0-1.248.629,3.43,3.43,0,0,0-.441,1.947" transform="translate(198.723 4837.589)"/>
    <path id="Trazado_787250" data-name="Trazado 787250" d="M715.365,70.9a.707.707,0,0,0-.4-.635,4.522,4.522,0,0,0-1.282-.415q-2.938-.616-2.937-2.5a2.261,2.261,0,0,1,.909-1.829,3.668,3.668,0,0,1,2.378-.735,3.95,3.95,0,0,1,2.507.738,2.327,2.327,0,0,1,.94,1.918h-2.2a1.067,1.067,0,0,0-.3-.78,1.291,1.291,0,0,0-.951-.308,1.313,1.313,0,0,0-.859.251.794.794,0,0,0-.3.64.678.678,0,0,0,.346.589,3.563,3.563,0,0,0,1.168.388,9.629,9.629,0,0,1,1.385.369,2.276,2.276,0,0,1,1.742,2.214,2.15,2.15,0,0,1-.966,1.822,4.172,4.172,0,0,1-2.5.7,4.355,4.355,0,0,1-1.838-.369,3.092,3.092,0,0,1-1.259-1.012,2.356,2.356,0,0,1-.457-1.388h2.085a1.144,1.144,0,0,0,.434.9,1.717,1.717,0,0,0,1.08.312,1.592,1.592,0,0,0,.955-.239.748.748,0,0,0,.323-.628" transform="translate(196.246 4837.589)"/>
    <path id="Trazado_787251" data-name="Trazado 787251" d="M541.592,230.359h-1.819v4.055H537.49V223.336h4.117a4.655,4.655,0,0,1,3.028.875,3.019,3.019,0,0,1,1.065,2.473,3.415,3.415,0,0,1-.49,1.891,3.348,3.348,0,0,1-1.488,1.206l2.4,4.527v.107h-2.451Zm-1.819-1.849h1.841a1.883,1.883,0,0,0,1.332-.438,1.562,1.562,0,0,0,.472-1.205,1.673,1.673,0,0,0-.446-1.233,1.845,1.845,0,0,0-1.365-.45h-1.834Z" transform="translate(234.452 4802.577)"/>
    <path id="Trazado_787252" data-name="Trazado 787252" d="M553.773,235.33a4.04,4.04,0,0,1-2.948-1.111,3.951,3.951,0,0,1-1.138-2.96v-.213a4.977,4.977,0,0,1,.479-2.218,3.525,3.525,0,0,1,1.359-1.507,3.811,3.811,0,0,1,2-.528,3.415,3.415,0,0,1,2.659,1.065,4.326,4.326,0,0,1,.97,3.021v.9h-5.243a2.046,2.046,0,0,0,.644,1.293,1.942,1.942,0,0,0,1.358.487,2.375,2.375,0,0,0,1.986-.92l1.08,1.209a3.308,3.308,0,0,1-1.339,1.092,4.4,4.4,0,0,1-1.872.392m-.251-6.765a1.371,1.371,0,0,0-1.061.443,2.292,2.292,0,0,0-.521,1.269H555V230.1a1.643,1.643,0,0,0-.4-1.135,1.419,1.419,0,0,0-1.081-.4" transform="translate(231.758 4801.813)"/>
    <path id="Trazado_787253" data-name="Trazado 787253" d="M564.205,233.558a1.442,1.442,0,0,0,.99-.335,1.173,1.173,0,0,0,.4-.89h2.063a2.825,2.825,0,0,1-.457,1.533,3.012,3.012,0,0,1-1.229,1.08,3.845,3.845,0,0,1-1.724.384,3.574,3.574,0,0,1-2.785-1.122,4.439,4.439,0,0,1-1.02-3.1v-.144a4.392,4.392,0,0,1,1.012-3.036,3.533,3.533,0,0,1,2.777-1.134,3.462,3.462,0,0,1,2.477.879,3.114,3.114,0,0,1,.948,2.34H565.59a1.512,1.512,0,0,0-.4-1.044,1.472,1.472,0,0,0-2.165.159,3.247,3.247,0,0,0-.392,1.817v.228a3.289,3.289,0,0,0,.388,1.83,1.342,1.342,0,0,0,1.18.556" transform="translate(229.384 4801.813)"/>
    <path id="Trazado_787254" data-name="Trazado 787254" d="M576.225,234.384a2.757,2.757,0,0,1-2.253.989,2.6,2.6,0,0,1-2.019-.761,3.245,3.245,0,0,1-.711-2.228v-5.4h2.2v5.326q0,1.286,1.172,1.286a1.588,1.588,0,0,0,1.536-.776v-5.836h2.206v8.233h-2.069Z" transform="translate(226.998 4801.77)"/>
    <path id="Trazado_787255" data-name="Trazado 787255" d="M587.127,229.007a5.989,5.989,0,0,0-.792-.061,1.609,1.609,0,0,0-1.635.845v5.387h-2.2v-8.233h2.078l.061.981a2.036,2.036,0,0,1,1.833-1.134,2.322,2.322,0,0,1,.686.1Z" transform="translate(224.512 4801.813)"/>
    <path id="Trazado_787256" data-name="Trazado 787256" d="M594.135,232.9a.707.707,0,0,0-.4-.635,4.531,4.531,0,0,0-1.282-.415q-2.937-.616-2.937-2.5a2.262,2.262,0,0,1,.909-1.829,3.666,3.666,0,0,1,2.378-.735,3.95,3.95,0,0,1,2.507.738,2.326,2.326,0,0,1,.94,1.918h-2.2a1.066,1.066,0,0,0-.3-.78,1.291,1.291,0,0,0-.951-.308,1.314,1.314,0,0,0-.859.251.792.792,0,0,0-.3.64.677.677,0,0,0,.346.589,3.565,3.565,0,0,0,1.168.388,9.6,9.6,0,0,1,1.385.369,2.275,2.275,0,0,1,1.742,2.214,2.148,2.148,0,0,1-.966,1.822,4.173,4.173,0,0,1-2.5.7,4.354,4.354,0,0,1-1.838-.368,3.084,3.084,0,0,1-1.259-1.012,2.354,2.354,0,0,1-.457-1.388h2.085a1.146,1.146,0,0,0,.434.9,1.719,1.719,0,0,0,1.08.312,1.593,1.593,0,0,0,.955-.239.746.746,0,0,0,.323-.628" transform="translate(223.02 4801.813)"/>
    <path id="Trazado_787257" data-name="Trazado 787257" d="M599.639,230.986a4.877,4.877,0,0,1,.471-2.184,3.457,3.457,0,0,1,1.358-1.484,3.967,3.967,0,0,1,2.059-.525,3.747,3.747,0,0,1,2.72,1.02,4.089,4.089,0,0,1,1.176,2.769l.015.563a4.3,4.3,0,0,1-1.057,3.039,4.1,4.1,0,0,1-5.68,0,4.379,4.379,0,0,1-1.061-3.1Zm2.2.156a3.085,3.085,0,0,0,.441,1.8,1.586,1.586,0,0,0,2.511.007,3.367,3.367,0,0,0,.449-1.962,3.048,3.048,0,0,0-.449-1.784,1.459,1.459,0,0,0-1.263-.633,1.437,1.437,0,0,0-1.248.629,3.429,3.429,0,0,0-.441,1.947" transform="translate(220.727 4801.813)"/>
    <path id="Trazado_787258" data-name="Trazado 787258" d="M615.727,232.9a.708.708,0,0,0-.4-.635,4.535,4.535,0,0,0-1.282-.415q-2.937-.616-2.938-2.5a2.261,2.261,0,0,1,.909-1.829,3.665,3.665,0,0,1,2.378-.735,3.95,3.95,0,0,1,2.507.738,2.327,2.327,0,0,1,.94,1.918h-2.2a1.067,1.067,0,0,0-.3-.78,1.292,1.292,0,0,0-.952-.308,1.314,1.314,0,0,0-.859.251.791.791,0,0,0-.3.64.677.677,0,0,0,.346.589,3.567,3.567,0,0,0,1.168.388,9.6,9.6,0,0,1,1.385.369,2.275,2.275,0,0,1,1.742,2.214,2.148,2.148,0,0,1-.966,1.822,4.173,4.173,0,0,1-2.5.7,4.354,4.354,0,0,1-1.838-.368,3.085,3.085,0,0,1-1.259-1.012,2.354,2.354,0,0,1-.457-1.388h2.085a1.145,1.145,0,0,0,.434.9,1.719,1.719,0,0,0,1.08.312,1.593,1.593,0,0,0,.955-.239.746.746,0,0,0,.323-.628" transform="translate(218.251 4801.813)"/>
    <path id="Trazado_787259" data-name="Trazado 787259" d="M628.781,226.907a2.745,2.745,0,0,1,2.2-1.05q2.677,0,2.717,3.112v5.273h-2.2v-5.212a1.534,1.534,0,0,0-.3-1.046,1.3,1.3,0,0,0-1.012-.339,1.5,1.5,0,0,0-1.4.746v5.851h-2.2V222.555h2.2Z" transform="translate(214.776 4802.749)"/>
    <path id="Trazado_787260" data-name="Trazado 787260" d="M642.758,234.384a2.757,2.757,0,0,1-2.253.989,2.6,2.6,0,0,1-2.019-.761,3.245,3.245,0,0,1-.711-2.228v-5.4h2.2v5.326q0,1.286,1.172,1.286a1.586,1.586,0,0,0,1.536-.776v-5.836h2.207v8.233h-2.069Z" transform="translate(212.305 4801.77)"/>
    <path id="Trazado_787261" data-name="Trazado 787261" d="M651.1,226.945l.069.921a2.894,2.894,0,0,1,2.366-1.073,2.2,2.2,0,0,1,2.184,1.255,2.827,2.827,0,0,1,2.473-1.255,2.453,2.453,0,0,1,1.993.78,3.58,3.58,0,0,1,.654,2.347v5.258h-2.206v-5.25a1.563,1.563,0,0,0-.274-1.023,1.212,1.212,0,0,0-.966-.323,1.373,1.373,0,0,0-1.37.944l.008,5.653h-2.2v-5.242a1.551,1.551,0,0,0-.281-1.035,1.225,1.225,0,0,0-.959-.319,1.424,1.424,0,0,0-1.354.776v5.82h-2.2v-8.233Z" transform="translate(209.818 4801.813)"/>
    <path id="Trazado_787262" data-name="Trazado 787262" d="M671.026,235.178a2.418,2.418,0,0,1-.22-.738,2.662,2.662,0,0,1-2.077.89,2.922,2.922,0,0,1-2-.7,2.25,2.25,0,0,1-.8-1.766,2.327,2.327,0,0,1,.97-2.009,4.785,4.785,0,0,1,2.8-.707h1.012v-.472a1.356,1.356,0,0,0-.293-.913,1.156,1.156,0,0,0-.925-.342,1.31,1.31,0,0,0-.871.266.9.9,0,0,0-.315.73h-2.2a2.213,2.213,0,0,1,.442-1.324,2.915,2.915,0,0,1,1.248-.954,4.537,4.537,0,0,1,1.812-.347,3.587,3.587,0,0,1,2.415.765,2.674,2.674,0,0,1,.895,2.149v3.569a3.911,3.911,0,0,0,.327,1.773v.129Zm-1.819-1.529a1.9,1.9,0,0,0,.9-.217,1.432,1.432,0,0,0,.609-.582v-1.416h-.822q-1.651,0-1.758,1.141l-.008.129a.878.878,0,0,0,.289.677,1.124,1.124,0,0,0,.791.266" transform="translate(206.087 4801.813)"/>
    <path id="Trazado_787263" data-name="Trazado 787263" d="M679.081,226.945l.069.951a2.874,2.874,0,0,1,2.366-1.1,2.389,2.389,0,0,1,1.948.768,3.59,3.59,0,0,1,.655,2.3v5.319h-2.2v-5.265a1.427,1.427,0,0,0-.3-1.016,1.363,1.363,0,0,0-1.012-.316,1.511,1.511,0,0,0-1.392.791v5.805h-2.2v-8.233Z" transform="translate(203.64 4801.813)"/>
    <path id="Trazado_787264" data-name="Trazado 787264" d="M687.832,230.986a4.88,4.88,0,0,1,.471-2.184,3.462,3.462,0,0,1,1.358-1.484,3.968,3.968,0,0,1,2.059-.525,3.746,3.746,0,0,1,2.72,1.02,4.089,4.089,0,0,1,1.176,2.769l.015.563a4.306,4.306,0,0,1-1.057,3.039,4.1,4.1,0,0,1-5.68,0,4.379,4.379,0,0,1-1.061-3.1Zm2.2.156a3.084,3.084,0,0,0,.441,1.8,1.585,1.585,0,0,0,2.511.007,3.36,3.36,0,0,0,.449-1.962,3.041,3.041,0,0,0-.449-1.784,1.46,1.46,0,0,0-1.263-.633,1.436,1.436,0,0,0-1.248.629,3.428,3.428,0,0,0-.441,1.947" transform="translate(201.25 4801.813)"/>
    <path id="Trazado_787265" data-name="Trazado 787265" d="M703.921,232.9a.707.707,0,0,0-.4-.635,4.522,4.522,0,0,0-1.282-.415q-2.938-.616-2.937-2.5a2.262,2.262,0,0,1,.909-1.829,3.668,3.668,0,0,1,2.378-.735,3.949,3.949,0,0,1,2.507.738,2.327,2.327,0,0,1,.94,1.918h-2.2a1.066,1.066,0,0,0-.3-.78,1.291,1.291,0,0,0-.951-.308,1.314,1.314,0,0,0-.859.251.793.793,0,0,0-.3.64.678.678,0,0,0,.346.589,3.556,3.556,0,0,0,1.168.388,9.638,9.638,0,0,1,1.385.369,2.276,2.276,0,0,1,1.742,2.214,2.15,2.15,0,0,1-.966,1.822,4.172,4.172,0,0,1-2.5.7,4.354,4.354,0,0,1-1.838-.368,3.092,3.092,0,0,1-1.259-1.012,2.356,2.356,0,0,1-.456-1.388h2.085a1.143,1.143,0,0,0,.434.9,1.717,1.717,0,0,0,1.08.312,1.592,1.592,0,0,0,.955-.239.748.748,0,0,0,.323-.628" transform="translate(198.774 4801.813)"/>
    <path id="Trazado_787663" data-name="Trazado 787663" d="M0,0H2.283V11.079H0Z" transform="translate(786.966 5152.136)"/>
    <path id="Trazado_787266" data-name="Trazado 787266" d="M564.242,388.945l.069.951a2.874,2.874,0,0,1,2.366-1.1,2.387,2.387,0,0,1,1.948.768,3.586,3.586,0,0,1,.655,2.3v5.319h-2.2v-5.265a1.427,1.427,0,0,0-.3-1.016,1.362,1.362,0,0,0-1.012-.316,1.512,1.512,0,0,0-1.392.791v5.806h-2.2v-8.233Z" transform="translate(229.001 4766.037)"/>
    <path id="Trazado_787267" data-name="Trazado 787267" d="M573.857,396.2v-6.62h-1.225v-1.613h1.225v-.7a2.842,2.842,0,0,1,.8-2.15,3.08,3.08,0,0,1,2.225-.764A5.137,5.137,0,0,1,578,384.5l-.023,1.7a2.781,2.781,0,0,0-.669-.069q-1.24,0-1.24,1.164v.662H577.7v1.613h-1.636v6.62Z" transform="translate(226.691 4767.018)"/>
    <path id="Trazado_787268" data-name="Trazado 787268" d="M585.227,391.007a5.977,5.977,0,0,0-.792-.061,1.61,1.61,0,0,0-1.635.845v5.387h-2.2v-8.233h2.077l.061.981a2.037,2.037,0,0,1,1.833-1.134,2.316,2.316,0,0,1,.685.1Z" transform="translate(224.932 4766.037)"/>
    <path id="Trazado_787269" data-name="Trazado 787269" d="M592.281,397.178a2.439,2.439,0,0,1-.221-.738,2.662,2.662,0,0,1-2.077.89,2.922,2.922,0,0,1-2-.7,2.25,2.25,0,0,1-.8-1.766,2.327,2.327,0,0,1,.97-2.009,4.785,4.785,0,0,1,2.8-.708h1.012v-.472a1.36,1.36,0,0,0-.293-.913,1.155,1.155,0,0,0-.925-.342,1.31,1.31,0,0,0-.871.266.9.9,0,0,0-.315.73h-2.2a2.207,2.207,0,0,1,.442-1.324,2.91,2.91,0,0,1,1.247-.955,4.539,4.539,0,0,1,1.812-.347,3.589,3.589,0,0,1,2.415.765,2.673,2.673,0,0,1,.895,2.149v3.569a3.922,3.922,0,0,0,.327,1.773v.129Zm-1.818-1.529a1.9,1.9,0,0,0,.9-.217,1.432,1.432,0,0,0,.609-.582v-1.416h-.822q-1.651,0-1.758,1.141l-.008.129a.881.881,0,0,0,.289.677,1.125,1.125,0,0,0,.792.267" transform="translate(223.478 4766.037)"/>
    <path id="Trazado_787270" data-name="Trazado 787270" d="M602.03,397.33a4.04,4.04,0,0,1-2.948-1.111,3.951,3.951,0,0,1-1.138-2.96v-.213a4.974,4.974,0,0,1,.479-2.218,3.523,3.523,0,0,1,1.359-1.507,3.811,3.811,0,0,1,2-.528,3.416,3.416,0,0,1,2.659,1.065,4.328,4.328,0,0,1,.97,3.021v.9h-5.243a2.046,2.046,0,0,0,.643,1.293,1.943,1.943,0,0,0,1.358.487,2.375,2.375,0,0,0,1.986-.92l1.08,1.209a3.309,3.309,0,0,1-1.339,1.092,4.4,4.4,0,0,1-1.872.392m-.251-6.765a1.371,1.371,0,0,0-1.061.443,2.292,2.292,0,0,0-.521,1.269h3.059V392.1a1.643,1.643,0,0,0-.4-1.135,1.419,1.419,0,0,0-1.081-.4" transform="translate(221.102 4766.037)"/>
    <path id="Trazado_787271" data-name="Trazado 787271" d="M613.476,394.9a.708.708,0,0,0-.4-.635,4.532,4.532,0,0,0-1.282-.415q-2.937-.616-2.937-2.5a2.262,2.262,0,0,1,.909-1.83,3.667,3.667,0,0,1,2.378-.735,3.952,3.952,0,0,1,2.507.738,2.327,2.327,0,0,1,.94,1.918h-2.2a1.067,1.067,0,0,0-.3-.78,1.29,1.29,0,0,0-.951-.308,1.314,1.314,0,0,0-.859.251.791.791,0,0,0-.3.64.677.677,0,0,0,.346.589,3.573,3.573,0,0,0,1.168.388,9.614,9.614,0,0,1,1.385.369,2.275,2.275,0,0,1,1.742,2.214,2.148,2.148,0,0,1-.966,1.822,4.173,4.173,0,0,1-2.5.7,4.354,4.354,0,0,1-1.838-.369,3.086,3.086,0,0,1-1.259-1.012,2.356,2.356,0,0,1-.456-1.388h2.085a1.147,1.147,0,0,0,.434.9,1.719,1.719,0,0,0,1.08.312,1.593,1.593,0,0,0,.955-.239.746.746,0,0,0,.323-.628" transform="translate(218.748 4766.037)"/>
    <path id="Trazado_787272" data-name="Trazado 787272" d="M621.834,386.391v2.024h1.408v1.613h-1.408v4.108a.98.98,0,0,0,.175.654.876.876,0,0,0,.669.2,3.544,3.544,0,0,0,.647-.053V396.6a4.51,4.51,0,0,1-1.332.2,2.1,2.1,0,0,1-2.358-2.336v-4.436h-1.2v-1.613h1.2v-2.024Z" transform="translate(216.576 4766.567)"/>
    <path id="Trazado_787273" data-name="Trazado 787273" d="M630.8,391.007a5.971,5.971,0,0,0-.791-.061,1.61,1.61,0,0,0-1.635.845v5.387h-2.2v-8.233h2.077l.061.981a2.036,2.036,0,0,1,1.833-1.134,2.315,2.315,0,0,1,.685.1Z" transform="translate(214.866 4766.037)"/>
    <path id="Trazado_787274" data-name="Trazado 787274" d="M638.388,396.384a2.759,2.759,0,0,1-2.253.99,2.6,2.6,0,0,1-2.02-.762,3.242,3.242,0,0,1-.711-2.228v-5.4h2.2v5.325q0,1.287,1.172,1.288a1.586,1.586,0,0,0,1.536-.778v-5.835h2.207v8.233h-2.07Z" transform="translate(213.27 4765.994)"/>
    <path id="Trazado_787275" data-name="Trazado 787275" d="M647.991,395.558a1.442,1.442,0,0,0,.99-.335,1.17,1.17,0,0,0,.395-.89h2.063a2.827,2.827,0,0,1-.456,1.533,3.008,3.008,0,0,1-1.229,1.08,3.846,3.846,0,0,1-1.724.384,3.574,3.574,0,0,1-2.785-1.122,4.444,4.444,0,0,1-1.02-3.1v-.144a4.391,4.391,0,0,1,1.012-3.036,3.532,3.532,0,0,1,2.777-1.134,3.461,3.461,0,0,1,2.477.879,3.113,3.113,0,0,1,.948,2.34h-2.063a1.508,1.508,0,0,0-.395-1.044,1.472,1.472,0,0,0-2.165.159,3.239,3.239,0,0,0-.392,1.817v.228a3.287,3.287,0,0,0,.388,1.829,1.342,1.342,0,0,0,1.18.556" transform="translate(210.881 4766.037)"/>
    <path id="Trazado_787276" data-name="Trazado 787276" d="M657.508,386.391v2.024h1.408v1.613h-1.408v4.108a.98.98,0,0,0,.175.654.875.875,0,0,0,.669.2,3.547,3.547,0,0,0,.647-.053V396.6a4.512,4.512,0,0,1-1.332.2,2.1,2.1,0,0,1-2.359-2.336v-4.436h-1.2v-1.613h1.2v-2.024Z" transform="translate(208.698 4766.567)"/>
    <path id="Trazado_787277" data-name="Trazado 787277" d="M666.767,396.384a2.759,2.759,0,0,1-2.253.99,2.6,2.6,0,0,1-2.02-.762,3.241,3.241,0,0,1-.711-2.228v-5.4h2.2v5.325q0,1.287,1.172,1.288a1.586,1.586,0,0,0,1.536-.778v-5.835H668.9v8.233h-2.069Z" transform="translate(207.003 4765.994)"/>
    <path id="Trazado_787278" data-name="Trazado 787278" d="M677.668,391.007a5.96,5.96,0,0,0-.791-.061,1.609,1.609,0,0,0-1.635.845v5.387h-2.2v-8.233h2.077l.061.981a2.036,2.036,0,0,1,1.833-1.134,2.312,2.312,0,0,1,.685.1Z" transform="translate(204.517 4766.037)"/>
    <path id="Trazado_787279" data-name="Trazado 787279" d="M684.722,397.178a2.437,2.437,0,0,1-.221-.738,2.662,2.662,0,0,1-2.077.89,2.921,2.921,0,0,1-2-.7,2.253,2.253,0,0,1-.8-1.766,2.327,2.327,0,0,1,.97-2.009,4.784,4.784,0,0,1,2.8-.708h1.012v-.472a1.36,1.36,0,0,0-.293-.913,1.155,1.155,0,0,0-.925-.342,1.308,1.308,0,0,0-.871.266.9.9,0,0,0-.316.73h-2.2a2.207,2.207,0,0,1,.442-1.324,2.914,2.914,0,0,1,1.247-.955,4.542,4.542,0,0,1,1.812-.347,3.591,3.591,0,0,1,2.415.765,2.671,2.671,0,0,1,.894,2.149v3.569a3.926,3.926,0,0,0,.327,1.773v.129Zm-1.819-1.529a1.9,1.9,0,0,0,.9-.217,1.428,1.428,0,0,0,.609-.582v-1.416h-.822q-1.652,0-1.758,1.141l-.008.129a.881.881,0,0,0,.289.677,1.124,1.124,0,0,0,.792.267" transform="translate(203.063 4766.037)"/>
    <path id="Trazado_787280" data-name="Trazado 787280" d="M538.8,556.132h-4l-.761,2.283h-2.427l4.124-11.079h2.116l4.147,11.079h-2.427Zm-3.386-1.849h2.77l-1.392-4.147Z" transform="translate(235.751 4731.023)"/>
    <path id="Trazado_787281" data-name="Trazado 787281" d="M548.142,550.945l.069.921a2.893,2.893,0,0,1,2.366-1.073,2.2,2.2,0,0,1,2.184,1.255,2.827,2.827,0,0,1,2.473-1.255,2.453,2.453,0,0,1,1.993.78,3.582,3.582,0,0,1,.655,2.347v5.258h-2.207v-5.25a1.564,1.564,0,0,0-.274-1.023,1.213,1.213,0,0,0-.966-.323,1.372,1.372,0,0,0-1.37.943l.008,5.653h-2.2v-5.242a1.551,1.551,0,0,0-.281-1.035,1.225,1.225,0,0,0-.959-.319,1.425,1.425,0,0,0-1.354.776v5.82h-2.2v-8.232Z" transform="translate(232.555 4730.26)"/>
    <path id="Trazado_787282" data-name="Trazado 787282" d="M570.812,554.2a4.985,4.985,0,0,1-.845,3.085,2.8,2.8,0,0,1-2.359,1.107,2.572,2.572,0,0,1-2.138-1.027l-.1.875h-1.978V546.555h2.2v4.192a2.505,2.505,0,0,1,2-.89,2.824,2.824,0,0,1,2.363,1.107,4.994,4.994,0,0,1,.856,3.116Zm-2.2-.16a3.272,3.272,0,0,0-.4-1.823,1.336,1.336,0,0,0-1.179-.574,1.451,1.451,0,0,0-1.446.859v3.249a1.471,1.471,0,0,0,1.461.868,1.358,1.358,0,0,0,1.4-1.05,5.409,5.409,0,0,0,.16-1.53" transform="translate(228.731 4731.196)"/>
    <path id="Trazado_787283" data-name="Trazado 787283" d="M574.634,547.933a1.082,1.082,0,0,1,.331-.815,1.427,1.427,0,0,1,1.8,0,1.162,1.162,0,0,1,0,1.636,1.411,1.411,0,0,1-1.788,0,1.082,1.082,0,0,1-.338-.822M576.97,558.3h-2.206v-8.233h2.206Z" transform="translate(226.249 4731.142)"/>
    <path id="Trazado_787284" data-name="Trazado 787284" d="M583.661,559.33a4.04,4.04,0,0,1-2.948-1.111,3.951,3.951,0,0,1-1.138-2.96v-.213a4.977,4.977,0,0,1,.479-2.218,3.526,3.526,0,0,1,1.359-1.507,3.811,3.811,0,0,1,2-.528,3.416,3.416,0,0,1,2.659,1.065,4.328,4.328,0,0,1,.97,3.021v.9H581.8a2.045,2.045,0,0,0,.643,1.293,1.943,1.943,0,0,0,1.358.487,2.375,2.375,0,0,0,1.986-.92l1.08,1.209a3.309,3.309,0,0,1-1.339,1.093,4.4,4.4,0,0,1-1.872.392m-.251-6.765a1.371,1.371,0,0,0-1.061.443,2.292,2.292,0,0,0-.521,1.268h3.059V554.1a1.643,1.643,0,0,0-.4-1.135,1.42,1.42,0,0,0-1.081-.4" transform="translate(225.157 4730.26)"/>
    <path id="Trazado_787285" data-name="Trazado 787285" d="M592.777,550.945l.069.951a2.874,2.874,0,0,1,2.366-1.1,2.387,2.387,0,0,1,1.948.768,3.586,3.586,0,0,1,.655,2.3v5.318h-2.2v-5.265a1.428,1.428,0,0,0-.3-1.016,1.362,1.362,0,0,0-1.012-.315,1.512,1.512,0,0,0-1.392.791v5.805h-2.2v-8.232Z" transform="translate(222.699 4730.26)"/>
    <path id="Trazado_787286" data-name="Trazado 787286" d="M604.383,548.391v2.024h1.408v1.613h-1.408v4.108a.979.979,0,0,0,.175.654.876.876,0,0,0,.669.2,3.558,3.558,0,0,0,.647-.053V558.6a4.509,4.509,0,0,1-1.331.2,2.1,2.1,0,0,1-2.359-2.336v-4.436h-1.2v-1.613h1.2v-2.024Z" transform="translate(220.43 4730.791)"/>
    <path id="Trazado_787287" data-name="Trazado 787287" d="M612.431,559.33a4.04,4.04,0,0,1-2.948-1.111,3.951,3.951,0,0,1-1.138-2.96v-.213a4.975,4.975,0,0,1,.479-2.218,3.525,3.525,0,0,1,1.359-1.507,3.811,3.811,0,0,1,2-.528,3.416,3.416,0,0,1,2.659,1.065,4.328,4.328,0,0,1,.97,3.021v.9h-5.243a2.046,2.046,0,0,0,.644,1.293,1.943,1.943,0,0,0,1.358.487,2.375,2.375,0,0,0,1.986-.92l1.08,1.209a3.306,3.306,0,0,1-1.339,1.093,4.4,4.4,0,0,1-1.872.392m-.251-6.765a1.371,1.371,0,0,0-1.061.443,2.293,2.293,0,0,0-.521,1.268h3.059V554.1a1.644,1.644,0,0,0-.4-1.135,1.42,1.42,0,0,0-1.081-.4" transform="translate(218.804 4730.26)"/>
    <path id="Trazado_787288" data-name="Trazado 787288" d="M624.077,554.064A4.967,4.967,0,0,1,624.94,551a2.8,2.8,0,0,1,2.362-1.141,2.523,2.523,0,0,1,1.986.9v-4.2H631.5v11.687h-1.986l-.106-.875a2.588,2.588,0,0,1-2.115,1.028,2.8,2.8,0,0,1-2.332-1.145,5.121,5.121,0,0,1-.879-3.184m2.2.164a3.253,3.253,0,0,0,.4,1.776,1.312,1.312,0,0,0,1.171.617,1.471,1.471,0,0,0,1.438-.861v-3.254a1.449,1.449,0,0,0-1.423-.861q-1.589,0-1.59,2.583" transform="translate(215.33 4731.196)"/>
    <path id="Trazado_787289" data-name="Trazado 787289" d="M639.491,559.33a4.039,4.039,0,0,1-2.948-1.111,3.951,3.951,0,0,1-1.138-2.96v-.213a4.976,4.976,0,0,1,.479-2.218,3.524,3.524,0,0,1,1.359-1.507,3.811,3.811,0,0,1,2-.528,3.416,3.416,0,0,1,2.659,1.065,4.328,4.328,0,0,1,.97,3.021v.9h-5.243a2.043,2.043,0,0,0,.644,1.293,1.943,1.943,0,0,0,1.358.487,2.376,2.376,0,0,0,1.986-.92l1.08,1.209a3.3,3.3,0,0,1-1.339,1.093,4.4,4.4,0,0,1-1.872.392m-.251-6.765a1.37,1.37,0,0,0-1.061.443,2.292,2.292,0,0,0-.521,1.268h3.059V554.1a1.639,1.639,0,0,0-.4-1.135,1.419,1.419,0,0,0-1.081-.4" transform="translate(212.828 4730.26)"/>
    <path id="Trazado_787290" data-name="Trazado 787290" d="M653.992,548.391v2.024H655.4v1.613h-1.408v4.108a.979.979,0,0,0,.175.654.874.874,0,0,0,.669.2,3.561,3.561,0,0,0,.647-.053V558.6a4.513,4.513,0,0,1-1.332.2,2.1,2.1,0,0,1-2.358-2.336v-4.436h-1.2v-1.613h1.2v-2.024Z" transform="translate(209.475 4730.791)"/>
    <path id="Trazado_787291" data-name="Trazado 787291" d="M662.962,553.007a5.982,5.982,0,0,0-.792-.061,1.61,1.61,0,0,0-1.635.845v5.387h-2.2v-8.233h2.077l.061.981a2.036,2.036,0,0,1,1.833-1.134,2.32,2.32,0,0,1,.686.1Z" transform="translate(207.764 4730.26)"/>
    <path id="Trazado_787292" data-name="Trazado 787292" d="M670.015,559.178a2.434,2.434,0,0,1-.22-.738,2.663,2.663,0,0,1-2.077.89,2.922,2.922,0,0,1-2-.7,2.253,2.253,0,0,1-.8-1.766,2.327,2.327,0,0,1,.97-2.009,4.784,4.784,0,0,1,2.8-.708H669.7v-.472a1.36,1.36,0,0,0-.293-.913,1.155,1.155,0,0,0-.925-.342,1.308,1.308,0,0,0-.871.266.9.9,0,0,0-.315.73h-2.2a2.207,2.207,0,0,1,.442-1.324,2.916,2.916,0,0,1,1.247-.955,4.542,4.542,0,0,1,1.812-.347,3.591,3.591,0,0,1,2.416.765,2.671,2.671,0,0,1,.894,2.149v3.569a3.924,3.924,0,0,0,.327,1.773v.13Zm-1.818-1.53a1.9,1.9,0,0,0,.9-.216,1.429,1.429,0,0,0,.609-.582v-1.416h-.822q-1.652,0-1.758,1.141l-.008.129a.881.881,0,0,0,.289.677,1.123,1.123,0,0,0,.792.266" transform="translate(206.311 4730.26)"/>
    <path id="Trazado_787293" data-name="Trazado 787293" d="M683.478,554.2a4.984,4.984,0,0,1-.845,3.085,2.8,2.8,0,0,1-2.359,1.107,2.572,2.572,0,0,1-2.138-1.027l-.1.875H676.06V546.555h2.2v4.192a2.505,2.505,0,0,1,2-.89,2.824,2.824,0,0,1,2.363,1.107,5,5,0,0,1,.856,3.116Zm-2.2-.16a3.272,3.272,0,0,0-.4-1.823,1.337,1.337,0,0,0-1.179-.574,1.452,1.452,0,0,0-1.446.859v3.249a1.471,1.471,0,0,0,1.461.868,1.358,1.358,0,0,0,1.4-1.05,5.408,5.408,0,0,0,.16-1.53" transform="translate(203.85 4731.196)"/>
    <path id="Trazado_787294" data-name="Trazado 787294" d="M692,559.178a2.441,2.441,0,0,1-.221-.738,2.662,2.662,0,0,1-2.077.89,2.921,2.921,0,0,1-2-.7,2.253,2.253,0,0,1-.8-1.766,2.327,2.327,0,0,1,.97-2.009,4.783,4.783,0,0,1,2.8-.708h1.012v-.472a1.361,1.361,0,0,0-.293-.913,1.156,1.156,0,0,0-.925-.342,1.307,1.307,0,0,0-.871.266.9.9,0,0,0-.316.73h-2.2a2.208,2.208,0,0,1,.442-1.324,2.916,2.916,0,0,1,1.247-.955,4.541,4.541,0,0,1,1.811-.347,3.59,3.59,0,0,1,2.416.765,2.671,2.671,0,0,1,.894,2.149v3.569a3.922,3.922,0,0,0,.327,1.773v.13Zm-1.818-1.53a1.9,1.9,0,0,0,.9-.216,1.429,1.429,0,0,0,.609-.582v-1.416h-.822q-1.651,0-1.758,1.141l-.008.129a.88.88,0,0,0,.289.677,1.122,1.122,0,0,0,.792.266" transform="translate(201.456 4730.26)"/>
    <path id="Trazado_787295" data-name="Trazado 787295" d="M699.927,550.063v8.682a2.948,2.948,0,0,1-.723,2.12,2.747,2.747,0,0,1-2.085.756,4.455,4.455,0,0,1-1.088-.129v-1.742a4.089,4.089,0,0,0,.692.068q1,0,1-1.058v-8.7Zm-2.382-2.13a1.085,1.085,0,0,1,.331-.815,1.432,1.432,0,0,1,1.8,0,1.167,1.167,0,0,1-.008,1.636,1.41,1.41,0,0,1-1.787,0,1.082,1.082,0,0,1-.339-.822" transform="translate(199.439 4731.142)"/>
    <path id="Trazado_787296" data-name="Trazado 787296" d="M702.8,554.986a4.888,4.888,0,0,1,.471-2.184,3.462,3.462,0,0,1,1.358-1.483,3.965,3.965,0,0,1,2.059-.525,3.747,3.747,0,0,1,2.72,1.02,4.09,4.09,0,0,1,1.176,2.769l.015.563a4.3,4.3,0,0,1-1.057,3.039,4.1,4.1,0,0,1-5.68,0,4.378,4.378,0,0,1-1.061-3.1Zm2.2.156a3.078,3.078,0,0,0,.441,1.8,1.585,1.585,0,0,0,2.511.007,3.366,3.366,0,0,0,.449-1.962,3.046,3.046,0,0,0-.449-1.783,1.46,1.46,0,0,0-1.263-.633,1.436,1.436,0,0,0-1.248.629,3.421,3.421,0,0,0-.441,1.947" transform="translate(197.945 4730.26)"/>
    <path id="Trazado_787297" data-name="Trazado 787297" d="M1100.631,267.524H875.454A5.454,5.454,0,0,1,870,262.07V165.454A5.454,5.454,0,0,1,875.454,160h225.177a5.454,5.454,0,0,1,5.454,5.454V262.07a5.454,5.454,0,0,1-5.454,5.454" transform="translate(161.02 4816.563)" fill="#727997"/>
    <path id="Trazado_787298" data-name="Trazado 787298" d="M966.892,208.972a3.961,3.961,0,0,1-1.742,1.145,7.308,7.308,0,0,1-2.5.407,4.946,4.946,0,0,1-2.523-.627,4.193,4.193,0,0,1-1.674-1.822,6.412,6.412,0,0,1-.605-2.808v-.753a6.82,6.82,0,0,1,.559-2.872,4.133,4.133,0,0,1,1.614-1.857,5.312,5.312,0,0,1,5.551.3,4.018,4.018,0,0,1,1.316,2.736H964.67a2.214,2.214,0,0,0-.673-1.393,2.152,2.152,0,0,0-1.434-.441,2.024,2.024,0,0,0-1.773.875,4.59,4.59,0,0,0-.616,2.6v.708a4.377,4.377,0,0,0,.662,2.633,2.265,2.265,0,0,0,1.94.891,2.534,2.534,0,0,0,1.833-.548v-1.911h-2.077v-1.681h4.36Z" transform="translate(141.618 4807.92)"/>
    <path id="Trazado_787299" data-name="Trazado 787299" d="M975.347,211.33a4.038,4.038,0,0,1-2.948-1.111,3.947,3.947,0,0,1-1.138-2.96v-.213a4.979,4.979,0,0,1,.479-2.218,3.528,3.528,0,0,1,1.359-1.507,3.811,3.811,0,0,1,2-.528,3.416,3.416,0,0,1,2.659,1.065,4.328,4.328,0,0,1,.97,3.021v.9H973.49a2.043,2.043,0,0,0,.644,1.293,1.942,1.942,0,0,0,1.358.487,2.376,2.376,0,0,0,1.986-.92l1.08,1.209a3.308,3.308,0,0,1-1.339,1.092,4.4,4.4,0,0,1-1.872.392m-.251-6.765a1.369,1.369,0,0,0-1.061.443,2.286,2.286,0,0,0-.521,1.268h3.059V206.1a1.642,1.642,0,0,0-.4-1.135,1.42,1.42,0,0,0-1.081-.4" transform="translate(138.657 4807.113)"/>
    <path id="Trazado_787300" data-name="Trazado 787300" d="M984.463,202.945l.069.951a2.874,2.874,0,0,1,2.366-1.1,2.388,2.388,0,0,1,1.948.768,3.59,3.59,0,0,1,.654,2.3v5.319h-2.2v-5.265a1.427,1.427,0,0,0-.3-1.016,1.364,1.364,0,0,0-1.012-.316,1.511,1.511,0,0,0-1.392.791v5.805h-2.2v-8.233Z" transform="translate(136.198 4807.113)"/>
    <path id="Trazado_787301" data-name="Trazado 787301" d="M997.358,211.33a4.039,4.039,0,0,1-2.948-1.111,3.948,3.948,0,0,1-1.137-2.96v-.213a4.974,4.974,0,0,1,.479-2.218,3.525,3.525,0,0,1,1.359-1.507,3.813,3.813,0,0,1,2.005-.528,3.415,3.415,0,0,1,2.659,1.065,4.328,4.328,0,0,1,.97,3.021v.9H995.5a2.043,2.043,0,0,0,.644,1.293,1.942,1.942,0,0,0,1.358.487,2.376,2.376,0,0,0,1.986-.92l1.08,1.209a3.309,3.309,0,0,1-1.339,1.092,4.4,4.4,0,0,1-1.872.392m-.251-6.765a1.368,1.368,0,0,0-1.061.443,2.286,2.286,0,0,0-.521,1.268h3.059V206.1a1.643,1.643,0,0,0-.4-1.135,1.42,1.42,0,0,0-1.081-.4" transform="translate(133.796 4807.113)"/>
    <path id="Trazado_787302" data-name="Trazado 787302" d="M1009.09,205.007a6,6,0,0,0-.792-.061,1.609,1.609,0,0,0-1.635.845v5.387h-2.2v-8.233h2.077l.061.981a2.037,2.037,0,0,1,1.834-1.134,2.318,2.318,0,0,1,.685.1Z" transform="translate(131.324 4807.113)"/>
    <path id="Trazado_787303" data-name="Trazado 787303" d="M1016.144,211.178a2.413,2.413,0,0,1-.221-.738,2.662,2.662,0,0,1-2.077.89,2.921,2.921,0,0,1-2-.7,2.25,2.25,0,0,1-.8-1.766,2.328,2.328,0,0,1,.97-2.009,4.785,4.785,0,0,1,2.8-.707h1.012v-.472a1.36,1.36,0,0,0-.293-.913,1.157,1.157,0,0,0-.925-.342,1.309,1.309,0,0,0-.871.267.9.9,0,0,0-.315.73h-2.2a2.208,2.208,0,0,1,.442-1.324,2.912,2.912,0,0,1,1.248-.954,4.539,4.539,0,0,1,1.812-.347,3.591,3.591,0,0,1,2.415.765,2.673,2.673,0,0,1,.895,2.149v3.569a3.913,3.913,0,0,0,.327,1.773v.129Zm-1.819-1.529a1.9,1.9,0,0,0,.9-.217,1.433,1.433,0,0,0,.609-.582v-1.416h-.822q-1.652,0-1.758,1.141l-.008.129a.879.879,0,0,0,.289.677,1.124,1.124,0,0,0,.792.266" transform="translate(129.871 4807.113)"/>
    <path id="Trazado_787664" data-name="Trazado 787664" d="M0,0H2.207V11.687H0Z" transform="translate(1149.713 5006.604)"/>
    <path id="Trazado_787304" data-name="Trazado 787304" d="M1027.472,199.933a1.083,1.083,0,0,1,.33-.814,1.427,1.427,0,0,1,1.8,0,1.162,1.162,0,0,1,0,1.636,1.411,1.411,0,0,1-1.788,0,1.079,1.079,0,0,1-.338-.822m2.336,10.364H1027.6v-8.233h2.206Z" transform="translate(126.243 4807.995)"/>
    <path id="Trazado_787305" data-name="Trazado 787305" d="M1032.355,206.064a4.961,4.961,0,0,1,.863-3.067,2.8,2.8,0,0,1,2.363-1.141,2.52,2.52,0,0,1,1.985.9v-4.2h2.207v11.687h-1.986l-.106-.875a2.588,2.588,0,0,1-2.115,1.028,2.793,2.793,0,0,1-2.332-1.145,5.12,5.12,0,0,1-.879-3.184m2.2.164a3.242,3.242,0,0,0,.4,1.776,1.311,1.311,0,0,0,1.171.617,1.47,1.47,0,0,0,1.438-.861v-3.254a1.449,1.449,0,0,0-1.422-.861q-1.59,0-1.59,2.583" transform="translate(125.165 4808.049)"/>
    <path id="Trazado_787306" data-name="Trazado 787306" d="M1048.742,211.178a2.408,2.408,0,0,1-.221-.738,2.663,2.663,0,0,1-2.077.89,2.921,2.921,0,0,1-2-.7,2.25,2.25,0,0,1-.8-1.766,2.327,2.327,0,0,1,.97-2.009,4.782,4.782,0,0,1,2.8-.707h1.011v-.472a1.361,1.361,0,0,0-.292-.913,1.157,1.157,0,0,0-.925-.342,1.307,1.307,0,0,0-.871.267.9.9,0,0,0-.316.73h-2.2a2.209,2.209,0,0,1,.441-1.324,2.914,2.914,0,0,1,1.248-.954,4.534,4.534,0,0,1,1.811-.347,3.591,3.591,0,0,1,2.416.765,2.674,2.674,0,0,1,.894,2.149v3.569a3.92,3.92,0,0,0,.327,1.773v.129Zm-1.819-1.529a1.9,1.9,0,0,0,.9-.217,1.423,1.423,0,0,0,.608-.582v-1.416h-.821q-1.653,0-1.758,1.141l-.008.129a.878.878,0,0,0,.289.677,1.12,1.12,0,0,0,.791.266" transform="translate(122.672 4807.113)"/>
    <path id="Trazado_787307" data-name="Trazado 787307" d="M1054.347,206.064a4.962,4.962,0,0,1,.864-3.067,2.8,2.8,0,0,1,2.362-1.141,2.522,2.522,0,0,1,1.986.9v-4.2h2.207v11.687h-1.986l-.106-.875a2.588,2.588,0,0,1-2.115,1.028,2.794,2.794,0,0,1-2.332-1.145,5.12,5.12,0,0,1-.879-3.184m2.2.164a3.243,3.243,0,0,0,.4,1.776,1.311,1.311,0,0,0,1.171.617,1.471,1.471,0,0,0,1.438-.861v-3.254a1.45,1.45,0,0,0-1.423-.861q-1.59,0-1.59,2.583" transform="translate(120.309 4808.049)"/>
    <path id="Trazado_787308" data-name="Trazado 787308" d="M1069.761,211.33a4.039,4.039,0,0,1-2.948-1.111,3.948,3.948,0,0,1-1.137-2.96v-.213a4.975,4.975,0,0,1,.479-2.218,3.525,3.525,0,0,1,1.359-1.507,3.811,3.811,0,0,1,2-.528,3.415,3.415,0,0,1,2.659,1.065,4.325,4.325,0,0,1,.97,3.021v.9H1067.9a2.039,2.039,0,0,0,.643,1.293,1.942,1.942,0,0,0,1.358.487,2.377,2.377,0,0,0,1.986-.92l1.08,1.209a3.311,3.311,0,0,1-1.339,1.092,4.4,4.4,0,0,1-1.872.392m-.251-6.765a1.369,1.369,0,0,0-1.061.443,2.287,2.287,0,0,0-.521,1.268h3.059V206.1a1.643,1.643,0,0,0-.4-1.135,1.42,1.42,0,0,0-1.081-.4" transform="translate(117.807 4807.113)"/>
    <path id="Trazado_787309" data-name="Trazado 787309" d="M1081.207,208.9a.708.708,0,0,0-.4-.635,4.537,4.537,0,0,0-1.282-.415q-2.938-.616-2.937-2.5a2.261,2.261,0,0,1,.909-1.829,3.664,3.664,0,0,1,2.378-.735,3.951,3.951,0,0,1,2.507.738,2.326,2.326,0,0,1,.94,1.917h-2.2a1.066,1.066,0,0,0-.305-.78,1.292,1.292,0,0,0-.951-.308,1.312,1.312,0,0,0-.859.251.791.791,0,0,0-.3.64.677.677,0,0,0,.346.589,3.56,3.56,0,0,0,1.168.388,9.644,9.644,0,0,1,1.385.369,2.276,2.276,0,0,1,1.742,2.214,2.15,2.15,0,0,1-.966,1.822,4.172,4.172,0,0,1-2.5.7,4.353,4.353,0,0,1-1.838-.369,3.088,3.088,0,0,1-1.259-1.012,2.358,2.358,0,0,1-.456-1.388h2.085a1.143,1.143,0,0,0,.434.9,1.716,1.716,0,0,0,1.08.312,1.594,1.594,0,0,0,.955-.239.748.748,0,0,0,.324-.628" transform="translate(115.453 4807.113)"/>
    <path id="Trazado_787310" data-name="Trazado 787310" d="M930.5,230.681a3.93,3.93,0,0,1-1.32,2.815,4.642,4.642,0,0,1-3.14,1.028,4.166,4.166,0,0,1-3.35-1.434,5.882,5.882,0,0,1-1.222-3.938v-.677a6.635,6.635,0,0,1,.563-2.815,4.222,4.222,0,0,1,1.609-1.868,5.029,5.029,0,0,1,5.521.377,4.22,4.22,0,0,1,1.355,2.884h-2.283a2.309,2.309,0,0,0-.6-1.556,2.207,2.207,0,0,0-1.564-.483,1.938,1.938,0,0,0-1.707.817,4.58,4.58,0,0,0-.582,2.538v.837a4.9,4.9,0,0,0,.544,2.626,1.9,1.9,0,0,0,1.715.829,2.255,2.255,0,0,0,1.58-.483,2.187,2.187,0,0,0,.6-1.5Z" transform="translate(149.652 4802.62)"/>
    <path id="Trazado_787311" data-name="Trazado 787311" d="M934.362,230.986a4.879,4.879,0,0,1,.471-2.184,3.456,3.456,0,0,1,1.358-1.484,3.965,3.965,0,0,1,2.059-.525,3.747,3.747,0,0,1,2.72,1.02,4.091,4.091,0,0,1,1.176,2.769l.015.563a4.306,4.306,0,0,1-1.057,3.039,4.1,4.1,0,0,1-5.68,0,4.378,4.378,0,0,1-1.061-3.1Zm2.2.156a3.078,3.078,0,0,0,.441,1.8,1.585,1.585,0,0,0,2.511.007,3.368,3.368,0,0,0,.449-1.962,3.048,3.048,0,0,0-.449-1.784,1.461,1.461,0,0,0-1.263-.633,1.436,1.436,0,0,0-1.248.629,3.421,3.421,0,0,0-.441,1.947" transform="translate(146.806 4801.813)"/>
    <path id="Trazado_787312" data-name="Trazado 787312" d="M948.171,226.945l.069.921a2.892,2.892,0,0,1,2.366-1.073,2.2,2.2,0,0,1,2.184,1.255,2.826,2.826,0,0,1,2.473-1.255,2.454,2.454,0,0,1,1.993.78,3.582,3.582,0,0,1,.654,2.347v5.258H955.7v-5.25a1.563,1.563,0,0,0-.274-1.023,1.212,1.212,0,0,0-.966-.323,1.372,1.372,0,0,0-1.37.944l.008,5.653h-2.2v-5.242a1.553,1.553,0,0,0-.281-1.035,1.227,1.227,0,0,0-.959-.319,1.423,1.423,0,0,0-1.354.776v5.82h-2.2v-8.233Z" transform="translate(144.211 4801.813)"/>
    <path id="Trazado_787313" data-name="Trazado 787313" d="M970.835,231.138a4.942,4.942,0,0,1-.863,3.047,2.769,2.769,0,0,1-2.332,1.145,2.563,2.563,0,0,1-2.016-.867v3.88h-2.2v-11.4h2.039l.076.806a2.585,2.585,0,0,1,2.085-.958,2.788,2.788,0,0,1,2.367,1.126,5.072,5.072,0,0,1,.845,3.1Zm-2.2-.16a3.246,3.246,0,0,0-.407-1.773,1.327,1.327,0,0,0-1.184-.624,1.439,1.439,0,0,0-1.423.791v3.371a1.465,1.465,0,0,0,1.438.814q1.574,0,1.575-2.58" transform="translate(140.388 4801.813)"/>
    <path id="Trazado_787314" data-name="Trazado 787314" d="M978.389,235.33a4.039,4.039,0,0,1-2.948-1.111,3.948,3.948,0,0,1-1.138-2.96v-.213a4.974,4.974,0,0,1,.479-2.218,3.524,3.524,0,0,1,1.359-1.507,3.812,3.812,0,0,1,2-.528,3.415,3.415,0,0,1,2.659,1.065,4.327,4.327,0,0,1,.97,3.021v.9h-5.243a2.041,2.041,0,0,0,.644,1.293,1.942,1.942,0,0,0,1.358.487,2.376,2.376,0,0,0,1.986-.92l1.08,1.209a3.306,3.306,0,0,1-1.339,1.092,4.4,4.4,0,0,1-1.872.392m-.251-6.765a1.369,1.369,0,0,0-1.061.443,2.288,2.288,0,0,0-.521,1.269h3.059V230.1a1.642,1.642,0,0,0-.4-1.135,1.419,1.419,0,0,0-1.081-.4" transform="translate(137.985 4801.813)"/>
    <path id="Trazado_787315" data-name="Trazado 787315" d="M987.909,224.391v2.024h1.408v1.613h-1.408v4.108a.974.974,0,0,0,.175.655.873.873,0,0,0,.669.2,3.549,3.549,0,0,0,.647-.053V234.6a4.513,4.513,0,0,1-1.332.2,2.1,2.1,0,0,1-2.358-2.336v-4.436h-1.2v-1.613h1.2v-2.024Z" transform="translate(135.731 4802.343)"/>
    <path id="Trazado_787316" data-name="Trazado 787316" d="M995.957,235.33a4.039,4.039,0,0,1-2.948-1.111,3.948,3.948,0,0,1-1.138-2.96v-.213a4.971,4.971,0,0,1,.479-2.218,3.523,3.523,0,0,1,1.359-1.507,3.811,3.811,0,0,1,2-.528,3.415,3.415,0,0,1,2.659,1.065,4.328,4.328,0,0,1,.97,3.021v.9H994.1a2.041,2.041,0,0,0,.644,1.293,1.942,1.942,0,0,0,1.358.487,2.376,2.376,0,0,0,1.986-.92l1.08,1.209a3.305,3.305,0,0,1-1.339,1.092,4.4,4.4,0,0,1-1.872.392m-.251-6.765a1.37,1.37,0,0,0-1.061.443,2.286,2.286,0,0,0-.521,1.269h3.059V230.1a1.642,1.642,0,0,0-.4-1.135,1.419,1.419,0,0,0-1.081-.4" transform="translate(134.105 4801.813)"/>
    <path id="Trazado_787317" data-name="Trazado 787317" d="M1005.073,226.945l.069.951a2.874,2.874,0,0,1,2.366-1.1,2.389,2.389,0,0,1,1.948.768,3.592,3.592,0,0,1,.654,2.3v5.319h-2.2v-5.265a1.427,1.427,0,0,0-.3-1.016,1.363,1.363,0,0,0-1.012-.316,1.511,1.511,0,0,0-1.392.791v5.805H1003v-8.233Z" transform="translate(131.646 4801.813)"/>
    <path id="Trazado_787318" data-name="Trazado 787318" d="M1017.59,233.558a1.443,1.443,0,0,0,.99-.335,1.173,1.173,0,0,0,.4-.89h2.062a2.823,2.823,0,0,1-.457,1.533,3.014,3.014,0,0,1-1.229,1.08,3.847,3.847,0,0,1-1.723.384,3.574,3.574,0,0,1-2.785-1.122,4.44,4.44,0,0,1-1.02-3.1v-.144a4.392,4.392,0,0,1,1.012-3.036,3.532,3.532,0,0,1,2.777-1.134,3.464,3.464,0,0,1,2.477.879,3.117,3.117,0,0,1,.947,2.34h-2.062a1.513,1.513,0,0,0-.4-1.044,1.472,1.472,0,0,0-2.165.159,3.24,3.24,0,0,0-.392,1.817v.228a3.289,3.289,0,0,0,.388,1.83,1.341,1.341,0,0,0,1.18.556" transform="translate(129.257 4801.813)"/>
    <path id="Trazado_787319" data-name="Trazado 787319" d="M1024.674,223.933a1.08,1.08,0,0,1,.331-.814,1.426,1.426,0,0,1,1.8,0,1.162,1.162,0,0,1,0,1.636,1.411,1.411,0,0,1-1.788,0,1.079,1.079,0,0,1-.338-.822m2.336,10.364H1024.8v-8.233h2.206Z" transform="translate(126.861 4802.695)"/>
    <path id="Trazado_787320" data-name="Trazado 787320" d="M1034.674,235.178a2.412,2.412,0,0,1-.22-.738,2.662,2.662,0,0,1-2.077.89,2.919,2.919,0,0,1-2-.7,2.248,2.248,0,0,1-.8-1.766,2.327,2.327,0,0,1,.97-2.009,4.784,4.784,0,0,1,2.8-.707h1.012v-.472a1.362,1.362,0,0,0-.293-.913,1.157,1.157,0,0,0-.925-.342,1.308,1.308,0,0,0-.871.266.9.9,0,0,0-.316.73h-2.2a2.208,2.208,0,0,1,.442-1.324,2.909,2.909,0,0,1,1.248-.954,4.535,4.535,0,0,1,1.811-.347,3.591,3.591,0,0,1,2.416.765,2.674,2.674,0,0,1,.895,2.149v3.569a3.916,3.916,0,0,0,.327,1.773v.129Zm-1.819-1.529a1.9,1.9,0,0,0,.9-.217,1.431,1.431,0,0,0,.609-.582v-1.416h-.822q-1.651,0-1.757,1.141l-.008.129a.879.879,0,0,0,.289.677,1.123,1.123,0,0,0,.792.266" transform="translate(125.778 4801.813)"/>
    <path id="Trazado_787321" data-name="Trazado 787321" d="M1041.125,239.8l-1.149-.6.274-.495a3.959,3.959,0,0,0,.525-1.849v-1.7h1.857l-.008,1.522a3.97,3.97,0,0,1-.426,1.7,4.375,4.375,0,0,1-1.073,1.423" transform="translate(123.481 4799.967)"/>
    <path id="Trazado_787322" data-name="Trazado 787322" d="M1053,224.391v2.024h1.408v1.613H1053v4.108a.973.973,0,0,0,.175.655.873.873,0,0,0,.669.2,3.541,3.541,0,0,0,.646-.053V234.6a4.509,4.509,0,0,1-1.331.2,2.1,2.1,0,0,1-2.359-2.336v-4.436h-1.2v-1.613h1.2v-2.024Z" transform="translate(121.357 4802.343)"/>
    <path id="Trazado_787323" data-name="Trazado 787323" d="M1056.608,230.986a4.878,4.878,0,0,1,.471-2.184,3.456,3.456,0,0,1,1.358-1.484,3.962,3.962,0,0,1,2.058-.525,3.747,3.747,0,0,1,2.72,1.02,4.093,4.093,0,0,1,1.176,2.769l.015.563a4.306,4.306,0,0,1-1.057,3.039,4.1,4.1,0,0,1-5.68,0,4.378,4.378,0,0,1-1.061-3.1Zm2.2.156a3.078,3.078,0,0,0,.441,1.8,1.585,1.585,0,0,0,2.511.007,3.368,3.368,0,0,0,.449-1.962,3.048,3.048,0,0,0-.449-1.784,1.461,1.461,0,0,0-1.263-.633,1.435,1.435,0,0,0-1.248.629,3.422,3.422,0,0,0-.441,1.947" transform="translate(119.809 4801.813)"/>
    <path id="Trazado_787324" data-name="Trazado 787324" d="M1070.417,226.945l.069.921a2.893,2.893,0,0,1,2.366-1.073,2.2,2.2,0,0,1,2.184,1.255,2.826,2.826,0,0,1,2.473-1.255,2.455,2.455,0,0,1,1.993.78,3.584,3.584,0,0,1,.654,2.347v5.258h-2.206v-5.25a1.564,1.564,0,0,0-.274-1.023,1.212,1.212,0,0,0-.966-.323,1.372,1.372,0,0,0-1.37.944l.008,5.653h-2.2v-5.242a1.551,1.551,0,0,0-.282-1.035,1.226,1.226,0,0,0-.959-.319,1.424,1.424,0,0,0-1.354.776v5.82h-2.2v-8.233Z" transform="translate(117.215 4801.813)"/>
    <path id="Trazado_787325" data-name="Trazado 787325" d="M1090.348,235.178a2.415,2.415,0,0,1-.22-.738,2.663,2.663,0,0,1-2.077.89,2.92,2.92,0,0,1-2-.7,2.25,2.25,0,0,1-.8-1.766,2.327,2.327,0,0,1,.97-2.009,4.783,4.783,0,0,1,2.8-.707h1.012v-.472a1.359,1.359,0,0,0-.293-.913,1.156,1.156,0,0,0-.925-.342,1.309,1.309,0,0,0-.871.266.9.9,0,0,0-.315.73h-2.2a2.208,2.208,0,0,1,.442-1.324,2.912,2.912,0,0,1,1.248-.954,4.538,4.538,0,0,1,1.812-.347,3.589,3.589,0,0,1,2.415.765,2.673,2.673,0,0,1,.895,2.149v3.569a3.913,3.913,0,0,0,.327,1.773v.129Zm-1.819-1.529a1.9,1.9,0,0,0,.9-.217,1.429,1.429,0,0,0,.609-.582v-1.416h-.822q-1.651,0-1.758,1.141l-.008.129a.877.877,0,0,0,.289.677,1.122,1.122,0,0,0,.791.266" transform="translate(113.483 4801.813)"/>
    <path id="Trazado_787326" data-name="Trazado 787326" d="M1100.934,230.064A4.964,4.964,0,0,1,1101.8,227a2.8,2.8,0,0,1,2.362-1.141,2.522,2.522,0,0,1,1.986.9v-4.2h2.207v11.687h-1.986l-.106-.875a2.589,2.589,0,0,1-2.116,1.028,2.794,2.794,0,0,1-2.332-1.145,5.123,5.123,0,0,1-.879-3.184m2.2.164a3.249,3.249,0,0,0,.4,1.776,1.313,1.313,0,0,0,1.171.617,1.471,1.471,0,0,0,1.438-.861v-3.254a1.45,1.45,0,0,0-1.423-.861q-1.59,0-1.591,2.583" transform="translate(110.02 4802.749)"/>
    <path id="Trazado_787327" data-name="Trazado 787327" d="M1116.348,235.33a4.039,4.039,0,0,1-2.949-1.111,3.947,3.947,0,0,1-1.138-2.96v-.213a4.973,4.973,0,0,1,.479-2.218,3.522,3.522,0,0,1,1.359-1.507,3.813,3.813,0,0,1,2-.528,3.415,3.415,0,0,1,2.659,1.065,4.328,4.328,0,0,1,.97,3.021v.9h-5.243a2.043,2.043,0,0,0,.644,1.293,1.942,1.942,0,0,0,1.358.487,2.376,2.376,0,0,0,1.986-.92l1.08,1.209a3.306,3.306,0,0,1-1.339,1.092,4.4,4.4,0,0,1-1.872.392m-.251-6.765a1.368,1.368,0,0,0-1.061.443,2.287,2.287,0,0,0-.522,1.269h3.059V230.1a1.643,1.643,0,0,0-.4-1.135,1.419,1.419,0,0,0-1.081-.4" transform="translate(107.518 4801.813)"/>
    <path id="Trazado_787328" data-name="Trazado 787328" d="M921.316,257.558a1.442,1.442,0,0,0,.989-.335,1.173,1.173,0,0,0,.4-.89h2.063a2.825,2.825,0,0,1-.457,1.533,3.016,3.016,0,0,1-1.229,1.08,3.849,3.849,0,0,1-1.724.384,3.574,3.574,0,0,1-2.785-1.122,4.44,4.44,0,0,1-1.02-3.1v-.144a4.391,4.391,0,0,1,1.012-3.036,3.531,3.531,0,0,1,2.777-1.134,3.463,3.463,0,0,1,2.477.879,3.117,3.117,0,0,1,.947,2.34H922.7a1.512,1.512,0,0,0-.4-1.044,1.471,1.471,0,0,0-2.165.159,3.239,3.239,0,0,0-.392,1.817v.228a3.288,3.288,0,0,0,.388,1.829,1.341,1.341,0,0,0,1.18.556" transform="translate(150.519 4796.513)"/>
    <path id="Trazado_787329" data-name="Trazado 787329" d="M927.98,254.986a4.876,4.876,0,0,1,.472-2.184,3.456,3.456,0,0,1,1.358-1.483,3.963,3.963,0,0,1,2.058-.525,3.747,3.747,0,0,1,2.72,1.02,4.092,4.092,0,0,1,1.176,2.769l.015.563a4.306,4.306,0,0,1-1.057,3.039,4.1,4.1,0,0,1-5.68,0,4.379,4.379,0,0,1-1.061-3.1Zm2.2.156a3.077,3.077,0,0,0,.441,1.8,1.585,1.585,0,0,0,2.511.007,3.368,3.368,0,0,0,.449-1.962,3.048,3.048,0,0,0-.449-1.783,1.461,1.461,0,0,0-1.263-.633,1.435,1.435,0,0,0-1.248.629,3.42,3.42,0,0,0-.441,1.947" transform="translate(148.215 4796.513)"/>
    <path id="Trazado_787330" data-name="Trazado 787330" d="M941.738,250.945l.069.951a2.873,2.873,0,0,1,2.366-1.1,2.389,2.389,0,0,1,1.948.768,3.59,3.59,0,0,1,.654,2.3v5.319h-2.2v-5.265a1.427,1.427,0,0,0-.3-1.016,1.364,1.364,0,0,0-1.012-.316,1.511,1.511,0,0,0-1.392.791v5.806h-2.2v-8.233Z" transform="translate(145.634 4796.513)"/>
    <path id="Trazado_787331" data-name="Trazado 787331" d="M954.256,257.558a1.443,1.443,0,0,0,.99-.335,1.173,1.173,0,0,0,.4-.89H957.7a2.827,2.827,0,0,1-.456,1.533,3.016,3.016,0,0,1-1.229,1.08,3.849,3.849,0,0,1-1.724.384,3.575,3.575,0,0,1-2.785-1.122,4.441,4.441,0,0,1-1.02-3.1v-.144a4.392,4.392,0,0,1,1.012-3.036,3.531,3.531,0,0,1,2.777-1.134,3.464,3.464,0,0,1,2.477.879,3.116,3.116,0,0,1,.947,2.34H955.64a1.514,1.514,0,0,0-.4-1.044,1.472,1.472,0,0,0-2.165.159,3.239,3.239,0,0,0-.392,1.817v.228a3.287,3.287,0,0,0,.388,1.829,1.341,1.341,0,0,0,1.18.556" transform="translate(143.244 4796.513)"/>
    <path id="Trazado_787332" data-name="Trazado 787332" d="M961.339,247.933a1.08,1.08,0,0,1,.331-.814,1.426,1.426,0,0,1,1.8,0,1.162,1.162,0,0,1,0,1.636,1.41,1.41,0,0,1-1.788,0,1.079,1.079,0,0,1-.338-.822m2.336,10.364h-2.207v-8.233h2.207Z" transform="translate(140.848 4797.395)"/>
    <path id="Trazado_787333" data-name="Trazado 787333" d="M970.366,259.33a4.039,4.039,0,0,1-2.948-1.111,3.948,3.948,0,0,1-1.138-2.96v-.213a4.977,4.977,0,0,1,.479-2.218,3.526,3.526,0,0,1,1.359-1.507,3.812,3.812,0,0,1,2-.528,3.416,3.416,0,0,1,2.659,1.065,4.328,4.328,0,0,1,.97,3.021v.9h-5.243a2.041,2.041,0,0,0,.644,1.293,1.943,1.943,0,0,0,1.358.487,2.377,2.377,0,0,0,1.986-.92l1.08,1.209a3.308,3.308,0,0,1-1.339,1.092,4.4,4.4,0,0,1-1.872.392m-.251-6.765a1.369,1.369,0,0,0-1.061.443,2.289,2.289,0,0,0-.521,1.268h3.059V254.1a1.643,1.643,0,0,0-.4-1.135,1.419,1.419,0,0,0-1.081-.4" transform="translate(139.757 4796.513)"/>
    <path id="Trazado_787334" data-name="Trazado 787334" d="M979.482,250.945l.069.951a2.873,2.873,0,0,1,2.366-1.1,2.389,2.389,0,0,1,1.948.768,3.589,3.589,0,0,1,.654,2.3v5.319h-2.2v-5.265a1.426,1.426,0,0,0-.3-1.016,1.363,1.363,0,0,0-1.012-.316,1.511,1.511,0,0,0-1.392.791v5.806h-2.2v-8.233Z" transform="translate(137.299 4796.513)"/>
    <path id="Trazado_787335" data-name="Trazado 787335" d="M992,257.558a1.442,1.442,0,0,0,.989-.335,1.172,1.172,0,0,0,.4-.89h2.062a2.828,2.828,0,0,1-.456,1.533,3.019,3.019,0,0,1-1.229,1.08,3.848,3.848,0,0,1-1.723.384,3.574,3.574,0,0,1-2.785-1.122,4.44,4.44,0,0,1-1.02-3.1v-.144a4.391,4.391,0,0,1,1.012-3.036,3.531,3.531,0,0,1,2.777-1.134,3.463,3.463,0,0,1,2.477.879,3.116,3.116,0,0,1,.947,2.34h-2.062a1.511,1.511,0,0,0-.4-1.044,1.471,1.471,0,0,0-2.165.159,3.238,3.238,0,0,0-.392,1.817v.228A3.286,3.286,0,0,0,990.82,257a1.34,1.34,0,0,0,1.18.556" transform="translate(134.909 4796.513)"/>
    <path id="Trazado_787336" data-name="Trazado 787336" d="M999.083,247.933a1.083,1.083,0,0,1,.331-.814,1.426,1.426,0,0,1,1.8,0,1.162,1.162,0,0,1,0,1.636,1.41,1.41,0,0,1-1.788,0,1.08,1.08,0,0,1-.339-.822m2.336,10.364h-2.207v-8.233h2.207Z" transform="translate(132.513 4797.395)"/>
    <path id="Trazado_787337" data-name="Trazado 787337" d="M1009.083,259.178a2.41,2.41,0,0,1-.22-.738,2.663,2.663,0,0,1-2.077.89,2.921,2.921,0,0,1-2-.7,2.25,2.25,0,0,1-.8-1.766,2.327,2.327,0,0,1,.97-2.009,4.784,4.784,0,0,1,2.8-.707h1.012v-.472a1.358,1.358,0,0,0-.293-.913,1.156,1.156,0,0,0-.925-.342,1.307,1.307,0,0,0-.871.266.9.9,0,0,0-.315.73h-2.2a2.208,2.208,0,0,1,.442-1.324,2.911,2.911,0,0,1,1.247-.954,4.538,4.538,0,0,1,1.811-.347,3.591,3.591,0,0,1,2.416.765,2.674,2.674,0,0,1,.894,2.149v3.568a3.913,3.913,0,0,0,.327,1.773v.129Zm-1.819-1.529a1.9,1.9,0,0,0,.9-.217,1.429,1.429,0,0,0,.609-.582v-1.416h-.822q-1.651,0-1.758,1.141l-.008.129a.879.879,0,0,0,.289.677,1.124,1.124,0,0,0,.792.267" transform="translate(131.43 4796.513)"/>
    <path id="Trazado_787338" data-name="Trazado 787338" d="M1022.95,256.109l1.522-5.121h2.359l-3.31,9.511-.182.433a2.51,2.51,0,0,1-2.435,1.614,3.452,3.452,0,0,1-.974-.145v-1.667l.335.008a1.808,1.808,0,0,0,.932-.19,1.248,1.248,0,0,0,.483-.631l.259-.678-2.884-8.255h2.366Z" transform="translate(128.103 4796.47)"/>
    <path id="Trazado_787339" data-name="Trazado 787339" d="M1035.552,258.2v-6.62h-1.225v-1.613h1.225v-.7a2.843,2.843,0,0,1,.8-2.15,3.077,3.077,0,0,1,2.225-.764,5.143,5.143,0,0,1,1.118.152l-.023,1.7a2.785,2.785,0,0,0-.669-.069q-1.241,0-1.24,1.164v.662h1.637v1.613h-1.637v6.62Z" transform="translate(124.729 4797.494)"/>
    <path id="Trazado_787340" data-name="Trazado 787340" d="M1041.857,254.986a4.875,4.875,0,0,1,.471-2.184,3.456,3.456,0,0,1,1.358-1.483,3.962,3.962,0,0,1,2.058-.525,3.748,3.748,0,0,1,2.72,1.02,4.1,4.1,0,0,1,1.176,2.769l.014.563a4.306,4.306,0,0,1-1.057,3.039,4.1,4.1,0,0,1-5.68,0,4.38,4.38,0,0,1-1.061-3.1Zm2.2.156a3.081,3.081,0,0,0,.441,1.8,1.586,1.586,0,0,0,2.511.007,3.366,3.366,0,0,0,.449-1.962,3.046,3.046,0,0,0-.449-1.783,1.461,1.461,0,0,0-1.263-.633,1.436,1.436,0,0,0-1.248.629,3.425,3.425,0,0,0-.441,1.947" transform="translate(123.066 4796.513)"/>
    <path id="Trazado_787341" data-name="Trazado 787341" d="M1058.231,253.007a5.993,5.993,0,0,0-.792-.061,1.609,1.609,0,0,0-1.635.845v5.387h-2.2v-8.233h2.078l.06.981a2.037,2.037,0,0,1,1.834-1.134,2.317,2.317,0,0,1,.685.1Z" transform="translate(120.472 4796.513)"/>
    <path id="Trazado_787342" data-name="Trazado 787342" d="M1062.962,250.945l.069.921a2.892,2.892,0,0,1,2.366-1.073,2.2,2.2,0,0,1,2.184,1.255,2.826,2.826,0,0,1,2.473-1.255,2.453,2.453,0,0,1,1.993.78,3.582,3.582,0,0,1,.654,2.347v5.258h-2.207v-5.25a1.564,1.564,0,0,0-.274-1.023,1.213,1.213,0,0,0-.966-.323,1.372,1.372,0,0,0-1.37.944l.008,5.653h-2.2v-5.242a1.552,1.552,0,0,0-.281-1.035,1.227,1.227,0,0,0-.959-.319,1.424,1.424,0,0,0-1.354.776v5.82h-2.2v-8.233Z" transform="translate(118.861 4796.513)"/>
    <path id="Trazado_787343" data-name="Trazado 787343" d="M1082.892,259.178a2.422,2.422,0,0,1-.221-.738,2.661,2.661,0,0,1-2.077.89,2.92,2.92,0,0,1-2-.7,2.25,2.25,0,0,1-.8-1.766,2.328,2.328,0,0,1,.97-2.009,4.783,4.783,0,0,1,2.8-.707h1.012v-.472a1.36,1.36,0,0,0-.293-.913,1.156,1.156,0,0,0-.925-.342,1.308,1.308,0,0,0-.871.266.9.9,0,0,0-.316.73h-2.2a2.209,2.209,0,0,1,.442-1.324,2.913,2.913,0,0,1,1.248-.954,4.538,4.538,0,0,1,1.812-.347,3.591,3.591,0,0,1,2.415.765,2.674,2.674,0,0,1,.894,2.149v3.568a3.917,3.917,0,0,0,.327,1.773v.129Zm-1.818-1.529a1.9,1.9,0,0,0,.9-.217,1.431,1.431,0,0,0,.609-.582v-1.416h-.822q-1.652,0-1.758,1.141l-.008.129a.878.878,0,0,0,.289.677,1.122,1.122,0,0,0,.792.267" transform="translate(115.13 4796.513)"/>
    <path id="Trazado_787344" data-name="Trazado 787344" d="M1092.264,257.558a1.443,1.443,0,0,0,.989-.335,1.174,1.174,0,0,0,.4-.89h2.062a2.826,2.826,0,0,1-.457,1.533,3.017,3.017,0,0,1-1.229,1.08,3.848,3.848,0,0,1-1.723.384,3.574,3.574,0,0,1-2.785-1.122,4.441,4.441,0,0,1-1.02-3.1v-.144a4.393,4.393,0,0,1,1.012-3.036,3.532,3.532,0,0,1,2.777-1.134,3.464,3.464,0,0,1,2.477.879,3.116,3.116,0,0,1,.948,2.34h-2.062a1.514,1.514,0,0,0-.4-1.044,1.471,1.471,0,0,0-2.165.159,3.237,3.237,0,0,0-.392,1.817v.228a3.286,3.286,0,0,0,.388,1.829,1.341,1.341,0,0,0,1.18.556" transform="translate(112.767 4796.513)"/>
    <path id="Trazado_787345" data-name="Trazado 787345" d="M1099.347,247.933a1.083,1.083,0,0,1,.33-.814,1.427,1.427,0,0,1,1.8,0,1.162,1.162,0,0,1,0,1.636,1.411,1.411,0,0,1-1.788,0,1.08,1.08,0,0,1-.338-.822m2.336,10.364h-2.207v-8.233h2.207Z" transform="translate(110.37 4797.395)"/>
    <path id="Trazado_787346" data-name="Trazado 787346" d="M1104.229,254.05a4.87,4.87,0,0,1,.472-2.184,3.446,3.446,0,0,1,1.358-1.484,3.962,3.962,0,0,1,2.058-.525,3.75,3.75,0,0,1,2.721,1.02,4.092,4.092,0,0,1,1.175,2.77l.015.563a4.305,4.305,0,0,1-1.058,3.04,4.1,4.1,0,0,1-5.68,0,4.378,4.378,0,0,1-1.061-3.1Zm2.2.156a3.075,3.075,0,0,0,.442,1.8,1.585,1.585,0,0,0,2.51.008,3.37,3.37,0,0,0,.45-1.963,3.048,3.048,0,0,0-.45-1.784,1.458,1.458,0,0,0-1.263-.632,1.435,1.435,0,0,0-1.247.628,3.421,3.421,0,0,0-.442,1.947m2.123-7.651h2.4l-2.108,2.359h-1.788Z" transform="translate(109.292 4797.449)"/>
    <path id="Trazado_787347" data-name="Trazado 787347" d="M1117.989,250.945l.068.951a2.873,2.873,0,0,1,2.366-1.1,2.388,2.388,0,0,1,1.948.768,3.593,3.593,0,0,1,.655,2.3v5.319h-2.2v-5.265a1.427,1.427,0,0,0-.3-1.016,1.362,1.362,0,0,0-1.012-.316,1.51,1.51,0,0,0-1.392.791v5.806h-2.2v-8.233Z" transform="translate(106.71 4796.513)"/>
    <path id="Trazado_787348" data-name="Trazado 787348" d="M470.958,445.45H447.583A15.583,15.583,0,0,1,432,429.867V81.583A15.583,15.583,0,0,1,447.583,66h23.375" transform="translate(257.748 4837.323)" fill="none" stroke="#000" stroke-miterlimit="10" stroke-width="2.2"/>
    <path id="Trazado_787665" data-name="Trazado 787665" d="M0,0H42.854" transform="translate(646.115 5093.048)" fill="none" stroke="#000" stroke-width="2"/>
    <path id="Trazado_787666" data-name="Trazado 787666" d="M0,0H39" transform="translate(689 5031)" fill="none" stroke="#000" stroke-width="1.926"/>
    <path id="Trazado_787667" data-name="Trazado 787667" d="M0,0H83" transform="translate(948 5031)" fill="none" stroke="#000" stroke-width="1.926"/>
    <path id="Trazado_787668" data-name="Trazado 787668" d="M0,0H39" transform="translate(689 5157)" fill="none" stroke="#000" stroke-width="1.926"/>
    <path id="Trazado_787669" data-name="Trazado 787669" d="M0,0H914V482H0Z" transform="translate(352 4852)" fill="none"/>
  </g>
</svg>
