<svg xmlns="http://www.w3.org/2000/svg" xmlns:xlink="http://www.w3.org/1999/xlink" width="577" height="289" viewBox="0 0 577 289">
  <defs>
    <clipPath id="clip-path">
      <rect id="Rectángulo_372102" data-name="Rectángulo 372102" width="577" height="289" fill="none"/>
    </clipPath>
  </defs>
  <g id="Grupo_1043266" data-name="Grupo 1043266" transform="translate(0 -0.5)">
    <g id="Grupo_1043251" data-name="Grupo 1043251" transform="translate(0 0.5)">
      <g id="Grupo_1043250" data-name="Grupo 1043250" clip-path="url(#clip-path)">
        <path id="Trazado_787364" data-name="Trazado 787364" d="M565.746,33.382H447.436A3.436,3.436,0,0,1,444,29.946V3.436A3.436,3.436,0,0,1,447.436,0h118.31a3.436,3.436,0,0,1,3.436,3.436V29.946a3.436,3.436,0,0,1-3.436,3.436" transform="translate(-226.035 -0.521)" fill="#afafaf"/>
        <path id="Trazado_787365" data-name="Trazado 787365" d="M181.147,275.264H3.436A3.436,3.436,0,0,1,0,271.828V211.936A3.436,3.436,0,0,1,3.436,208.5h177.71a3.436,3.436,0,0,1,3.436,3.436v59.891a3.436,3.436,0,0,1-3.436,3.436" transform="translate(0 -106.666)" fill="#12263f"/>
      </g>
    </g>
    <text id="Medición_de_análisis_" data-name="Medición de análisis " transform="translate(33.481 133.263)" fill="#fff" font-size="12" font-family="Roboto-Bold, Roboto" font-weight="700"><tspan x="0" y="0">Medición de análisis </tspan></text>
    <text id="y_mejora" data-name="y mejora" transform="translate(67.598 148.579)" fill="#fff" font-size="12" font-family="Roboto-Bold, Roboto" font-weight="700"><tspan x="0" y="0">y mejo</tspan><tspan y="0" letter-spacing="-0.015em">r</tspan><tspan y="0">a</tspan></text>
    <text id="Generalidades" transform="translate(248.86 19.56)" font-size="9" font-family="Roboto-Bold, Roboto" font-weight="700"><tspan x="0" y="0">Gene</tspan><tspan y="0" letter-spacing="-0.015em">r</tspan><tspan y="0">alidades</tspan></text>
    <g id="Grupo_1043253" data-name="Grupo 1043253" transform="translate(0 0.5)">
      <g id="Grupo_1043252" data-name="Grupo 1043252" clip-path="url(#clip-path)">
        <path id="Trazado_787366" data-name="Trazado 787366" d="M565.746,158.382H447.436A3.436,3.436,0,0,1,444,154.946V128.436A3.436,3.436,0,0,1,447.436,125h118.31a3.436,3.436,0,0,1,3.436,3.436v26.509a3.436,3.436,0,0,1-3.436,3.436" transform="translate(-226.035 -64.157)" fill="#afafaf"/>
      </g>
    </g>
    <text id="Seguimiento_y_" data-name="Seguimiento y " transform="translate(249.03 75.033)" font-size="9" font-family="Roboto-Bold, Roboto" font-weight="700"><tspan x="0" y="0">Seguimien</tspan><tspan y="0" letter-spacing="-0.016em">t</tspan><tspan y="0">o y </tspan></text>
    <text id="medición" transform="translate(260.194 86.815)" font-size="9" font-family="Roboto-Bold, Roboto" font-weight="700"><tspan x="0" y="0">medición</tspan></text>
    <g id="Grupo_1043255" data-name="Grupo 1043255" transform="translate(0 0.5)">
      <g id="Grupo_1043254" data-name="Grupo 1043254" clip-path="url(#clip-path)">
        <path id="Trazado_787367" data-name="Trazado 787367" d="M565.746,289.382H447.436A3.436,3.436,0,0,1,444,285.946V259.436A3.436,3.436,0,0,1,447.436,256h118.31a3.436,3.436,0,0,1,3.436,3.436v26.509a3.436,3.436,0,0,1-3.436,3.436" transform="translate(-226.035 -130.848)" fill="#afafaf"/>
      </g>
    </g>
    <text id="Control_del_producto_" data-name="Control del producto " transform="translate(235.533 139.343)" font-size="9" font-family="Roboto-Bold, Roboto" font-weight="700"><tspan x="0" y="0">Cont</tspan><tspan y="0" letter-spacing="-0.016em">r</tspan><tspan y="0">ol del p</tspan><tspan y="0" letter-spacing="-0.016em">r</tspan><tspan y="0">oduc</tspan><tspan y="0" letter-spacing="-0.013em">t</tspan><tspan y="0">o </tspan></text>
    <text id="no_conforme" data-name="no conforme" transform="translate(252.499 151.125)" font-size="9" font-family="Roboto-Bold, Roboto" font-weight="700"><tspan x="0" y="0">no conforme</tspan></text>
    <g id="Grupo_1043257" data-name="Grupo 1043257" transform="translate(0 0.5)">
      <g id="Grupo_1043256" data-name="Grupo 1043256" clip-path="url(#clip-path)">
        <path id="Trazado_787368" data-name="Trazado 787368" d="M565.746,397.382H447.436A3.436,3.436,0,0,1,444,393.946V367.436A3.436,3.436,0,0,1,447.436,364h118.31a3.436,3.436,0,0,1,3.436,3.436v26.509a3.436,3.436,0,0,1-3.436,3.436" transform="translate(-226.035 -185.829)" fill="#afafaf"/>
      </g>
    </g>
    <text id="Análisis_de_datos" data-name="Análisis de datos" transform="translate(242.884 198.252)" font-size="9" font-family="Roboto-Bold, Roboto" font-weight="700"><tspan x="0" y="0" letter-spacing="-0.023em">A</tspan><tspan y="0">nálisis de da</tspan><tspan y="0" letter-spacing="-0.013em">t</tspan><tspan y="0">os</tspan></text>
    <g id="Grupo_1043259" data-name="Grupo 1043259" transform="translate(0 0.5)">
      <g id="Grupo_1043258" data-name="Grupo 1043258" clip-path="url(#clip-path)">
        <path id="Trazado_787369" data-name="Trazado 787369" d="M565.746,518.382H447.436A3.436,3.436,0,0,1,444,514.946V488.436A3.436,3.436,0,0,1,447.436,485h118.31a3.436,3.436,0,0,1,3.436,3.436v26.509a3.436,3.436,0,0,1-3.436,3.436" transform="translate(-226.035 -247.429)" fill="#afafaf"/>
      </g>
    </g>
    <text id="Mejora" transform="translate(265.201 257.653)" font-size="9" font-family="Roboto-Bold, Roboto" font-weight="700"><tspan x="0" y="0">Mejo</tspan><tspan y="0" letter-spacing="-0.014em">r</tspan><tspan y="0">a</tspan></text>
    <g id="Grupo_1043261" data-name="Grupo 1043261" transform="translate(0 0.5)">
      <g id="Grupo_1043260" data-name="Grupo 1043260" clip-path="url(#clip-path)">
        <path id="Trazado_787370" data-name="Trazado 787370" d="M953.147,158.164H748.436A3.436,3.436,0,0,1,745,154.728V116.436A3.436,3.436,0,0,1,748.436,113h204.71a3.436,3.436,0,0,1,3.436,3.436v38.291a3.436,3.436,0,0,1-3.436,3.436" transform="translate(-379.271 -58.048)" fill="#727997"/>
      </g>
    </g>
    <text id="Satisfacción_del_cliente." data-name="Satisfacción del cliente." transform="translate(417.105 69.143)" font-size="9" font-family="Roboto-Bold, Roboto" font-weight="700"><tspan x="0" y="0">Satisfacción del cliente.</tspan></text>
    <text id="Auditoría_interna." data-name="Auditoría interna." transform="translate(431.646 80.924)" font-size="9" font-family="Roboto-Bold, Roboto" font-weight="700"><tspan x="0" y="0" letter-spacing="-0.005em">A</tspan><tspan y="0">udi</tspan><tspan y="0" letter-spacing="-0.014em">t</tspan><tspan y="0">oría interna.</tspan></text>
    <text id="Seguimiento_y_medición_de_los_procesos." data-name="Seguimiento y medición de los procesos." transform="translate(379.55 92.706)" font-size="9" font-family="Roboto-Bold, Roboto" font-weight="700"><tspan x="0" y="0">Seguimien</tspan><tspan y="0" letter-spacing="-0.016em">t</tspan><tspan y="0">o y medición de los p</tspan><tspan y="0" letter-spacing="-0.015em">r</tspan><tspan y="0">ocesos.</tspan></text>
    <g id="Grupo_1043263" data-name="Grupo 1043263" transform="translate(0 0.5)">
      <g id="Grupo_1043262" data-name="Grupo 1043262" clip-path="url(#clip-path)">
        <path id="Trazado_787371" data-name="Trazado 787371" d="M953.147,517.746H748.436A3.436,3.436,0,0,1,745,514.309V453.436A3.436,3.436,0,0,1,748.436,450h204.71a3.436,3.436,0,0,1,3.436,3.436v60.873a3.436,3.436,0,0,1-3.436,3.436" transform="translate(-379.271 -229.611)" fill="#727997"/>
      </g>
    </g>
    <text id="Mejora_continua." data-name="Mejora continua." transform="translate(432.87 245.871)" font-size="9" font-family="Roboto-Bold, Roboto" font-weight="700"><tspan x="0" y="0">Mejo</tspan><tspan y="0" letter-spacing="-0.014em">r</tspan><tspan y="0">a continua.</tspan></text>
    <text id="Acción_correctiva." data-name="Acción correctiva." transform="translate(429.984 257.653)" font-size="9" font-family="Roboto-Bold, Roboto" font-weight="700"><tspan x="0" y="0">Acción correcti</tspan><tspan y="0" letter-spacing="-0.005em">v</tspan><tspan y="0">a.</tspan></text>
    <text id="Acción_preventiva." data-name="Acción preventiva." transform="translate(429.051 269.435)" font-size="9" font-family="Roboto-Bold, Roboto" font-weight="700"><tspan x="0" y="0">Acción pr</tspan><tspan y="0" letter-spacing="-0.005em">e</tspan><tspan y="0">venti</tspan><tspan y="0" letter-spacing="-0.007em">v</tspan><tspan y="0">a.</tspan></text>
    <g id="Grupo_1043265" data-name="Grupo 1043265" transform="translate(0 0.5)">
      <g id="Grupo_1043264" data-name="Grupo 1043264" clip-path="url(#clip-path)">
        <path id="Trazado_787372" data-name="Trazado 787372" d="M428.218,272.092H413V34h15.218" transform="translate(-210.253 -17.83)" fill="none" stroke="#000" stroke-miterlimit="10" stroke-width="1.729"/>
        <line id="Línea_3769" data-name="Línea 3769" x2="16" transform="translate(203 77)" fill="none" stroke="#000" stroke-miterlimit="10" stroke-width="2"/>
        <line id="Línea_3770" data-name="Línea 3770" x2="15.709" transform="translate(202.747 142.089)" fill="none" stroke="#000" stroke-miterlimit="10" stroke-width="2"/>
        <line id="Línea_3771" data-name="Línea 3771" x2="18.164" transform="translate(184.583 135.216)" fill="none" stroke="#000" stroke-miterlimit="10" stroke-width="2"/>
        <line id="Línea_3772" data-name="Línea 3772" x2="16" transform="translate(203 195)" fill="none" stroke="#000" stroke-miterlimit="10" stroke-width="2"/>
        <line id="Línea_3773" data-name="Línea 3773" x2="23" transform="translate(343 78)" fill="none" stroke="#000" stroke-miterlimit="10" stroke-width="2"/>
        <line id="Línea_3774" data-name="Línea 3774" x2="23" transform="translate(343 254)" fill="none" stroke="#000" stroke-miterlimit="10" stroke-width="2"/>
      </g>
    </g>
  </g>
</svg>
