<svg id="Grupo_1043162" data-name="Grupo 1043162" xmlns="http://www.w3.org/2000/svg" xmlns:xlink="http://www.w3.org/1999/xlink" width="117.397" height="117.031" viewBox="0 0 117.397 117.031">
  <defs>
    <clipPath id="clip-path">
      <rect id="Rectángulo_372021" data-name="Rectángulo 372021" width="117.397" height="117.031" fill="none"/>
    </clipPath>
  </defs>
  <g id="Grupo_1043161" data-name="Grupo 1043161" transform="translate(0 0)" clip-path="url(#clip-path)">
    <path id="Trazado_786606" data-name="Trazado 786606" d="M102.253,7.491H103q5.905,0,11.809,0a2.279,2.279,0,0,1,2.585,2.587q0,5.09,0,10.181a2.151,2.151,0,0,1-1.7,2.4q-1.681.579-3.381,1.108a.644.644,0,0,0-.539.743c.033,1.111.018,2.224.01,3.335a2.141,2.141,0,0,1-2.265,2.348c-2.2.038-4.4.036-6.6.017-.486,0-.65.13-.628.622.037.856.045,1.717,0,2.573-.025.5.141.63.622.628,3.468-.017,6.938-.007,10.406,0,.682,0,1.364-.01,2.046.013a1.944,1.944,0,0,1,2.021,1.973q.045,5.53,0,11.058a1.859,1.859,0,0,1-1.3,1.84c-1.28.458-2.576.873-3.866,1.3-.129.043-.259.079-.436.132q0,1.9,0,3.793a2.245,2.245,0,0,1-2.492,2.5q-3.156,0-6.313,0h-.69c-.019.23-.049.417-.048.6.012.994.048,1.989.048,2.983q-.007,21.416-.012,42.831a3.327,3.327,0,0,1-1.065,2.549c-1.248,1.2-2.467,2.439-3.7,3.663a2.422,2.422,0,0,0-.182.258q1.638,1.622,3.274,3.244c.333.329.662.662.978,1.007a1.764,1.764,0,0,1,.486,2.021,2.1,2.1,0,0,1-1.85,1.222,3.593,3.593,0,0,1-.467,0q-45.775,0-91.548,0A7.782,7.782,0,0,1,1.41,113.7,8.132,8.132,0,0,1,0,108.893Q-.006,87.712,0,66.53,0,37.275,0,8.019A7.643,7.643,0,0,1,5.016.573a9.835,9.835,0,0,1,3.2-.55Q53.987-.019,99.763,0c1.666,0,2.461.743,2.5,2.4.035,1.5,0,3-.007,4.5,0,.169,0,.339,0,.579M98.438,3.764H97.5q-29.021,0-58.044,0-10.871,0-21.744,0c-.4,0-.624.027-.622.553q.03,17.141.023,34.283,0,30.978,0,61.955c0,1.445-.013,1.451,1.414,1.451q39.6,0,79.2.017c.591,0,.713-.211.709-.748-.017-2.711,0-5.422,0-8.132q0-44.083,0-88.165V3.764M95.611,105.985l-.1-.186h-.687q-43.7,0-87.393-.012a3.6,3.6,0,0,0-1.879.484,4.038,4.038,0,0,0-1.741,3.769,3.962,3.962,0,0,0,4.138,3.235H95.714c-.662-.7-1.254-1.359-1.88-1.983-1.419-1.416-1.425-2.214.019-3.622.581-.566,1.172-1.123,1.759-1.685m6.741-87.176c0,2.3.007,4.6-.006,6.9,0,.48.129.714.663.7,1.478-.026,2.959-.018,4.439,0,.4,0,.554-.139.547-.547-.019-1.013.052-2.032-.023-3.039-.094-1.272.494-1.688,1.421-2.032,1.18-.438,2.387-.81,3.592-1.182a.757.757,0,0,0,.624-.836q-.025-3.448,0-6.9c0-.461-.129-.6-.595-.6q-5.023.029-10.046,0c-.489,0-.634.154-.63.638.021,2.3.01,4.6.011,6.9m11.258,19.182a3.134,3.134,0,0,0-.4-.061c-3.426-.007-6.852,0-10.278-.02-.455,0-.6.16-.6.619q.013,6.9-.019,13.8c0,.408.117.546.529.541,1.576-.019,3.153-.007,4.731-.011a3.206,3.206,0,0,0,.423-.063c0-1.313.023-2.6-.01-3.88a1.518,1.518,0,0,1,.976-1.513c.509-.237,1.049-.407,1.581-.593.932-.324,1.873-.63,2.8-.968a.491.491,0,0,0,.254-.365c.014-2.474.011-4.947.011-7.482" transform="translate(0 0)" fill="#ffca00"/>
    <path id="Trazado_786607" data-name="Trazado 786607" d="M95.683,3.156v1.22q0,44.083,0,88.165c0,2.711-.021,5.421,0,8.132,0,.537-.118.748-.709.748q-39.6-.023-79.2-.017c-1.427,0-1.414-.006-1.414-1.45q.005-30.978.006-61.956,0-17.141-.024-34.283c0-.526.219-.553.622-.553q10.873.005,21.743,0,29.023,0,58.044,0Zm-23.5,39.62c-.107.132-.172.229-.253.309-1.666,1.642-3.344,3.271-5,4.924q-6.681,6.672-13.34,13.369c-.341.343-.547.418-.929.029-1.731-1.77-3.492-3.511-5.248-5.257q-2.568-2.557-5.149-5.1a2.042,2.042,0,0,0-1.568-.656,2.891,2.891,0,0,0-1.774,1.034c-2.616,2.338-5.217,4.693-7.826,7.038q-5.156,4.63-10.316,9.251a2.168,2.168,0,0,0-.771,1.742q.027,5.53,0,11.059A1.728,1.728,0,0,0,21.1,82.284a1.857,1.857,0,0,0,2.109-.358c1.546-1.426,3.117-2.827,4.681-4.235q6.148-5.53,12.3-11.059c.477-.43.666-.43,1.116.02q5.183,5.193,10.372,10.384a1.913,1.913,0,0,0,2.891.018c.324-.308.633-.635.95-.953q9.21-9.189,18.422-18.378,3.042-3.037,6.072-6.084c.347-.348.61-.5,1.042-.048,1.149,1.218,2.339,2.4,3.547,3.564a3.9,3.9,0,0,0,1.253.817A1.8,1.8,0,0,0,88,54.745a22.42,22.42,0,0,0,.492-4.638,6.23,6.23,0,0,1,.175-1.328c.085-.538.211-1.072.26-1.613.2-2.287.362-4.576.562-6.861.147-1.686.371-3.367.478-5.054a1.638,1.638,0,0,0-1.753-1.828c-1.05.011-2.1.088-3.145.194-2.245.229-4.483.508-6.725.743-3.056.32-6.115.6-9.169.934-1.331.145-1.809.787-1.8,2.113a1.791,1.791,0,0,0,.736,1.267c1.342,1.356,2.69,2.706,4.079,4.1M84.268,76.889h-.013q0-9.476-.008-18.953a1.948,1.948,0,0,0-.23-.993,1.708,1.708,0,0,0-2.789-.39c-1.3,1.2-2.531,2.483-3.787,3.734q-2.8,2.784-5.59,5.573a2.077,2.077,0,0,0-.734,1.526q.009,14.157-.01,28.312a1.668,1.668,0,0,0,1.024,1.631,4.079,4.079,0,0,0,1.57.353c2.649.036,5.3.019,7.947.013a5.218,5.218,0,0,0,.872-.079,1.889,1.889,0,0,0,1.748-2.066V76.889M67.43,85.331h-.011V81.645c0-2.145.027-4.291-.014-6.435a2.238,2.238,0,0,0-1.513-2.154c-.807-.323-1.325.188-1.863.637a3.9,3.9,0,0,0-.3.275c-2.92,2.9-5.826,5.8-8.761,8.685a2.92,2.92,0,0,0-.948,2.228c.019,3.412.044,6.826-.017,10.237a2.32,2.32,0,0,0,2.557,2.574q4.208.038,8.416-.006a2.357,2.357,0,0,0,2.455-2.528V85.331m-30.46-.1q0,5,0,10a3,3,0,0,0,.058.7,2.256,2.256,0,0,0,2.486,1.765c2.708.019,5.416.011,8.124,0a3.428,3.428,0,0,0,.926-.1,1.955,1.955,0,0,0,1.687-2.047c-.037-3.646-.026-7.293,0-10.939a2.479,2.479,0,0,0-.8-1.914c-2.2-2.151-4.381-4.327-6.568-6.494-.886-.877-1.717-1.822-2.669-2.617-1.108-.924-1.476-.875-2.567-.039a1.992,1.992,0,0,0-.672,1.677q.009,5,0,10M84.195,6.885V20.1a.7.7,0,0,1-.787-.532c-.347-.8-.683-1.608-1.028-2.411-1.081-2.52-2.141-5.05-3.255-7.555a4.157,4.157,0,0,0-8,1.26c-.021,4.192,0,8.386-.017,12.578,0,.463.188.557.6.545.836-.024,1.676-.043,2.511,0,.545.031.693-.144.691-.682-.021-3.9-.013-7.8-.012-11.7a2.478,2.478,0,0,1,.032-.582c.093-.337.327-.383.566-.155a1.491,1.491,0,0,1,.3.495c.6,1.375,1.18,2.755,1.781,4.128.937,2.138,1.77,4.331,2.857,6.39a4.074,4.074,0,0,0,6.871.367,3.358,3.358,0,0,0,.718-2.047c-.027-4.212-.006-8.426,0-12.638,0-.224-.026-.449-.042-.678ZM33.289,89.1q0-3.158,0-6.316a2.172,2.172,0,0,0-1.162-2.071,1.806,1.806,0,0,0-2.1.379c-.748.559-1.462,1.164-2.194,1.747q-3.426,2.731-6.858,5.457a2.067,2.067,0,0,0-.954,1.652q0,2.894,0,5.79a1.41,1.41,0,0,0,.688,1.339,4.211,4.211,0,0,0,1.725.59q4.235.089,8.472.014a2.217,2.217,0,0,0,2.38-2.5q0-3.04,0-6.082M63.6,23.978c1.136,0,2.184-.025,3.231.011.476.017.6-.147.595-.6-.017-2.885.033-5.772-.03-8.657a8.023,8.023,0,0,0-1.06-3.9,7.463,7.463,0,0,0-9.185-3.391,7.153,7.153,0,0,0-4.923,6.452c-.2,3.184-.067,6.392-.094,9.588,0,.4.167.5.523.5.935-.013,1.871-.02,2.805,0,.382.007.52-.132.511-.51-.02-.877.02-1.756-.026-2.631-.03-.551.17-.711.7-.7,2.123.02,4.247.026,6.37,0,.552-.006.624.206.6.7-.05,1.024-.015,2.052-.015,3.144M25.794,18.255c1.875,0,3.666-.02,5.456.008A5.638,5.638,0,0,0,37,12.92c.142-3.329-2.235-5.805-5.749-6.027-2.406-.153-4.83-.045-7.246-.023A2.155,2.155,0,0,0,21.91,8.95c-.02.663,0,1.326,0,1.989q0,6.113,0,12.226c0,.815,0,.808.845.8.759-.007,1.519,0,2.28.01s.765.011.768-.755V18.255M42.631,6.912H38.851v.748q0,6.9,0,13.807a2.185,2.185,0,0,0,2.455,2.5c2.785.015,5.574,0,8.36.014.435,0,.588-.136.576-.568-.024-.876-.041-1.756,0-2.632.025-.546-.166-.707-.7-.7-2.065.03-4.131,0-6.2.043-.551.011-.731-.111-.728-.693.025-3.939.014-7.879.014-11.819Z" transform="translate(2.755 0.607)" fill="#f3f9ff"/>
    <path id="Trazado_786608" data-name="Trazado 786608" d="M95.007,88.928c-.587.562-1.178,1.117-1.759,1.685-1.444,1.407-1.438,2.206-.019,3.621.626.625,1.218,1.283,1.88,1.983h-.664q-43.552,0-87.1,0A3.961,3.961,0,0,1,3.2,92.983a4.035,4.035,0,0,1,1.741-3.769,3.609,3.609,0,0,1,1.879-.485q43.7.021,87.393.013H94.9l.1.186" transform="translate(0.605 17.057)" fill="#fff"/>
    <path id="Trazado_786609" data-name="Trazado 786609" d="M85.849,16.991c0-2.3.012-4.6-.01-6.9,0-.484.141-.641.631-.638q5.022.025,10.045,0c.467,0,.6.139.595.6q-.03,3.448,0,6.9a.757.757,0,0,1-.624.836c-1.2.372-2.411.743-3.592,1.182A1.751,1.751,0,0,0,91.47,21c.075,1.007,0,2.026.023,3.039.008.408-.147.551-.547.547-1.48-.013-2.959-.021-4.439,0-.533.01-.665-.224-.663-.7.013-2.3.006-4.6,0-6.9" transform="translate(16.501 1.818)" fill="#12263f"/>
    <path id="Trazado_786610" data-name="Trazado 786610" d="M97.113,31.878c0,2.536,0,5.009-.011,7.482a.491.491,0,0,1-.254.365c-.926.339-1.867.644-2.8.968-.532.186-1.072.355-1.581.593a1.518,1.518,0,0,0-.976,1.513c.032,1.283.01,2.567.01,3.88a3.206,3.206,0,0,1-.423.063c-1.577,0-3.155-.008-4.731.011-.413,0-.532-.134-.529-.541q.029-6.9.019-13.8c0-.459.141-.62.6-.619,3.426.015,6.852.013,10.278.02a3.134,3.134,0,0,1,.4.061" transform="translate(16.497 6.113)" fill="#12263f"/>
    <path id="Trazado_786611" data-name="Trazado 786611" d="M71.269,37.9c-1.389-1.4-2.736-2.747-4.077-4.1a1.793,1.793,0,0,1-.737-1.267c-.01-1.326.467-1.967,1.8-2.113,3.053-.336,6.114-.614,9.168-.934,2.244-.235,4.483-.514,6.727-.743,1.044-.106,2.1-.184,3.144-.194a1.638,1.638,0,0,1,1.753,1.828c-.107,1.687-.331,3.368-.478,5.054-.2,2.286-.364,4.575-.562,6.861-.048.541-.175,1.075-.259,1.613a6.309,6.309,0,0,0-.176,1.328,22.5,22.5,0,0,1-.491,4.638,1.8,1.8,0,0,1-2.14,1.227,3.924,3.924,0,0,1-1.252-.817c-1.209-1.161-2.4-2.345-3.548-3.564-.43-.455-.7-.3-1.041.048q-3.031,3.049-6.073,6.084-9.21,9.19-18.422,18.378c-.317.317-.625.644-.949.953a1.915,1.915,0,0,1-2.892-.018q-5.19-5.188-10.372-10.384c-.449-.451-.638-.451-1.116-.02q-6.148,5.531-12.3,11.059c-1.564,1.408-3.133,2.809-4.681,4.235a1.857,1.857,0,0,1-2.109.358A1.726,1.726,0,0,1,19.1,75.634q.02-5.53,0-11.059a2.161,2.161,0,0,1,.771-1.742q5.167-4.614,10.315-9.251c2.609-2.345,5.21-4.7,7.826-7.038a2.9,2.9,0,0,1,1.774-1.034,2.042,2.042,0,0,1,1.568.656q2.588,2.539,5.152,5.1c1.754,1.745,3.516,3.486,5.246,5.257.382.39.588.315.929-.029q6.66-6.7,13.341-13.369c1.655-1.652,3.333-3.282,5-4.924.081-.08.144-.176.252-.309" transform="translate(3.671 5.487)" fill="#2d54fe"/>
    <path id="Trazado_786612" data-name="Trazado 786612" d="M75.112,68.368V87.029A1.889,1.889,0,0,1,73.364,89.1a5.192,5.192,0,0,1-.87.079c-2.649.006-5.3.023-7.949-.013a4.089,4.089,0,0,1-1.57-.353,1.671,1.671,0,0,1-1.023-1.631q.014-14.155.008-28.312a2.078,2.078,0,0,1,.736-1.526q2.8-2.786,5.589-5.573c1.257-1.251,2.486-2.532,3.787-3.734a1.709,1.709,0,0,1,2.79.39,1.96,1.96,0,0,1,.23.993q.02,9.477.01,18.953Z" transform="translate(11.909 9.127)" fill="#1a1818"/>
    <path id="Trazado_786613" data-name="Trazado 786613" d="M61.033,74.076q0,4.914,0,9.829a2.356,2.356,0,0,1-2.455,2.526q-4.208.045-8.417.006a2.319,2.319,0,0,1-2.556-2.573c.06-3.412.036-6.826.017-10.238a2.92,2.92,0,0,1,.947-2.228c2.934-2.88,5.843-5.788,8.761-8.685.1-.1.2-.188.3-.275.54-.448,1.056-.959,1.863-.635a2.236,2.236,0,0,1,1.513,2.153c.042,2.145.013,4.29.014,6.436v3.685Z" transform="translate(9.151 11.861)" fill="#1a1818"/>
    <path id="Trazado_786614" data-name="Trazado 786614" d="M33.319,73.98q0-5,0-10a1.982,1.982,0,0,1,.672-1.676c1.091-.837,1.459-.886,2.567.038.953.8,1.782,1.739,2.667,2.618,2.188,2.166,4.367,4.342,6.57,6.493a2.479,2.479,0,0,1,.8,1.914c-.023,3.647-.033,7.293,0,10.939a1.953,1.953,0,0,1-1.686,2.047,3.381,3.381,0,0,1-.926.1c-2.708.006-5.416.014-8.125,0a2.257,2.257,0,0,1-2.486-1.765,3.065,3.065,0,0,1-.057-.7q0-5,0-10" transform="translate(6.405 11.853)" fill="#1a1818"/>
    <path id="Trazado_786615" data-name="Trazado 786615" d="M75.039,6.284h3.784c.014.229.042.454.042.678,0,4.212-.024,8.426,0,12.638a3.356,3.356,0,0,1-.715,2.047,4.075,4.075,0,0,1-6.872-.367c-1.087-2.059-1.921-4.253-2.857-6.39-.6-1.373-1.185-2.753-1.782-4.128a1.489,1.489,0,0,0-.3-.495c-.24-.228-.475-.182-.565.155a2.3,2.3,0,0,0-.032.582c0,3.9-.011,7.8.01,11.7,0,.538-.145.713-.689.682-.836-.046-1.676-.026-2.513,0-.408.012-.6-.082-.6-.545.014-4.193,0-8.386.015-12.578a4.158,4.158,0,0,1,8-1.26c1.114,2.5,2.172,5.035,3.254,7.555.345.8.682,1.608,1.029,2.411a.7.7,0,0,0,.787.532Z" transform="translate(11.911 1.208)" fill="#fe502d"/>
    <path id="Trazado_786616" data-name="Trazado 786616" d="M32.37,76.629q0,3.042,0,6.083a2.217,2.217,0,0,1-2.381,2.5q-4.235.068-8.472-.014a4.194,4.194,0,0,1-1.725-.59,1.407,1.407,0,0,1-.687-1.339q0-2.894,0-5.79a2.064,2.064,0,0,1,.954-1.652q3.434-2.722,6.858-5.457c.731-.582,1.445-1.187,2.194-1.747a1.81,1.81,0,0,1,2.1-.379,2.175,2.175,0,0,1,1.162,2.071q-.005,3.158,0,6.316" transform="translate(3.673 13.08)" fill="#1a1818"/>
    <path id="Trazado_786617" data-name="Trazado 786617" d="M57.509,23.369c0-1.092-.036-2.12.014-3.143.024-.495-.048-.707-.6-.7-2.123.024-4.247.019-6.37,0-.525,0-.726.154-.7.7.046.875.006,1.755.026,2.631.008.379-.13.517-.511.51-.935-.019-1.871-.012-2.805,0-.358,0-.527-.1-.525-.5.027-3.2-.11-6.4.1-9.588a7.155,7.155,0,0,1,4.922-6.452,7.466,7.466,0,0,1,9.186,3.391,8.052,8.052,0,0,1,1.061,3.9c.062,2.884.011,5.77.027,8.657,0,.452-.118.615-.594.6-1.047-.035-2.1-.011-3.231-.011m-3.843-7.7v-.014c.856,0,1.713.008,2.569,0,1.323-.015,1.348-.023,1.261-1.348-.12-1.823-.743-3.283-2.68-3.924a3.785,3.785,0,0,0-4.348,1.47,5.759,5.759,0,0,0-.613,3.215c-.01.46.144.619.6.609,1.069-.023,2.14-.007,3.211-.007" transform="translate(8.847 1.216)" fill="#fe502d"/>
    <path id="Trazado_786618" data-name="Trazado 786618" d="M24.574,17.665v4.968c0,.765,0,.762-.768.753s-1.52-.015-2.281-.008c-.841.007-.844.014-.844-.8q0-6.114,0-12.226c0-.663-.017-1.327,0-1.989a2.153,2.153,0,0,1,2.094-2.079c2.417-.023,4.839-.13,7.245.023,3.515.222,5.892,2.7,5.749,6.027a5.635,5.635,0,0,1-5.749,5.341c-1.788-.027-3.579-.008-5.454-.008m.031-3.913c2.061,0,4.066.006,6.068-.011a.926.926,0,0,0,.514-.249,1.709,1.709,0,0,0,.75-1.719A2.2,2.2,0,0,0,30,10.081c-1.784-.055-3.572-.017-5.39-.017Z" transform="translate(3.975 1.197)" fill="#fe502d"/>
    <path id="Trazado_786619" data-name="Trazado 786619" d="M38.678,6.306v.7c0,3.939.011,7.879-.014,11.819,0,.582.178.7.728.693,2.065-.041,4.131-.013,6.2-.043.533-.007.724.154.7.7-.039.876-.023,1.756,0,2.632.012.432-.141.571-.576.568-2.786-.017-5.575,0-8.36-.014a2.185,2.185,0,0,1-2.455-2.5q0-6.9,0-13.807V6.306Z" transform="translate(6.708 1.212)" fill="#fe502d"/>
    <path id="Trazado_786620" data-name="Trazado 786620" d="M53.048,15.048c-1.071,0-2.141-.015-3.211.007-.455.01-.609-.149-.6-.609a5.759,5.759,0,0,1,.613-3.215A3.785,3.785,0,0,1,54.2,9.76c1.937.64,2.56,2.1,2.68,3.924.087,1.326.062,1.333-1.261,1.348-.856.01-1.713,0-2.569,0Z" transform="translate(9.465 1.839)" fill="#fff"/>
    <path id="Trazado_786621" data-name="Trazado 786621" d="M23.972,13.135V9.447c1.818,0,3.607-.038,5.39.017A2.2,2.2,0,0,1,31.3,11.156a1.709,1.709,0,0,1-.75,1.719.926.926,0,0,1-.514.249c-2,.017-4.007.011-6.068.011" transform="translate(4.608 1.814)" fill="#fff"/>
  </g>
</svg>
