<svg xmlns="http://www.w3.org/2000/svg" width="83.48" height="111.863" viewBox="0 0 83.48 111.863">
  <g id="Grupo_1043167" data-name="Grupo 1043167" transform="translate(-66.06)">
    <path id="Trazado_773956" data-name="Trazado 773956" d="M148.351,63.488H132.664v2.6A2.684,2.684,0,0,1,130,68.772H98.122a2.683,2.683,0,0,1-2.666-2.686v-2.6H79.77a6.027,6.027,0,0,0-6,6.043V155.6a6.027,6.027,0,0,0,6,6.043h68.581a6.027,6.027,0,0,0,6-6.043V69.53A6.027,6.027,0,0,0,148.351,63.488Z" transform="translate(-6.219 -51.198)" fill="#ffc408"/>
    <path id="Trazado_773958" data-name="Trazado 773958" d="M172.589,193.617H107.556a1.5,1.5,0,0,1-1.527-1.467V117.066a1.5,1.5,0,0,1,1.527-1.467h65.033a1.5,1.5,0,0,1,1.527,1.467v75.083A1.5,1.5,0,0,1,172.589,193.617Z" transform="translate(-32.232 -89.148)" fill="#fff"/>
    <g id="Grupo_1028076" data-name="Grupo 1028076" transform="translate(102.798 1.486)">
      <path id="Trazado_773960" data-name="Trazado 773960" d="M241.567,13.823V10.011a2.344,2.344,0,0,0-2.337-2.337h-4.579a2.344,2.344,0,0,0-2.337,2.337v3.813Z" transform="translate(-232.314 -7.674)" fill="#fe502d"/>
    </g>
    <path id="Trazado_773962" data-name="Trazado 773962" d="M206.457,38.94h-32.2a2.625,2.625,0,0,0-2.786,2.42v4.606a2.625,2.625,0,0,0,2.786,2.42h32.2a2.625,2.625,0,0,0,2.786-2.42V41.36A2.626,2.626,0,0,0,206.457,38.94Z" transform="translate(-81.731 -29.788)" fill="#fe502d"/>
    <g id="Grupo_1028077" data-name="Grupo 1028077" transform="translate(82.857 41.231)">
      <path id="Trazado_773964" data-name="Trazado 773964" d="M147.016,192.43H147a2.211,2.211,0,0,1-1.584-.683l-3.919-4.1a2.211,2.211,0,1,1,3.2-3.055l2.341,2.449,5.8-5.918a2.211,2.211,0,1,1,3.157,3.1l-7.4,7.548A2.212,2.212,0,0,1,147.016,192.43Z" transform="translate(-140.887 -180.46)" fill="#34cba0"/>
      <path id="Trazado_773965" data-name="Trazado 773965" d="M147.016,280.947H147a2.211,2.211,0,0,1-1.584-.683l-3.919-4.1a2.211,2.211,0,0,1,3.2-3.055l2.341,2.449,5.8-5.918a2.211,2.211,0,0,1,3.157,3.1l-7.4,7.548A2.213,2.213,0,0,1,147.016,280.947Z" transform="translate(-140.887 -250.174)" fill="#34cba0"/>
      <path id="Trazado_773966" data-name="Trazado 773966" d="M147.016,369.463H147a2.211,2.211,0,0,1-1.584-.683l-3.919-4.1a2.211,2.211,0,0,1,3.2-3.055l2.341,2.449,5.8-5.918a2.211,2.211,0,1,1,3.157,3.1l-7.4,7.548A2.212,2.212,0,0,1,147.016,369.463Z" transform="translate(-140.887 -319.887)" fill="#34cba0"/>
    </g>
    <path id="Trazado_773970" data-name="Trazado 773970" d="M150.727,173.821a3.658,3.658,0,0,0-5.18.051l-4.752,4.847-1.3-1.365a3.663,3.663,0,0,0-5.3,5.062l3.919,4.1a3.665,3.665,0,0,0,5.264.034l7.4-7.548A3.661,3.661,0,0,0,150.727,173.821Zm-2.023,3.147-7.4,7.548a.764.764,0,0,1-.547.227h0a.764.764,0,0,1-.544-.234l-3.919-4.1a.759.759,0,1,1,1.1-1.049l2.341,2.449a1.452,1.452,0,0,0,2.086.013l5.8-5.918a.759.759,0,1,1,1.083,1.063Z" transform="translate(-51.775 -134.264)"/>
    <path id="Trazado_773971" data-name="Trazado 773971" d="M150.727,262.347a3.662,3.662,0,0,0-5.18.051l-4.752,4.847-1.3-1.365a3.663,3.663,0,1,0-5.3,5.062l3.919,4.1a3.664,3.664,0,0,0,5.264.034l7.4-7.548A3.661,3.661,0,0,0,150.727,262.347Zm-2.023,3.147-7.4,7.548a.759.759,0,0,1-1.091-.007l-3.919-4.1a.759.759,0,1,1,1.1-1.049l2.341,2.449a1.451,1.451,0,0,0,2.086.013l5.8-5.918a.759.759,0,1,1,1.083,1.063Z" transform="translate(-51.775 -203.061)"/>
    <path id="Trazado_773972" data-name="Trazado 773972" d="M145.547,350.915l-4.752,4.847-1.3-1.365a3.663,3.663,0,1,0-5.3,5.062l3.919,4.1a3.687,3.687,0,0,0,2.634,1.132h.014a3.686,3.686,0,0,0,2.616-1.1l7.4-7.548a3.663,3.663,0,0,0-5.231-5.129Zm3.157,3.1-7.4,7.548a.764.764,0,0,1-.542.227h0a.763.763,0,0,1-.549-.234l-3.919-4.1a.759.759,0,0,1,1.1-1.049l2.341,2.449a1.456,1.456,0,0,0,2.086.013l5.8-5.918a.759.759,0,0,1,1.083,1.063Z" transform="translate(-51.775 -271.849)"/>
    <path id="Trazado_773973" data-name="Trazado 773973" d="M249.95,206.6H271.3a1.452,1.452,0,1,0,0-2.9H249.95a1.452,1.452,0,1,0,0,2.9Z" transform="translate(-139.998 -159.042)"/>
    <path id="Trazado_773974" data-name="Trazado 773974" d="M249.95,297.622H271.3a1.452,1.452,0,0,0,0-2.9H249.95a1.452,1.452,0,0,0,0,2.9Z" transform="translate(-139.998 -230.105)"/>
    <path id="Trazado_773975" data-name="Trazado 773975" d="M249.95,388.639H271.3a1.452,1.452,0,0,0,0-2.9H249.95a1.452,1.452,0,1,0,0,2.9Z" transform="translate(-139.998 -301.168)"/>
    <path id="Trazado_773976" data-name="Trazado 773976" d="M147.891,60.815a1.643,1.643,0,0,0,1.648-1.639V19.767a7.6,7.6,0,0,0-7.616-7.573H127.961V11.2a4.278,4.278,0,0,0-4.285-4.261H114.7V4.276A4.293,4.293,0,0,0,110.4,0h-5.2a4.293,4.293,0,0,0-4.3,4.276V6.94H91.924A4.278,4.278,0,0,0,87.639,11.2v.993H73.676a7.6,7.6,0,0,0-7.616,7.573v84.524a7.6,7.6,0,0,0,7.616,7.573h68.247a7.6,7.6,0,0,0,7.616-7.573V66.823a1.648,1.648,0,0,0-3.3,0v37.468a4.313,4.313,0,0,1-4.32,4.3H73.676a4.313,4.313,0,0,1-4.32-4.3V19.767a4.313,4.313,0,0,1,4.32-4.3H87.638V16.4a4.278,4.278,0,0,0,4.285,4.261h.619v2.919H76.276a3.123,3.123,0,0,0-3.129,3.111v75.317a3.123,3.123,0,0,0,3.129,3.111h27.677a1.639,1.639,0,1,0,0-3.277H76.444V26.857h16.1v2.581a3.63,3.63,0,0,0,3.637,3.616h23.24a3.63,3.63,0,0,0,3.637-3.616V26.857h16.1V101.84H111.645a1.639,1.639,0,1,0,0,3.277h27.677a3.123,3.123,0,0,0,3.129-3.111V26.69a3.123,3.123,0,0,0-3.129-3.111H123.057V20.66h.619a4.278,4.278,0,0,0,4.285-4.261v-.011s0,0,0,0v-.913h13.962a4.313,4.313,0,0,1,4.32,4.3V59.176A1.644,1.644,0,0,0,147.891,60.815ZM104.2,4.276a1.015,1.015,0,0,1,1-1h5.2a1.015,1.015,0,0,1,1,1V6.94H104.2V4.276ZM119.76,29.438a.34.34,0,0,1-.34.338H96.179a.34.34,0,0,1-.34-.338V26.857H119.76v2.581Zm0-5.858H95.839V20.66H119.76V23.58Zm-27.821-6.2a1.015,1.015,0,0,1-1-1V11.2a1,1,0,0,1,.989-.983h31.752a1,1,0,0,1,.989.983v5.185a1.015,1.015,0,0,1-1,1Z" transform="translate(0)"/>
  </g>
</svg>
