<svg xmlns="http://www.w3.org/2000/svg" xmlns:xlink="http://www.w3.org/1999/xlink" width="62.605" height="62.603" viewBox="0 0 62.605 62.603">
  <defs>
    <clipPath id="clip-path">
      <rect id="Rectángulo_361729" data-name="Rectángulo 361729" width="62.605" height="62.603" fill="#fff"/>
    </clipPath>
  </defs>
  <g id="Grupo_1037150" data-name="Grupo 1037150" clip-path="url(#clip-path)">
    <path id="Trazado_777026" data-name="Trazado 777026" d="M339.782,0c.783.2,1.582.343,2.346.6a11.232,11.232,0,0,1-2.038,21.788c-.078.011-.155.034-.308.068v.65q0,5.866,0,11.732c0,1.2-.4,1.6-1.621,1.6-1.874,0-3.747,0-5.62,0-.881,0-1.44-.491-1.433-1.233s.562-1.2,1.456-1.21c.224,0,.448,0,.672,0q1.955,0,3.91-.008a.769.769,0,0,0,.153-.042V22.473c-.6-.138-1.218-.25-1.817-.421A11.235,11.235,0,0,1,337,.112,1.878,1.878,0,0,0,337.337,0h2.445M338.6,2.446a8.8,8.8,0,1,0,8.761,8.812A8.817,8.817,0,0,0,338.6,2.446" transform="translate(-287.216)" fill="#fff"/>
    <path id="Trazado_777027" data-name="Trazado 777027" d="M12.347,0c.943.237,1.911.4,2.824.724a10.708,10.708,0,0,1,5.383,4.222c.583.857.531,1.6-.128,2.025s-1.285.189-1.881-.638A8.444,8.444,0,0,0,9.617,2.625,8.35,8.35,0,0,0,2.689,9.284a8.788,8.788,0,0,0,15.717,7.084c.095-.132.181-.271.276-.4a1.219,1.219,0,0,1,1.74-.442,1.182,1.182,0,0,1,.256,1.809,21.339,21.339,0,0,1-2.591,2.815,10.047,10.047,0,0,1-5.267,2.234c-.1.013-.193.037-.317.061V33.991h1.4c1.181,0,2.363-.015,3.543.009A1.234,1.234,0,0,1,18.7,35.172a1.189,1.189,0,0,1-1.161,1.249q-3.176.037-6.354,0c-.726-.01-1.154-.563-1.158-1.377-.007-1.711,0-3.422,0-5.133q0-3.391,0-6.783V22.6a29.739,29.739,0,0,1-3.536-1.19,10.988,10.988,0,0,1-6.377-8.6A2.163,2.163,0,0,0,0,12.471V10.026a2.279,2.279,0,0,0,.112-.334A11.081,11.081,0,0,1,8.15.452C8.76.256,9.4.149,10.024,0Z" fill="#fff"/>
    <path id="Trazado_777028" data-name="Trazado 777028" d="M103.944,190.263a8.729,8.729,0,0,1-2.431-4.471,10.715,10.715,0,0,1-.194-1.878c-.025-1.833-.015-3.667-.008-5.5a8.795,8.795,0,0,1,17.416-1.82,9.787,9.787,0,0,1,.178,1.88c.023,1.752,0,3.5.011,5.256a8.814,8.814,0,0,1-2.449,6.324c-.053.056-.1.121-.18.225,1.091.061,2.139.075,3.176.184,5.421.566,10.323,5.363,10.784,10.791.251,2.954.128,5.941.146,8.913a1.186,1.186,0,0,1-1.216,1.2c-.162.01-.326,0-.489,0H91.537c-1.349,0-1.717-.362-1.717-1.688q0-3.269,0-6.539a12.59,12.59,0,0,1,10.58-12.622,34.379,34.379,0,0,1,3.544-.254M92.146,208.9h16.092a3.1,3.1,0,0,0-.09-.312q-3.173-7.7-6.343-15.392a.471.471,0,0,0-.593-.335,9.9,9.9,0,0,0-8.644,7.889,72.271,72.271,0,0,0-.422,8.151m35.8.008c0-2.232.082-4.41-.017-6.58a10.163,10.163,0,0,0-8.838-9.458.561.561,0,0,0-.712.423q-3.108,7.59-6.246,15.167c-.056.136-.086.283-.135.448Zm-24.188-28.092c0,1.14-.018,2.216,0,3.292a6.351,6.351,0,0,0,11.432,3.686c1.637-2.121,1.236-4.565,1.261-6.976a13.325,13.325,0,0,1-6.036-1.525.692.692,0,0,0-.559-.022,13.312,13.312,0,0,1-6.1,1.546m6.354,26.124,5.825-14.126h-4.605c0,.981.017,1.933-.005,2.884a1.214,1.214,0,0,1-1.239,1.238,1.229,1.229,0,0,1-1.194-1.225c-.014-.244,0-.488,0-.733,0-.724,0-1.447,0-2.165h-4.605l5.828,14.128m6.291-28.587a6.286,6.286,0,0,0-9.637-5.383,6.224,6.224,0,0,0-3.018,5.379,9.465,9.465,0,0,0,5.16-1.384,1.994,1.994,0,0,1,2.4-.006,9.476,9.476,0,0,0,5.091,1.394" transform="translate(-78.817 -148.766)" fill="#fff"/>
    <path id="Trazado_777029" data-name="Trazado 777029" d="M58.717,60.423c-.781-.767-1.483-1.442-2.169-2.132-.651-.654-.71-1.334-.184-1.879.543-.562,1.246-.511,1.922.161s1.365,1.386,2.11,2.144c.75-.763,1.411-1.509,2.157-2.156a1.839,1.839,0,0,1,1.227-.473,1.186,1.186,0,0,1,.6,2.06c-.353.393-.739.757-1.116,1.128-.362.355-.732.7-1.212,1.161.621.586,1.194,1.123,1.761,1.666a7.994,7.994,0,0,1,.636.657,1.18,1.18,0,0,1-.026,1.656,1.155,1.155,0,0,1-1.695.037c-.674-.618-1.3-1.284-1.956-1.928-.113-.111-.235-.213-.423-.381-.726.741-1.432,1.466-2.144,2.185a1.223,1.223,0,0,1-1.378.385,1.2,1.2,0,0,1-.417-2.035c.716-.748,1.478-1.452,2.3-2.256" transform="translate(-49.149 -49.164)" fill="#fff"/>
    <path id="Trazado_777030" data-name="Trazado 777030" d="M166.157,83.112a1.218,1.218,0,1,1-1.2-1.219,1.234,1.234,0,0,1,1.2,1.219" transform="translate(-143.668 -71.862)" fill="#fff"/>
    <path id="Trazado_777031" data-name="Trazado 777031" d="M384.249,67.724c1.227-1.234,2.355-2.379,3.494-3.511a1.235,1.235,0,0,1,1.792-.151,1.157,1.157,0,0,1,.086,1.694q-2.233,2.3-4.528,4.536a1.127,1.127,0,0,1-1.651,0Q382.1,69,380.812,67.654a1.156,1.156,0,0,1,.04-1.695,1.171,1.171,0,0,1,1.7.017c.574.544,1.105,1.134,1.7,1.748" transform="translate(-333.861 -55.936)" fill="#fff"/>
  </g>
</svg>
