<svg xmlns="http://www.w3.org/2000/svg" xmlns:xlink="http://www.w3.org/1999/xlink" width="85" height="85" viewBox="0 0 85 85">
  <defs>
    <clipPath id="clip-path">
      <rect id="Rectángulo_372001" data-name="Rectángulo 372001" width="61.639" height="57.308" fill="#2d54fe"/>
    </clipPath>
  </defs>
  <g id="Grupo_1043286" data-name="Grupo 1043286" transform="translate(-1020 -1392)">
    <circle id="Elipse_8840" data-name="Elipse 8840" cx="42.5" cy="42.5" r="42.5" transform="translate(1020 1392)" fill="#ffca00"/>
    <g id="Grupo_1043150" data-name="Grupo 1043150" transform="translate(1029.564 1401.211)">
      <g id="Grupo_1043149" data-name="Grupo 1043149" transform="translate(0 0)" clip-path="url(#clip-path)">
        <path id="Trazado_786511" data-name="Trazado 786511" d="M13.775,8.783c.191-.958.366-1.848.546-2.738a.622.622,0,0,1,.5-.5,1.862,1.862,0,0,1,.438-.072c1.219-.007,2.439-.024,3.658,0,.759.016.95.205,1.1.941.12.591.222,1.186.333,1.778.017.093.044.186.09.378.342-.364.645-.657.911-.979A6.067,6.067,0,0,0,22.5,4.833c.116-.571.225-1.144.346-1.714a2.1,2.1,0,0,1,2.065-1.664c1.28,0,2.56.039,3.838-.009a2.174,2.174,0,0,1,2.205,1.736c.182.87.356,1.742.568,2.606a11.244,11.244,0,0,0,.434,1.179c.087-.2.148-.323.2-.454A10.03,10.03,0,0,1,39.236.294,8.914,8.914,0,0,1,41.292.027q3.5-.049,6.993-.009A9.814,9.814,0,0,1,53.441,1.61a1.713,1.713,0,0,1,.453.418A.834.834,0,0,1,53.8,3.042a.813.813,0,0,1-.99.2A13.719,13.719,0,0,0,50.5,2.18a11.32,11.32,0,0,0-2.871-.43q-2.841-.039-5.684,0a8.475,8.475,0,0,0-6.438,2.679,8.355,8.355,0,0,0-1.975,3.725,18.156,18.156,0,0,0-.22,3.394.567.567,0,0,0,.033.153H56.229c.006-.11.019-.216.016-.32-.017-.89-.035-1.781-.06-2.671a1.435,1.435,0,0,0-.075-.346c-.132-.461-.242-.93-.412-1.377a10.621,10.621,0,0,0-.567-1.167A.944.944,0,0,1,55.85,4.37a.63.63,0,0,1,.442.186A4.5,4.5,0,0,1,57.386,6.43a11.935,11.935,0,0,1,.714,4.689c0,.168,0,.337,0,.5a.349.349,0,0,0,.02.07c.287.024.581.046.873.074a2.842,2.842,0,0,1,2.466,3.811,6.181,6.181,0,0,1-3.784,3.74c-.105.041-.206.094-.38.174.118.036.16.064.2.059,1.267-.162,2.919,1.228,3.208,2.8a3.584,3.584,0,0,1-2.676,4.11,3.625,3.625,0,0,1-1.8-.028c-.205-.055-.289-.011-.349.173-.172.524-.339,1.05-.53,1.568a10.83,10.83,0,0,1-1.513,2.617l.566.307a10.145,10.145,0,0,1,2.222,1.578.9.9,0,0,1-.421,1.557.582.582,0,0,1-.42-.072c-.29-.169-.556-.378-.836-.563-.519-.343-1.043-.679-1.563-1.021a.293.293,0,0,0-.394.026c-.6.459-1.191.921-1.815,1.338a10.269,10.269,0,0,1-1.4.769.333.333,0,0,0-.23.372,5.222,5.222,0,0,1-.4,2.2,4.632,4.632,0,0,1-3.84,2.893,4.721,4.721,0,0,1-4.613-2.363,5.182,5.182,0,0,1-.645-2.613.49.49,0,0,0-.325-.521c-.708-.372-1.38-.815-2.054-1.247a7.046,7.046,0,0,1-.747-.587,4.52,4.52,0,0,1-.362-.4c-.289.143-.645.285-.966.483a9.531,9.531,0,0,0-2.825,2.638A8.662,8.662,0,0,0,31.1,40.136c-.094,1.876-.085,3.757-.123,5.635,0,.223.078.319.314.318q1.725-.013,3.45,0c.246,0,.242-.133.242-.3q0-2.391,0-4.782a.961.961,0,0,1,.876-.969.948.948,0,0,1,.885.935c.016.6.012,1.208.012,1.811,0,.971,0,1.941,0,2.91,0,.362.038.392.387.391q7.335-.017,14.668-.028a4.425,4.425,0,0,1,.624.032c.3.043.367-.088.365-.364-.011-1.515,0-3.029-.008-4.545a1.074,1.074,0,0,1,.433-.954.838.838,0,0,1,1.324.455,3.061,3.061,0,0,1,.1.761c.01,1.445.009,2.891.005,4.336,0,.206.047.309.28.307,1.17-.009,2.34-.005,3.51-.007a.37.37,0,0,0,.1-.037c0-.072.012-.149.012-.225,0-1.8.028-3.6-.016-5.4a8.731,8.731,0,0,0-.332-1.915c-.134-.522-.406-1.008-.544-1.529a1.737,1.737,0,0,1,.021-.921c.108-.341.474-.393.8-.4a.749.749,0,0,1,.746.441,11.361,11.361,0,0,1,1.125,4.334c.028.593.051,1.186.051,1.78q.009,6.919.005,13.839a3.321,3.321,0,0,1-.028.473.827.827,0,0,1-.825.78.9.9,0,0,1-.916-.659,2.671,2.671,0,0,1-.066-.675q-.006-3.875,0-7.751v-.336h-.544c-1.052,0-2.1.009-3.155,0-.2,0-.248.038-.247.244q.014,3.919,0,7.84a2.927,2.927,0,0,1-.1.7.847.847,0,0,1-.879.64.907.907,0,0,1-.794-.8c-.024-.385-.02-.771-.02-1.157,0-2.386,0-4.772.009-7.157,0-.265-.1-.314-.33-.314q-3.69.014-7.38.014c-2.747,0-5.495-.014-8.242-.02a.911.911,0,0,0-.149.03v.313q0,4.024-.007,8.048a.935.935,0,0,1-.494.94A.854.854,0,0,1,35,56.466c-.009-1.049,0-2.1,0-3.149V47.893a1.426,1.426,0,0,0-.2-.03c-1.19,0-2.38.013-3.57,0-.255,0-.265.116-.264.307q.008,3.712.008,7.425,0,.386,0,.771a.932.932,0,0,1-.825.936.863.863,0,0,1-.915-.79c-.04-.461-.009-.928-.009-1.439h-.363c-1.309,0-2.619.012-3.928-.017a2.089,2.089,0,0,1-2.039-1.485c-.112-.419-.16-.856-.27-1.276-.255-.963-.527-1.921-.8-2.878a1.287,1.287,0,0,0-.155-.273l-.078.014c0,.213,0,.426,0,.639,0,.921.029,1.842,0,2.762a4.486,4.486,0,0,1-3.008,4.251,4.431,4.431,0,0,1-5.83-3.456,10.288,10.288,0,0,1-.118-1.475c-.017-1.2-.006-2.394-.006-3.647l-.242.155a2.944,2.944,0,0,1-1.6.64,1.883,1.883,0,0,1-1.255-.449c-.274-.227-.528-.479-.782-.729-.733-.725-1.439-1.478-2.2-2.176A2.265,2.265,0,0,1,6.279,42.9c.492-.707.995-1.411,1.418-2.158a5.553,5.553,0,0,0-3.97-8.174c-.664-.106-1.314-.294-1.978-.4A2.2,2.2,0,0,1,.015,30.029c-.021-1.276-.018-2.554,0-3.83A2.159,2.159,0,0,1,1.73,24.117c.782-.177,1.569-.331,2.351-.5A5.223,5.223,0,0,0,6.495,22.4c.177-.159.362-.309.548-.456a.845.845,0,0,1,1.387.468.835.835,0,0,1-.23.844,7.344,7.344,0,0,1-3.62,2.1c-.75.175-1.507.316-2.262.468-.38.077-.443.144-.443.534,0,1.217,0,2.435-.006,3.652,0,.258.095.359.349.411a24.746,24.746,0,0,1,2.889.651,7.168,7.168,0,0,1,4.967,5.638A6.908,6.908,0,0,1,8.9,42.233c-.368.54-.726,1.086-1.092,1.627a.4.4,0,0,0,.052.582c.854.842,1.7,1.694,2.556,2.531.353.345.367.333.781.062.4-.261.789-.532,1.192-.783a.454.454,0,0,0,.224-.441c-.007-1.6-.031-3.208.01-4.811a11.857,11.857,0,0,1,.292-1.891c.033-.171.021-.229-.147-.3a2.64,2.64,0,0,1-1.583-2.76,2.745,2.745,0,0,1,2.117-2.23,2.542,2.542,0,0,1,.683-.017c.245.018.325-.081.293-.308a.9.9,0,0,1,0-.118q0-9.742.007-19.482c0-.3-.057-.425-.378-.48a.966.966,0,0,1-.79-1.237c.091-.444.162-.892.22-1.341a.349.349,0,0,0-.125-.279c-.658-.441-1.329-.863-1.991-1.3-.4-.26-.5-.257-.844.085q-1.2,1.192-2.406,2.387c-.352.351-.346.387-.081.8.5.783,1,1.565,1.488,2.358a5.622,5.622,0,0,1,.76,2.411,10.448,10.448,0,0,1,.006,1.8.841.841,0,0,1-.924.809.935.935,0,0,1-.871-.924,2.812,2.812,0,0,1,.01-.475,4.766,4.766,0,0,0-.729-3.088c-.419-.695-.893-1.355-1.331-2.038a2.145,2.145,0,0,1,.276-2.79Q7.938,9.2,9.34,7.849a1.96,1.96,0,0,1,2.5-.313c.488.321.978.638,1.469.955.146.094.294.185.465.292m6.252,17.873v1.633c0,1.722.007,3.445-.006,5.168,0,.281.086.377.352.337a.783.783,0,0,1,.119,0,2.6,2.6,0,0,1,2.568,2.915,4.738,4.738,0,0,1-.494,1.25c-.079.173-.088.274.116.33.657.179,1.306.385,1.969.534a9.941,9.941,0,0,0,4.323.028.61.61,0,0,0,.534-.53,10.994,10.994,0,0,1,5.634-7.249c.543-.305.538-.288.167-.821a10.117,10.117,0,0,1-1.577-3.49c-.054-.228-.145-.316-.393-.257a3.655,3.655,0,0,1-2.136-.069,3.607,3.607,0,0,1-1.492-5.811,3.382,3.382,0,0,1,1.888-1.1c.057-.01.106-.067.159-.1a.68.68,0,0,0-.118-.153,1.206,1.206,0,0,0-.237-.122,5.943,5.943,0,0,1-2.086-1.491.61.61,0,0,0-.255-.2,5.932,5.932,0,0,0-1.128-.25,11.765,11.765,0,0,0-4.593.549A11.028,11.028,0,0,0,20.3,19.345a.6.6,0,0,0-.28.541c.01,2.256.006,4.514.006,6.77m15.243-6.913c-.008.078-.017.135-.017.192q0,2.627,0,5.254a.749.749,0,0,0,.022.206,23.584,23.584,0,0,0,.7,2.281,9.046,9.046,0,0,0,3.527,4.216,9.558,9.558,0,0,0,7.822,1.229A8.8,8.8,0,0,0,50.4,31.667a9.461,9.461,0,0,0,4-7.859c.022-1.226,0-2.454,0-3.681,0-.4,0-.4-.412-.4H35.574c-.1,0-.192.009-.3.015m9.556-6.186v0H32.359c-.506,0-1.012-.006-1.517.015a1.065,1.065,0,0,0-.992,1.525,4.119,4.119,0,0,0,1.108,1.594,4.943,4.943,0,0,0,3.512,1.186q10.473,0,20.948,0a4.981,4.981,0,0,0,1.72-.276A4.219,4.219,0,0,0,59.7,15.15,1.1,1.1,0,0,0,59.592,14a1.318,1.318,0,0,0-1.2-.444q-6.783.005-13.568,0m-17.4,1.769a4.065,4.065,0,0,0,0-.427A3.474,3.474,0,0,1,30.2,11.277c.128-.018.255-.044.382-.054a.377.377,0,0,0,.4-.465,8.427,8.427,0,0,1,0-.979,1.241,1.241,0,0,1,.1-.6.307.307,0,0,0-.04-.437,7.771,7.771,0,0,1-1.532-3.617q-.131-.743-.3-1.479c-.049-.217-.1-.458-.414-.457-1.249,0-2.5,0-3.749,0a.478.478,0,0,0-.475.381c-.107.418-.164.849-.257,1.27a17.76,17.76,0,0,1-.453,1.886,6.742,6.742,0,0,1-2.747,3.51.487.487,0,0,0-.236.591c.1.473.184.949.266,1.425a.929.929,0,0,1-.839,1.161c-.205.028-.284.093-.281.314.012,1.089.005,2.178.006,3.267,0,.084.016.167.028.3a13.075,13.075,0,0,1,7.372-1.969M28.705,40.8a11.213,11.213,0,0,1-3.63,0,14.387,14.387,0,0,1-3.5-1.017c.022.36.057.651.058.943,0,1.762.006,3.524,0,5.286a.848.848,0,0,0,.3.674,6,6,0,0,1,1.95,3.142c.189.884.427,1.757.641,2.636a1.5,1.5,0,0,1,.031.264c.023.381.178.538.554.538q1.681,0,3.363,0c.1,0,.2-.018.321-.029-.169-.367-.233-11.163-.08-12.441m-8.962,5.836q0-2.939,0-5.879a2.765,2.765,0,0,0-.4-1.5.457.457,0,0,0-.321-.191q-1.9-.022-3.808-.009c-.1,0-.264.057-.3.133a2.7,2.7,0,0,0-.346.985c-.022,4.3-.016,8.61-.014,12.914a.838.838,0,0,0,.028.292,2.625,2.625,0,0,0,3.385,1.689,2.666,2.666,0,0,0,1.776-2.53q.005-2.954,0-5.908m-1.6-12.856c.007-.119.018-.224.018-.33q0-9.2-.006-18.407c0-.456.005-.911-.009-1.366,0-.079-.093-.221-.146-.223-.651-.016-1.3-.009-1.965-.009V33.785ZM15.079,11.6a.916.916,0,0,0,.177.037c1.22,0,2.439,0,3.659,0,.2,0,.251-.065.211-.267-.163-.845-.307-1.692-.462-2.538-.1-.542-.208-1.082-.315-1.635-.734,0-1.438.01-2.142-.005-.22-.005-.343.067-.378.274-.053.32-.08.645-.14.963-.2,1.051-.4,2.1-.611,3.168m2.048,25.532h0c1.129,0,2.259.007,3.389-.007a.782.782,0,0,0,.479-.162.742.742,0,0,0-.267-1.249,2.622,2.622,0,0,0-.787-.112q-2.913-.013-5.827,0a2.164,2.164,0,0,0-.612.094c-.384.118-.529.423-.448.878a.64.64,0,0,0,.683.558q1.694,0,3.389,0M56.213,22.98c0,.425-.009.852.007,1.276a.382.382,0,0,0,.145.28,1.7,1.7,0,0,0,2.275-.553,1.837,1.837,0,0,0-.135-2.159,1.741,1.741,0,0,0-2.056-.4.329.329,0,0,0-.241.37c.016.4.005.791.005,1.187m-22.878.071h-.015c0-.415.016-.83-.009-1.243a.51.51,0,0,0-.205-.345,1.415,1.415,0,0,0-1.565.025,1.777,1.777,0,0,0-.727,2.331,1.836,1.836,0,0,0,2.3.808.338.338,0,0,0,.23-.361c-.013-.4,0-.809,0-1.214" transform="translate(0 0)" fill="#2d54fe"/>
        <path id="Trazado_786512" data-name="Trazado 786512" d="M53.183,7.029a.953.953,0,0,0-.466-1.055.572.572,0,0,0-.332-.091c-.684-.008-1.369-.007-2.054,0a.753.753,0,0,0-.8.716c-.031.771-.033,1.544-.006,2.314.015.429.282.634.775.642.842.015,1.686,0,2.528.013a3.137,3.137,0,0,1,.761.1.813.813,0,0,1,.586.967.9.9,0,0,1-.774.708c-1.149.014-2.3.047-3.447,0a2.5,2.5,0,0,1-2.211-2.187,26.772,26.772,0,0,1,0-2.847,2.393,2.393,0,0,1,2.127-2.1c1.018-.042,2.042-.04,3.06.009a2.352,2.352,0,0,1,1.953,1.867,19.592,19.592,0,0,1,.049,2.015.71.71,0,0,1-.525.683.967.967,0,0,1-.315.082c-.94,0-1.881.033-2.819-.017-.516-.028-.744-.286-.792-.8a3.162,3.162,0,0,1,.073-1.162.782.782,0,0,1,1.374-.256c.431.568.337.479,1.253.411" transform="translate(-6.543 -0.572)" fill="#2d54fe"/>
        <path id="Trazado_786513" data-name="Trazado 786513" d="M18.75,52.837c0,1.683,0,3.366,0,5.049a.924.924,0,0,0,1.229.962.979.979,0,0,0,.65-1.054q0-4.855-.005-9.711a2.177,2.177,0,0,0-.136-.721.726.726,0,0,0-.714-.487.929.929,0,0,0-1.025,1q0,2.48,0,4.96" transform="translate(-2.571 -6.429)" fill="#2d54fe"/>
        <path id="Trazado_786514" data-name="Trazado 786514" d="M54.508,28.721a3.087,3.087,0,0,1-6.164-.049.946.946,0,0,1,.732-1.039.937.937,0,0,1,1.021.68,2.843,2.843,0,0,1,.093.463A1.214,1.214,0,0,0,51.4,29.79a1.176,1.176,0,0,0,1.207-.894,2.668,2.668,0,0,1,.155-.539.887.887,0,0,1,.961-.732,1,1,0,0,1,.783.977c0,.04,0,.079,0,.119" transform="translate(-6.63 -3.787)" fill="#2d54fe"/>
        <path id="Trazado_786515" data-name="Trazado 786515" d="M45.046,26.635a.922.922,0,0,1,.9-.961.955.955,0,0,1,.936.972.973.973,0,0,1-.925,1,.984.984,0,0,1-.915-1.01" transform="translate(-6.178 -3.521)" fill="#2d54fe"/>
        <path id="Trazado_786516" data-name="Trazado 786516" d="M57.553,25.684a.927.927,0,0,1,.941.964.979.979,0,0,1-.928,1,1,1,0,0,1-.906-1.022c.024-.538.417-1.01.893-.94" transform="translate(-7.771 -3.521)" fill="#2d54fe"/>
        <path id="Trazado_786517" data-name="Trazado 786517" d="M18.75,52.837q0-2.48,0-4.96a.929.929,0,0,1,1.025-1,.725.725,0,0,1,.713.487,2.135,2.135,0,0,1,.137.721q.014,4.855.006,9.711a.98.98,0,0,1-.651,1.054.924.924,0,0,1-1.228-.962c-.007-1.683,0-3.366,0-5.049" transform="translate(-2.571 -6.429)" fill="#2d54fe"/>
      </g>
    </g>
  </g>
</svg>
