<svg xmlns="http://www.w3.org/2000/svg" xmlns:xlink="http://www.w3.org/1999/xlink" width="53.51" height="65.497" viewBox="0 0 53.51 65.497">
  <defs>
    <clipPath id="clip-path">
      <rect id="Rectángulo_361730" data-name="Rectángulo 361730" width="53.51" height="65.497" fill="#12263f"/>
    </clipPath>
  </defs>
  <g id="Grupo_1037152" data-name="Grupo 1037152" clip-path="url(#clip-path)">
    <path id="Trazado_777032" data-name="Trazado 777032" d="M1.688,263.509C.283,263.038,0,262.643,0,261.133q0-8.666,0-17.332c0-1.59.615-2.218,2.188-2.22q4.315-.008,8.631,0c1.568,0,2.2.646,2.207,2.223,0,.357,0,.714,0,1.1H21.15c-.489-.95-1.051-1.855-1.44-2.828a10.98,10.98,0,1,1,20.9-6.582,3.294,3.294,0,0,1,.131.689.945.945,0,0,1-1.836.373c-.221-.643-.351-1.321-.612-1.945a9.067,9.067,0,0,0-17.4,4.268,8.719,8.719,0,0,0,2.665,5.655,1.511,1.511,0,0,0,.935.389c1.7.038,3.411.063,5.113,0a4.272,4.272,0,0,1,3.878,1.548,9.1,9.1,0,0,0,5.044-5.437,5.707,5.707,0,0,1,.254-.721.888.888,0,0,1,1.129-.477.85.85,0,0,1,.651.97,3.543,3.543,0,0,1-.2.8A10.836,10.836,0,0,1,34.719,248a.769.769,0,0,0-.513.807,3.753,3.753,0,0,1-3.645,3.717c-1.767.06-3.537.007-5.305.036a5.225,5.225,0,0,0-1.066.24l.051.25h.672c2.365,0,4.731-.022,7.1.014a2.181,2.181,0,0,0,1.692-.716q3.784-3.812,7.591-7.6a3.853,3.853,0,0,1,4.763-.938.786.786,0,0,0,.57-.044,3.805,3.805,0,0,1,5.627,2.914,1.725,1.725,0,0,0,.357.78,3.8,3.8,0,0,1-.1,5.031c-.867.939-1.789,1.827-2.7,2.72a.933.933,0,0,1-1.417.04.945.945,0,0,1,.1-1.416c.789-.808,1.6-1.6,2.391-2.4a1.946,1.946,0,0,0,.158-2.842,1.9,1.9,0,0,0-2.833.163c-2.549,2.545-5.107,5.082-7.633,7.649a4.425,4.425,0,0,1-3.363,1.4c-3.963-.029-7.927-.008-11.891-.011a2.934,2.934,0,0,1-3.273-3.218c0-.277-.009-.554-.009-.831a2.9,2.9,0,0,1,3.06-3.108c1.747-.021,3.5.016,5.242-.017a1.871,1.871,0,0,0,1.946-2.106,1.836,1.836,0,0,0-1.69-1.636c-.233-.019-.468-.014-.7-.014H13.059c-.013.28-.03.488-.03.7,0,3.624.009,7.249-.013,10.873a.783.783,0,0,0,.6.874,27.279,27.279,0,0,0,6.486,2.073,23.911,23.911,0,0,0,2.736.2c5.221.019,10.442,0,15.663.016a5.05,5.05,0,0,0,3.783-1.557q1.391-1.413,2.8-2.8a.972.972,0,1,1,1.36,1.34c-1.019,1.03-2.052,2.048-3.076,3.074a7.59,7.59,0,0,1-3.7,1.859H21.252a.984.984,0,0,0-.239-.081,23.073,23.073,0,0,1-7.286-2.013c-.2-.085-.413-.151-.633-.23-.233,1.6-.4,1.823-1.687,2.325Zm.267-1.961h.686c2.578,0,5.156-.017,7.734.013.581.007.752-.145.75-.741-.023-5.542-.014-11.083-.014-16.625v-.66H1.955ZM50.01,246.115a1.832,1.832,0,0,0-3.034-.19c-2.567,2.554-5.134,5.107-7.675,7.687a4.344,4.344,0,0,1-3.307,1.368c-3.726-.03-7.453-.011-11.18-.011h-.752c.119.745.33.9,1.173.905,4.025,0,8.05-.006,12.074.008a2.476,2.476,0,0,0,1.867-.8c2.489-2.511,5.008-4.993,7.487-7.513a4.287,4.287,0,0,1,3.346-1.45m-5.227-.739a2.02,2.02,0,0,0-2.02.61q-3.31,3.33-6.637,6.645c-.1.1-.188.205-.34.371a2.2,2.2,0,0,0,2.089-.679c2.112-2.134,4.242-4.251,6.364-6.376.161-.161.314-.33.543-.572" transform="translate(-0.001 -198.012)" fill="#12263f"/>
    <path id="Trazado_777033" data-name="Trazado 777033" d="M11.2,60.4c-.5.52-.972,1.043-1.478,1.529a1.631,1.631,0,0,1-2.447.012c-.785-.751-1.556-1.519-2.3-2.307a1.62,1.62,0,0,1,.011-2.4c.407-.436.82-.87,1.267-1.263.3-.265.236-.507.077-.783-.173-.3-.131-.779-.711-.727a14.988,14.988,0,0,1-1.661.007,1.684,1.684,0,0,1-1.828-1.836c-.009-1.023-.011-2.047,0-3.07a1.653,1.653,0,0,1,1.749-1.777,15.023,15.023,0,0,1,1.6,0c.437.031.594-.163.793-.534a.864.864,0,0,0-.276-1.245,11.473,11.473,0,0,1-1.04-1.038,1.594,1.594,0,0,1-.027-2.3Q6.1,41.416,7.363,40.231a1.606,1.606,0,0,1,2.305.028c.439.4.866.823,1.264,1.267a.518.518,0,0,0,.763.14c.326-.206.858-.157.795-.8a13.572,13.572,0,0,1-.006-1.789,1.581,1.581,0,0,1,1.561-1.618c1.17-.04,2.344-.04,3.515,0a1.589,1.589,0,0,1,1.581,1.665,12.219,12.219,0,0,1-.006,1.534.752.752,0,0,0,.663.949,3.954,3.954,0,0,1,.639.274c.456-.491.917-1.022,1.415-1.515a1.644,1.644,0,0,1,2.539-.016q1.126,1.089,2.214,2.217a1.648,1.648,0,0,1-.008,2.493c-.4.417-.84.792-1.2,1.236a.828.828,0,0,0-.1.7c.126.332.1.842.716.8a16.3,16.3,0,0,1,1.789,0,1.644,1.644,0,0,1,1.7,1.76q.02,1.567,0,3.134a1.665,1.665,0,0,1-1.748,1.785,13.731,13.731,0,0,1-1.725-.006c-.618-.055-.55.467-.747.772a.525.525,0,0,0,.134.772c.412.369.8.771,1.179,1.172a1.649,1.649,0,0,1,.03,2.494q-1.1,1.154-2.26,2.261a1.647,1.647,0,0,1-2.5-.036c-.492-.471-.974-.953-1.461-1.43a.192.192,0,0,0-.058-.027c-1.2.428-1.251.431-1.185,1.648.137,2.538-.841,2.833-2.731,2.742-.723-.035-1.449.01-2.173-.011A1.667,1.667,0,0,1,12.478,63c0-.3,0-.6,0-.9,0-1.228,0-1.228-1.275-1.7M6.516,43.918c.254.23.523.506.825.741a2.241,2.241,0,0,1,.677,3.328,1.569,1.569,0,0,0-.117.3A1.763,1.763,0,0,1,5.907,49.7c-.61.007-1.219,0-1.815,0v2.856H5.6c1.558,0,1.825.185,2.4,1.656.062.158.13.314.2.469a1.779,1.779,0,0,1-.469,2.5c-.407.4-.837.781-1.19,1.109l2.115,2.14a3.822,3.822,0,0,1,.39-.52c1.505-1.472,1.448-2,4-.861a1.826,1.826,0,0,1,1.343,1.99c0,.606,0,1.213,0,1.827h2.833c0-.711,0-1.387,0-2.063a1.7,1.7,0,0,1,1.147-1.676c.413-.169.827-.337,1.237-.513a1.68,1.68,0,0,1,2.044.377c.466.492.908,1.007,1.272,1.411l2.119-2.121c-.448-.431-.969-.9-1.457-1.409a1.589,1.589,0,0,1-.34-1.829c.169-.413.349-.822.514-1.236a1.685,1.685,0,0,1,1.787-1.253c.654-.011,1.309,0,1.992,0V49.7c-.625,0-1.217,0-1.809,0A1.773,1.773,0,0,1,23.725,48.3c-.129-.337-.272-.67-.424-1a1.646,1.646,0,0,1,.383-2.037c.484-.471.984-.926,1.462-1.374l-2.168-2.177c-.145.216-.293.452-.457.675-1.035,1.409-2.287,1.826-3.845.837a1.006,1.006,0,0,0-.176-.075,1.722,1.722,0,0,1-1.272-1.842c-.006-.633,0-1.266,0-1.958H14.395c0,.58,0,1.067,0,1.553,0,1.516-.217,1.832-1.611,2.374-.218.085-.429.187-.642.283a1.723,1.723,0,0,1-2.255-.388c-.451-.448-.883-.915-1.3-1.35l-2.07,2.093" transform="translate(-1.848 -32.629)" fill="#12263f"/>
    <path id="Trazado_777034" data-name="Trazado 777034" d="M259.878,116.357c.1-.6.229-1.379.38-2.151a.943.943,0,0,0-.327-1.01c-.517-.442-.986-.939-1.469-1.42a1.669,1.669,0,0,1-.492-1.8,1.651,1.651,0,0,1,1.438-1.188c.695-.1,1.385-.248,2.083-.3a.9.9,0,0,0,.833-.639c.277-.621.593-1.225.9-1.833a1.723,1.723,0,0,1,3.144,0c.324.646.611,1.313.971,1.938a1.1,1.1,0,0,0,.643.472c.747.164,1.51.249,2.266.37a1.6,1.6,0,0,1,1.347,1.126,1.646,1.646,0,0,1-.4,1.772q-.785.8-1.6,1.56a.757.757,0,0,0-.287.827c.169.7.254,1.423.377,2.136a1.686,1.686,0,0,1-.621,1.709,1.646,1.646,0,0,1-1.859.182c-.688-.336-1.346-.733-2.041-1.051a1,1,0,0,0-.742,0c-.714.327-1.387.746-2.1,1.074a1.727,1.727,0,0,1-2.441-1.774m4.913-9.174c-.337.67-.662,1.242-.917,1.843a2.068,2.068,0,0,1-1.868,1.319c-.617.061-1.229.182-1.894.284.557.57,1.038,1.076,1.534,1.568a1.853,1.853,0,0,1,.581,1.792c-.138.688-.224,1.387-.355,2.217a15.913,15.913,0,0,0,1.5-.785,2.357,2.357,0,0,1,2.853,0c.438.286.929.49,1.5.783-.123-.757-.194-1.41-.342-2.046a1.975,1.975,0,0,1,.664-2.064c.494-.45.948-.943,1.48-1.478-.763-.107-1.414-.209-2.069-.287a1.976,1.976,0,0,1-1.715-1.239c-.27-.619-.6-1.212-.945-1.907" transform="translate(-224.825 -91.539)" fill="#12263f"/>
    <path id="Trazado_777035" data-name="Trazado 777035" d="M207.834,0a1.372,1.372,0,0,1,1.349.891,2.487,2.487,0,0,0,2.686,1.962,1.325,1.325,0,0,1,1.274,1.007,1.363,1.363,0,0,1-.424,1.625,2.489,2.489,0,0,0-1.008,3.169,1.335,1.335,0,0,1-.593,1.512,1.275,1.275,0,0,1-1.557.127,2.637,2.637,0,0,0-3.5.007,1.275,1.275,0,0,1-1.555-.143,1.335,1.335,0,0,1-.57-1.517,2.454,2.454,0,0,0-.984-3.118,1.375,1.375,0,0,1-.454-1.672A1.42,1.42,0,0,1,203.9,2.831a2.24,2.24,0,0,0,2.434-1.724A1.505,1.505,0,0,1,207.834,0m1.951,8.208a2.663,2.663,0,0,1,1.048-3.581,2.63,2.63,0,0,1-2.943-2.139,6.366,6.366,0,0,1-1.154,1.626,5.924,5.924,0,0,1-1.8.574,6.247,6.247,0,0,1,1.122,1.539,6.009,6.009,0,0,1,.043,1.88c1.99-.913,1.34-.944,3.68.1" transform="translate(-176.448)" fill="#12263f"/>
    <path id="Trazado_777036" data-name="Trazado 777036" d="M193.65,291.062l4.4-4.4c.151-.151.295-.31.458-.445a.948.948,0,0,1,1.327.02.962.962,0,0,1,.012,1.33,3.621,3.621,0,0,1-.265.277q-2.485,2.488-4.97,4.974c-.734.733-1.167.739-1.884.025-1.267-1.264-2.539-2.524-3.793-3.8-.627-.638-.438-1.583.359-1.68a1.508,1.508,0,0,1,1.052.415c1.115,1.05,2.179,2.156,3.306,3.287" transform="translate(-164.392 -249.304)" fill="#12263f"/>
    <path id="Trazado_777037" data-name="Trazado 777037" d="M64.838,106.663a6.474,6.474,0,1,1,5.709-9.642,3.607,3.607,0,0,1,.3.633.872.872,0,0,1-.47,1.128.9.9,0,0,1-1.2-.28,3.231,3.231,0,0,1-.247-.446,4.563,4.563,0,0,0-5.208-2.276,4.561,4.561,0,0,0,.244,8.876,4.56,4.56,0,0,0,4.867-2.159c.086-.147.156-.3.242-.45a.958.958,0,1,1,1.693.886,6.458,6.458,0,0,1-5.934,3.729" transform="translate(-50.939 -81.699)" fill="#12263f"/>
    <path id="Trazado_777038" data-name="Trazado 777038" d="M92.594,125.1a2.817,2.817,0,1,1-2.79-2.816,2.835,2.835,0,0,1,2.79,2.816m-2.844-.887a.883.883,0,0,0-.87.9.9.9,0,1,0,1.792-.054.886.886,0,0,0-.923-.85" transform="translate(-75.814 -106.613)" fill="#12263f"/>
  </g>
</svg>
