<svg xmlns="http://www.w3.org/2000/svg" xmlns:xlink="http://www.w3.org/1999/xlink" width="85" height="85" viewBox="0 0 85 85">
  <defs>
    <clipPath id="clip-path">
      <rect id="Rectángulo_371991" data-name="Rectángulo 371991" width="62.5" height="54.886" fill="#ffca00"/>
    </clipPath>
  </defs>
  <g id="Grupo_1043287" data-name="Grupo 1043287" transform="translate(-600 -1513)">
    <circle id="Elipse_8830" data-name="Elipse 8830" cx="42.5" cy="42.5" r="42.5" transform="translate(600 1513)" fill="#fe502d"/>
    <g id="Grupo_1043142" data-name="Grupo 1043142" transform="translate(607.5 1530.114)">
      <g id="Grupo_1043141" data-name="Grupo 1043141" clip-path="url(#clip-path)">
        <path id="Trazado_786479" data-name="Trazado 786479" d="M55.471,50.386c0,.219,0,.448,0,.678,0,.845,0,1.689.011,2.534a.644.644,0,0,1-.416.681.632.632,0,0,1-.76-.167.92.92,0,0,1-.191-.516c-.01-3.076,0-6.151-.012-9.227a.809.809,0,0,1,.672-.664.748.748,0,0,1,.7.543,1.971,1.971,0,0,1,.032.357q0,2.115-.006,4.23a.7.7,0,0,0,.016.092,2.524,2.524,0,0,0,1.652-1.373,2.794,2.794,0,0,0,.271-1.272c-.006-2.016,0-4.032-.02-6.048a2.034,2.034,0,0,0-1.652-2.067c-.945-.227-1.9-.426-2.845-.647-.171-.04-.228.046-.291.167A4.077,4.077,0,0,1,50.2,39.713c-.151.049-.307.085-.484.133,0,2.286,0,4.582,0,6.878l-.1.018-.159-.093a1.859,1.859,0,0,1-.209.258.7.7,0,0,1-1.17-.4,2.042,2.042,0,0,1-.045-.474q-.007-2.976,0-5.952a.265.265,0,0,0-.232-.312,4.2,4.2,0,0,1-2.728-2.263.307.307,0,0,0-.379-.192c-.543.089-1.092.142-1.634.235A7.3,7.3,0,0,0,40.026,38.9q-2.379,1.708-4.768,3.4c-.3.213-.593.431-.895.641a.747.747,0,0,1-.988-.022c-1.165-.879-2.333-1.753-3.493-2.64-.166-.126-.239-.1-.357.056q-.488.634-1.012,1.24c-.132.152-.121.243.026.369Q30.073,43.269,31.6,44.6c.525.455,1.046.912,1.571,1.367a1.27,1.27,0,0,0,1.607.181c.951-.522,1.9-1.052,2.844-1.579,1.435-.8,2.869-1.6,4.309-2.39.262-.143.529-.339.865-.119a.787.787,0,0,1,.4.638c.008.128.009.255.009.383q0,5.175,0,10.35a1.482,1.482,0,0,1-.062.445.719.719,0,0,1-.683.472.705.705,0,0,1-.645-.522,2.4,2.4,0,0,1-.047-.545q0-4.327,0-8.653v-.709c-.353.191-.66.354-.963.523-1.68.934-3.356,1.872-5.038,2.8a9.1,9.1,0,0,1-.975.451.239.239,0,0,0-.181.261c.007.5,0,1,.014,1.505a.354.354,0,0,0,.178.26,2.4,2.4,0,1,1-3.3,2.315A2.353,2.353,0,0,1,33,49.723a.274.274,0,0,0,.194-.286c-.008-.541,0-1.083-.01-1.624,0-.067-.038-.171-.088-.193A7.271,7.271,0,0,1,31.368,46.3c-1.2-1.038-2.387-2.093-3.586-3.133a.537.537,0,0,0-.325-.095q-4.074-.008-8.148,0-3.726,0-7.452,0a1.556,1.556,0,0,1-1.079-.388,1.271,1.271,0,0,1-.4-1.013c.005-.558.022-1.116.007-1.673a1.287,1.287,0,0,1,1.291-1.321c.078-.006.157,0,.263,0v-.3q0-5.437,0-10.876a.858.858,0,0,1,.523-.9.649.649,0,0,1,.809.258,1.67,1.67,0,0,1,.192.7q.017,5.4.008,10.8v.3H23.746c.114-.372.23-.721.324-1.076a.433.433,0,0,0-.049-.285c-.782-1.45-1.574-2.9-2.357-4.345q-1.072-1.984-2.131-3.977a.675.675,0,0,1,.048-.841.665.665,0,0,1,1.129.079c.3.471.545.971.81,1.461q1.8,3.342,3.6,6.685c.018.034.042.065.067.1a7.31,7.31,0,0,1,.722-.174,2.291,2.291,0,0,1,1.719.517c.761.567,1.51,1.15,2.274,1.714a.782.782,0,0,0,.433.149q3.666.015,7.332,0a.745.745,0,0,0,.393-.128c.5-.336.977-.692,1.468-1.034a8.672,8.672,0,0,1,4.2-1.517c.706-.069,1.407-.188,2.111-.278.2-.026.282-.122.279-.331-.01-.612,0-1.224,0-1.875h-.329c-.431,0-.862-.008-1.294,0a2.731,2.731,0,0,1-2.662-2.119,4.522,4.522,0,0,1-.072-.806q-.01-2.426,0-4.853a6.781,6.781,0,0,1,.079-.975.625.625,0,0,1,.7-.623c.2,0,.256-.1.348-.261a12.054,12.054,0,0,1,.806-1.206c.074-.1.118-.157.069-.284a.685.685,0,0,1,.336-1.007,4.771,4.771,0,0,1,4.2-.495,1.466,1.466,0,0,0,.959,0,5.058,5.058,0,0,1,5.114,1.048c.023.022.049.039.1.079V9.615h-.848l-26.216.007c-.367,0-.735,0-1.1-.017a.693.693,0,0,1-.586-.723.652.652,0,0,1,.624-.629q1.078-.009,2.157-.007,14.306,0,28.613.011c.239,0,.322-.055.311-.3-.019-.454-.016-.909,0-1.362.007-.218-.056-.284-.281-.283q-4.157.011-8.315.006H15.118q-2.121,0-4.242,0c-.311,0-.312,0-.312.32,0,.422,0,.845,0,1.266,0,.331.009.343.352.343,1.126,0,2.253,0,3.379,0q4.4,0,8.794.006a.693.693,0,0,1,.7.64.722.722,0,0,1-.673.724c-.215.013-.431.01-.647.01l-8.842-.017c-.039,0-.077.005-.149.011v.307q0,6.813,0,13.625a1.47,1.47,0,0,1-.026.355.787.787,0,0,1-.782.643.817.817,0,0,1-.72-.771c-.008-.087,0-.175,0-.263q0-6.789,0-13.577V9.614c-.5,0-.973-.005-1.45,0A1.242,1.242,0,0,1,9.065,8.209q0-.993,0-1.984a1.3,1.3,0,0,1,1.381-1.4h.168q23.389,0,46.777,0a2.534,2.534,0,0,1,.475.039,1.21,1.21,0,0,1,1.041,1.218c.013.773.01,1.546,0,2.319a1.187,1.187,0,0,1-1.225,1.221c-.271-.013-.543-.006-.815-.007s-.527,0-.812,0V36.719a7.392,7.392,0,0,1,.886.353A3.586,3.586,0,0,1,58.9,40.347q.044,3,0,6a4.111,4.111,0,0,1-2.8,3.919,4.224,4.224,0,0,1-.631.122M45.688,28.575a7.456,7.456,0,0,0,.152,1.949,4.64,4.64,0,0,0,2.266,2.716,1.328,1.328,0,0,0,.77.192A2.761,2.761,0,0,0,50.064,33a4.831,4.831,0,0,0,1.754-2.243,6.584,6.584,0,0,0,.32-2.518c0-.067-.129-.171-.213-.188a4.57,4.57,0,0,1-2.2-1.186.784.784,0,0,0-.18-.1.987.987,0,0,1-.254-.135,3.07,3.07,0,0,1-.306-.4,1.569,1.569,0,0,0-1.447-.754,1.858,1.858,0,0,0-1.846,1.846v1.256M11.854,40.209c0,.343,0,.651,0,.959,0,.357-.006.357.348.357l13.339,0c.076,0,.152-.008.277-.015-.07-.076-.1-.124-.148-.162A6.218,6.218,0,0,1,25,40.775a1.837,1.837,0,0,0-1.559-.589c-3.767.034-7.536.02-11.3.023h-.285M47.59,34.616c.1,1.062-.041,1.964-1.114,2.426a2.566,2.566,0,0,0,1.034,1.053,2.856,2.856,0,0,0,2.043.255,2.6,2.6,0,0,0,1.611-1.034c.093-.122.112-.214-.051-.3a1.646,1.646,0,0,1-.894-1.476c-.011-.284,0-.569,0-.9a3.435,3.435,0,0,1-2.627-.022m6.9,1.772V33.3c-.151.018-.312-.008-.409.058a1.065,1.065,0,0,1-.661.148c-.391,0-.782,0-1.173,0h-.6c0,.676-.005,1.319,0,1.962a.339.339,0,0,0,.32.351c.4.076.793.176,1.188.265l1.332.3M25.26,38.649a.84.84,0,0,0,.3.676c.5.447,1,.888,1.5,1.334.209.187.228.181.408-.04.306-.376.61-.757.938-1.115.128-.14.124-.22-.013-.322-.589-.437-1.159-.9-1.772-1.3a.883.883,0,0,0-1.362.768m8.628,14.26a.988.988,0,0,0,1-.968A1.089,1.089,0,0,0,33.9,50.92a1.064,1.064,0,0,0-1,1.026.981.981,0,0,0,.984.963M32.232,40.2c.018.039.019.049.025.053.522.4,1.043.808,1.569,1.2a.189.189,0,0,0,.166-.021q.639-.44,1.269-.891c.137-.1.265-.209.437-.345Z" transform="translate(-3.313 -1.763)" fill="#ffca00"/>
        <path id="Trazado_786480" data-name="Trazado 786480" d="M38.381,19.468H21.967c-.629,0-.882-.244-.886-.88q-.008-1.314,0-2.629c.005-.644.263-.89.91-.89H54.75c.683,0,.921.226.929.916q.014,1.314,0,2.629c0,.612-.256.853-.864.853H38.381m0-1.431H52.426c.519,0,1.039,0,1.558,0,.166,0,.249-.044.242-.23-.013-.319-.017-.638,0-.956.012-.242-.093-.332-.319-.324-.048,0-.1,0-.143,0H22.97c-.056,0-.112,0-.168,0-.155,0-.234.057-.236.225,0,.334-.013.669-.034,1-.013.224.066.323.3.31.342-.02.686-.027,1.029-.028q3.713,0,7.426,0h7.093" transform="translate(-7.704 -5.508)" fill="#ffca00"/>
        <path id="Trazado_786481" data-name="Trazado 786481" d="M30.132,26.544c-2.666,0-5.333,0-8-.006a1.285,1.285,0,0,1-.593-.141.677.677,0,0,1,.017-1.215,1.716,1.716,0,0,1,.735-.161q5.616-.015,11.233-.007c1.5,0,3-.01,4.5.01a1.61,1.61,0,0,1,.742.212.657.657,0,0,1-.026,1.142,1.361,1.361,0,0,1-.612.159c-2.666.01-5.333.007-8,.007" transform="translate(-7.738 -9.142)" fill="#ffca00"/>
        <path id="Trazado_786482" data-name="Trazado 786482" d="M30.144,30.441q3.99,0,7.979,0a1.778,1.778,0,0,1,.426.048.676.676,0,0,1,.528.61.617.617,0,0,1-.364.668,1.544,1.544,0,0,1-.621.141q-7.955.01-15.911-.005a1.57,1.57,0,0,1-.737-.212.573.573,0,0,1-.254-.647.675.675,0,0,1,.525-.558,2.022,2.022,0,0,1,.451-.046q3.989,0,7.979,0" transform="translate(-7.738 -11.126)" fill="#ffca00"/>
        <path id="Trazado_786483" data-name="Trazado 786483" d="M46.592,48.128c0,.534.013,1.068,0,1.6a.8.8,0,0,1-.862.826q-1.545.01-3.091,0a.891.891,0,0,1-.937-.935q-.021-1.5,0-3.011a.846.846,0,0,1,.907-.89q1.557-.01,3.115,0c.61,0,.851.237.873.856.018.517,0,1.036,0,1.553h0m-1.47-.989H43.255V49h1.867Z" transform="translate(-15.236 -16.707)" fill="#ffca00"/>
        <path id="Trazado_786484" data-name="Trazado 786484" d="M44.17,35.836c.567,0,1.134-.01,1.7,0a.684.684,0,0,1,.715.7c.023.357.025.716.025,1.074,0,.732.007,1.465-.016,2.2a.776.776,0,0,1-.876.823q-1.532,0-3.065,0a.867.867,0,0,1-.956-.925c-.011-1-.005-1.99,0-2.985a1,1,0,0,1,.376-.77.548.548,0,0,1,.327-.109c.59-.01,1.181-.005,1.771-.005v0m-.892,1.374c-.011.022-.032.041-.032.062,0,.581-.01,1.161,0,1.741,0,.049.116.136.181.139.31.011.621,0,.932,0,.252,0,.5,0,.755,0V37.21Z" transform="translate(-15.238 -13.096)" fill="#ffca00"/>
        <path id="Trazado_786485" data-name="Trazado 786485" d="M26.735,37.189c-1.612,0-3.225-.013-4.838.008a.691.691,0,0,1-.72-.666.655.655,0,0,1,.668-.69c1.173-.015,2.346-.012,3.52-.013q2.9,0,5.8,0c.175,0,.352,0,.526.018a.625.625,0,0,1,.593.744.6.6,0,0,1-.659.6q-2.442,0-4.885,0" transform="translate(-7.74 -13.093)" fill="#ffca00"/>
        <path id="Trazado_786486" data-name="Trazado 786486" d="M72.118,74.938a28.14,28.14,0,0,1-.077,4.428c-.155-.094-.216-.019-.3.133a.668.668,0,0,1-1.008.027,1.184,1.184,0,0,1-.251-.647c-.025-1.178-.013-2.357-.009-3.535a1.253,1.253,0,0,1,.047-.306.758.758,0,0,1,.65-.561.708.708,0,0,1,.614.3,1.944,1.944,0,0,0,.272.2l.059-.041" transform="translate(-25.755 -27.217)" fill="#ffca00"/>
        <path id="Trazado_786487" data-name="Trazado 786487" d="M33.766,42.55c-.487,0-.973,0-1.46,0a.809.809,0,0,1-.7-.338.7.7,0,0,1,.4-1.084,1.678,1.678,0,0,1,.425-.052c.878,0,1.755,0,2.632,0a1.949,1.949,0,0,1,.332.033.709.709,0,0,1,.65.794.741.741,0,0,1-.767.643c-.5.007-1.005,0-1.508,0" transform="translate(-11.502 -15.012)" fill="#ffca00"/>
      </g>
    </g>
  </g>
</svg>
