<svg xmlns="http://www.w3.org/2000/svg" xmlns:xlink="http://www.w3.org/1999/xlink" width="85" height="85" viewBox="0 0 85 85">
  <defs>
    <clipPath id="clip-path">
      <rect id="Rectángulo_372002" data-name="Rectángulo 372002" width="44.945" height="59" fill="#ffca00"/>
    </clipPath>
  </defs>
  <g id="Grupo_1043288" data-name="Grupo 1043288" transform="translate(-1020 -1512)">
    <circle id="Elipse_8831" data-name="Elipse 8831" cx="42.5" cy="42.5" r="42.5" transform="translate(1020 1512)" fill="#2d54fe"/>
    <g id="Grupo_1043152" data-name="Grupo 1043152" transform="translate(1040.027 1526)">
      <g id="Grupo_1043151" data-name="Grupo 1043151" transform="translate(0 0)" clip-path="url(#clip-path)">
        <path id="Trazado_786518" data-name="Trazado 786518" d="M42.591,54.674a6.339,6.339,0,0,1,.115,1.009,2.356,2.356,0,0,1-.864,1.712c-.406.349-.818.693-1.243,1.02a2.337,2.337,0,0,1-3.4-.33c-.9-1.044-1.769-2.107-2.636-3.175A.632.632,0,0,0,34,54.644q-13.416.009-26.83.005a2.4,2.4,0,0,1-2.548-2.543V50.6c-.812,0-1.589,0-2.365,0A2.372,2.372,0,0,1,0,48.2Q.029,28.179.009,8.161a1.53,1.53,0,0,1,.38-1.047Q3.127,3.847,5.841.559A1.442,1.442,0,0,1,7.047,0Q22.4.019,37.762.009a2.359,2.359,0,0,1,2.52,1.986,9.638,9.638,0,0,1,.038,1.513c0,.17,0,.339,0,.545.362,0,.693-.008,1.023,0,.586.015,1.171.033,1.756.062a2.24,2.24,0,0,1,1.834,2.147c0,.071,0,.142,0,.212q0,22.736.012,45.471a2.466,2.466,0,0,1-2.278,2.707.674.674,0,0,0-.077.021M7.546,1.619v.275c0,1.539,0,3.076-.012,4.614a1.6,1.6,0,0,1-.149.669A2.233,2.233,0,0,1,5.162,8.548c-1.1-.031-2.2.008-3.307.008-.2,0-.251.072-.251.27q.008,6.283,0,12.566,0,13.355,0,26.712c0,.763.2.958.952.958q14.083,0,28.166,0c.082,0,.163-.014.3-.027-.42-.508-.809-.961-1.174-1.431a.316.316,0,0,0-.453-.117,9.635,9.635,0,0,1-3.059.816,10.059,10.059,0,0,1-7.357-2.118,1.008,1.008,0,0,0-.57-.2c-3.8-.008-7.608,0-11.412,0-.314,0-.628,0-.94-.026a.751.751,0,0,1-.711-.788.763.763,0,0,1,.755-.722c.091-.005.182,0,.273,0H17.27l-.124-.176a8.814,8.814,0,0,1-1.316-2.445.429.429,0,0,0-.5-.364q-4.37.014-8.741,0a2.906,2.906,0,0,1-.662-.06.742.742,0,0,1-.56-.581.687.687,0,0,1,.259-.7,1.324,1.324,0,0,1,.965-.277l7.952,0h.691V36.921h-.3q-4.4,0-8.8,0a.691.691,0,0,1-.719-.49.643.643,0,0,1,.218-.837,1.409,1.409,0,0,1,.714-.17c2.914,0,5.827.012,8.74.022.5,0,.521-.012.682-.494a9.256,9.256,0,0,1,1.46-2.708,9.958,9.958,0,0,1,4.182-3.214.433.433,0,0,0,.091-.074L21.26,28.8c.245-.078.434-.135.621-.2a9.62,9.62,0,0,1,5.252-.421c.61.129,1.2.34,1.811.486.225.053.389.073.16.335.1.047.174.081.247.114a10.078,10.078,0,0,1,5.766,11.46,10.487,10.487,0,0,1-1.909,3.955c-.1.123-.152.214-.028.363.833,1,1.65,2.022,2.493,3.017a.856.856,0,0,0,.514.243,2.674,2.674,0,0,1,1.681.748.429.429,0,0,0,.747-.132,1.392,1.392,0,0,0,.121-.524c.017-.312,0-.627,0-.94q.007-22.189.013-44.378A5.159,5.159,0,0,0,38.72,2.2c-.067-.46-.168-.542-.625-.571-.172-.011-.344-.012-.516-.012l-28.834,0h-1.2M39.123,50.341c.007.039,0,.064.015.077.694.829,1.387,1.659,2.09,2.481a.467.467,0,0,0,.314.142c.4.005.81,0,1.212-.033.449-.035.588-.192.6-.637s0-.89,0-1.335q0-21.9,0-43.8c0-.313,0-.628-.02-.94-.026-.372-.246-.676-.534-.683-.815-.019-1.631-.006-2.471-.006v.415q0,21.078,0,42.157a3.368,3.368,0,0,1-.111.774,2.371,2.371,0,0,1-1.089,1.384m-22.352-11.8a6.18,6.18,0,0,0,.56,2.963,8.56,8.56,0,0,0,16.445-2.286,8.491,8.491,0,0,0-8.847-9.393,8.4,8.4,0,0,0-8.158,8.716m16.174,14.49a2.775,2.775,0,0,1-.408-1.924c.042-.337-.123-.487-.473-.5-.191,0-.383.013-.576.013l-24.584,0a3.054,3.054,0,0,0-.484.01c-.073.012-.191.1-.191.159,0,.576.009,1.15.026,1.725a.471.471,0,0,0,.532.49c.566.01,1.131.012,1.7.012l23.642.006h.819m8.265,2.559a5.36,5.36,0,0,0-.334-.686c-.17-.249-.383-.469-.578-.7-1.138-1.364-2.271-2.734-3.417-4.092a.926.926,0,0,0-1.336-.115q-.539.417-1.054.865c-.573.5-.595.867-.11,1.444s.949,1.13,1.42,1.7c.864,1.042,1.722,2.089,2.589,3.127a.863.863,0,0,0,1.178.139c.433-.331.862-.671,1.26-1.043a2.777,2.777,0,0,0,.383-.634M2.428,7.044c.987,0,1.875-.026,2.759.012a.715.715,0,0,0,.745-.436,1.379,1.379,0,0,0,.122-.579c.012-.839,0-1.679,0-2.518q0-.356,0-.712l-.06-.038L2.428,7.044M34.413,48.87c-.078-.108-.139-.2-.208-.284-.665-.813-1.34-1.618-1.991-2.441-.194-.246-.332-.267-.543-.04a2.3,2.3,0,0,1-.432.332c-.18.117-.187.221-.045.386.479.56.943,1.133,1.413,1.7l.909,1.1.9-.751" transform="translate(0 0)" fill="#ffca00"/>
        <path id="Trazado_786519" data-name="Trazado 786519" d="M22.882,29.56H13.872c-.132,0-.263,0-.394-.011a.738.738,0,0,1-.706-.6.973.973,0,0,1-.04-.239c0-.738-.035-1.48.021-2.213a2.58,2.58,0,0,1,2.31-2.586c.285-.055.347-.163.346-.434,0-1.354-.046-2.713.035-4.063a6.932,6.932,0,0,1,5.088-6.269A7.869,7.869,0,0,1,27.574,14.3,7.34,7.34,0,0,1,30,17.6a7.821,7.821,0,0,1,.345,2.864q.013,1.533-.026,3.065c-.005.232.065.322.283.359a2.711,2.711,0,0,1,1.759.852,2.519,2.519,0,0,1,.651,1.685c-.012.748,0,1.5.012,2.244a.8.8,0,0,1-.889.88c-1.982.011-3.963.008-5.946.009H22.882Zm-8.525-1.646h.931q7.371,0,14.742,0c.425,0,.849.007,1.273.024.163.007.215-.05.211-.206-.007-.384.011-.769-.005-1.153a1.059,1.059,0,0,0-1.14-1.082H15.385a.925.925,0,0,0-1.014.833,14,14,0,0,0-.013,1.585" transform="translate(-2.866 -2.883)" fill="#ffca00"/>
        <path id="Trazado_786520" data-name="Trazado 786520" d="M11.314,39.821c1.152,0,2.3,0,3.455,0a.866.866,0,0,1,.916.552.723.723,0,0,1-.529.96,2.658,2.658,0,0,1-.571.056q-3.289,0-6.578,0a2.365,2.365,0,0,1-.392-.027.761.761,0,0,1-.7-.769.831.831,0,0,1,.8-.767c.505-.016,1.01-.005,1.515-.005h2.092" transform="translate(-1.557 -8.971)" fill="#ffca00"/>
        <path id="Trazado_786521" data-name="Trazado 786521" d="M24.755,8.68a4.781,4.781,0,0,1,.063-.613.73.73,0,0,1,.821-.6.662.662,0,0,1,.713.7,8.083,8.083,0,0,1-.006,1.24c-.038.418-.289.6-.727.61a.685.685,0,0,1-.786-.592c-.043-.248-.053-.5-.077-.744" transform="translate(-5.577 -1.681)" fill="#ffca00"/>
        <path id="Trazado_786522" data-name="Trazado 786522" d="M39.913,23.721a6.129,6.129,0,0,1-.776-.082.726.726,0,0,1-.557-.793.68.68,0,0,1,.648-.672,9.387,9.387,0,0,1,1.3,0,.7.7,0,0,1,.695.753.835.835,0,0,1-.729.768c-.19.017-.383,0-.574,0l0,.027" transform="translate(-8.691 -4.991)" fill="#ffca00"/>
        <path id="Trazado_786523" data-name="Trazado 786523" d="M11.439,24.022c-.2,0-.4.006-.607,0a.764.764,0,0,1-.748-.759.711.711,0,0,1,.689-.738,11.961,11.961,0,0,1,1.333.012.688.688,0,0,1,.617.762.737.737,0,0,1-.709.724c-.192,0-.384,0-.576,0" transform="translate(-2.272 -5.072)" fill="#ffca00"/>
        <path id="Trazado_786524" data-name="Trazado 786524" d="M11.9,15.88c.042-.523.586-1.087,1.153-.772.36.2.728.391,1.075.616a.694.694,0,0,1,.219,1,.711.711,0,0,1-.99.273,10.627,10.627,0,0,1-1.064-.631,2.212,2.212,0,0,1-.392-.488" transform="translate(-2.682 -3.384)" fill="#ffca00"/>
        <path id="Trazado_786525" data-name="Trazado 786525" d="M36.6,15.938a1.921,1.921,0,0,1,.363-.5,8.37,8.37,0,0,1,1.1-.635.7.7,0,0,1,.963.3.676.676,0,0,1-.215.978,9.3,9.3,0,0,1-1.076.616.81.81,0,0,1-1.135-.753" transform="translate(-8.246 -3.315)" fill="#ffca00"/>
        <path id="Trazado_786526" data-name="Trazado 786526" d="M19.477,11.128a.765.765,0,0,1-.462.772.621.621,0,0,1-.814-.19,8.54,8.54,0,0,1-.713-1.222.663.663,0,0,1,.364-.909.608.608,0,0,1,.893.212,11.343,11.343,0,0,1,.649,1.02.958.958,0,0,1,.083.318" transform="translate(-3.924 -2.133)" fill="#ffca00"/>
        <path id="Trazado_786527" data-name="Trazado 786527" d="M32.5,11.832a.8.8,0,0,1-.768-1.107,11.324,11.324,0,0,1,.645-1.095.767.767,0,0,1,1.009-.152.727.727,0,0,1,.268.892c-.172.342-.352.681-.548,1.011a.861.861,0,0,1-.607.45" transform="translate(-7.133 -2.109)" fill="#ffca00"/>
        <path id="Trazado_786528" data-name="Trazado 786528" d="M23.195,47.38a7.3,7.3,0,1,1,9.035,7.02,6.958,6.958,0,0,1-4.3-.372A6.88,6.88,0,0,1,24.12,51a7.03,7.03,0,0,1-.925-3.623m13.041-.008a10.875,10.875,0,0,0-.125-1.235,5.748,5.748,0,0,0-11.245,2.39,5.243,5.243,0,0,0,1.9,3.206,5.773,5.773,0,0,0,3.236,1.222A5.66,5.66,0,0,0,34.7,51.371a5.368,5.368,0,0,0,1.538-4" transform="translate(-5.226 -9.029)" fill="#ffca00"/>
      </g>
    </g>
  </g>
</svg>
