<svg id="Grupo_1043188" data-name="Grupo 1043188" xmlns="http://www.w3.org/2000/svg" xmlns:xlink="http://www.w3.org/1999/xlink" width="58.531" height="69.971" viewBox="0 0 58.531 69.971">
  <defs>
    <clipPath id="clip-path">
      <rect id="Rectángulo_372036" data-name="Rectángulo 372036" width="58.531" height="69.971" fill="none"/>
    </clipPath>
  </defs>
  <g id="Grupo_1043188-2" data-name="Grupo 1043188" clip-path="url(#clip-path)">
    <path id="Trazado_786635" data-name="Trazado 786635" d="M30.224,0c.031.044.058.122.095.126a7.594,7.594,0,0,1,3.7,1.718c.748.577,1.547,1.093,2.256,1.714A6.542,6.542,0,0,0,40.758,5.14a35.962,35.962,0,0,1,4.051.259,6.8,6.8,0,0,1,5.765,5.194c.369,1.513.724,3.029,1.077,4.546a4.851,4.851,0,0,0,1.5,2.51c1.028.951,2.055,1.9,3.07,2.868a7,7,0,0,1,2.239,4.193,7.085,7.085,0,0,1-.63,4.158c-.661,1.347-1.372,2.669-2.035,4.015a5.261,5.261,0,0,0-.476,3.09c.2,1.534.428,3.069.527,4.612a6.9,6.9,0,0,1-4.056,6.767c-1.346.581-2.7,1.147-4.04,1.736-.415.182-.8.423-1.208.629-.208.106-.226.225-.126.437Q47.765,53,49.1,55.863q1.7,3.664,3.389,7.339a2.052,2.052,0,0,1,.241.872,1.024,1.024,0,0,1-1.222.943c-1.169-.174-2.333-.382-3.5-.581-.829-.141-1.658-.286-2.484-.44a.38.38,0,0,0-.462.229q-1.362,2.4-2.748,4.792a3.445,3.445,0,0,1-.432.611.994.994,0,0,1-1.587-.119,10.5,10.5,0,0,1-.615-1.215c-1.573-3.356-3.154-6.707-4.7-10.077A1.383,1.383,0,0,0,34,57.328c-1.13-.3-2.244-.662-3.365-.995a5.37,5.37,0,0,0-3.221.134c-1.018.322-2.044.618-3.06.945a.716.716,0,0,0-.407.306q-2.162,4.618-4.3,9.248c-.349.753-.689,1.51-1.059,2.253a1.062,1.062,0,0,1-2,.1c-.991-1.66-1.953-3.337-2.911-5.016a.5.5,0,0,0-.623-.289c-1.9.344-3.807.661-5.71.994A1.127,1.127,0,0,1,6.164,64.6,1.108,1.108,0,0,1,6.13,63.37c.7-1.531,1.392-3.064,2.1-4.59q1.813-3.915,3.64-7.824c.067-.144.136-.288.208-.43.289-.576.313-.623-.274-.919-1.014-.51-2.058-.959-3.094-1.424-.612-.274-1.234-.524-1.848-.793a6.9,6.9,0,0,1-4.1-5.3,10.369,10.369,0,0,1,.1-3.295c.139-1.221.3-2.441.409-3.664a4.179,4.179,0,0,0-.562-2.257c-.6-1.21-1.218-2.416-1.827-3.625a7.3,7.3,0,0,1-.508-5.785,6.464,6.464,0,0,1,1.666-2.626c.947-.921,1.869-1.871,2.862-2.74a6.684,6.684,0,0,0,2.247-4.019c.226-1.274.526-2.539.873-3.786A6.882,6.882,0,0,1,13.809,5.4c1.629-.163,3.267-.239,4.9-.333a5.157,5.157,0,0,0,2.938-1.048q1.76-1.351,3.557-2.655a6.066,6.066,0,0,1,3-1.218c.067-.007.253.028.109-.15Zm-.958,53.9c.635.112,1.283.175,1.9.344,1.555.424,3.088.935,4.648,1.339a4.678,4.678,0,0,0,5.154-1.911c.732-1.084,1.462-2.171,2.146-3.286a8.148,8.148,0,0,1,4.006-3.407c1.327-.535,2.647-1.1,3.931-1.728a4.575,4.575,0,0,0,2.574-4.686c-.129-1.312-.265-2.625-.45-3.929a8.079,8.079,0,0,1,.865-5.153c.554-1.019,1.043-2.073,1.58-3.1a5.325,5.325,0,0,0,.614-3.623,4.943,4.943,0,0,0-1.508-2.62c-.955-.911-1.92-1.813-2.882-2.718a7.858,7.858,0,0,1-2.389-4.164q-.428-2-.943-3.98A4.578,4.578,0,0,0,44.48,7.6a34.959,34.959,0,0,0-3.98-.271,8.469,8.469,0,0,1-5.325-1.883,35.241,35.241,0,0,0-3.416-2.492,4.416,4.416,0,0,0-5.052.024c-1.367.9-2.647,1.929-3.968,2.9a7.011,7.011,0,0,1-3.824,1.384q-2.215.127-4.428.264a4.67,4.67,0,0,0-4.4,3.558c-.307,1.141-.6,2.29-.813,3.451A8.752,8.752,0,0,1,6.3,19.8c-.891.76-1.742,1.571-2.579,2.391a4.794,4.794,0,0,0-1,5.789c.579,1.2,1.185,2.383,1.8,3.564a7.462,7.462,0,0,1,.917,4.275c-.153,1.46-.29,2.923-.51,4.373a4.709,4.709,0,0,0,2.661,5.125c1.431.668,2.893,1.268,4.339,1.9a6.659,6.659,0,0,1,2.927,2.38c.91,1.348,1.774,2.727,2.7,4.062a4.528,4.528,0,0,0,4.873,1.981c1.122-.212,2.208-.614,3.312-.923a14.018,14.018,0,0,1,3.531-.814" transform="translate(0 -0.001)" fill="#1a1818"/>
    <path id="Trazado_786636" data-name="Trazado 786636" d="M34.976,59.636a14.018,14.018,0,0,0-3.531.814c-1.1.309-2.19.711-3.312.923a4.528,4.528,0,0,1-4.873-1.981c-.928-1.335-1.792-2.714-2.7-4.062a6.659,6.659,0,0,0-2.927-2.38c-1.447-.634-2.909-1.234-4.339-1.9a4.708,4.708,0,0,1-2.661-5.125c.22-1.45.357-2.913.51-4.372a7.463,7.463,0,0,0-.917-4.275C9.611,36.093,9,34.908,8.426,33.71a4.794,4.794,0,0,1,1-5.789c.837-.82,1.688-1.631,2.579-2.391a8.752,8.752,0,0,0,2.975-5.266c.214-1.161.505-2.311.813-3.451a4.671,4.671,0,0,1,4.4-3.559q2.214-.135,4.428-.264a7.013,7.013,0,0,0,3.824-1.384c1.32-.97,2.6-2,3.967-2.9a4.416,4.416,0,0,1,5.052-.024,35.229,35.229,0,0,1,3.416,2.492,8.468,8.468,0,0,0,5.325,1.883,34.887,34.887,0,0,1,3.979.271,4.578,4.578,0,0,1,4.035,3.684q.514,1.979.943,3.98a7.858,7.858,0,0,0,2.389,4.164c.962.9,1.926,1.806,2.882,2.717a4.946,4.946,0,0,1,1.508,2.621,5.325,5.325,0,0,1-.614,3.623c-.537,1.028-1.026,2.082-1.58,3.1a8.079,8.079,0,0,0-.865,5.153c.185,1.3.321,2.618.45,3.93a4.576,4.576,0,0,1-2.574,4.686c-1.284.63-2.6,1.193-3.931,1.728a8.15,8.15,0,0,0-4.007,3.407c-.684,1.115-1.414,2.2-2.146,3.286a4.678,4.678,0,0,1-5.154,1.911c-1.56-.4-3.092-.915-4.648-1.339-.62-.169-1.268-.233-1.9-.344m-.362-6.4A18.524,18.524,0,1,0,16.471,34.5,18.524,18.524,0,0,0,34.614,53.239" transform="translate(-5.71 -5.733)" fill="#ffca00"/>
    <path id="Trazado_786637" data-name="Trazado 786637" d="M57.342,75.164a18.524,18.524,0,1,1,18.864-18.15,18.574,18.574,0,0,1-18.864,18.15m.386-2.213A16.3,16.3,0,1,0,41.42,56.639,16.268,16.268,0,0,0,57.729,72.951" transform="translate(-28.438 -27.657)" fill="#1a1818"/>
    <path id="Trazado_786639" data-name="Trazado 786639" d="M73.522,91.02a3.751,3.751,0,0,1-2.636-1.143Q68.138,87.145,65.4,84.4a3.772,3.772,0,0,1-1.233-3.159,3.464,3.464,0,0,1,2.11-2.965,3.375,3.375,0,0,1,3.7.4c.814.651,1.522,1.434,2.273,2.163.351.341.709.677,1.032,1.044.195.221.309.176.487-.005q2.307-2.353,4.626-4.694,1.368-1.385,2.74-2.766a3.552,3.552,0,0,1,3.719-1,3.651,3.651,0,0,1,1.7,5.942c-.833.961-1.771,1.832-2.667,2.738q-3.745,3.787-7.493,7.573a4.035,4.035,0,0,1-2.869,1.349m.054-2.11a7.926,7.926,0,0,0,.927-.449,3.918,3.918,0,0,0,.624-.579q3.41-3.473,6.818-6.949c.989-1.007,1.993-2,2.968-3.021a1.437,1.437,0,0,0,0-2.009,1.512,1.512,0,0,0-2.045-.14,7.763,7.763,0,0,0-.648.606c-1.094,1.112-2.18,2.231-3.275,3.342-1.5,1.524-3,3.051-4.518,4.563a1.087,1.087,0,0,1-1.8,0c-1.092-1.081-2.17-2.177-3.257-3.264a7.254,7.254,0,0,0-.624-.582,1.508,1.508,0,0,0-2.413.823,1.439,1.439,0,0,0,.4,1.414c.662.674,1.351,1.321,2.017,1.991,1.221,1.226,2.433,2.46,3.651,3.689a1.992,1.992,0,0,0,1.166.563" transform="translate(-46.541 -53.144)" fill="#1a1818"/>
    <path id="Trazado_786640" data-name="Trazado 786640" d="M79.244,94.673a1.992,1.992,0,0,1-1.166-.563c-1.218-1.229-2.43-2.463-3.651-3.689-.666-.669-1.355-1.316-2.017-1.991a1.439,1.439,0,0,1-.4-1.414,1.508,1.508,0,0,1,2.413-.823,7.254,7.254,0,0,1,.624.582c1.086,1.087,2.165,2.183,3.257,3.264a1.087,1.087,0,0,0,1.8,0c1.515-1.512,3.016-3.038,4.518-4.563,1.095-1.111,2.181-2.23,3.275-3.342a7.763,7.763,0,0,1,.648-.606,1.512,1.512,0,0,1,2.045.14,1.437,1.437,0,0,1,0,2.009C89.605,84.7,88.6,85.689,87.612,86.7q-3.41,3.474-6.818,6.949a3.918,3.918,0,0,1-.624.579,7.926,7.926,0,0,1-.927.449" transform="translate(-52.209 -58.907)" fill="#fe502d"/>
  </g>
</svg>
