<svg xmlns="http://www.w3.org/2000/svg" xmlns:xlink="http://www.w3.org/1999/xlink" width="85" height="85" viewBox="0 0 85 85">
  <defs>
    <clipPath id="clip-path">
      <rect id="Rect치ngulo_371986" data-name="Rect치ngulo 371986" width="72" height="65" transform="translate(0 0.323)" fill="#ffca00"/>
    </clipPath>
  </defs>
  <g id="Grupo_1043289" data-name="Grupo 1043289" transform="translate(-180 -1640)">
    <circle id="Elipse_8832" data-name="Elipse 8832" cx="42.5" cy="42.5" r="42.5" transform="translate(180 1640)" fill="#2d54fe"/>
    <g id="Grupo_1043134" data-name="Grupo 1043134" transform="translate(187 1649.677)">
      <g id="Grupo_1043134-2" data-name="Grupo 1043134" clip-path="url(#clip-path)">
        <path id="Trazado_786442" data-name="Trazado 786442" d="M20.384,50.136c-.165-.179-.282-.318-.411-.445-1.046-1.04-2.092-2.082-3.146-3.114-.157-.154-.165-.235.005-.388.368-.33.709-.69,1.062-1.037a1.707,1.707,0,0,0,.405-1.924,1.744,1.744,0,0,0-1.7-1.135c-.575-.031-1.153-.006-1.751-.006V36.811c.592,0,1.184,0,1.777,0a1.647,1.647,0,0,0,1.749-1.34,1.706,1.706,0,0,0-.436-1.6c-.382-.383-.755-.774-1.141-1.153-.117-.115-.133-.184-.006-.308q1.755-1.724,3.5-3.458a.93.93,0,0,1,.093-.065c.083.071.174.142.257.222.376.363.729.751,1.127,1.088a1.734,1.734,0,0,0,2.63-.385,2.179,2.179,0,0,0,.321-1.258c.007-.465,0-.931,0-1.419h4.391V23.558c-.085-.006-.164-.015-.243-.015-2.786,0-5.574,0-8.36.01-.267,0-.331-.071-.33-.338.008-3.207,0-6.414,0-9.621a6.374,6.374,0,0,1,.588-3.015,5.275,5.275,0,0,1,4.361-2.97,11.692,11.692,0,0,1,1.208-.053q13.805,0,27.61,0a5.439,5.439,0,0,1,4.6,2.209,5.342,5.342,0,0,1,1.045,3.29c0,1.018.013,2.035,0,3.052,0,.24.058.313.3.309q1.54-.021,3.08,0a1.888,1.888,0,0,1,1.6.761A2.263,2.263,0,0,1,65,18.546q0,7.615,0,15.229v.37c.386.022.76.017,1.127.069a2.688,2.688,0,0,1,2.391,2.677c0,.073,0,.147,0,.22q0,10.391,0,20.782a2.615,2.615,0,0,1-1.547,2.573,3.442,3.442,0,0,1-1.378.3c-5.454.02-10.908.011-16.363.02a2.129,2.129,0,0,0-.768.156c-1.214.486-2.418,1-3.631,1.489a1.452,1.452,0,0,1-.532.1q-12.375.008-24.75,0A6.33,6.33,0,0,1,13.4,58.177a6.2,6.2,0,0,1,4.2-7.782,7.435,7.435,0,0,1,2.583-.24,1.6,1.6,0,0,0,.2-.019m14.042,0h.293q4.743,0,9.486-.006a1.831,1.831,0,0,1,.671.108c1.5.61,2.992,1.239,4.487,1.86,1.782.74,3.571,1.464,5.345,2.222a1.99,1.99,0,0,1,1.265,1.608,2.071,2.071,0,0,1-1.051,2.284c-.429.238-.9.4-1.356.591-.1.044-.2.093-.3.14a.491.491,0,0,0,.279.073q6.077.006,12.153.008a.975.975,0,0,0,1.058-1.063q0-7.339,0-14.678v-.3H34.426Zm-1.777-.023V44.78q0-5.65,0-11.3a2.723,2.723,0,0,1,2.83-2.84c.224.018.45,0,.692,0v-.366q0-5.869,0-11.738A2,2,0,0,1,38.3,16.4q1.553,0,3.107,0h16c.376,0,.381,0,.381-.372,0-1.09.008-2.181-.013-3.271a3.456,3.456,0,0,0-.846-2.212,3.675,3.675,0,0,0-2.953-1.22Q41.912,9.3,29.84,9.321h-.264c0,.048-.006.069,0,.083a.458.458,0,0,0,.058.092,5.522,5.522,0,0,1,1.269,3.732q-.015,18.28-.006,36.56v.328ZM38,18.206v12.44h.361q6.063,0,12.125,0a2.487,2.487,0,0,1,2.28,1.279c.375.637.683,1.314,1,1.981a.393.393,0,0,0,.415.264q4.372-.011,8.743-.005c.1,0,.193-.008.276-.012V32.61q0-7.076,0-14.152c0-.191-.039-.27-.24-.251-.163.015-.33,0-.494,0H38M34.434,41.173c.121.006.2.013.283.013q15.866,0,31.733.005c.228,0,.294-.063.292-.291-.01-1.255,0-2.511-.005-3.766a1.062,1.062,0,0,0-1.187-1.185q-6.2,0-12.4.006a.481.481,0,0,1-.5-.321c-.419-.865-.868-1.714-1.285-2.58a1.024,1.024,0,0,0-1.043-.631q-7.4.018-14.794.007a.97.97,0,0,0-1.091,1.1q0,3.67,0,7.339ZM29.092,50.1V45.441a6.041,6.041,0,0,1-5.3-.862,5.966,5.966,0,0,1-2.674-4.669,5.78,5.78,0,0,1,1.436-4.395A6.208,6.208,0,0,1,29.1,33.493V28.921H26.536a10.491,10.491,0,0,1-.327,1.259,3.257,3.257,0,0,1-1.458,1.693,3.346,3.346,0,0,1-3.326.182,10.806,10.806,0,0,1-1.014-.653c-.361.338-.724.685-1.094,1.024-.141.129-.1.239.006.353a3.356,3.356,0,0,1,.878,2.275,3.472,3.472,0,0,1-2.238,3.3,12.976,12.976,0,0,1-1.336.316v1.6c.353.083.681.163,1.011.238a3.209,3.209,0,0,1,2.005,1.475,3.487,3.487,0,0,1-.3,4.206c-.138.152-.118.252.028.387a10.382,10.382,0,0,1,.8.8c.179.2.288.209.5.026a3.507,3.507,0,0,1,5.407,1.133,6.87,6.87,0,0,1,.4,1.331c.047.181.106.26.309.249.411-.021.824-.012,1.237-.014.355,0,.71,0,1.071,0m.04-28.343v-.32q0-4.234,0-8.468a4.121,4.121,0,0,0-.051-.628,3.566,3.566,0,0,0-5.33-2.529,3.5,3.5,0,0,0-1.77,3.256c.02,2.777.011,5.553.011,8.33,0,.357-.009.357.352.357h6.79M25.641,55.477c.076.006.13.013.184.013q8.755,0,17.51.005c.248,0,.284-.1.281-.311-.014-.971-.025-1.942-.015-2.913,0-.264-.066-.339-.334-.338q-8.645.011-17.291.005h-.336Zm.007,5.285H39.063c1.42,0,2.841,0,4.261,0,.194,0,.275-.042.272-.259-.014-.952-.01-1.905-.012-2.858,0-.365,0-.366-.363-.366H25.954c-.1,0-.2.008-.306.013Zm-5.455-4.386h-.026V54.616c0-.806,0-1.613,0-2.42,0-.11.042-.264-.151-.257a9.253,9.253,0,0,0-1.7.092,4.32,4.32,0,0,0-3.453,4.24,4.18,4.18,0,0,0,1.6,3.442,5.093,5.093,0,0,0,3.575,1.058c.167,0,.159-.1.159-.219q0-2.088,0-4.177M49.8,54.188,45.44,52.367v7.916c.1-.039.188-.069.27-.1,1.32-.541,2.64-1.08,3.957-1.629a.29.29,0,0,0,.131-.225c.008-1.365.006-2.73.006-4.139M29.125,37.522c0-.653-.01-1.227.006-1.8a.325.325,0,0,0-.267-.377,5.343,5.343,0,0,0-2.054-.244,4.358,4.358,0,0,0-3.839,5.166,4.447,4.447,0,0,0,6.035,3.342.185.185,0,0,0,.111-.127c.007-.664.005-1.328.005-2.085a2.47,2.47,0,0,1-2,.709,2.426,2.426,0,0,1-1.86-.957,2.642,2.642,0,0,1,.042-3.387,2.692,2.692,0,0,1,1.755-.929,2.724,2.724,0,0,1,2.069.688M23.8,60.777c.005-.108.012-.18.012-.252-.006-.779-.017-1.558-.018-2.336,0-1.988,0-3.976.007-5.964,0-.247-.071-.316-.311-.3-.393.019-.788.018-1.182,0-.245-.012-.314.075-.311.312.011,1.035.008,2.07.006,3.105q0,2.6-.013,5.194c0,.118-.029.248.161.247.539,0,1.078,0,1.649,0m.942-10.665a2.525,2.525,0,0,0-.509-1.191,1.756,1.756,0,0,0-2.553-.04c-.362.336-.7.7-1.048,1.05a1.436,1.436,0,0,0-.124.181ZM51.587,57.7a.246.246,0,0,0,.074,0q1.126-.464,2.25-.931a.768.768,0,0,0,.206-.134c.143-.125.124-.619-.022-.679-.5-.207-.991-.415-1.487-.62-.326-.134-.655-.263-1.006-.4-.008.1-.015.162-.016.223q0,1.272,0,2.542M27.334,40.338a.868.868,0,0,0,.925-.833.961.961,0,0,0-.9-.941.918.918,0,0,0-.866.685c-.026.781.2,1.068.84,1.089" transform="translate(-4.711 -2.716)" fill="#ffca00"/>
        <path id="Trazado_786444" data-name="Trazado 786444" d="M85.73,82.422c.568,0,1.1,0,1.627.005.058,0,.165.076.165.118.012.536.008,1.072.008,1.638-.585,0-1.112,0-1.64-.008a.23.23,0,0,1-.152-.165c-.012-.517-.007-1.036-.007-1.589" transform="translate(-30.826 -29.637)" fill="#ffca00"/>
        <rect id="Rect치ngulo_371985" data-name="Rect치ngulo 371985" width="1.74" height="1.737" transform="translate(58.528 52.799)" fill="#ffca00"/>
        <path id="Trazado_786445" data-name="Trazado 786445" d="M71.793,35.865v-.323c0-2.749,0-5.5-.007-8.247,0-.282.077-.352.352-.351q5.033.013,10.066,0c.261,0,.324.094.323.339q-.014,4.11-.013,8.22c0,.361,0,.361-.361.361H71.793Zm1.791-1.788c.078.005.124.012.169.012,2.227,0,4.454,0,6.68.005.231,0,.273-.092.272-.293-.007-1.484,0-2.968-.006-4.452,0-.605,0-.61-.6-.612q-3.148-.006-6.3-.006c-.07,0-.14.01-.222.016Z" transform="translate(-25.813 -9.688)" fill="#ffca00"/>
        <path id="Trazado_786446" data-name="Trazado 786446" d="M59.558,34.312c-1.4,0-2.805,0-4.207,0-.182,0-.244-.045-.24-.229.012-.439.019-.88,0-1.319-.009-.218.077-.266.268-.265.642,0,1.284-.008,1.925-.007,2.136,0,4.272.009,6.409,0,.268,0,.351.079.338.343-.021.393-.013.788,0,1.182.006.213-.062.281-.284.279-1.4-.011-2.8-.006-4.206-.006v.017" transform="translate(-19.816 -11.685)" fill="#ffca00"/>
        <path id="Trazado_786447" data-name="Trazado 786447" d="M64.037,38.137V39.89h-.3c-2.757,0-5.514,0-8.271.006-.284,0-.36-.076-.346-.353.024-.456.007-.914.007-1.407Z" transform="translate(-19.819 -13.713)" fill="#ffca00"/>
        <path id="Trazado_786448" data-name="Trazado 786448" d="M57.854,26.951c.8,0,1.6.006,2.393,0,.215,0,.292.06.284.281-.016.421-.011.843,0,1.264,0,.179-.06.239-.238.238q-2.476,0-4.95,0c-.189,0-.229-.077-.225-.248.011-.421.014-.843,0-1.264-.007-.206.061-.275.264-.274.825.007,1.65,0,2.475,0Z" transform="translate(-19.818 -9.689)" fill="#ffca00"/>
        <path id="Trazado_786449" data-name="Trazado 786449" d="M66.3,28.724c0-.549-.006-1.07.008-1.59a.247.247,0,0,1,.17-.17c.466-.015.933-.017,1.4,0a.269.269,0,0,1,.182.189c.016.457.013.914,0,1.371,0,.068-.077.191-.121.192-.536.013-1.073.009-1.64.009" transform="translate(-23.84 -9.691)" fill="#ffca00"/>
        <path id="Trazado_786450" data-name="Trazado 786450" d="M61.882,49.091v5.284H49.114c-.006-.088-.018-.168-.018-.247,0-1.585,0-3.169-.005-4.754,0-.217.044-.3.284-.3q6.13.011,12.26.006c.072,0,.144.008.247.013M50.941,50.877v1.735h1.436c.587,0,.586,0,.583-.592,0-.38,0-.76,0-1.143Zm5.613-.016c-.582,0-1.12,0-1.657.007a.21.21,0,0,0-.149.144c-.012.484-.011.968,0,1.452,0,.049.078.138.121.138.564.009,1.127.006,1.688.006ZM58.38,52.6h1.711V50.868H58.38Z" transform="translate(-17.652 -17.645)" fill="#ffca00"/>
      </g>
    </g>
  </g>
</svg>
