<svg xmlns="http://www.w3.org/2000/svg" xmlns:xlink="http://www.w3.org/1999/xlink" width="85" height="85" viewBox="0 0 85 85">
  <defs>
    <clipPath id="clip-path">
      <rect id="Rectángulo_371998" data-name="Rectángulo 371998" width="59.704" height="59.691" fill="#2d54fe"/>
    </clipPath>
  </defs>
  <g id="Grupo_1043290" data-name="Grupo 1043290" transform="translate(-600 -1640)">
    <circle id="Elipse_8841" data-name="Elipse 8841" cx="42.5" cy="42.5" r="42.5" transform="translate(600 1640)" fill="#ffca00"/>
    <g id="Grupo_1043144" data-name="Grupo 1043144" transform="translate(611.296 1652.006)">
      <g id="Grupo_1043143" data-name="Grupo 1043143" clip-path="url(#clip-path)">
        <path id="Trazado_786488" data-name="Trazado 786488" d="M17.772,178.183c.652-.657,1.262-1.363,1.964-1.961a10.493,10.493,0,0,1,4.273-1.892c.3-.08.59-.175.975-.29-1.169-1.527-1.137-3.263-1.11-5.007.025-1.657,0-3.315.007-4.972a4.4,4.4,0,0,1,5.7-4.231c.99.291,1.97.622,2.938.982a5.073,5.073,0,0,1,3.294,4.744c.007,1.471-.033,2.943.011,4.413a6.537,6.537,0,0,1-1.1,4.075c.631.186,1.21.374,1.8.527a9.062,9.062,0,0,1,5.94,4.623,3.747,3.747,0,0,1,.274.486c1.168,3.251,4.049,4.688,6.75,6.383.415-.618.848-1.221,1.236-1.852A1.277,1.277,0,0,1,52,183.515c.453.032.911.006,1.367.006.92,0,1.093.119,1.432.995,1.229,0,2.471,0,3.713,0,.829,0,1.174.343,1.179,1.16.006.891.039,1.784-.018,2.672a1.7,1.7,0,0,1-.41.977q-1.312,1.409-2.724,2.724a1.593,1.593,0,0,1-.979.4q-6.309.04-12.618,0a1.69,1.69,0,0,1-1.023-.443c-.692-.637-1.317-1.346-1.968-2.027l-.156.093v.6q0,3.76,0,7.521c0,.91-.327,1.243-1.223,1.243q-8.733,0-17.466,0c-.866,0-1.2-.335-1.2-1.2,0-2.713,0-5.426,0-8.319-.642.642-1.224,1.152-1.718,1.736a2.349,2.349,0,0,1-2.009.836c-3.957-.039-7.915-.024-11.872-.009a1.6,1.6,0,0,1-1.265-.514c-1-1.046-2.022-2.068-3.036-3.1v-3.731a1.413,1.413,0,0,1,1.374-.63c1.179.036,2.359.011,3.526.011.327-.87.509-.994,1.431-.995.435,0,.873.031,1.3-.007a1.346,1.346,0,0,1,1.374.749c.373.616.8,1.2,1.226,1.837,1.62-1.082,3.2-2.135,4.778-3.195a.831.831,0,0,0,.248-.27q1.271-2.235,2.532-4.476l-.022.023m8.491-2.393c-.936.265-1.8.522-2.679.756a7.134,7.134,0,0,0-4.563,3.561c-.655,1.175-1.309,2.352-2.012,3.5a3.482,3.482,0,0,1-.955,1.018c-1.548,1.072-3.13,2.1-4.693,3.148-.16.108-.389.271-.4.419-.04.755-.019,1.513-.019,2.3,1.724,0,3.36.019,4.995-.017a1.476,1.476,0,0,0,.9-.369c1.067-1.012,2.1-2.061,3.131-3.111a1.109,1.109,0,0,1,1.319-.4c.521.225.6.671.6,1.183-.01,2.984-.005,5.968-.005,8.953v.687H37.808V196.7c0-2.984.006-5.968-.005-8.953,0-.518.094-.957.616-1.171a1.092,1.092,0,0,1,1.272.379c1.062,1.078,2.126,2.153,3.215,3.2a1.205,1.205,0,0,0,.745.31c1.533.028,3.067.015,4.6.012.157,0,.315-.028.5-.046,0-.681.034-1.324-.018-1.96a1.023,1.023,0,0,0-.376-.675c-1.205-.841-2.406-1.7-3.67-2.442A6.48,6.48,0,0,1,42,182.466c-.422-.9-.966-1.734-1.469-2.591a6.385,6.385,0,0,0-3.168-2.864c-1.262-.492-2.58-.839-3.917-1.263-.475,1.183-.94,2.284-1.353,3.4a1.992,1.992,0,0,0-.1,1.018c.575,2.962,1.179,5.919,1.78,8.876a1.258,1.258,0,0,1-.33,1.253c-.945.93-1.87,1.881-2.819,2.807a.988.988,0,0,1-1.578-.015c-.933-.914-1.842-1.85-2.776-2.762a1.257,1.257,0,0,1-.369-1.242c.558-2.755,1.122-5.508,1.663-8.266a3.128,3.128,0,0,0,.1-1.452c-.386-1.195-.91-2.345-1.406-3.578m-.393-9.159c0,1.413-.043,2.758.01,4.1a3.98,3.98,0,0,0,3.765,3.828,3.862,3.862,0,0,0,4.068-3.315,36.876,36.876,0,0,0,.111-4.146,4.048,4.048,0,0,0-.044-.466Zm3.95,24.476c.634-.645,1.185-1.175,1.693-1.744a.791.791,0,0,0,.135-.6c-.5-2.611-1.029-5.218-1.556-7.824a2.206,2.206,0,0,0-.192-.437.726.726,0,0,0-.306.452c-.525,2.607-1.05,5.214-1.559,7.824a.733.733,0,0,0,.109.552c.517.587,1.07,1.142,1.676,1.775m21.038-.621a13.474,13.474,0,0,1,1.981.016,4.289,4.289,0,0,0,4.191-1.686,2.623,2.623,0,0,0,.631-2.27h-2.98v1.908H52.719v-3.022c-.242.106-.444.133-.541.248a5,5,0,0,0-1.319,4.806m-41.9,0c0-.824.012-1.548-.007-2.271a1.326,1.326,0,0,0-.165-.636c-.38-.615-.781-1.218-1.207-1.8-.11-.15-.341-.211-.647-.389v3.07H4.961v-1.909H2.048a2.136,2.136,0,0,0,.828,2.426,17.114,17.114,0,0,1,1.287,1.255.8.8,0,0,0,.463.245c1.422.019,2.844.011,4.329.011m24.681-25.9A3.04,3.04,0,0,0,31.8,162.7c-.91-.331-1.823-.657-2.752-.928a2.421,2.421,0,0,0-3.121,2.82Zm-4.9,11.935c.248.618.468,1.216.727,1.8a.425.425,0,0,0,.765.018c.263-.589.483-1.2.728-1.815Z" transform="translate(0 -139.745)" fill="#2d54fe"/>
        <path id="Trazado_786489" data-name="Trazado 786489" d="M270.243,0c.443.638.89,1.272,1.326,1.914.15.221.273.459.436.736a4.1,4.1,0,0,1,3.6-.082,3.793,3.793,0,0,1,1.822,1.8,3.961,3.961,0,0,1-1.448,5.084L277.453,12c.665,1.147.451,1.681-.8,2.04q-5.839,1.666-11.676,3.339c-.193.055-.383.12-.583.183a1.131,1.131,0,0,0,.081.218,9.923,9.923,0,0,1,1.438,6.447c-.128,2.578.347,2.075-2.053,3.279-1.179.591-1.5.487-2.087-.679-1.074-2.145-2.156-4.287-3.212-6.44a.735.735,0,0,0-.795-.5c-.869.039-1.741-.008-2.61.018a1.176,1.176,0,0,1-1.215-.764c-.367-.787-.762-1.561-1.166-2.33a1.151,1.151,0,0,1,.088-1.332c.736-1,1.449-2.019,2.2-3.011a1.644,1.644,0,0,1,.666-.528A18.292,18.292,0,0,0,262.376,7.1c2.046-2.2,4.231-4.267,6.358-6.389.246-.246.508-.476.763-.713h.746m5.066,12.316-5.618-9.63a1.32,1.32,0,0,0-.212.128q-4.043,4.037-8.071,8.089a.68.68,0,0,0-.059.615c.6,1.268,1.255,2.515,1.868,3.779.154.317.293.4.661.295,2.852-.833,5.713-1.635,8.571-2.45.927-.264,1.853-.536,2.858-.827M260.28,19.358l3.061,6.118.214.051a2.3,2.3,0,0,0,.332-.755c.038-1.034.019-2.07.014-3.105a1.5,1.5,0,0,0-.058-.609c-.441-.927-.913-1.84-1.389-2.789l-2.173,1.089m-.883-1.813,2.158-1.085L259.468,12.3,257.3,13.389c.639,1.277,1.255,2.51,1.872,3.743.063.126.136.248.228.413M274.906,7.63a1.8,1.8,0,0,0,.595-2.57,1.729,1.729,0,0,0-2.419-.56l1.824,3.129M257.343,17.992,255.8,14.908c-1.116,1.34-1.141,1.354-.385,2.649.442.757,1.191.163,1.928.435" transform="translate(-221.121)" fill="#2d54fe"/>
        <path id="Trazado_786490" data-name="Trazado 786490" d="M0,235.6c.076-.209.159-.417.227-.628a4.939,4.939,0,0,1,4.718-3.471q4.01-.012,8.02,0a4.938,4.938,0,0,1,4.938,4.94c.008,1.2.011,2.4,0,3.606a9.168,9.168,0,0,1-.127,1.036l.022-.023a6.637,6.637,0,0,1-1.32.366c-.836.059-1.679.017-2.549.017,0,.978,0,1.867,0,2.756s-.333,1.222-1.242,1.223q-3.728,0-7.456,0c-.931,0-1.243-.325-1.245-1.282,0-.883,0-1.767,0-2.7-.918,0-1.764-.029-2.608.01A1.4,1.4,0,0,1,0,240.828V235.6m3.951,3.833A5.029,5.029,0,0,1,8.52,234.5a4.861,4.861,0,0,1,3.437.992,5.038,5.038,0,0,1,2,3.926h1.955c0-1.06.046-2.075-.011-3.085A2.933,2.933,0,0,0,12.99,233.5q-4.037-.058-8.075,0A2.782,2.782,0,0,0,2.1,235.909a28.341,28.341,0,0,0-.03,3.529Zm7.962,3.991c0-1.475.094-2.907-.025-4.32a2.907,2.907,0,0,0-2.9-2.633,2.944,2.944,0,0,0-2.962,2.566,20.156,20.156,0,0,0-.058,2.543c-.006.612,0,1.224,0,1.844Z" transform="translate(0 -202.649)" fill="#2d54fe"/>
        <path id="Trazado_786491" data-name="Trazado 786491" d="M31.944,43.375q0-4.134,0-8.269a2.964,2.964,0,0,1,3.223-3.2c2.59,0,5.181.011,7.772-.006a3.117,3.117,0,0,1,2.335.968q1.8,1.808,3.605,3.6a3.13,3.13,0,0,1,.973,2.333c-.012,4.29,0,8.58-.007,12.87a2.949,2.949,0,0,1-3.125,3.107q-5.844,0-11.688,0a2.946,2.946,0,0,1-3.088-3.081q-.007-4.166,0-8.331M42.888,33.9c-2.588,0-5.075,0-7.561,0-1.073,0-1.4.329-1.4,1.419q0,8.02,0,16.041c0,1.128.315,1.446,1.432,1.447H46.429c1.116,0,1.433-.32,1.433-1.448q0-5.906,0-11.813V38.87c-1.3,0-2.5,0-3.7,0-.952,0-1.268-.314-1.27-1.258,0-1.217,0-2.435,0-3.716m3.367,2.953-1.336-1.3v1.3Z" transform="translate(-27.962 -27.928)" fill="#2d54fe"/>
        <path id="Trazado_786492" data-name="Trazado 786492" d="M375.222,200.531c0-1.968,0-3.937,0-5.9a2.943,2.943,0,0,1,3.011-3.031q2.952-.011,5.9,0a2.938,2.938,0,0,1,3.014,3.027q.009,5.936,0,11.872a2.937,2.937,0,0,1-2.979,3q-2.984.015-5.967,0a2.94,2.94,0,0,1-2.983-3c-.008-1.989,0-3.978,0-5.967m1.985.017c0,1.885,0,3.769,0,5.654,0,.952.36,1.306,1.319,1.308q2.641.006,5.281,0c1.026,0,1.36-.344,1.361-1.393q0-2.641,0-5.281,0-3.045,0-6.089a1.019,1.019,0,0,0-.666-1.08,1,1,0,0,0-1.274.287,1.567,1.567,0,0,1-1.525.626,6.448,6.448,0,0,0-1.179,0,1.375,1.375,0,0,1-1.3-.555,1.058,1.058,0,0,0-1.369-.351c-.554.22-.65.688-.648,1.219.007,1.885,0,3.769,0,5.654" transform="translate(-328.46 -167.714)" fill="#2d54fe"/>
        <path id="Trazado_786493" data-name="Trazado 786493" d="M64.884,297.4a.991.991,0,1,1,.993-.959.973.973,0,0,1-.993.959" transform="translate(-55.933 -258.6)" fill="#2d54fe"/>
        <rect id="Rectángulo_371992" data-name="Rectángulo 371992" width="9.864" height="1.915" transform="translate(8.01 20.935)" fill="#2d54fe"/>
        <rect id="Rectángulo_371993" data-name="Rectángulo 371993" width="5.885" height="1.912" transform="translate(11.97 16.946)" fill="#2d54fe"/>
        <rect id="Rectángulo_371994" data-name="Rectángulo 371994" width="4.891" height="1.913" transform="translate(7.992 12.966)" fill="#2d54fe"/>
        <rect id="Rectángulo_371995" data-name="Rectángulo 371995" width="4.885" height="1.915" transform="translate(7.998 8.986)" fill="#2d54fe"/>
        <rect id="Rectángulo_371996" data-name="Rectángulo 371996" width="2.88" height="1.931" transform="translate(14.974 12.977)" fill="#2d54fe"/>
        <rect id="Rectángulo_371997" data-name="Rectángulo 371997" width="1.912" height="1.901" transform="translate(7.992 16.963)" fill="#2d54fe"/>
      </g>
    </g>
  </g>
</svg>
