<svg xmlns="http://www.w3.org/2000/svg" width="55" height="73.699" viewBox="0 0 55 73.699">
  <g id="Grupo_1043178" data-name="Grupo 1043178" transform="translate(-66.06)">
    <path id="Trazado_773956" data-name="Trazado 773956" d="M122.907,63.488H112.572V65.2a1.768,1.768,0,0,1-1.756,1.769h-21A1.768,1.768,0,0,1,88.058,65.2V63.488H77.723a3.971,3.971,0,0,0-3.951,3.981v56.706a3.971,3.971,0,0,0,3.951,3.981h45.184a3.971,3.971,0,0,0,3.951-3.981V67.469A3.971,3.971,0,0,0,122.907,63.488Z" transform="translate(-6.728 -55.391)" fill="#ffc408"/>
    <path id="Trazado_773958" data-name="Trazado 773958" d="M149.881,167H107.035a.987.987,0,0,1-1.006-.967V116.566a.987.987,0,0,1,1.006-.967h42.846a.987.987,0,0,1,1.006.967v49.467A.987.987,0,0,1,149.881,167Z" transform="translate(-34.871 -98.173)" fill="#fff"/>
    <g id="Grupo_1028076" data-name="Grupo 1028076" transform="translate(71.158 0.979)">
      <path id="Trazado_773960" data-name="Trazado 773960" d="M238.41,11.725V9.214a1.544,1.544,0,0,0-1.54-1.54h-3.017a1.544,1.544,0,0,0-1.54,1.54v2.512Z" transform="translate(-213.207 -7.674)" fill="#fe502d"/>
    </g>
    <path id="Trazado_773962" data-name="Trazado 773962" d="M194.52,38.94H173.3a1.73,1.73,0,0,0-1.836,1.594v3.035a1.73,1.73,0,0,0,1.836,1.594H194.52a1.73,1.73,0,0,0,1.836-1.594V40.534A1.73,1.73,0,0,0,194.52,38.94Z" transform="translate(-89.809 -32.91)" fill="#fe502d"/>
    <g id="Grupo_1028077" data-name="Grupo 1028077" transform="translate(77.127 27.165)">
      <path id="Trazado_773964" data-name="Trazado 773964" d="M144.925,188.346h-.009a1.457,1.457,0,0,1-1.044-.45l-2.582-2.7a1.457,1.457,0,0,1,2.106-2.013l1.542,1.614,3.823-3.9a1.457,1.457,0,1,1,2.08,2.04l-4.876,4.973A1.458,1.458,0,0,1,144.925,188.346Z" transform="translate(-140.887 -180.46)" fill="#34cba0"/>
      <path id="Trazado_773965" data-name="Trazado 773965" d="M144.925,276.863h-.009a1.457,1.457,0,0,1-1.044-.45l-2.582-2.7A1.457,1.457,0,0,1,143.4,271.7l1.542,1.613,3.823-3.9a1.457,1.457,0,0,1,2.08,2.04l-4.876,4.973A1.458,1.458,0,0,1,144.925,276.863Z" transform="translate(-140.887 -256.589)" fill="#34cba0"/>
      <path id="Trazado_773966" data-name="Trazado 773966" d="M144.925,365.379h-.009a1.457,1.457,0,0,1-1.044-.45l-2.582-2.7a1.457,1.457,0,0,1,2.106-2.013l1.542,1.614,3.823-3.9a1.457,1.457,0,0,1,2.08,2.04l-4.876,4.973A1.457,1.457,0,0,1,144.925,365.379Z" transform="translate(-140.887 -332.717)" fill="#34cba0"/>
    </g>
    <path id="Trazado_773970" data-name="Trazado 773970" d="M144.741,173.463a2.41,2.41,0,0,0-3.413.034l-3.131,3.193-.859-.9a2.413,2.413,0,0,0-3.489,3.335l2.582,2.7a2.415,2.415,0,0,0,3.468.022l4.876-4.973A2.412,2.412,0,0,0,144.741,173.463Zm-1.333,2.073-4.876,4.973a.5.5,0,0,1-.36.15h0a.5.5,0,0,1-.358-.154l-2.582-2.7a.5.5,0,1,1,.723-.691l1.542,1.614a.957.957,0,0,0,1.375.009l3.823-3.9a.5.5,0,1,1,.714.7Z" transform="translate(-57.01 -147.401)"/>
    <path id="Trazado_773971" data-name="Trazado 773971" d="M144.741,261.989a2.413,2.413,0,0,0-3.413.033l-3.131,3.193-.859-.9a2.413,2.413,0,1,0-3.489,3.335l2.582,2.7a2.414,2.414,0,0,0,3.468.022l4.876-4.973A2.412,2.412,0,0,0,144.741,261.989Zm-1.333,2.073-4.876,4.973a.5.5,0,0,1-.719,0l-2.582-2.7a.5.5,0,0,1,.723-.691l1.542,1.614a.956.956,0,0,0,1.375.009l3.823-3.9a.5.5,0,0,1,.714.7Z" transform="translate(-57.01 -222.93)"/>
    <path id="Trazado_773972" data-name="Trazado 773972" d="M141.328,350.54l-3.131,3.193-.859-.9a2.413,2.413,0,1,0-3.489,3.335l2.582,2.7a2.429,2.429,0,0,0,1.735.746h.009a2.428,2.428,0,0,0,1.723-.724l4.876-4.973a2.413,2.413,0,0,0-3.446-3.379Zm2.08,2.039-4.876,4.973a.5.5,0,0,1-.357.15h0a.5.5,0,0,1-.361-.154l-2.582-2.7a.5.5,0,0,1,.723-.691l1.542,1.614a.959.959,0,0,0,1.375.009l3.823-3.9a.5.5,0,0,1,.714.7Z" transform="translate(-57.01 -298.449)"/>
    <path id="Trazado_773973" data-name="Trazado 773973" d="M249.455,205.613h14.065a.957.957,0,1,0,0-1.913H249.455a.957.957,0,1,0,0,1.913Z" transform="translate(-154.477 -174.278)"/>
    <path id="Trazado_773974" data-name="Trazado 773974" d="M249.455,296.631h14.065a.957.957,0,0,0,0-1.913H249.455a.957.957,0,0,0,0,1.913Z" transform="translate(-154.477 -252.149)"/>
    <path id="Trazado_773975" data-name="Trazado 773975" d="M249.455,387.648h14.065a.957.957,0,1,0,0-1.913H249.455a.957.957,0,1,0,0,1.913Z" transform="translate(-154.477 -330.02)"/>
    <path id="Trazado_773976" data-name="Trazado 773976" d="M119.973,40.067a1.083,1.083,0,0,0,1.086-1.08V13.023a5.009,5.009,0,0,0-5.018-4.989h-9.2V7.38a2.819,2.819,0,0,0-2.823-2.807H98.105V2.817A2.829,2.829,0,0,0,95.272,0H91.847a2.828,2.828,0,0,0-2.833,2.817V4.572H83.1a2.819,2.819,0,0,0-2.823,2.807v.654h-9.2a5.009,5.009,0,0,0-5.018,4.989V68.71A5.009,5.009,0,0,0,71.078,73.7h44.964a5.009,5.009,0,0,0,5.018-4.989V44.026a1.086,1.086,0,0,0-2.172,0V68.71a2.841,2.841,0,0,1-2.846,2.83H71.078a2.841,2.841,0,0,1-2.846-2.83V13.023a2.841,2.841,0,0,1,2.846-2.83h9.2V10.8A2.819,2.819,0,0,0,83.1,13.612h.408v1.923H72.791a2.058,2.058,0,0,0-2.061,2.049V67.206a2.058,2.058,0,0,0,2.061,2.049H91.025a1.08,1.08,0,1,0,0-2.159H72.9v-49.4H83.508v1.7a2.392,2.392,0,0,0,2.4,2.382h15.312a2.392,2.392,0,0,0,2.4-2.382v-1.7h10.606V67.1H96.093a1.08,1.08,0,1,0,0,2.159h18.235a2.058,2.058,0,0,0,2.061-2.049V17.584a2.058,2.058,0,0,0-2.061-2.049H103.611V13.612h.408a2.819,2.819,0,0,0,2.823-2.807V10.8s0,0,0,0v-.6h9.2a2.841,2.841,0,0,1,2.846,2.83V38.987A1.083,1.083,0,0,0,119.973,40.067ZM91.185,2.817a.668.668,0,0,1,.661-.658h3.425a.669.669,0,0,1,.662.658V4.572H91.185V2.817Zm10.254,16.577a.224.224,0,0,1-.224.223H85.9a.224.224,0,0,1-.224-.223v-1.7h15.76v1.7Zm0-3.86H85.68V13.612h15.76v1.923ZM83.11,11.452a.669.669,0,0,1-.662-.658V7.38a.658.658,0,0,1,.652-.648h20.919a.658.658,0,0,1,.652.648V10.8a.669.669,0,0,1-.661.657Z" transform="translate(0)"/>
  </g>
</svg>
