<svg xmlns="http://www.w3.org/2000/svg" xmlns:xlink="http://www.w3.org/1999/xlink" width="85" height="85" viewBox="0 0 85 85">
  <defs>
    <clipPath id="clip-path">
      <rect id="Rectángulo_371980" data-name="Rectángulo 371980" width="58" height="58" transform="translate(189 2604)" fill="#ffca00"/>
    </clipPath>
    <clipPath id="clip-path-2">
      <path id="path1182" d="M0-66H58V-8H0Z" transform="translate(0 66)" fill="#ffca00"/>
    </clipPath>
  </defs>
  <g id="Grupo_1043291" data-name="Grupo 1043291" transform="translate(-1020 -1640)">
    <circle id="Elipse_8842" data-name="Elipse 8842" cx="42.5" cy="42.5" r="42.5" transform="translate(1020 1640)" fill="#fe502d"/>
    <g id="Enmascarar_grupo_1018802" data-name="Enmascarar grupo 1018802" transform="translate(844 -951)" clip-path="url(#clip-path)">
      <g id="g1176" transform="translate(189 2604)">
        <g id="g1178">
          <g id="g1180" clip-path="url(#clip-path-2)">
            <g id="g1186" transform="translate(0.869 8.442)">
              <path id="path1188" d="M-.33-4.814A24.266,24.266,0,0,1-2.721-15.352,24.362,24.362,0,0,1,21.641-39.714a24.352,24.352,0,0,1,7.244,1.1" transform="translate(2.721 39.714)" fill="none" stroke="#ffca00" stroke-linecap="round" stroke-linejoin="round" stroke-miterlimit="10" stroke-width="1.934"/>
            </g>
            <g id="g1190" transform="translate(14.787 11.043)">
              <path id="path1192" d="M-2.953,0a24.362,24.362,0,0,1,13.4,21.762A24.362,24.362,0,0,1-13.916,46.124,24.267,24.267,0,0,1-24.36,43.778" transform="translate(24.36)" fill="none" stroke="#ffca00" stroke-linecap="round" stroke-linejoin="round" stroke-miterlimit="10" stroke-width="1.934"/>
            </g>
            <g id="g1194" transform="translate(7.36 14.933)">
              <path id="path1196" d="M-.276-3.6a17.794,17.794,0,0,1-2-8.223A17.871,17.871,0,0,1,15.6-29.693,17.871,17.871,0,0,1,33.466-11.822,17.871,17.871,0,0,1,15.6,6.049,17.793,17.793,0,0,1,7.218,3.968" transform="translate(2.276 29.693)" fill="none" stroke="#ffca00" stroke-linecap="round" stroke-linejoin="round" stroke-miterlimit="10" stroke-width="1.934"/>
            </g>
            <g id="g1198" transform="translate(13.884 21.457)">
              <path id="path1200" d="M-3.13-1.565A11.347,11.347,0,0,1-14.477,9.782,11.347,11.347,0,0,1-25.824-1.565,11.347,11.347,0,0,1-14.477-12.912,11.347,11.347,0,0,1-3.13-1.565Z" transform="translate(25.824 12.912)" fill="none" stroke="#ffca00" stroke-linecap="round" stroke-linejoin="round" stroke-miterlimit="10" stroke-width="1.934"/>
            </g>
            <g id="g1202" transform="translate(20.079 27.653)">
              <path id="path1204" d="M-1.421-.711A5.152,5.152,0,0,1-6.573,4.441,5.152,5.152,0,0,1-11.725-.711,5.152,5.152,0,0,1-6.573-5.862,5.152,5.152,0,0,1-1.421-.711Z" transform="translate(11.725 5.862)" fill="none" stroke="#ffca00" stroke-linecap="round" stroke-linejoin="round" stroke-miterlimit="10" stroke-width="1.934"/>
            </g>
            <g id="g1206" transform="translate(43.147 0.834)">
              <path id="path1208" d="M-1.21-.718-2.235-4.651a1.706,1.706,0,0,0-2.857-.776L-9.486-1.032A1.706,1.706,0,0,0-9.924.628l1.6,5.772Z" transform="translate(9.986 5.927)" fill="none" stroke="#ffca00" stroke-linecap="round" stroke-linejoin="round" stroke-miterlimit="10" stroke-width="1.934"/>
            </g>
            <g id="g1210" transform="translate(44.804 6.042)">
              <path id="path1212" d="M-.982,0,2.95,1.025a1.706,1.706,0,0,1,.776,2.857L-.668,8.276a1.705,1.705,0,0,1-1.66.438L-8.1,7.118Z" transform="translate(8.1)" fill="none" stroke="#ffca00" stroke-linecap="round" stroke-linejoin="round" stroke-miterlimit="10" stroke-width="1.934"/>
            </g>
            <g id="g1214" transform="translate(25.083 8.662)">
              <path id="path1216" d="M-3.339,0l-24.2,24.2" transform="translate(27.543)" fill="none" stroke="#ffca00" stroke-linecap="round" stroke-linejoin="round" stroke-miterlimit="10" stroke-width="1.934"/>
            </g>
            <g id="g1218" transform="translate(0.869 41.205)">
              <path id="path1220" d="M-.058-1.455A7.972,7.972,0,0,1-.479-4.02,7.98,7.98,0,0,1,7.5-12a7.981,7.981,0,0,1,7.981,7.98A7.981,7.981,0,0,1,7.5,3.961a7.952,7.952,0,0,1-5.4-2.1" transform="translate(0.479 12)" fill="none" stroke="#ffca00" stroke-linecap="round" stroke-linejoin="round" stroke-miterlimit="10" stroke-width="1.934"/>
            </g>
            <g id="g1222" transform="translate(4.223 45.545)">
              <path id="path1224" d="M-1.208-.056h0A1.539,1.539,0,0,0-3.383.031L-6.035,2.906a.288.288,0,0,1-.424,0l-.829-.9a1.543,1.543,0,0,0-2.18-.088,1.543,1.543,0,0,0-.093,2.175L-7.619,6.22a1.839,1.839,0,0,0,2.71.007L-1.12,2.119A1.539,1.539,0,0,0-1.208-.056Z" transform="translate(9.965 0.464)" fill="none" stroke="#ffca00" stroke-linecap="round" stroke-linejoin="round" stroke-miterlimit="10" stroke-width="1.934"/>
            </g>
          </g>
        </g>
      </g>
    </g>
  </g>
</svg>
