<svg xmlns="http://www.w3.org/2000/svg" xmlns:xlink="http://www.w3.org/1999/xlink" width="85" height="85" viewBox="0 0 85 85">
  <defs>
    <clipPath id="clip-path">
      <rect id="Rectángulo_371987" data-name="Rectángulo 371987" width="58" height="57.569" fill="#ffca00"/>
    </clipPath>
  </defs>
  <g id="Grupo_1043292" data-name="Grupo 1043292" transform="translate(-180 -1775)">
    <circle id="Elipse_8833" data-name="Elipse 8833" cx="42.5" cy="42.5" r="42.5" transform="translate(180 1775)" fill="#fe502d"/>
    <g id="Grupo_1043136" data-name="Grupo 1043136" transform="translate(199 1788.716)">
      <g id="Grupo_1043135" data-name="Grupo 1043135" transform="translate(0 0)" clip-path="url(#clip-path)">
        <path id="Trazado_786451" data-name="Trazado 786451" d="M36.609,5.73h-.386q-12.338,0-24.675.005a.9.9,0,0,1-.692-.264c-1-1-2.02-1.987-3-3.01A1.58,1.58,0,0,0,6.55,1.907c-1.425.044-2.853.014-4.28.014H1.936V51.862h9.337c.394,0,.381,0,.371.4-.014.494,0,.987,0,1.526h-.376q-4.979,0-9.959,0A1.179,1.179,0,0,1,0,52.475V1.31A1.155,1.155,0,0,1,1.292,0Q19.278,0,37.264,0A1.111,1.111,0,0,1,38.53,1.257c0,2.34,0,4.68.007,7.02,0,.264-.075.34-.331.34-.406,0-.81.039-1.215.066-.354.024-.38.005-.38-.341,0-.852,0-1.7,0-2.613M24.474,1.918c.558.573,1.1,1.111,1.617,1.666a.676.676,0,0,0,.545.225q4.83-.009,9.66,0h.311V1.918ZM16.688,3.8c-.439-.5-.948-1.049-1.429-1.626a.761.761,0,0,0-.671-.265c-1.406.011-2.812,0-4.218,0-.093,0-.186.009-.253.013.565.585,1.121,1.174,1.7,1.744a.632.632,0,0,0,.4.127c.624.012,1.248,0,1.872,0h2.6m1.019-1.891c.643.648,1.225,1.24,1.818,1.82a.474.474,0,0,0,.3.073q1.782.007,3.563,0c.07,0,.14-.016.244-.029-.56-.566-1.1-1.091-1.611-1.638a.682.682,0,0,0-.568-.234c-.752.012-1.5,0-2.256,0H17.707" transform="translate(0 0)" fill="#ffca00"/>
        <path id="Trazado_786452" data-name="Trazado 786452" d="M62.993,42.684c.083.2.151.383.233.558a2.789,2.789,0,0,1-1.32,3.684.631.631,0,0,0-.4.686c.013,2.39.012,4.78.014,7.169,0,1.636-.054,3.274.02,4.907a2.858,2.858,0,0,1-5.692.426,4.644,4.644,0,0,1-.059-.739q-.008-5.978-.007-11.958V47.1a2.584,2.584,0,0,1-1.947-1.731,2.865,2.865,0,0,1,.305-2.583c-.534-.207-1.05-.371-1.536-.6a14.214,14.214,0,0,1-8.36-10.758,12.867,12.867,0,0,1-.183-4.021,13.384,13.384,0,0,1,1.5-4.877,14.894,14.894,0,0,1,6.326-6.3,12.643,12.643,0,0,1,4.581-1.362,19.181,19.181,0,0,1,3.016-.171A14.3,14.3,0,0,1,69.8,19.906a13.786,13.786,0,0,1,3.1,6.686,14.434,14.434,0,0,1-9.332,15.992,1.774,1.774,0,0,1-.288.07c-.083.015-.17.019-.283.03M58.68,41.421v.011a1.831,1.831,0,0,1,.208,0,10.1,10.1,0,0,0,2.73-.259,8.171,8.171,0,0,0,1.261-.415,11.529,11.529,0,0,0,4.448-2.72,11.9,11.9,0,0,0,3.678-7.233,8.69,8.69,0,0,0,.158-2.385c-.148-.944-.25-1.9-.488-2.824a11.8,11.8,0,0,0-.845-2.115A11.775,11.775,0,0,0,65.144,18.4a12.75,12.75,0,0,0-10.1-1.292,11.679,11.679,0,0,0-5.32,3.069,12.232,12.232,0,0,0-3.459,6.336,13.758,13.758,0,0,0-.248,2.771,11.008,11.008,0,0,0,.484,3.3,12.362,12.362,0,0,0,1.579,3.372,12.523,12.523,0,0,0,3.508,3.464A10.924,10.924,0,0,0,55,40.967a19.654,19.654,0,0,0,2.046.44,12.527,12.527,0,0,0,1.632.014M59.545,56.9a.6.6,0,0,0,.028-.105q0-4.637,0-9.273c0-.179-.081-.215-.237-.212-.427.007-.852.018-1.277,0-.271-.013-.354.069-.353.348.009,2.972,0,5.945,0,8.917V56.9Z" transform="translate(-15.117 -5.046)" fill="#ffca00"/>
        <path id="Trazado_786453" data-name="Trazado 786453" d="M37.243,16.856,10.06,23.261,18.7,59.7l1.324-.309c1.318-.305,2.639-.605,3.956-.918.826-.2,1.646-.418,2.472-.614.518-.123,1.043-.213,1.562-.331.451-.1.9-.228,1.347-.335.537-.129,1.076-.246,1.613-.373.487-.116.973-.238,1.458-.358.382-.094.761-.2,1.145-.284.5-.112,1-.209,1.5-.316.375-.081.75-.159,1.122-.251.824-.205,1.643-.424,2.467-.629q1.077-.269,2.16-.513a.261.261,0,0,1,.225.11c.148.572.277,1.148.4,1.682-.65.182-1.269.369-1.9.529-.454.116-.918.192-1.376.294s-.918.224-1.379.328c-.891.2-1.782.4-2.674.6-.463.1-.927.2-1.389.31-1.269.3-2.536.6-3.8.9q-2.51.595-5.022,1.185-2.83.665-5.661,1.33a.943.943,0,0,1-1.184-.709c-.194-.806-.36-1.619-.555-2.425-.1-.429-.261-.846-.368-1.274-.131-.524-.234-1.054-.35-1.581-.081-.364-.161-.729-.251-1.091-.206-.833-.425-1.662-.627-2.5s-.39-1.671-.585-2.507q-.388-1.659-.776-3.317c-.291-1.231-.587-2.46-.879-3.692q-.742-3.13-1.481-6.262-1.33-5.613-2.662-11.226c-.18-.759-.37-1.517-.538-2.279a.993.993,0,0,1,.852-1.305c1.856-.436,3.713-.866,5.568-1.3q5.653-1.334,11.306-2.674,4.284-1.012,8.568-2.02c.74-.175,1.475-.367,2.217-.528a.4.4,0,0,1,.325.153,1.366,1.366,0,0,1,.156.444c.079.3.151.61.22.917a2.891,2.891,0,0,1,.035.3" transform="translate(-2.735 -5.17)" fill="#ffca00"/>
        <path id="Trazado_786454" data-name="Trazado 786454" d="M18.961,30.3c.061.34.1.627.166.909.07.316.159.627.238.94.126.5.256.992.375,1.49.135.565.267,1.131.387,1.7.089.423.154.472.582.371l9.4-2.213c.74-.174,1.479-.35,2.222-.5a.329.329,0,0,1,.28.154c.123.508.224,1.021.308,1.538.008.052-.143.17-.236.193-.758.188-1.521.36-2.281.539q-5.241,1.232-10.483,2.466a.954.954,0,0,1-1.334-.784c-.172-.658-.3-1.327-.456-1.989-.182-.759-.381-1.513-.564-2.271-.245-1.019-.49-2.037-.717-3.06a.912.912,0,0,1,.692-1.163c.63-.161,1.26-.321,1.893-.471.7-.165,1.4-.312,2.1-.475,1.357-.316,2.711-.639,4.067-.958q3.045-.716,6.09-1.431c.356-.084.71-.173,1.063-.27.224-.062.34-.03.391.236.083.434.223.858.328,1.288.083.34.047.35-.284.409-.474.084-.94.211-1.41.32-.573.132-1.147.259-1.717.4-.535.131-1.064.283-1.6.41-.465.11-.935.2-1.4.294-.048.01-.1.009-.146.021-.5.132-1,.276-1.507.4-.475.113-.956.2-1.435.3-.029.006-.06,0-.089.009-.5.137-.995.285-1.5.408-.476.117-.96.2-1.437.312-.678.16-1.352.334-1.984.492" transform="translate(-5.78 -8.587)" fill="#ffca00"/>
        <path id="Trazado_786455" data-name="Trazado 786455" d="M45.4,59.084c.045.046.158.108.182.194.131.467.242.938.356,1.409.053.217-.11.24-.259.275q-1.487.347-2.976.7L26.238,65.531c-.2.047-.408.087-.6.152s-.271-.021-.31-.195c-.094-.425-.182-.852-.295-1.272-.066-.247,0-.351.253-.41q3.917-.908,7.829-1.833,4.375-1.031,8.748-2.068l3.262-.77c.067-.016.136-.026.277-.051" transform="translate(-8.595 -20.309)" fill="#ffca00"/>
        <path id="Trazado_786456" data-name="Trazado 786456" d="M40.647,54.632c.116.541.2,1.017.326,1.481.079.289-.022.4-.284.455-.356.075-.709.164-1.064.247q-4.227.984-8.455,1.969-3.377.791-6.751,1.6c-.39.093-.4.092-.5-.307s-.182-.79-.293-1.179c-.057-.2-.01-.28.2-.327,1.069-.243,2.136-.5,3.2-.752,1.191-.284,2.382-.573,3.573-.853,1.143-.268,2.288-.526,3.431-.793q1.483-.347,2.962-.706c.593-.144,1.182-.306,1.777-.442.618-.14,1.242-.259,1.876-.389" transform="translate(-8.114 -18.778)" fill="#ffca00"/>
        <path id="Trazado_786457" data-name="Trazado 786457" d="M26.3,70.06c.564-.14,1.126-.287,1.69-.419q4.676-1.1,9.354-2.2c1.809-.425,3.619-.849,5.424-1.288.292-.071.4.036.463.287.093.394.182.788.285,1.179.068.26-.088.333-.287.38q-1.516.356-3.031.711-3.218.76-6.435,1.521-2.669.629-5.338,1.253c-.509.119-1.02.231-1.526.36-.157.04-.232.035-.266-.15-.1-.524-.211-1.044-.333-1.638" transform="translate(-9.041 -22.732)" fill="#ffca00"/>
        <path id="Trazado_786458" data-name="Trazado 786458" d="M37.717,51.475a.918.918,0,0,1-.215.109c-.572.134-1.147.26-1.721.389-.028.007-.054.026-.083.031-.518.1-1.04.188-1.554.305-.458.1-.908.245-1.363.365-.16.043-.326.065-.486.107-.186.049-.366.121-.553.161s-.386.04-.575.08a2.552,2.552,0,0,0-.392.142c-.062.024-.122.079-.184.08a10.22,10.22,0,0,0-2.059.445c-.488.111-.982.19-1.472.293q-.545.114-1.087.251c-.831.209-1.66.429-2.493.637a3.609,3.609,0,0,1-.612.1.256.256,0,0,1-.208-.129c-.134-.474-.257-.953-.362-1.435-.016-.075.066-.179.119-.259.023-.033.087-.045.135-.054.539-.11,1.079-.213,1.616-.327.354-.076.7-.17,1.057-.255s.689-.169,1.034-.251q2-.473,4-.947,2.289-.546,4.577-1.1c.739-.179,1.477-.363,2.219-.53.079-.018.246.045.261.1.14.536.257,1.077.4,1.69" transform="translate(-7.664 -17.077)" fill="#ffca00"/>
        <path id="Trazado_786459" data-name="Trazado 786459" d="M29.9,48.118c-.127-.551-.249-1.06-.362-1.571-.033-.153-.032-.27.186-.32,2.477-.566,4.951-1.146,7.425-1.721.087-.02.175-.036.261-.056.466-.107.462-.106.56.346.075.348.142.7.247,1.038.084.27-.005.37-.262.429-1.223.282-2.443.578-3.665.868q-1.976.469-3.953.933c-.132.031-.27.035-.44.056" transform="translate(-10.148 -15.258)" fill="#ffca00"/>
        <path id="Trazado_786460" data-name="Trazado 786460" d="M23.728,48.469c.58-.138,1.123-.274,1.67-.389a.274.274,0,0,1,.227.14c.131.476.249.955.342,1.439.014.075-.112.234-.2.261-.462.138-.931.252-1.4.358a.235.235,0,0,1-.2-.1c-.154-.567-.29-1.138-.432-1.712" transform="translate(-8.156 -16.526)" fill="#ffca00"/>
        <path id="Trazado_786461" data-name="Trazado 786461" d="M60.678,41.534a8.23,8.23,0,0,1-3.013-.363,10.06,10.06,0,0,1-6.571-5.234,10.874,10.874,0,0,1-.889-2.19,9.14,9.14,0,0,1-.295-3.762A10.774,10.774,0,0,1,68.5,23.862a9.652,9.652,0,0,1,2.187,3.632,6.451,6.451,0,0,1,.4,1.261,9.128,9.128,0,0,1,.177,3.407c-.175.655-.207,1.353-.419,1.992a11.98,11.98,0,0,1-.942,2.137,10.286,10.286,0,0,1-5.076,4.48,8.379,8.379,0,0,1-4.15.761M51.867,31.147a5.762,5.762,0,0,0,.238,2.12c.065.228.138.455.225.675a8.148,8.148,0,0,0,5.5,5.225,10.9,10.9,0,0,0,3.214.455,8.2,8.2,0,0,0,4.8-1.651,8.539,8.539,0,0,0,3.121-9.483,8.317,8.317,0,0,0-6.141-5.795,9.169,9.169,0,0,0-5.646.376,8.389,8.389,0,0,0-5.314,8.079" transform="translate(-17.129 -7.02)" fill="#ffca00"/>
      </g>
    </g>
  </g>
</svg>
