<svg xmlns="http://www.w3.org/2000/svg" xmlns:xlink="http://www.w3.org/1999/xlink" width="85" height="85" viewBox="0 0 85 85">
  <defs>
    <clipPath id="clip-path">
      <rect id="Rectángulo_371999" data-name="Rectángulo 371999" width="47.068" height="57.906" fill="#ffca00"/>
    </clipPath>
  </defs>
  <g id="Grupo_1043293" data-name="Grupo 1043293" transform="translate(-600 -1775)">
    <circle id="Elipse_8835" data-name="Elipse 8835" cx="42.5" cy="42.5" r="42.5" transform="translate(600 1775)" fill="#2d54fe"/>
    <g id="Grupo_1043146" data-name="Grupo 1043146" transform="translate(620.001 1790.422)">
      <g id="Grupo_1043145" data-name="Grupo 1043145" transform="translate(0 0)" clip-path="url(#clip-path)">
        <path id="Trazado_786494" data-name="Trazado 786494" d="M37.912,5.357V26.38c-.5,0-1,.006-1.5-.008-.046,0-.122-.125-.127-.2-.022-.278-.027-.558-.028-.838q0-8.243,0-16.486c0-.419.015-.838.02-1.257,0-.136,0-.273,0-.424H1.785V45.382H12.6v.327q0,5.127-.011,10.255c0,.257.125.257.31.257,1.776-.006,3.551-.015,5.327,0a.914.914,0,0,0,.723-.305c1.942-1.94,3.9-3.864,5.846-5.8a.846.846,0,0,1,.669-.268c.566.016,1.132,0,1.74,0v-.307q0-5.882,0-11.764a.592.592,0,0,0-.188-.466q-1.865-1.826-3.721-3.66c-.177-.174-.347-.446-.55-.476s-.41.216-.62.333a6.532,6.532,0,0,1-4.72.765,8.843,8.843,0,0,1-6.391-5.38,20.2,20.2,0,0,1-1.241-3.952,37.007,37.007,0,0,1-.606-4.132,25.171,25.171,0,0,1-.018-2.676,24.348,24.348,0,0,1,6.374.514c-.024.074-.044.147-.074.243a1.207,1.207,0,0,0,.173.057,15.036,15.036,0,0,1,5.54,2A8.354,8.354,0,0,1,25.1,26.479a6.535,6.535,0,0,1-1.049,5.293c-.033.045-.06.092-.1.156L27.2,35.15V29.086h1.671V44.172q1.626-1.659,3.193-3.255a16.158,16.158,0,0,1-.838-1.7,6.885,6.885,0,0,1,.35-5.471,9.136,9.136,0,0,1,4.646-4.461,19.742,19.742,0,0,1,5.765-1.62,29.4,29.4,0,0,1,5.078-.338c-.019.435-.028.879-.06,1.321-.067.9-.107,1.8-.23,2.7A24.911,24.911,0,0,1,45.4,37.185a10.564,10.564,0,0,1-2.948,4.339,8.18,8.18,0,0,1-4.078,1.859,7.571,7.571,0,0,1-3.089-.238c-.2-.052-.275-.125-.179-.352a6.019,6.019,0,0,0,.334-1c.056-.242.153-.291.387-.252a9.963,9.963,0,0,0,1.541.2,6.157,6.157,0,0,0,3.406-1.065,7.689,7.689,0,0,0,2.885-3.7,18.975,18.975,0,0,0,1.2-4.427c.166-1.043.244-2.1.359-3.153.01-.091,0-.184,0-.317-.208,0-.4-.016-.59,0a25.835,25.835,0,0,0-6.756,1.333,8.734,8.734,0,0,0-3.636,2.3A6.438,6.438,0,0,0,32.6,36.075a5.081,5.081,0,0,0,.571,3.4c.158.268.182.271.4.048q2.266-2.253,4.526-4.512c.151-.152.251-.183.408-.022.318.325.647.639,1,.982-.134.143-.242.266-.358.382q-2.613,2.615-5.229,5.23-2.382,2.375-4.774,4.739a.752.752,0,0,0-.244.588q.008,1.34-.024,2.682c0,.219.064.269.267.265.549-.012,1.1-.017,1.646,0a.7.7,0,0,1,.433.177q2.442,2.414,4.865,4.846c.043.043.1.077.2.156,0-.225,0-.4,0-.566q-.013-4.443-.033-8.885c0-.213.073-.274.276-.269.352.01.707,0,1.059-.013.245-.013.342.054.34.325-.012,1.574-.007,3.148-.007,4.722v.359h3.77v-.323c0-2.18,0-4.359-.008-6.538,0-.27.081-.368.341-.358.343.013.687.024,1.03.012.242-.008.32.075.316.323-.013,1.276-.01,2.551-.01,3.828,0,1.528,0,3.055.008,4.582,0,.237-.075.3-.3.3-1.608-.008-3.217,0-4.825,0h-.322V57.9h-.313q-12.927,0-25.854,0a.692.692,0,0,1-.537-.223Q5.708,52.2.2,46.716a.81.81,0,0,1-.174-.523Q0,42.856,0,39.517,0,23.33,0,7.144V5.38H5.489c.008-.1.019-.175.019-.246,0-1.62,0-3.241-.008-4.862C5.5.033,5.587,0,5.791,0c1.273.008,2.547,0,3.82,0Q26.305,0,43,0c.251,0,.377.019.377.335q-.017,10.758-.011,21.516c0,1.108,0,2.216.008,3.325,0,.249-.076.325-.32.316-.435-.017-.871,0-1.358,0v-.377q0-11.5,0-23c0-.372,0-.376-.352-.376l-23.065,0q-5.3,0-10.6,0c-.611,0-.505-.043-.506.5,0,.932.011,1.863-.006,2.794-.006.273.071.342.338.341q10.77-.012,21.539-.01l8.479,0h.39m-15.2,25.4c.116-.172.178-.251.227-.337a4.657,4.657,0,0,0,.62-2.376,6.464,6.464,0,0,0-2.344-4.987,9.507,9.507,0,0,0-2.662-1.542,12.717,12.717,0,0,0-1.388-.476c-.406-.12-.824-.2-1.238-.3a11.753,11.753,0,0,0-1.645-.361,14.6,14.6,0,0,0-2.675-.24,3.866,3.866,0,0,1-.738-.069c0,.1,0,.192,0,.282a24.3,24.3,0,0,0,.55,4.281,25.331,25.331,0,0,0,.846,2.884,7.666,7.666,0,0,0,3.3,4.283,5.672,5.672,0,0,0,5.581.37c.129-.062.25-.143.413-.238-.132-.138-.229-.246-.332-.348Q19,29.363,16.776,27.151c-.147-.145-.147-.248,0-.39.242-.23.477-.47.7-.718.3-.334.27-.287.573.011q1.584,1.552,3.146,3.127c.5.5.976,1.019,1.506,1.573M34.815,56.168l.029-.071c-.066-.076-.128-.156-.2-.226-1.334-1.336-2.664-2.675-4.009-4a.766.766,0,0,0-.483-.2c-1.346-.017-2.693,0-4.04-.021a1.016,1.016,0,0,0-.806.328c-1.317,1.326-2.647,2.639-3.972,3.957-.056.055-.1.119-.2.231ZM10.893,47.1H3.116l7.777,7.852Z" transform="translate(0 0)" fill="#ffca00"/>
        <path id="Trazado_786495" data-name="Trazado 786495" d="M25.926,17.329H7.847c0-.524-.006-1.033.01-1.54,0-.05.138-.133.215-.136.4-.013.8-.006,1.2-.006l15.641,0c.269,0,.54-.007.808.018.074.007.2.114.2.179.017.482.009.966.009,1.482" transform="translate(-2.415 -4.816)" fill="#ffca00"/>
        <path id="Trazado_786496" data-name="Trazado 786496" d="M18.681,22.527H7.844c0-.512-.007-.995.008-1.476,0-.062.109-.161.18-.173a2.68,2.68,0,0,1,.472-.01q4.724.007,9.449.016c.727,0,.727.008.727.731v.913" transform="translate(-2.414 -6.421)" fill="#ffca00"/>
      </g>
    </g>
  </g>
</svg>
