<svg xmlns="http://www.w3.org/2000/svg" xmlns:xlink="http://www.w3.org/1999/xlink" width="85" height="85" viewBox="0 0 85 85">
  <defs>
    <clipPath id="clip-path">
      <rect id="Rectángulo_372004" data-name="Rectángulo 372004" width="54.672" height="54.438" fill="#2d54fe"/>
    </clipPath>
  </defs>
  <g id="Grupo_1043294" data-name="Grupo 1043294" transform="translate(-1020 -1775)">
    <circle id="Elipse_8836" data-name="Elipse 8836" cx="42.5" cy="42.5" r="42.5" transform="translate(1020 1775)" fill="#ffca00"/>
    <g id="Grupo_1043155" data-name="Grupo 1043155" transform="translate(1034.219 1792.984)">
      <g id="Grupo_1043154" data-name="Grupo 1043154" transform="translate(0 0)" clip-path="url(#clip-path)">
        <path id="Trazado_786532" data-name="Trazado 786532" d="M15.838,54.438c0-.666.021-1.29-.007-1.912-.022-.506-.1-1.01-.164-1.513-.007-.055-.125-.135-.192-.136q-3.139-.013-6.278-.008c-1.794,0-3.588.02-5.382.03-.06,0-.121-.006-.221-.01,0-.223,0-.439,0-.655a1.729,1.729,0,0,0-.519-1.31c-.363-.343-.767-.641-1.141-.974A9.829,9.829,0,0,1,.751,46.83a3.219,3.219,0,0,1,.163-4.284,16.179,16.179,0,0,1,1.372-1.188,9.386,9.386,0,0,0,.812-.711,1.541,1.541,0,0,0-.016-2.261c-.328-.339-.719-.617-1.08-.924-.327-.279-.663-.55-.974-.846A3.281,3.281,0,0,1,.012,34.152C0,27.076-.014,20,.022,12.926A9.089,9.089,0,0,1,1.733,7.75,9.543,9.543,0,0,1,7.345,3.86c.564-.147,1.16-.17,1.738-.265a.6.6,0,0,0,.333-.166A9.765,9.765,0,0,1,15.357.147,10.163,10.163,0,0,1,16.906.021c2.313-.013,4.627-.043,6.939,0A13.321,13.321,0,0,1,36.909,11.362a11.044,11.044,0,0,1,.127,1.706q.016,7.435.006,14.871c0,.154,0,.268.207.288a7.161,7.161,0,0,1,3.446,1.344,7.708,7.708,0,0,1,3.357,5.752,7.584,7.584,0,0,1-1.96,5.872A7.67,7.67,0,0,1,39.106,43.3a.362.362,0,0,0-.269.4q.013,3.954,0,7.91a2.729,2.729,0,0,1-2.117,2.736,3.211,3.211,0,0,1-.7.084q-9.96.007-19.919,0Zm19.4-26.269c.005-.1.014-.18.014-.258,0-4.912,0-9.824-.018-14.736a12,12,0,0,0-.223-2.354,11.138,11.138,0,0,0-4.25-6.706,10.869,10.869,0,0,0-6.526-2.293c-2.276-.059-4.554-.023-6.832-.02-.509,0-1.02.018-1.526.066A7.618,7.618,0,0,0,10.85,4.449a.482.482,0,0,0-.072.37,5.09,5.09,0,0,0,.209.623c.394,1.17.79,2.339,1.179,3.511.181.547.352,1.1.52,1.65.05.165.125.213.307.185a11.58,11.58,0,0,1,1.717-.223c2.55-.024,5.1-.006,7.649-.013a7.9,7.9,0,0,1,2.209.323,9.7,9.7,0,0,1,6.143,4.977,9.931,9.931,0,0,1,.936,2.86,9.37,9.37,0,0,1,.084,1.682c0,2.952-.005,5.9-.008,8.857,0,.057.011.114.022.209a7.586,7.586,0,0,1,3.5-1.291M10.224,49.156l.044-.065a4.787,4.787,0,0,0-.394-.4c-.435-.357-.884-.7-1.318-1.053a3.662,3.662,0,0,1-1.483-2.572,3.33,3.33,0,0,1,1.243-2.91c.451-.392.938-.741,1.4-1.124a1.853,1.853,0,0,0,.814-1.244,10.765,10.765,0,0,0,.017-1.105.31.31,0,0,0-.136-.2A11.657,11.657,0,0,1,7.3,35.39a11.1,11.1,0,0,1-2.019-6.242c-.037-3.031-.017-6.064-.006-9.1a9.232,9.232,0,0,1,.985-4.026,9.485,9.485,0,0,1,4.672-4.567c.142-.066.174-.135.123-.285-.262-.754-.514-1.511-.767-2.268q-.569-1.7-1.134-3.394c-.044-.133-.084-.251-.266-.215-.42.085-.852.13-1.259.254a11.047,11.047,0,0,0-1.416.553,7.6,7.6,0,0,0-3.28,2.989A7.99,7.99,0,0,0,1.8,13.411Q1.8,23.733,1.786,34.056a1.885,1.885,0,0,0,.685,1.55c.114.1.23.191.343.288a17.051,17.051,0,0,1,1.665,1.45,3.16,3.16,0,0,1,.658,3.216,3.845,3.845,0,0,1-1.359,1.834c-.443.36-.9.7-1.342,1.064a1.692,1.692,0,0,0,.026,2.676c.362.292.726.582,1.1.865a4.118,4.118,0,0,1,1.579,2.02c.021.066.17.131.26.131.923.01,1.847.006,2.77.006h2.056M7.092,28.065l-.078.032c.038.619.061,1.239.117,1.856a9.078,9.078,0,0,0,1.814,4.731,9.388,9.388,0,0,0,7.786,3.926c1.354.01,2.708,0,4.062,0a4.449,4.449,0,0,0,.448-.016,9.446,9.446,0,0,0,6.173-3.079,4.923,4.923,0,0,0,1.295-2.136,4.679,4.679,0,0,1,.549-1.219,4.144,4.144,0,0,0,.556-1.426,15.579,15.579,0,0,0,.158-2.69c-.1.078-.162.12-.216.17a6.111,6.111,0,0,1-9-.715,5.963,5.963,0,0,1-.338-7.1.224.224,0,0,0-.043-.336,2.73,2.73,0,0,0-3.436-.188c-.38.334-.395.317-.132.764a6.14,6.14,0,0,1-9.01,7.977c-.237-.179-.466-.369-.7-.553m.013-8.723a6.264,6.264,0,0,1,8.267-.41.284.284,0,0,0,.044-.033,4.322,4.322,0,0,1,5.983-.228.428.428,0,0,0,.64.038,5.948,5.948,0,0,1,3.293-1.125,6.032,6.032,0,0,1,3.983,1.272c.206.159.41.322.615.484a3.868,3.868,0,0,0-.118-.783,7.414,7.414,0,0,0-1.59-3.28,7.9,7.9,0,0,0-6.443-2.963c-2.277.014-4.556-.015-6.832.013a8.411,8.411,0,0,0-1.9.241A7.724,7.724,0,0,0,8.421,15.8a8.05,8.05,0,0,0-1.316,3.544M28.216,50.1h0V48.2c0-.7,0-.714-.712-.7a.959.959,0,0,1-.763-.266c-1.185-1.188-2.38-2.367-3.569-3.551-.778-.775-1.546-1.56-2.328-2.33a2.9,2.9,0,0,0-3.5-.564,2.827,2.827,0,0,0-.53,4.539q3.258,3.244,6.517,6.488a2.67,2.67,0,0,0,1.985.818c.879-.008,1.758,0,2.637.005.209,0,.273-.07.271-.276-.01-.755,0-1.511,0-2.266m7.93-20.189a6.126,6.126,0,1,0-.015,12.252,6.127,6.127,0,1,0,.015-12.252m-6.178-6.225a4.394,4.394,0,1,0-4.406,4.392,4.307,4.307,0,0,0,4.406-4.392m-14.122.182a4.312,4.312,0,0,0-1.317-3.323,4.43,4.43,0,0,0-3.925-1.1A4.1,4.1,0,0,0,8.294,20.7a4.172,4.172,0,0,0-1.216,3.021,4.344,4.344,0,0,0,4.4,4.358,4.266,4.266,0,0,0,4.368-4.211M12.378,39.582c0,.02-.012.07-.022.121a7.375,7.375,0,0,1-.241,1.071,4.426,4.426,0,0,1-1.558,1.849A11.613,11.613,0,0,0,9.27,43.706a1.557,1.557,0,0,0-.011,2.153,6.078,6.078,0,0,0,.826.73,5.461,5.461,0,0,1,2.1,2.4c.055.155.17.17.312.168.835,0,1.67,0,2.5,0,.069,0,.137-.009.237-.016-.04-.125-.078-.229-.108-.335-.253-.883-.541-1.759-.747-2.653a12.548,12.548,0,0,1-.252-2.927,4.408,4.408,0,0,1,.566-2.159c.142-.254.313-.493.457-.717l-2.773-.768M29.56,45.615a.839.839,0,0,0,.168.033c1.2,0,2.391-.007,3.586,0,.174,0,.2-.078.2-.225,0-.579.022-1.159.013-1.738a.392.392,0,0,0-.171-.279c-.187-.11-.4-.168-.6-.266A7.853,7.853,0,0,1,28.412,37.6c-.031-.138-.075-.273-.11-.4L26.2,38.814c.143.119.291.253.45.373.574.436,1.162.852,1.724,1.3a3.992,3.992,0,0,1,1.556,3.978,8.047,8.047,0,0,1-.365,1.147m4.024,1.87a.906.906,0,0,0-.027.139q0,2.425,0,4.848c0,.168.07.206.223.2.756-.007,1.511-.006,2.267-.007a.881.881,0,0,0,1.006-1c0-.782,0-1.564-.005-2.345,0-.333.01-.668,0-1-.015-.4-.319-.83-.6-.834-.947-.012-1.894,0-2.858,0M22.327,40.24a3.089,3.089,0,0,0,.194.243q2.374,2.362,4.747,4.723c.164.164.256.147.392-.024a2.232,2.232,0,0,0-.393-3.281c-.874-.68-1.765-1.338-2.637-2.02a.555.555,0,0,0-.581-.1c-.257.087-.519.163-.781.232-.294.078-.592.143-.94.226m-.884,12.392L16.667,47.8c.057.176.093.29.132.4a14.778,14.778,0,0,1,.832,4.105c.016.294.115.344.373.339.755-.016,1.511-.008,2.267-.01h1.173M35.3,43.918c0,.515.005,1,0,1.479,0,.171.057.22.228.23.419.024.839.059,1.254.124.206.032.269,0,.262-.213-.013-.457,0-.914-.008-1.371,0-.083-.01-.166-.016-.249Z" transform="translate(0 0)" fill="#2d54fe"/>
        <path id="Trazado_786533" data-name="Trazado 786533" d="M75.344.055V24.224c0,.374,0,.374-.375.375q-7.6,0-15.2.014c-.227,0-.276-.07-.275-.285Q59.5,12.912,59.5,1.5V.055Zm-1.772,22.75v-.574q0-9.558,0-19.116c0-.378,0-.756,0-1.133,0-.135-.032-.187-.179-.179-.255.013-.51,0-.765,0l-10.738,0h-.673V22.805Z" transform="translate(-20.672 -0.019)" fill="#2d54fe"/>
        <path id="Trazado_786534" data-name="Trazado 786534" d="M76.245,76.888H62.133v-5.25h1.776c.007-.111.015-.194.015-.278,0-.984,0-1.968-.01-2.952,0-.225.062-.311.3-.3.482.018.965.005,1.479.005V64.651H76.245Zm-1.771-3.509c-.061-.006-.1-.013-.144-.013-2.082-.012-4.165-.029-6.247-.031-1.31,0-2.618.023-3.927.029-.174,0-.256.039-.246.236.016.289,0,.579,0,.869,0,.216-.06.514.053.625s.412.045.628.045q4.705,0,9.411,0h.47ZM65.721,71.6h8.768V69.962H65.721Zm1.728-5.245c0,.532.008,1.031,0,1.53,0,.191.066.246.245.239.306-.013.614-.014.922-.014,1.87,0,3.741-.009,5.611,0,.2,0,.279-.046.269-.262-.018-.377-.01-.755,0-1.132.01-.356.018-.356-.325-.356H67.449Z" transform="translate(-21.588 -22.462)" fill="#2d54fe"/>
        <path id="Trazado_786535" data-name="Trazado 786535" d="M73.891,43.108a.931.931,0,0,1,.882.878.969.969,0,0,1-.893.844.862.862,0,0,1-.837-.87.842.842,0,0,1,.848-.852" transform="translate(-25.378 -14.977)" fill="#2d54fe"/>
        <path id="Trazado_786536" data-name="Trazado 786536" d="M80.1,43.98a.877.877,0,0,1-.864.848,1,1,0,0,1-.877-.869.959.959,0,0,1,.91-.855.863.863,0,0,1,.831.875" transform="translate(-27.227 -14.976)" fill="#2d54fe"/>
        <path id="Trazado_786537" data-name="Trazado 786537" d="M69.328,43.973a.859.859,0,1,1-1.718-.023.859.859,0,0,1,1.718.023" transform="translate(-23.491 -14.976)" fill="#2d54fe"/>
        <path id="Trazado_786538" data-name="Trazado 786538" d="M36.063,35.829v0c.211,0,.422-.01.632,0,.181.012.251-.044.245-.234a4.731,4.731,0,0,1,.029-.866.836.836,0,0,1,1.121-.591.946.946,0,0,1,.569.878c0,.193.008.386.007.579,0,.15.058.23.217.229.466,0,.932.007,1.4-.009a.267.267,0,0,0,.187-.181,5.158,5.158,0,0,0-.029-1.025,2.642,2.642,0,0,0-2.744-2.28,2.507,2.507,0,0,0-2.061,1.126,3.387,3.387,0,0,0-.447,2.219c0,.05.122.136.192.142.227.018.457.007.685.007" transform="translate(-12.224 -11.234)" fill="#2d54fe"/>
        <path id="Trazado_786539" data-name="Trazado 786539" d="M29.688,10.71a1.512,1.512,0,0,1,.184-.027c1.414.016,2.832-.03,4.242.063a10.979,10.979,0,0,1,8.163,4.221,20.683,20.683,0,0,1,1.374,2.206c.1.166.07.292-.127.372-.4.161-.792.335-1.189.5-.131.054-.238.072-.311-.109a8.094,8.094,0,0,0-2.058-2.893,8.8,8.8,0,0,0-3.707-2.135,10.565,10.565,0,0,0-2.279-.352c-1.325-.057-2.653-.023-3.981-.012-.247,0-.322-.074-.315-.313.013-.507,0-1.014,0-1.52" transform="translate(-10.313 -3.712)" fill="#2d54fe"/>
        <path id="Trazado_786540" data-name="Trazado 786540" d="M21.69,12.51V10.7c.08-.008.147-.02.215-.02,1,0,2,.006,3.006,0,.206,0,.282.064.277.271-.01.448-.005.9,0,1.344,0,.164-.06.24-.232.24-1.055,0-2.11,0-3.164,0a.546.546,0,0,1-.1-.027" transform="translate(-7.536 -3.71)" fill="#2d54fe"/>
        <path id="Trazado_786541" data-name="Trazado 786541" d="M25.85,51.4a5.426,5.426,0,0,1-5.041-2.943c-.143-.29-.254-.6-.384-.893-.1-.224-.007-.36.209-.418.388-.105.781-.2,1.171-.294.166-.042.242,0,.3.183a3.661,3.661,0,0,0,5.4,2.091A4.047,4.047,0,0,0,29,47.368a.525.525,0,0,0,.035-.1c.121-.481.147-.488.619-.348.3.089.613.15.92.221a.249.249,0,0,1,.219.341,4.281,4.281,0,0,1-.815,1.694,5.483,5.483,0,0,1-3.034,2.064,10.274,10.274,0,0,1-1.091.164" transform="translate(-7.083 -16.275)" fill="#2d54fe"/>
        <path id="Trazado_786542" data-name="Trazado 786542" d="M57.449,52.86a4.386,4.386,0,0,1-8.771-.01,4.386,4.386,0,0,1,8.771.01m-6.968-.016a2.537,2.537,0,0,0,2.541,2.617,2.611,2.611,0,0,0,2.7-2.632,2.68,2.68,0,0,0-2.681-2.621,2.578,2.578,0,0,0-2.565,2.636" transform="translate(-16.913 -16.842)" fill="#2d54fe"/>
        <path id="Trazado_786543" data-name="Trazado 786543" d="M36.063,35.829c-.228,0-.458.012-.685-.007-.07-.006-.191-.093-.192-.142a3.387,3.387,0,0,1,.447-2.219,2.507,2.507,0,0,1,2.061-1.126,2.642,2.642,0,0,1,2.744,2.28,5.158,5.158,0,0,1,.029,1.025.267.267,0,0,1-.187.181c-.465.016-.931.007-1.4.009-.159,0-.218-.079-.217-.229,0-.193-.007-.386-.007-.579a.946.946,0,0,0-.569-.878.836.836,0,0,0-1.121.591,4.731,4.731,0,0,0-.029.866c.005.191-.064.246-.245.234-.21-.014-.422,0-.632,0Z" transform="translate(-12.224 -11.234)" fill="#2d54fe"/>
        <path id="Trazado_786544" data-name="Trazado 786544" d="M17.943,35.823c-.211,0-.422-.01-.632,0s-.28-.06-.275-.271a3.148,3.148,0,0,0-.052-.756.885.885,0,0,0-.9-.724.947.947,0,0,0-.8.88,5.4,5.4,0,0,0-.007.658c.006.156-.04.221-.207.217-.448-.01-.9,0-1.344-.013-.069,0-.192-.088-.194-.14a3.073,3.073,0,0,1,.619-2.4,2.632,2.632,0,0,1,4.435.608,3.253,3.253,0,0,1,.268,1.8c-.005.054-.12.135-.188.14-.236.018-.474.007-.711.007v0" transform="translate(-4.693 -11.229)" fill="#2d54fe"/>
        <path id="Trazado_786545" data-name="Trazado 786545" d="M64.869,22.4h1.785v3.5c.552,0,1.077.007,1.6-.012.047,0,.126-.164.127-.253.009-1.256.008-2.513.007-3.77,0-.343,0-.686-.011-1.028-.006-.151.052-.216.191-.216.474,0,.949.008,1.424.01.177,0,.187.116.187.25,0,.739,0,1.477,0,2.215q0,1.279,0,2.557c0,.129-.012.25.177.25.484,0,.967.005,1.451.007a.664.664,0,0,0,.124-.03v-7h1.7v8.785h-.29c-2.718,0-5.435,0-8.152.006-.254,0-.324-.071-.323-.324.008-1.6,0-3.2,0-4.8,0-.042.005-.085.01-.157" transform="translate(-22.535 -6.563)" fill="#2d54fe"/>
        <path id="Trazado_786546" data-name="Trazado 786546" d="M73.62,12.529H71.935q-3.359,0-6.72,0c-.36,0-.356,0-.352-.368,0-.412.005-.825,0-1.237,0-.158.031-.237.217-.237q4.2.008,8.406,0a1.079,1.079,0,0,1,.134.016Z" transform="translate(-22.536 -3.712)" fill="#2d54fe"/>
        <path id="Trazado_786547" data-name="Trazado 786547" d="M75.535,7.171H70.3V5.5a2.211,2.211,0,0,1,.3-.037q2.307,0,4.615,0c.327,0,.321.006.316.346-.006.447,0,.895,0,1.368" transform="translate(-24.427 -1.896)" fill="#2d54fe"/>
        <path id="Trazado_786548" data-name="Trazado 786548" d="M64.875,5.5h1.77V7.2c-.546,0-1.088,0-1.629-.007-.048,0-.133-.111-.134-.172-.011-.5-.007-1-.007-1.524" transform="translate(-22.54 -1.909)" fill="#2d54fe"/>
      </g>
    </g>
  </g>
</svg>
