<svg xmlns="http://www.w3.org/2000/svg" xmlns:xlink="http://www.w3.org/1999/xlink" width="85" height="85" viewBox="0 0 85 85">
  <defs>
    <clipPath id="clip-path">
      <rect id="Rectángulo_371988" data-name="Rectángulo 371988" width="56.378" height="55.828" fill="#2d54fe"/>
    </clipPath>
  </defs>
  <g id="Grupo_1043295" data-name="Grupo 1043295" transform="translate(-180 -1921)">
    <circle id="Elipse_8843" data-name="Elipse 8843" cx="42.5" cy="42.5" r="42.5" transform="translate(180 1921)" fill="#ffca00"/>
    <g id="Grupo_1043138" data-name="Grupo 1043138" transform="translate(194.548 1935.938)">
      <g id="Grupo_1043137" data-name="Grupo 1043137" transform="translate(0 0)" clip-path="url(#clip-path)">
        <path id="Trazado_786462" data-name="Trazado 786462" d="M38.056,48.682c0,.6.011,1.178,0,1.752a12.784,12.784,0,0,1-.09,1.752,4.514,4.514,0,0,1-3.908,3.581,10.784,10.784,0,0,1-1.116.058q-14.075.005-28.15,0a4.549,4.549,0,0,1-4.506-3.1A5.115,5.115,0,0,1,.011,51.14Q-.01,28.81,0,6.482A4.582,4.582,0,0,1,4.222,1.85C4.944,1.785,5.674,1.8,6.4,1.792q2.2-.012,4.393,0a.4.4,0,0,0,.429-.273A2.627,2.627,0,0,1,13.249.065a4.99,4.99,0,0,1,.779-.058Q19.052,0,24.074,0a2.845,2.845,0,0,1,3.039,2.153c.012.034.032.066.066.137A9.773,9.773,0,0,1,37.3.8a9.823,9.823,0,0,1,6.168,8.179,1.142,1.142,0,0,0,.166.02c.886,0,1.772-.01,2.658,0a.381.381,0,0,0,.392-.24c.289-.571.595-1.133.905-1.72.178.117.242,0,.32-.172.2-.448.441-.881.646-1.328.083-.181.218-.174.369-.174h7.1c-.057.137-.094.245-.144.345q-1,1.995-2,3.987a.425.425,0,0,0-.006.438c.665,1.309,1.319,2.623,1.976,3.936.048.1.09.2.158.348h-.683c-2.136,0-4.272-.007-6.408,0a.419.419,0,0,1-.445-.282c-.21-.463-.444-.914-.677-1.386l-.19.085c-.026-.021-.056-.034-.067-.056-.294-.6-.582-1.2-.884-1.8a.355.355,0,0,0-.235-.185c-.987-.013-1.973-.008-2.912-.008-.164.7-.288,1.371-.483,2.024a9.524,9.524,0,0,1-2.4,4c-.172.173-.193.288-.034.481.822,1,1.633,2.008,2.445,3.015.151.188.3.381.439.577a.279.279,0,0,0,.4.1,13.4,13.4,0,0,1,1.626-.728,10.73,10.73,0,0,1,1.791-.369,9.326,9.326,0,0,1,1.146-.011,8.05,8.05,0,0,1,7.8,6.591,8.12,8.12,0,0,1-6.092,9.312,8.981,8.981,0,0,1-3.33.138,7.221,7.221,0,0,1-3.734-1.585,8.2,8.2,0,0,1-2.876-4.185,7.793,7.793,0,0,1,.914-6.47,9.655,9.655,0,0,1,1.047-1.3c.127-.144.074-.221-.013-.329q-1.109-1.384-2.216-2.769c-.256-.32-.521-.633-.77-.958-.1-.125-.163-.125-.319-.071-.671.236-.824.675-.821,1.373.032,6.55.019,13.1.019,19.65,0,.362,0,.35.368.348q2.491-.019,4.981-.025,4.057-.005,8.115,0A4.9,4.9,0,0,1,54.7,40.63a4.471,4.471,0,0,1-.425,7.285,5.15,5.15,0,0,1-2.766.757c-4.356.022-8.712.01-13.067.01Zm-5.388.006h-.326c-1.315,0-2.63,0-3.946,0a1.549,1.549,0,0,1-.52-.08c-.715-.261-1.421-.547-2.134-.813-1.42-.53-2.844-1.048-4.262-1.583A2.2,2.2,0,0,1,20.1,43.353a2.559,2.559,0,0,1,1.682-1.435c1.94-.71,3.871-1.445,5.812-2.153a2.651,2.651,0,0,1,.872-.15c1.324-.013,2.649,0,3.974,0,.071,0,.142-.006.223-.01.006-.083.013-.146.013-.21q0-9.657,0-19.314c0-.215-.084-.294-.28-.331-.48-.094-.961-.19-1.435-.312a8.261,8.261,0,0,1-1.165-.367c-.529-.224-1.037-.5-1.578-.76-.378.5-.755,1.015-1.158,1.512-.163.2-.168.32.032.5a10.781,10.781,0,0,1,1.785,2.1A12.275,12.275,0,0,1,30.7,27.259a11.166,11.166,0,0,1-.367,4.871,11.38,11.38,0,0,1-1.916,3.752,11.88,11.88,0,0,1-11.842,4.379,11.591,11.591,0,0,1-6.867-4.346A11.256,11.256,0,0,1,7.787,25.4a11.489,11.489,0,0,1,5.2-6.6,11.738,11.738,0,0,1,8.195-1.467,11.937,11.937,0,0,1,3.893,1.474c.387.237.316.273.6-.109.37-.5.746-.992,1.127-1.5A10.33,10.33,0,0,1,23.533,9h-.3q-4.756,0-9.513,0a2.651,2.651,0,0,1-2.586-1.647.274.274,0,0,0-.294-.188c-1.735.011-3.469.014-5.2.021a1.789,1.789,0,0,0-.2.025V50.445H32.668Zm1.811.011v1.4a2.006,2.006,0,0,1-2.161,2.16q-13.277,0-26.553,0a2.083,2.083,0,0,1-2.189-2.183q0-21.294,0-42.589a.723.723,0,0,1,0-.195,4.154,4.154,0,0,1,.327-.991,2.009,2.009,0,0,1,1.8-.945c1.623-.009,3.246,0,4.868,0h.337c0-.523-.014-1.014.006-1.5.01-.238-.087-.278-.291-.277-2.005,0-4.011-.02-6.015.015a2.742,2.742,0,0,0-1.953.773A2.917,2.917,0,0,0,1.8,6.507q-.008,22.314,0,44.627c0,.065,0,.131,0,.2A2.755,2.755,0,0,0,3.13,53.617a3.461,3.461,0,0,0,1.8.42q14.1,0,28.2,0a5.371,5.371,0,0,0,.779-.059,2.554,2.554,0,0,0,2.227-2.021,5.275,5.275,0,0,0,.116-1.077c.017-.722,0-1.445,0-2.179Zm7.148-37.9c-1.139,0-2.239.009-3.338-.007-.238,0-.338.05-.4.289a4.521,4.521,0,0,1-5.308,3.211,4.465,4.465,0,0,1-3.414-5.447,4.419,4.419,0,0,1,3.4-3.3,4.148,4.148,0,0,1,2.592.195A4.439,4.439,0,0,1,37.88,8.722c.052.163.091.28.307.278,1.082-.011,2.164-.008,3.245,0,.2,0,.28-.055.215-.262a18.7,18.7,0,0,0-.689-2.169,8.159,8.159,0,0,0-15.08,6.2A8.208,8.208,0,0,0,39.1,15.855a8.355,8.355,0,0,0,2.529-4.646,2.2,2.2,0,0,0,0-.411M12.767,33.273V27.907h3.578V22.577h5.379v1.773h3.613v8.908h2.626c.05-.111.1-.221.149-.332A9.882,9.882,0,0,0,23.385,19.9a7.613,7.613,0,0,0-2.857-.875,12.189,12.189,0,0,0-3.67.131,9.966,9.966,0,0,0-2.724,1.038,9.693,9.693,0,0,0-4.966,7.234,9.432,9.432,0,0,0,.881,5.671.336.336,0,0,0,.234.17c.811.013,1.621.008,2.484.008m35.577.895a4.763,4.763,0,0,0,2.253-.38,6.294,6.294,0,0,0,4.014-5.765,6.273,6.273,0,0,0-6.122-6.358c-.2,0-.411.007-.615,0a5.435,5.435,0,0,0-3.615,1.181,6.146,6.146,0,0,0-2.5,5.98A5.835,5.835,0,0,0,43.1,31.9a6.1,6.1,0,0,0,5.247,2.269M19,1.8H14.471c-.252,0-.5,0-.755,0a.877.877,0,0,0-.945.944c0,1.237-.008,2.475.011,3.712a.971.971,0,0,0,.226.506c.164.22.427.185.671.185q4.882,0,9.764,0c.535,0,.537.012.687-.463a8.7,8.7,0,0,1,1.062-2.17.769.769,0,0,0,.146-.379c.007-.492-.021-.985-.024-1.478a.718.718,0,0,0-.441-.687,1.66,1.66,0,0,0-.664-.167C22.473,1.795,20.738,1.8,19,1.8M11.392,35.073l-.029.075A9.834,9.834,0,0,0,20.2,38.657a9.593,9.593,0,0,0,6.518-3.51l-.038-.073Zm24.856-15.61c-.488.079-.95.171-1.416.223-.278.031-.36.13-.359.416q.014,9.572.007,19.144a.685.685,0,0,0,.006.221c.023.062.089.153.137.155.537.011,1.075.007,1.626.007Zm1.811,27.37h0q4.378,0,8.755,0c.226,0,.317-.057.3-.3-.019-.362-.006-.725-.006-1.088,0-.389,0-.39-.4-.39H30.373c-.354,0-.709.012-1.062,0-.217-.01-.273.075-.267.275a10.732,10.732,0,0,1,0,1.144c-.023.286.059.363.347.362,2.89-.01,5.781-.006,8.671-.006m.014-3.625v0h3.552c1.734,0,3.468,0,5.2,0,.214,0,.3-.052.29-.282-.018-.4-.015-.8,0-1.2.008-.219-.065-.312-.286-.292-.1.009-.2,0-.308,0H30.582c-.4,0-.8.011-1.2,0-.242-.009-.357.045-.34.32a9.717,9.717,0,0,1,0,1.143c-.013.245.06.322.311.321q4.363-.012,8.726,0m11.131.95h-.01c0,.809.006,1.619,0,2.427,0,.2.055.259.253.256.587-.01,1.175.008,1.762,0a6.767,6.767,0,0,0,1.194-.076,2.551,2.551,0,0,0,2.167-2.654A2.584,2.584,0,0,0,52.207,41.5c-.93-.106-1.879-.043-2.82-.059-.205,0-.183.137-.183.268v2.455M36.016,8.957a2.736,2.736,0,0,0-3.234-1.6,2.658,2.658,0,0,0-1.83,3.3,2.56,2.56,0,0,0,2.125,1.9A2.686,2.686,0,0,0,35.9,11.162c.142-.259.1-.32-.2-.319-.9,0-1.809,0-2.714.011-.247,0-.329-.078-.32-.321.015-.427.015-.856,0-1.284-.008-.225.073-.286.291-.283.914.011,1.828,0,2.742,0,.1,0,.2-.008.324-.014M19.9,24.367H18.156v8.885H19.9Zm7.259,17.5c-.11.034-.163.048-.214.067q-2.354.873-4.708,1.749c-.224.084-.507.174-.5.46s.3.371.535.458q2.34.873,4.681,1.738a1.916,1.916,0,0,0,.2.051ZM23.487,26.157H21.741v7.091h1.745Zm-8.917,7.09h1.745V29.73H14.57ZM48.886,8.941c.149.015.245.032.343.032.8,0,1.6-.01,2.4.008.39.008.748.022.828-.479,0-.017.019-.032.027-.048.172-.338.348-.675.514-1.016.076-.153.076-.263-.157-.257-.735.018-1.47.022-2.205.03-.295,0-.659-.1-.867.038s-.3.512-.441.785-.281.576-.443.907m-.036,1.924c.28.546.54,1.048.795,1.553a.319.319,0,0,0,.329.193c.942-.011,1.883-.006,2.826-.008.078,0,.157-.013.275-.022-.043-.108-.067-.184-.1-.255-.19-.383-.4-.755-.567-1.149a.482.482,0,0,0-.521-.347c-.942.013-1.883,0-2.825,0a1.679,1.679,0,0,0-.21.032" transform="translate(0 0)" fill="#2d54fe"/>
        <path id="Trazado_786463" data-name="Trazado 786463" d="M10.317,68.674c0-.568,0-1.124.006-1.68,0-.048.083-.118.139-.134a1.042,1.042,0,0,1,.277-.013q5.05,0,10.1.006c.119,0,.238.019.371.03v1.79Z" transform="translate(-3.088 -20.007)" fill="#2d54fe"/>
        <path id="Trazado_786464" data-name="Trazado 786464" d="M15.748,63.514c-1.706,0-3.413,0-5.119,0-.239,0-.329-.052-.315-.31.023-.417.01-.837,0-1.255-.007-.208.078-.285.277-.282.448,0,.895,0,1.343,0l8.924,0c.369,0,.37,0,.37.369,0,.39-.012.781,0,1.172.01.236-.081.3-.306.3-1.725-.007-3.45,0-5.175,0Z" transform="translate(-3.086 -18.458)" fill="#2d54fe"/>
        <path id="Trazado_786465" data-name="Trazado 786465" d="M20.943,22.4c-1.688,0-3.376,0-5.064,0-.238,0-.333-.051-.319-.309.023-.418.015-.837,0-1.256-.006-.2.063-.283.272-.28.485.008.97,0,1.455,0,2.91,0,5.82,0,8.73,0,.28,0,.382.071.364.359a10.712,10.712,0,0,0,0,1.172c.012.249-.078.317-.32.316-1.706-.008-3.413,0-5.12,0Z" transform="translate(-4.657 -6.154)" fill="#2d54fe"/>
        <path id="Trazado_786466" data-name="Trazado 786466" d="M26.372,15.417c0,.6,0,1.142-.006,1.688,0,.045-.082.105-.138.128a.54.54,0,0,1-.194.008c-3.377,0-6.753,0-10.129.008-.3,0-.366-.085-.348-.362.025-.4.018-.8,0-1.2-.007-.208.06-.27.269-.27q4.659.006,9.318,0h1.223" transform="translate(-4.656 -4.614)" fill="#2d54fe"/>
        <path id="Trazado_786467" data-name="Trazado 786467" d="M11.21,22.4a6.59,6.59,0,0,1-.7-.009.275.275,0,0,1-.188-.19c-.018-.463-.006-.927-.013-1.391,0-.181.076-.252.249-.252q.7,0,1.4,0c.158,0,.215.076.216.221,0,.464,0,.928.006,1.392,0,.169-.083.23-.242.227-.242,0-.483,0-.725,0Z" transform="translate(-3.086 -6.154)" fill="#2d54fe"/>
        <path id="Trazado_786468" data-name="Trazado 786468" d="M11.231,17.236h-.168c-.751,0-.751,0-.746-.762,0-.27.01-.54.007-.809,0-.185.07-.271.266-.266.457.013.914.018,1.37.014.164,0,.217.072.217.216,0,.465,0,.931,0,1.4,0,.155-.066.217-.219.212-.242-.006-.485,0-.727,0Z" transform="translate(-3.088 -4.609)" fill="#2d54fe"/>
        <path id="Trazado_786469" data-name="Trazado 786469" d="M62.03,37.9c0-.752-.058-1.509.015-2.253a2.344,2.344,0,0,1,1.425-1.991,2.272,2.272,0,0,1,1.819-.036,51.037,51.037,0,0,1,4.757,2.245,2.3,2.3,0,0,1,.013,4.127c-.734.383-1.477.746-2.217,1.116-.424.212-.841.441-1.275.629a13.16,13.16,0,0,1-1.528.589,2.316,2.316,0,0,1-2.827-1.475,5.6,5.6,0,0,1-.229-1.336c-.038-.536-.008-1.078-.008-1.617h.056m1.838-.014h-.019c0,.659,0,1.319,0,1.979,0,.568.376.868.859.667.606-.252,1.214-.5,1.806-.783.823-.39,1.632-.808,2.445-1.217.257-.13.561-.254.556-.594s-.3-.481-.577-.611a35.7,35.7,0,0,0-3.453-1.6c-.235-.082-.452-.219-.68-.322-.584-.263-.928-.049-.935.589s0,1.263,0,1.9" transform="translate(-18.546 -10.01)" fill="#2d54fe"/>
      </g>
    </g>
  </g>
</svg>
