<svg xmlns="http://www.w3.org/2000/svg" xmlns:xlink="http://www.w3.org/1999/xlink" width="85" height="85" viewBox="0 0 85 85">
  <defs>
    <clipPath id="clip-path">
      <rect id="Rectángulo_372000" data-name="Rectángulo 372000" width="60.263" height="61.06" transform="translate(0 0)" fill="#ffca00"/>
    </clipPath>
  </defs>
  <g id="Grupo_1043296" data-name="Grupo 1043296" transform="translate(-600 -1921)">
    <circle id="Elipse_8834" data-name="Elipse 8834" cx="42.5" cy="42.5" r="42.5" transform="translate(600 1921)" fill="#fe502d"/>
    <g id="Grupo_1043148" data-name="Grupo 1043148" transform="translate(613.404 1928)">
      <g id="Grupo_1043147" data-name="Grupo 1043147" clip-path="url(#clip-path)">
        <path id="Trazado_786497" data-name="Trazado 786497" d="M42.241,48.774a6.412,6.412,0,0,1,2.381,2.085,4.651,4.651,0,0,1,2.639-2.389c-1.03-2.333-.98-4.547.767-6.48a5.576,5.576,0,0,1,6.332-1.55c0-.148,0-.238,0-.328.012-1.126-.019-2.254.047-3.376A2.942,2.942,0,0,1,56.8,34.074a2.976,2.976,0,0,1,3.4,2.495,6.7,6.7,0,0,1,.054.849q0,10.829,0,21.657c0,.368.01.737.006,1.1a1.412,1.412,0,0,1-.049.372.627.627,0,0,1-.59.486.525.525,0,0,1-.551-.429c-.086-.258-.2-.308-.475-.287-.57.044-1.147.013-1.762.013a.5.5,0,0,1-.051.217,1.571,1.571,0,0,1-.427.462.406.406,0,0,1-.55-.18c-.243-.5-.625-.48-1.108-.468-1.715.044-3.432.019-5.148.016-.166,0-.332-.03-.536-.05-.056.1-.114.237-.192.356a.612.612,0,0,1-.625.342.58.58,0,0,1-.5-.5c-.033-.188-.128-.206-.283-.2-.587.008-1.174,0-1.761.014-.059,0-.134.077-.172.137-.061.1-.084.218-.147.313a.52.52,0,0,1-.855.067,1.148,1.148,0,0,1-.284-.843c0-1.852.013-3.7-.009-5.556a6.136,6.136,0,0,0-.305-2.171,4.4,4.4,0,0,0-2.219-2.348c-.205-.106-.34-.007-.479.113A5.776,5.776,0,0,1,37.919,51.4a5.486,5.486,0,0,1-3.287-.782,4.14,4.14,0,0,1-.773-.544.55.55,0,0,0-.737-.054,4.235,4.235,0,0,0-2.209,3.026,7.189,7.189,0,0,0-.128,1.249c-.013,1.947,0,3.894,0,5.841,0,.031,0,.063,0,.094-.01.471-.294.815-.669.808a.789.789,0,0,1-.644-.84c0-2.073.024-4.147-.008-6.219a4.406,4.406,0,0,0-1.6-3.466,3.1,3.1,0,0,0-.277-.21c-.755-.509-.766-.514-1.5.02a5.537,5.537,0,0,1-6.971-.24.545.545,0,0,0-.71-.076,4.085,4.085,0,0,0-2.278,3.536c-.038,2.177-.031,4.354-.043,6.532a1.383,1.383,0,0,1-.013.25c-.09.46-.388.741-.747.714-.318-.025-.56-.377-.561-.832,0-2.41,0-4.82-.01-7.23a3.452,3.452,0,0,0-.638-2.2,3.253,3.253,0,0,0-1.591-1.139.469.469,0,0,0-.532.122A5.57,5.57,0,0,1,7.509,51.38a5.667,5.667,0,0,1-4.841-3.752,5.783,5.783,0,0,1-.248-2.755,5.447,5.447,0,0,1,1.948-3.488.649.649,0,0,0,.25-.539c-.013-1.263,0-2.526-.023-3.788A1.71,1.71,0,0,0,3.158,35.31a1.714,1.714,0,0,0-1.692.957,4.511,4.511,0,0,0-.183,1.173c-.015,2.473,0,4.946,0,7.419a3.5,3.5,0,0,1-.039.6.542.542,0,0,1-.587.5.626.626,0,0,1-.593-.483A2.656,2.656,0,0,1,0,44.913q0-3.8,0-7.608A3.057,3.057,0,0,1,.936,34.88a2.73,2.73,0,0,1,3.022-.644,2.759,2.759,0,0,1,1.893,2.52c.065,1.091.028,2.187.035,3.281,0,.121,0,.243,0,.4.217-.047.393-.069.559-.123a5.662,5.662,0,0,1,6.814,3.232,6.1,6.1,0,0,1,.354,2.88,4.755,4.755,0,0,1-.544,1.829.264.264,0,0,0,.05.249,12.448,12.448,0,0,1,1.445.935,10.907,10.907,0,0,1,1.12,1.346A6.285,6.285,0,0,1,17.991,48.8a5.7,5.7,0,0,1,1.371-7.592,5.661,5.661,0,0,1,8.158,7.585,6.272,6.272,0,0,1,2.633,2.518,5.752,5.752,0,0,1,2.588-2.5c-.062-.121-.11-.222-.164-.32a5.5,5.5,0,0,1-.741-3.115,5.623,5.623,0,0,1,.991-2.823,4.012,4.012,0,0,1,.376-.466.592.592,0,0,1,.893-.067.576.576,0,0,1,.037.866,4.4,4.4,0,1,0,4.2-1.486,1.055,1.055,0,0,1-.44-.145c-.2-.163-.407-.354-.263-.67a.675.675,0,0,1,.777-.45,5.9,5.9,0,0,1,2.369.983A5.537,5.537,0,0,1,43.1,44.9a5.388,5.388,0,0,1-.86,3.871m-23.856-3.08a4.383,4.383,0,1,0,4.305-4.351,4.353,4.353,0,0,0-4.305,4.351m29.483.044a4.38,4.38,0,1,0,4.139-4.386,4.328,4.328,0,0,0-4.139,4.386m-35.48-.047a4.321,4.321,0,0,0-4.382-4.345,4.372,4.372,0,0,0-.055,8.743,4.329,4.329,0,0,0,4.437-4.4" fill="#ffca00"/>
        <path id="Trazado_786498" data-name="Trazado 786498" d="M29.456,20.941a5.852,5.852,0,0,1-3.87-2.182,5.054,5.054,0,0,1-1.111-2.374,5.432,5.432,0,0,1,.117-2.486,19.549,19.549,0,0,1,3.033-5.421c.582-.811,1.23-1.575,1.823-2.378A.783.783,0,0,1,30.8,6.092a37.059,37.059,0,0,1,4.029,5.868,9.1,9.1,0,0,1,.912,2.267,5.019,5.019,0,0,1-.128,2.794A5.855,5.855,0,0,1,33.757,19.7a6.414,6.414,0,0,1-2.43,1.157,4.4,4.4,0,0,1-.534.066c0,.094-.014.2-.014.3,0,1.915.007,3.83-.007,5.745,0,.327.1.406.412.4,1.336-.025,2.673-.029,4.01-.026.284,0,.366-.1.348-.372a5.14,5.14,0,0,1,1.041-3.545A13.793,13.793,0,0,1,38.159,21.8a11.361,11.361,0,0,0,3.619-6.358,11.594,11.594,0,0,0-3.735-11.1,11.122,11.122,0,0,0-5.093-2.7,12.165,12.165,0,0,0-5.343-.068A11.749,11.749,0,0,0,23.615,3.23c-.3.191-.565.443-.872.622A.941.941,0,0,1,22.131,4a.779.779,0,0,1-.45-.413.558.558,0,0,1,.245-.679A13.347,13.347,0,0,1,26.637.491a13.153,13.153,0,0,1,16.352,9.834,12.54,12.54,0,0,1-3.1,11.556,15.046,15.046,0,0,1-1.4,1.313,4.633,4.633,0,0,0-1.626,2.77,5.429,5.429,0,0,0-.051.912c0,2.42.021,4.84.01,7.26a2.482,2.482,0,0,1-1.156,2.373,1.986,1.986,0,0,1-.916.27c-3.085.02-6.17.013-9.255.011a2.049,2.049,0,0,1-1.8-1.317,6.164,6.164,0,0,1-.251-1.543c-.025-2.452-.009-4.9-.009-7.356a4.5,4.5,0,0,0-1.862-3.559,13.119,13.119,0,0,1-2.722-3.132,12.456,12.456,0,0,1-1.8-5.133,12.8,12.8,0,0,1,1.336-7.486.994.994,0,0,1,.5-.5c.558-.158.918.28.716.837-.129.355-.31.689-.458,1.037a11.945,11.945,0,0,0-.893,4.386,11.278,11.278,0,0,0,4.168,9.041,6.185,6.185,0,0,1,1.941,2.633,5.251,5.251,0,0,1,.359,2.251c-.027.381.035.411.409.41q1.989,0,3.978.005c.2,0,.371.014.37-.282-.009-2.009-.005-4.019-.007-6.029a.805.805,0,0,0-.015-.108M35.5,31.221c0-.746,0-1.439,0-2.133,0-.424,0-.428-.4-.429q-5.007,0-10.014-.005c-.256,0-.344.065-.342.335.01,1.568,0,3.136,0,4.7,0,.315-.021.633.008.946a.9.9,0,0,0,.978.881l8.782,0a.891.891,0,0,0,1-.889c.043-.676.01-1.358.01-2.073h-.338c-1.179-.014-2.357-.03-3.536-.042a.617.617,0,0,1-.451-.979.817.817,0,0,1,.722-.312H35.5m-4.717-14.8c0,.956,0,1.912,0,2.869,0,.236.069.342.318.251.305-.112.624-.192.916-.33a4.376,4.376,0,0,0,2.326-2.6,3.659,3.659,0,0,0,.068-2.227,10.829,10.829,0,0,0-1.369-2.89c-.137-.216-.209-.207-.366-.047-.552.563-1.123,1.108-1.661,1.683a.9.9,0,0,0-.22.552c-.022.914-.01,1.828-.01,2.743m-1.321,2.052a3.1,3.1,0,0,1,0-.409,1.374,1.374,0,0,0-.5-1.25c-.848-.8-1.657-1.643-2.488-2.461a3.428,3.428,0,0,0-.435-.316c-.092.172-.188.342-.274.517a.438.438,0,0,0-.035.184,5.345,5.345,0,0,0,.236,2.017,4.479,4.479,0,0,0,3.252,2.8c.188.053.249-.015.245-.2-.006-.294,0-.588,0-.883m-.043-10-.145-.1a1.3,1.3,0,0,1-.112.258c-.271.387-.563.76-.823,1.154q-.764,1.156-1.5,2.33c-.256.409-.237.474.1.81q.913.914,1.829,1.826c.2.2.412.4.65.633Zm1.4-.236v3.183c.424-.427.8-.78,1.135-1.161a.41.41,0,0,0,.015-.384c-.35-.531-.728-1.043-1.15-1.638" fill="#ffca00"/>
        <path id="Trazado_786499" data-name="Trazado 786499" d="M18.208,28.045a4.625,4.625,0,0,1-.357.474.7.7,0,0,1-.31.144,2.725,2.725,0,0,0-1.947,2.256,1.943,1.943,0,0,1-.19.529.62.62,0,0,1-1.1.017,1.777,1.777,0,0,1-.21-.587,2.6,2.6,0,0,0-1.743-2.131,2.9,2.9,0,0,1-.462-.2.6.6,0,0,1,.013-1.1,1.589,1.589,0,0,1,.346-.152,2.669,2.669,0,0,0,1.845-2.156,2.088,2.088,0,0,1,.327-.73.538.538,0,0,1,.908.039,1.621,1.621,0,0,1,.255.567,2.733,2.733,0,0,0,1.987,2.327.792.792,0,0,1,.642.7m-3.354.977c.3-.308.593-.6.876-.9a.169.169,0,0,0,0-.166c-.291-.336-.592-.664-.888-.993l-.932,1.076.944.988" fill="#ffca00"/>
        <path id="Trazado_786500" data-name="Trazado 786500" d="M42.019,28.011a3.2,3.2,0,0,1,.368-.509,1.036,1.036,0,0,1,.421-.2,2.669,2.669,0,0,0,1.855-2.152,2.432,2.432,0,0,1,.315-.74.512.512,0,0,1,.841-.029,1.386,1.386,0,0,1,.33.592,2.712,2.712,0,0,0,1.976,2.365,1.07,1.07,0,0,1,.283.136.607.607,0,0,1-.052,1.093,3.162,3.162,0,0,1-.441.169,2.708,2.708,0,0,0-1.74,2.145,3.494,3.494,0,0,1-.081.368.786.786,0,0,1-.7.548.715.715,0,0,1-.652-.594c-.078-.261-.124-.531-.205-.791a2.454,2.454,0,0,0-1.577-1.641,1.8,1.8,0,0,1-.513-.233,3.287,3.287,0,0,1-.428-.522m3.468.964.842-.943c-.288-.344-.6-.713-.908-1.086l-.858.981.924,1.048" fill="#ffca00"/>
        <path id="Trazado_786501" data-name="Trazado 786501" d="M1.266,55.407c0,1.589,0,3.177,0,4.766a1.326,1.326,0,0,1-.084.458.536.536,0,0,1-.538.406.6.6,0,0,1-.569-.468A1.8,1.8,0,0,1,0,60.04q0-4.623,0-9.247a2.333,2.333,0,0,1,.05-.5A.64.64,0,0,1,.706,49.8a.566.566,0,0,1,.54.523,3.7,3.7,0,0,1,.03.567q0,2.256,0,4.513H1.266" fill="#ffca00"/>
        <path id="Trazado_786502" data-name="Trazado 786502" d="M40.8,57.786c0-.8-.013-1.6,0-2.4a.675.675,0,0,1,.99-.681.63.63,0,0,1,.349.623q.015,2.473,0,4.948a.917.917,0,0,1-.19.516.544.544,0,0,1-.674.2.8.8,0,0,1-.479-.785c-.009-.809,0-1.618,0-2.427H40.8" fill="#ffca00"/>
        <path id="Trazado_786503" data-name="Trazado 786503" d="M19.465,57.8c0,.767,0,1.535,0,2.3a1.742,1.742,0,0,1-.083.49.612.612,0,0,1-.562.438.557.557,0,0,1-.571-.368,1.61,1.61,0,0,1-.14-.6c-.01-1.535,0-3.07,0-4.6a1.291,1.291,0,0,1,.054-.371.651.651,0,0,1,.681-.45.553.553,0,0,1,.6.521,4.1,4.1,0,0,1,.028.628c0,.672,0,1.345,0,2.018Z" fill="#ffca00"/>
        <path id="Trazado_786504" data-name="Trazado 786504" d="M34.205,57.788q0,1.215,0,2.429a.712.712,0,0,1-.027.216c-.137.43-.407.649-.734.6a.775.775,0,0,1-.539-.767c-.017-.747-.01-1.494-.01-2.24,0-.884-.006-1.768.006-2.651.008-.543.19-.736.645-.736a.586.586,0,0,1,.642.653c.013.83,0,1.661,0,2.492h.015" fill="#ffca00"/>
        <path id="Trazado_786505" data-name="Trazado 786505" d="M26.059,57.786c0-.809,0-1.618,0-2.427,0-.435.172-.65.52-.712.453-.081.671.063.759.514a2.049,2.049,0,0,1,.031.375q0,2.238,0,4.476a1.813,1.813,0,0,1-.047.435c-.115.443-.357.633-.722.592-.256-.03-.546-.449-.547-.8V57.786Z" fill="#ffca00"/>
        <path id="Trazado_786506" data-name="Trazado 786506" d="M12.577,57.787c0,.831.013,1.663-.01,2.493a.939.939,0,0,1-.215.588.627.627,0,0,1-.537.133.772.772,0,0,1-.52-.693c-.023-.229-.007-.462-.007-.694,0-1.4,0-2.8,0-4.2a.713.713,0,0,1,.925-.729.441.441,0,0,1,.36.48c-.008.873,0,1.747,0,2.62h.005" fill="#ffca00"/>
        <path id="Trazado_786507" data-name="Trazado 786507" d="M3.453,57.713q0-1.232,0-2.462c0-.2-.029-.4.218-.5.267-.107.551-.182.765.046a1,1,0,0,1,.288.594c.024,1.619.018,3.239.012,4.859a.83.83,0,0,1-.441.722.57.57,0,0,1-.83-.543c-.023-.452-.01-.9-.011-1.357s0-.9,0-1.357" fill="#ffca00"/>
        <path id="Trazado_786508" data-name="Trazado 786508" d="M35.705,41.625a.709.709,0,0,1-.641-.615.765.765,0,0,1,.7-.646.709.709,0,0,1,.587.672.625.625,0,0,1-.648.589" fill="#ffca00"/>
        <path id="Trazado_786509" data-name="Trazado 786509" d="M20.416,5.822a.609.609,0,0,1-.583-.677.6.6,0,0,1,.643-.518.632.632,0,0,1,.634.61.653.653,0,0,1-.694.585" fill="#ffca00"/>
        <path id="Trazado_786510" data-name="Trazado 786510" d="M.671,47.244a.631.631,0,0,1,.582.624.606.606,0,0,1-.582.649.7.7,0,0,1-.637-.626.656.656,0,0,1,.637-.647" fill="#ffca00"/>
      </g>
    </g>
  </g>
</svg>
