<svg xmlns="http://www.w3.org/2000/svg" xmlns:xlink="http://www.w3.org/1999/xlink" width="85" height="85" viewBox="0 0 85 85">
  <defs>
    <clipPath id="clip-path">
      <rect id="Rectángulo_372003" data-name="Rectángulo 372003" width="56" height="56" transform="translate(1034 2609)" fill="#ffca00"/>
    </clipPath>
  </defs>
  <g id="Grupo_1043297" data-name="Grupo 1043297" transform="translate(-1020 -1921)">
    <circle id="Elipse_8844" data-name="Elipse 8844" cx="42.5" cy="42.5" r="42.5" transform="translate(1020 1921)" fill="#2d54fe"/>
    <g id="Enmascarar_grupo_1018803" data-name="Enmascarar grupo 1018803" transform="translate(1 -678)" clip-path="url(#clip-path)">
      <g id="_x31_6_Recruitment" transform="translate(1033.885 2608.885)">
        <g id="Grupo_1043153" data-name="Grupo 1043153">
          <path id="Trazado_786529" data-name="Trazado 786529" d="M50.53,5.69A19.075,19.075,0,0,0,22.954,32.039l-2.313,2.313a4.164,4.164,0,0,0-5.193.552L.949,49.4a2.839,2.839,0,0,0,0,4.011L2.82,55.286a2.841,2.841,0,0,0,4.011,0l14.5-14.5a4.165,4.165,0,0,0,.549-5.2l2.3-2.3A18.621,18.621,0,0,0,30.11,36.97a7.967,7.967,0,1,0,13.855,0,18.757,18.757,0,0,0,6.565-4.282,19.108,19.108,0,0,0,0-26.993ZM20.093,39.55l-14.5,14.5a1.089,1.089,0,0,1-1.537,0L2.186,52.176a1.088,1.088,0,0,1,0-1.536l14.5-14.5a2.41,2.41,0,0,1,3.4-.005l0,0,.006,0A2.413,2.413,0,0,1,20.093,39.55Zm16.95,7.556a6.218,6.218,0,1,1,6.213-6.214A6.225,6.225,0,0,1,37.043,47.105Zm5.84-11.615a7.926,7.926,0,0,0-11.692.005,16.945,16.945,0,0,1-6.406-4.05.935.935,0,0,0-.075-.066,17.337,17.337,0,1,1,24.582.065,17.016,17.016,0,0,1-6.409,4.045Z" fill="#ffca00"/>
          <path id="Trazado_786530" data-name="Trazado 786530" d="M39.94,19.1a4.444,4.444,0,0,0,1.571-3.375V13.764a4.473,4.473,0,0,0-8.945,0v1.963A4.444,4.444,0,0,0,34.137,19.1a6.863,6.863,0,0,0-3.958,6.207,3.784,3.784,0,0,0,3.78,3.78h6.159a3.784,3.784,0,0,0,3.78-3.78A6.863,6.863,0,0,0,39.94,19.1Zm-5.624-3.375V13.764a2.722,2.722,0,0,1,5.445,0v1.963a2.722,2.722,0,0,1-5.445,0Zm5.8,11.611H33.959a2.031,2.031,0,0,1-2.03-2.03,5.109,5.109,0,1,1,10.219,0,2.032,2.032,0,0,1-2.03,2.03Z" fill="#ffca00"/>
          <path id="Trazado_786531" data-name="Trazado 786531" d="M38.71,38.611l-2.695,2.7-.648-.648A.875.875,0,0,0,34.13,41.9L35.4,43.163a.875.875,0,0,0,1.238,0l3.313-3.314a.875.875,0,1,0-1.238-1.238Z" fill="#ffca00"/>
        </g>
      </g>
    </g>
  </g>
</svg>
