<svg id="Grupo_1043194" data-name="Grupo 1043194" xmlns="http://www.w3.org/2000/svg" xmlns:xlink="http://www.w3.org/1999/xlink" width="75.724" height="75.672" viewBox="0 0 75.724 75.672">
  <defs>
    <clipPath id="clip-path">
      <rect id="Rectángulo_372039" data-name="Rectángulo 372039" width="75.724" height="75.672" fill="none"/>
    </clipPath>
  </defs>
  <g id="Grupo_1043193" data-name="Grupo 1043193" clip-path="url(#clip-path)">
    <path id="Trazado_786765" data-name="Trazado 786765" d="M.063,39.039c0-.61.033-1.223-.022-1.829-.049-.538.177-.617.642-.6,1.067.031,2.135.01,3.2.01,1.05,0,1.05,0,1.05-1.012q0-16.052-.009-32.1A3.606,3.606,0,0,1,8.448,0Q16,.007,23.547,0q10.714,0,21.427,0a3.643,3.643,0,0,1,3.608,2.371A4.713,4.713,0,0,1,48.874,3.9c0,1.424,0,2.847,0,4.27,0,.329.012.487.452.562a9.675,9.675,0,0,1,7.969,8.515,9.449,9.449,0,0,1-.774,4.987,9.615,9.615,0,0,1-6.408,5.522c-1.219.356-1.236.3-1.234,1.63q0,1.105.011,2.211c0,.039.041.078.08.147a18.8,18.8,0,0,0,4.124-2.332.806.806,0,0,1,1.181,0,17.332,17.332,0,0,0,5.688,2.9,19.233,19.233,0,0,0,6.21.656c1.294-.058,2.592-.006,3.888-.014.333,0,.549.036.647.446.265,1.113.477,2.238.794,3.345.259.9.364,1.925.552,2.892.314,1.62.611,3.244.933,4.863.4,1.981.845,3.952,1.2,5.94.351,1.942.742,3.877.955,5.847a6.329,6.329,0,0,0,.582,2.912v1.22q-.235.153,0,.305v.458c-.2.153-.2.305,0,.458v.152c-.211.389-.4.794-.636,1.164a15.5,15.5,0,0,1-4.38,4.3,75.959,75.959,0,0,1-15.884,8.419H53.45q-.153-.236-.305,0h-.61q-.076-.167-.153,0h-.152c.006-.286-.153-.221-.315-.148a92.181,92.181,0,0,1-9.34-4.554c-1.294-.7-2.548-1.484-3.787-2.28a2.058,2.058,0,0,0-1.185-.344q-18.379.008-36.759.023c-.7,0-.824-.193-.806-.834.047-1.623.017-1.669,1.671-1.6.711.028.809-.21.8-.84-.035-2.745-.028-5.491,0-8.236,0-.528-.062-.777-.68-.727-.568.046-1.36.27-1.667-.1-.29-.355-.093-1.111-.1-1.69,0-.2.006-.406.009-.61Q8.331,53.712,16.6,53.7q7.7,0,15.394,0c.224,0,.515.045.66-.073a1.617,1.617,0,0,0-.2-1.918,6.013,6.013,0,0,1-1.564-1.279,5.938,5.938,0,0,1,.29-8.357c.1.024.148-.006.122-.115a4.454,4.454,0,0,1,.709-.649,5.946,5.946,0,0,1,2.823-.994c.722-.087.54-.648.583-.979.069-.522-.445-.264-.672-.265q-9.985-.027-19.97-.015-7.355,0-14.71-.017M45.524,35.19a34.579,34.579,0,0,1-6,.19c-.5.006-.8.092-.831.632l0,.29-.46,1.846,0,.29c-.529,1.387-.528,2.886-.939,4.307-.734,2.541-1.035,5.177-1.539,7.769a84.167,84.167,0,0,0-1.42,8.838l-.108.158q.013.455.025.909,0,.224,0,.448c0,.054,0,.108,0,.161-.008.169-.072.352.122.468a6.589,6.589,0,0,0,2.414,2.716A67.074,67.074,0,0,0,46.948,70.5c1.682.926,3.471,1.614,5.2,2.436a3.6,3.6,0,0,0,2.352.21,19.1,19.1,0,0,0,4.234-1.817,79.9,79.9,0,0,0,7.113-3.848,29.989,29.989,0,0,0,6.423-4.759c.615-.657,1.234-1.275.892-2.366a6.709,6.709,0,0,1-.036-1.916l-.1-.305a2.033,2.033,0,0,0-.158-.77c-.207-.811.184-1.644-.175-2.447a2.907,2.907,0,0,1-.341-.82c-.138-1-.363-2-.554-2.995q.191-.145,0-.293l-.462-2.148q.192-.146,0-.294c-.074-.149-.265-.26-.154-.469q.191-.145,0-.293c-.074-.149-.267-.259-.155-.47q.191-.145,0-.293c-.074-.149-.268-.259-.155-.47q.191-.145,0-.293a11.915,11.915,0,0,1-.626-2.729c-.444-2.446-1.029-4.86-1.525-7.293-.109-.533-.328-.672-.843-.675a35.924,35.924,0,0,1-5.9-.195.162.162,0,0,0-.288.011,19.315,19.315,0,0,1-7.723-3.034c-.3-.2-.485-.009-.671.111A20.379,20.379,0,0,1,45.664,35.2c-.042-.063-.088-.071-.14-.011M17.14,15.711c0-4.278-.01-8.4.012-12.514,0-.561-.092-.782-.729-.771-2.516.042-5.033.014-7.55.019-1.117,0-1.494.378-1.494,1.5q0,16.016-.011,32.032c0,.475.093.649.616.647q13.728-.025,27.456,0c.52,0,.7-.189.788-.66.153-.832.385-1.65.529-2.483.076-.442.266-.547.694-.542,1.957.024,3.917-.035,5.872.033.775.027,1.459-.348,2.226-.285s.946-.378.9-1.091c-.064-.987-.04-1.983-.006-2.973.017-.491-.2-.655-.64-.726a8.571,8.571,0,0,1-3.654-1.493,9.723,9.723,0,0,1-4.2-6.613,9.19,9.19,0,0,1,1.289-6.467,9.53,9.53,0,0,1,6.593-4.593c.56-.095.625-.273.615-.742-.026-1.3-.007-2.593-.01-3.89,0-1.176-.478-1.66-1.639-1.662-2.466,0-4.932.022-7.4-.017-.619-.01-.743.182-.74.761.025,3.94.014,7.881.009,11.822,0,.192.106.457-.072.563s-.344-.109-.511-.223c-1.19-.805-2.405-1.575-3.585-2.4-.429-.3-.7-.3-1.058.108-.536.61-1.159,1.142-1.708,1.741-.3.33-.492.3-.78-.013-.534-.579-1.127-1.1-1.658-1.684-.3-.328-.492-.3-.782.01-.552.6-1.157,1.144-1.714,1.736-.256.272-.421.259-.67-.006-.539-.574-1.154-1.083-1.652-1.689-.462-.561-.834-.506-1.374-.123-1.262.9-2.563,1.736-3.96,2.675m31,9.921c3.732-.431,6.745-2.98,6.783-7.3.035-3.991-2.754-7.286-7.479-7.3a7.054,7.054,0,0,0-7.095,6.565,7.308,7.308,0,0,0,7.79,8.038M34.226,11.121c0-2.828-.009-5.517.009-8.205,0-.447-.213-.481-.561-.478-1.143.012-2.286,0-3.429,0q-4.99,0-9.981,0c-.29,0-.69-.158-.688.415.012,2.709.005,5.418.005,8.254.706-.464,1.337-.832,1.913-1.271.48-.367.828-.446,1.253.094.389.5.905.89,1.327,1.363.3.335.5.3.787-.011.516-.559,1.1-1.059,1.6-1.629.349-.4.574-.34.9.017.476.527,1.033.983,1.491,1.524.392.464.649.39,1.009-.024.432-.5.945-.923,1.386-1.413a.527.527,0,0,1,.833-.08c.657.471,1.342.9,2.147,1.435m.62,54.787c-.554-.578-1.093-1.079-1.558-1.64a5.146,5.146,0,0,1-1.475-2.756,16.477,16.477,0,0,1,.408-4.847c.084-.392,0-.534-.437-.53q-3.431.03-6.862,0c-.366,0-.469.1-.467.467q.021,4.423,0,8.845c0,.364.1.469.466.468,3.3-.014,6.6-.008,9.926-.008M9.817,60.949c0,1.474.016,2.949-.01,4.423-.008.43.112.551.544.546q3.126-.033,6.253,0c.43,0,.548-.114.546-.545q-.028-4.346,0-8.693c0-.43-.112-.551-.544-.546q-3.126.034-6.253,0c-.43,0-.554.113-.546.545.027,1.423.01,2.846.01,4.27m9.764.05v3.124c0,1.818,0,1.8,1.822,1.8.5,0,.634-.147.629-.639-.024-2.438-.011-4.876-.011-7.315,0-1.868,0-1.849-1.86-1.836-.476,0-.6.137-.591.6.029,1.422.011,2.844.011,4.267m-12.205.007V57.882c0-1.762,0-1.737-1.793-1.753-.553,0-.665.172-.66.688.026,2.413.012,4.825.012,7.238,0,1.924,0,1.907,1.907,1.864.448-.01.548-.156.542-.571-.022-1.447-.008-2.9-.008-4.343M34.761,42.9c-1.08-.129-2.588,1.217-2.959,2.759a3.4,3.4,0,0,0,1.664,3.645c.209-1.059.413-2.11.625-3.16.217-1.072.442-2.142.669-3.244" transform="translate(0 0)" fill="#050605"/>
    <path id="Trazado_786766" data-name="Trazado 786766" d="M494.344,400.509c-.2-.153-.2-.305,0-.458Z" transform="translate(-418.62 -338.872)" fill="#090909"/>
    <path id="Trazado_786767" data-name="Trazado 786767" d="M339.468,493.51c.163-.072.322-.138.315.148h-.305a.182.182,0,0,0-.01-.148" transform="translate(-287.554 -417.986)" fill="#090909"/>
    <path id="Trazado_786768" data-name="Trazado 786768" d="M494.512,395.369q-.235-.153,0-.305Z" transform="translate(-418.788 -334.648)" fill="#090909"/>
    <path id="Trazado_786769" data-name="Trazado 786769" d="M347.517,494.172q.153-.235.305,0Z" transform="translate(-294.372 -418.5)" fill="#090909"/>
    <path id="Trazado_786770" data-name="Trazado 786770" d="M342.529,494.363q.076-.166.153,0Z" transform="translate(-290.147 -418.692)" fill="#090909"/>
    <path id="Trazado_786771" data-name="Trazado 786771" d="M31.52,258.143a5.938,5.938,0,0,0-.29,8.357,6.017,6.017,0,0,0,1.563,1.279A1.617,1.617,0,0,1,33,269.7c-.145.118-.436.073-.66.073q-7.7,0-15.394,0-8.268,0-16.536.017v-5.986A6.357,6.357,0,0,0,2.39,266.98a6.186,6.186,0,0,0,3.827,1.566A6.337,6.337,0,0,0,9.9,267.376a5.664,5.664,0,0,0,2.663-5.234A5.741,5.741,0,0,0,10,257.479a6.158,6.158,0,0,0-7.506.346A7.265,7.265,0,0,0,.4,261.245q0-3.068,0-6.136,7.355.009,14.71.017,9.985,0,19.97.015c.228,0,.741-.258.672.265-.043.331.139.892-.583.978a5.942,5.942,0,0,0-2.823.995,4.449,4.449,0,0,0-.709.649l-.122.115M15.041,262.4c-.3,3.177,2.845,6.22,6.028,6.144a6.139,6.139,0,0,0,6.146-6.088,5.965,5.965,0,0,0-6.047-6.1,6,6,0,0,0-6.127,6.041" transform="translate(-0.341 -216.071)" fill="#c0c8d2"/>
    <path id="Trazado_786772" data-name="Trazado 786772" d="M.4,268.4a7.266,7.266,0,0,1,2.089-3.421A6.158,6.158,0,0,1,10,264.636a5.74,5.74,0,0,1,2.563,4.663A5.663,5.663,0,0,1,9.9,274.532,6.336,6.336,0,0,1,6.218,275.7a6.185,6.185,0,0,1-3.826-1.566,6.356,6.356,0,0,1-1.985-3.174q0-1.28,0-2.561m2.434,1.219a3.669,3.669,0,0,0,3.589,3.636,3.538,3.538,0,0,0,3.693-3.672,3.451,3.451,0,0,0-3.734-3.6,3.542,3.542,0,0,0-3.549,3.637" transform="translate(-0.342 -223.227)" fill="#050605"/>
    <path id="Trazado_786773" data-name="Trazado 786773" d="M57.948,29.145c1.4-.938,2.7-1.779,3.96-2.675.54-.383.913-.438,1.374.123.5.606,1.113,1.114,1.652,1.688.249.265.414.278.67.006.557-.592,1.162-1.14,1.714-1.737.29-.313.481-.338.782-.009.532.581,1.124,1.105,1.658,1.684.288.312.478.343.78.013.549-.6,1.172-1.131,1.708-1.741.358-.407.63-.407,1.058-.108,1.18.821,2.394,1.59,3.585,2.4.167.113.324.334.511.223s.071-.371.072-.563c.005-3.94.016-7.881-.009-11.821,0-.579.12-.771.739-.761,2.465.039,4.932.014,7.4.017,1.16,0,1.636.486,1.639,1.662,0,1.3-.017,2.593.01,3.889.01.47-.055.648-.615.742a9.53,9.53,0,0,0-6.593,4.593,9.19,9.19,0,0,0-1.289,6.467,9.723,9.723,0,0,0,4.2,6.612,8.572,8.572,0,0,0,3.654,1.493c.435.07.656.235.64.725-.033.99-.058,1.986.006,2.973.046.713-.131,1.154-.9,1.091s-1.451.312-2.226.285c-1.955-.069-3.914-.009-5.872-.033-.428-.005-.618.1-.694.541-.144.833-.376,1.651-.529,2.483-.087.471-.268.661-.788.66q-13.728-.025-27.456,0c-.523,0-.617-.173-.616-.647q.018-16.016.011-32.033c0-1.126.378-1.5,1.494-1.5,2.517,0,5.034.023,7.55-.019.637-.011.732.21.729.771-.021,4.118-.011,8.235-.011,12.514m-1.2,11.141H52.327c-1.716,0-1.688,0-1.718,1.751-.01.586.163.708.721.7,3.228-.027,6.456-.013,9.684-.013,1.861,0,1.841,0,1.83-1.866,0-.483-.147-.592-.6-.586-1.83.025-3.66.01-5.49.01m4.835,7.323c1.246,0,1.246,0,1.246-1.214v-.076c0-1.151,0-1.151-1.157-1.151-1.284,0-1.284,0-1.284,1.252,0,1.189,0,1.189,1.2,1.189m-6.077-1.256c0,1.256,0,1.256,1.2,1.256,1.237,0,1.237,0,1.237-1.223s0-1.218-1.243-1.218c-1.2,0-1.2,0-1.2,1.185m-3.73,1.256c1.289,0,1.289,0,1.289-1.323a3.751,3.751,0,0,1,0-.533c.068-.468-.11-.658-.585-.59a4.322,4.322,0,0,1-.609,0c-1.251,0-1.251,0-1.251,1.285,0,1.156,0,1.156,1.152,1.156" transform="translate(-40.808 -13.434)" fill="#d78b4e"/>
    <path id="Trazado_786774" data-name="Trazado 786774" d="M227.838,215.831l.46-1.846c.126-.1.122-.194,0-.29.029-.54.329-.626.831-.632a34.6,34.6,0,0,0,6-.19l.069.018.071-.008a20.378,20.378,0,0,0,7.637-2.922c.186-.121.375-.315.671-.112a19.315,19.315,0,0,0,7.723,3.034l.288-.011a35.925,35.925,0,0,0,5.9.194c.515,0,.734.142.843.675.5,2.433,1.082,4.847,1.525,7.293a11.922,11.922,0,0,0,.626,2.729q0,.146,0,.293c-.113.211.081.321.155.47l0,.293c-.113.211.081.32.154.47l0,.293c-.112.21.08.32.154.469q0,.147,0,.294l.462,2.148q0,.146,0,.293c.191,1,.416,1.99.554,2.995a2.9,2.9,0,0,0,.341.82c.359.8-.032,1.635.175,2.446a2.035,2.035,0,0,1,.158.77c-.029.124-.037.24.1.305a6.712,6.712,0,0,0,.036,1.916c.342,1.091-.278,1.709-.893,2.365a29.98,29.98,0,0,1-6.423,4.759,79.984,79.984,0,0,1-7.113,3.848,19.106,19.106,0,0,1-4.234,1.817,3.6,3.6,0,0,1-2.353-.21c-1.728-.822-3.518-1.51-5.2-2.437a67.08,67.08,0,0,1-10.16-6.286,6.587,6.587,0,0,1-2.414-2.716c0-.167.036-.343-.122-.468q0-.081,0-.161a.267.267,0,0,0,0-.449q-.012-.455-.025-.909c.07-.029.141-.058.108-.158a84.151,84.151,0,0,1,1.42-8.838c.5-2.592.805-5.229,1.539-7.769.41-1.421.41-2.92.939-4.307.126-.1.122-.194,0-.29m8.34.6a2.691,2.691,0,0,0-2.531.942c-1.1,1.1-2.223,2.164-3.278,3.3a2.659,2.659,0,0,0-.711,2.956,1.016,1.016,0,0,1-.6,1.5,2.721,2.721,0,0,0-1.569,2.6c0,1.6.01,3.2,0,4.8a2.793,2.793,0,0,0,1.645,2.709.96.96,0,0,1,.549,1.4,2.9,2.9,0,0,0,.829,3.157c1.069,1.156,2.173,2.287,3.347,3.334a2.659,2.659,0,0,0,2.88.716,1.1,1.1,0,0,1,1.59.609,2.758,2.758,0,0,0,2.669,1.58c1.6-.029,3.2.018,4.8-.016a2.663,2.663,0,0,0,2.534-1.579c.344-.771.8-.822,1.484-.6a2.841,2.841,0,0,0,3.061-.84c.878-.876,1.737-1.771,2.676-2.59,1.278-1.115,2.029-2.425,1.278-4.2-.157-.37.065-.691.486-.872a2.955,2.955,0,0,0,1.895-2.811c.041-1.574.059-3.153-.007-4.725a2.774,2.774,0,0,0-1.628-2.656c-.747-.317-.867-.747-.634-1.464a2.689,2.689,0,0,0-.685-2.975c-1.131-1.1-2.26-2.2-3.339-3.345a3,3,0,0,0-3.312-.77.831.831,0,0,1-1.175-.516,2.871,2.871,0,0,0-2.869-1.773c-1.55-.025-3.1,0-4.65-.008a2.329,2.329,0,0,0-2.118.9c-.692,1.284-1.533,1.749-2.621,1.235" transform="translate(-189.605 -177.682)" fill="#fe502d"/>
    <path id="Trazado_786775" data-name="Trazado 786775" d="M271.416,86.723a7.309,7.309,0,0,1-7.79-8.038,7.053,7.053,0,0,1,7.095-6.565c4.725.016,7.514,3.311,7.479,7.3-.038,4.321-3.051,6.87-6.783,7.3m-5.1-5.331c1.038,1.043,2.024,2,2.961,2.994.354.377.544.333.882-.012,1.723-1.757,3.474-3.486,5.211-5.23.409-.41,1.1-.828,1.117-1.264.02-.515-.768-.854-1.142-1.325-.312-.392-.527-.369-.878-.008-1.431,1.474-2.9,2.914-4.35,4.368-.215.215-.366.466-.719.112-.417-.419-.753-1.177-1.339-1.111s-.91.814-1.388,1.221c-.113.1-.243.173-.356.252" transform="translate(-223.278 -61.091)" fill="#dee3e8"/>
    <path id="Trazado_786776" data-name="Trazado 786776" d="M142.664,24.57c-.805-.534-1.491-.964-2.148-1.435a.527.527,0,0,0-.833.08c-.441.49-.954.917-1.386,1.414-.36.414-.617.488-1.009.024-.458-.541-1.015-1-1.491-1.524-.323-.357-.548-.412-.9-.017-.5.57-1.085,1.07-1.6,1.63-.289.313-.488.346-.787.011-.422-.473-.938-.867-1.327-1.363-.424-.54-.772-.46-1.253-.094-.576.439-1.207.807-1.913,1.271,0-2.836.007-5.545-.005-8.254,0-.574.4-.414.687-.415q4.99-.012,9.981-.005c1.143,0,2.286.008,3.428,0,.348,0,.564.031.561.478-.017,2.689-.008,5.378-.008,8.205" transform="translate(-108.437 -13.448)" fill="#af6029"/>
    <path id="Trazado_786777" data-name="Trazado 786777" d="M170.307,376.842c-3.323,0-6.624-.006-9.926.008-.368,0-.467-.1-.466-.468q.021-4.422,0-8.845c0-.367.1-.469.467-.467q3.431.024,6.862,0c.437,0,.52.139.437.53a16.471,16.471,0,0,0-.408,4.847,5.145,5.145,0,0,0,1.475,2.756c.465.561,1,1.062,1.558,1.64" transform="translate(-135.46 -310.934)" fill="#fff"/>
    <path id="Trazado_786778" data-name="Trazado 786778" d="M64.139,371.879c0-1.423.017-2.847-.01-4.27-.008-.432.115-.549.546-.545q3.126.033,6.253,0c.432,0,.547.117.544.546q-.028,4.346,0,8.693c0,.431-.115.549-.545.545q-3.126-.033-6.253,0c-.432,0-.552-.116-.545-.546.026-1.474.01-2.948.01-4.422" transform="translate(-54.322 -310.93)" fill="#fff"/>
    <path id="Trazado_786779" data-name="Trazado 786779" d="M127.983,371.9c0-1.422.019-2.845-.011-4.267-.009-.464.115-.6.591-.6,1.861-.014,1.86-.033,1.86,1.836,0,2.438-.013,4.877.011,7.314,0,.492-.125.639-.629.639-1.822,0-1.822.02-1.822-1.8V371.9" transform="translate(-108.401 -310.901)" fill="#6b7d8b"/>
    <path id="Trazado_786780" data-name="Trazado 786780" d="M34.648,371.912c0,1.448-.013,2.9.008,4.343.006.415-.093.561-.542.571-1.908.043-1.907.06-1.907-1.864,0-2.413.015-4.826-.012-7.238-.006-.516.107-.693.66-.688,1.792.015,1.793-.009,1.793,1.752v3.124" transform="translate(-27.272 -310.906)" fill="#6b7d8b"/>
    <path id="Trazado_786781" data-name="Trazado 786781" d="M210.49,280.5c-.228,1.1-.453,2.172-.669,3.244-.212,1.05-.416,2.1-.625,3.16a3.4,3.4,0,0,1-1.664-3.645c.371-1.542,1.879-2.889,2.959-2.759" transform="translate(-175.728 -237.595)" fill="#808d9a"/>
    <path id="Trazado_786782" data-name="Trazado 786782" d="M223.988,395.091a.267.267,0,0,1,0,.448q0-.224,0-.448" transform="translate(-189.733 -334.671)" fill="#a3c55b"/>
    <path id="Trazado_786783" data-name="Trazado 786783" d="M223.887,399.078c.158.126.123.3.122.468-.194-.116-.13-.3-.122-.468" transform="translate(-189.635 -338.048)" fill="#a3c55b"/>
    <path id="Trazado_786784" data-name="Trazado 786784" d="M465.476,311.6l0-.293q.189.148,0,.293" transform="translate(-394.292 -263.698)" fill="#090a07"/>
    <path id="Trazado_786785" data-name="Trazado 786785" d="M466.468,316.585q0-.147,0-.294.191.148,0,.294" transform="translate(-395.133 -267.922)" fill="#090a07"/>
    <path id="Trazado_786786" data-name="Trazado 786786" d="M464.481,306.611l0-.293q.189.148,0,.293" transform="translate(-393.449 -259.474)" fill="#090a07"/>
    <path id="Trazado_786787" data-name="Trazado 786787" d="M469.469,332.549q0-.146,0-.293.189.148,0,.293" transform="translate(-397.675 -281.445)" fill="#090a07"/>
    <path id="Trazado_786788" data-name="Trazado 786788" d="M463.483,301.623q0-.147,0-.293.189.148,0,.293" transform="translate(-392.604 -255.249)" fill="#090a07"/>
    <path id="Trazado_786789" data-name="Trazado 786789" d="M250.013,249.455c.124.1.127.193,0,.29l0-.29" transform="translate(-211.779 -211.307)" fill="#a3c55b"/>
    <path id="Trazado_786790" data-name="Trazado 786790" d="M477.508,380.455c-.142-.065-.134-.182-.1-.305l.1.305" transform="translate(-404.381 -322.015)" fill="#090a07"/>
    <path id="Trazado_786791" data-name="Trazado 786791" d="M253.006,235.488c.124.1.127.193,0,.29l0-.29" transform="translate(-214.315 -199.476)" fill="#a3c55b"/>
    <path id="Trazado_786792" data-name="Trazado 786792" d="M403.717,229.651l-.288.011a.162.162,0,0,1,.288-.011" transform="translate(-341.734 -194.462)" fill="#090a07"/>
    <path id="Trazado_786793" data-name="Trazado 786793" d="M203.878,274.484l.122-.115c.026.109-.023.139-.122.115" transform="translate(-172.7 -232.411)" fill="#bdc5ce"/>
    <path id="Trazado_786794" data-name="Trazado 786794" d="M223.944,388.112c.033.1-.037.129-.108.158l.108-.158" transform="translate(-189.605 -328.759)" fill="#090a07"/>
    <path id="Trazado_786795" data-name="Trazado 786795" d="M297.827,229.889l-.071.008-.069-.018c.052-.061.1-.053.14.011" transform="translate(-252.163 -194.689)" fill="#090a07"/>
    <path id="Trazado_786796" data-name="Trazado 786796" d="M96.01,269.485a6.087,6.087,0,0,1,12.174.056,6.139,6.139,0,0,1-6.146,6.088c-3.183.076-6.33-2.967-6.028-6.144m2.442.028a3.738,3.738,0,0,0,3.377,3.677,3.6,3.6,0,0,0,3.906-3.68,3.454,3.454,0,0,0-3.719-3.6,3.541,3.541,0,0,0-3.565,3.605" transform="translate(-81.311 -223.152)" fill="#050605"/>
    <path id="Trazado_786797" data-name="Trazado 786797" d="M16.32,283.224a3.542,3.542,0,0,1,3.549-3.637,3.451,3.451,0,0,1,3.734,3.6,3.538,3.538,0,0,1-3.693,3.672,3.669,3.669,0,0,1-3.589-3.636m3.669-1.233a1.22,1.22,0,1,0,1.211,1.267,1.2,1.2,0,0,0-1.211-1.267" transform="translate(-13.824 -236.831)" fill="#808d9a"/>
    <path id="Trazado_786798" data-name="Trazado 786798" d="M70.229,175.531c1.83,0,3.66.015,5.49-.01.458-.006.6.1.6.585.011,1.866.031,1.866-1.83,1.866-3.228,0-6.456-.014-9.684.013-.558,0-.731-.118-.721-.7.03-1.751,0-1.751,1.718-1.751h4.423" transform="translate(-54.287 -148.679)" fill="#050605"/>
    <path id="Trazado_786799" data-name="Trazado 786799" d="M129.237,209.954c-1.2,0-1.2,0-1.2-1.189,0-1.252,0-1.252,1.284-1.252,1.157,0,1.157,0,1.157,1.151v.076c0,1.214,0,1.214-1.246,1.214" transform="translate(-108.461 -175.779)" fill="#050605"/>
    <path id="Trazado_786800" data-name="Trazado 786800" d="M96.119,208.7c0-1.185,0-1.185,1.2-1.185,1.242,0,1.242,0,1.242,1.218s0,1.223-1.237,1.223c-1.2,0-1.2,0-1.2-1.256" transform="translate(-81.42 -175.779)" fill="#050605"/>
    <path id="Trazado_786801" data-name="Trazado 786801" d="M65.347,209.853c-1.152,0-1.152,0-1.152-1.156,0-1.285,0-1.285,1.251-1.285a4.321,4.321,0,0,0,.609,0c.475-.068.653.122.585.59a3.75,3.75,0,0,0,0,.533c0,1.323,0,1.323-1.289,1.323" transform="translate(-54.378 -175.678)" fill="#050605"/>
    <path id="Trazado_786802" data-name="Trazado 786802" d="M256.424,241.541c1.088.514,1.929.049,2.621-1.235a2.33,2.33,0,0,1,2.118-.9c1.55.009,3.1-.017,4.65.008a2.872,2.872,0,0,1,2.87,1.773.83.83,0,0,0,1.175.516,3,3,0,0,1,3.312.77c1.078,1.148,2.208,2.248,3.339,3.345a2.69,2.69,0,0,1,.685,2.976c-.233.717-.113,1.148.634,1.464a2.774,2.774,0,0,1,1.628,2.656c.066,1.573.048,3.151.007,4.725a2.955,2.955,0,0,1-1.895,2.811c-.421.181-.643.5-.486.873.751,1.775,0,3.085-1.278,4.2-.939.819-1.8,1.714-2.676,2.59a2.841,2.841,0,0,1-3.061.84c-.689-.222-1.141-.171-1.485.6a2.662,2.662,0,0,1-2.533,1.579c-1.6.034-3.2-.013-4.8.016a2.758,2.758,0,0,1-2.669-1.58,1.1,1.1,0,0,0-1.591-.609,2.659,2.659,0,0,1-2.88-.716c-1.174-1.047-2.278-2.178-3.347-3.334a2.9,2.9,0,0,1-.829-3.157.96.96,0,0,0-.549-1.4,2.792,2.792,0,0,1-1.645-2.709c.012-1.6.007-3.2,0-4.8a2.721,2.721,0,0,1,1.569-2.6,1.017,1.017,0,0,0,.6-1.5,2.659,2.659,0,0,1,.711-2.956c1.055-1.134,2.182-2.2,3.278-3.3a2.691,2.691,0,0,1,2.531-.942m18.395,6.571c.111-.414-.034-.506-.137-.61-1.093-1.1-2.195-2.187-3.284-3.29-.279-.283-.534-.231-.882-.114a3.061,3.061,0,0,1-3.877-1.591,1.1,1.1,0,0,0-1.065-.663q-2.058.014-4.116,0a.913.913,0,0,0-.893.534,3.15,3.15,0,0,1-4.051,1.712.72.72,0,0,0-.873.144c-1.067,1.088-2.151,2.159-3.23,3.236a.533.533,0,0,0-.173.65c.644,1.865.068,3.434-1.573,4.145a.707.707,0,0,0-.492.746c.019,1.524.013,3.049,0,4.573a.6.6,0,0,0,.4.641,3.074,3.074,0,0,1,1.64,4.238c-.1.281.014.416.181.582q1.729,1.72,3.45,3.447a.4.4,0,0,0,.5.126c1.819-.538,3.452-.228,4.278,1.634a.7.7,0,0,0,.762.453c1.346-.017,2.694-.037,4.039.007a1.184,1.184,0,0,0,1.244-.727,3.031,3.031,0,0,1,3.774-1.486.906.906,0,0,0,1.161-.239c.985-.991,1.968-1.985,2.968-2.96a.8.8,0,0,0,.243-1.012,3.21,3.21,0,0,1,1.677-4.074.889.889,0,0,0,.547-.954c-.02-1.27-.04-2.542.008-3.81a1.177,1.177,0,0,0-.73-1.238,3.049,3.049,0,0,1-1.736-2.888,3.427,3.427,0,0,1,.24-1.213" transform="translate(-209.851 -202.791)" fill="#050605"/>
    <path id="Trazado_786803" data-name="Trazado 786803" d="M281.414,104.373c.112-.079.242-.156.356-.252.477-.408.807-1.156,1.388-1.221s.922.692,1.339,1.111c.353.354.5.1.719-.112,1.452-1.454,2.918-2.894,4.35-4.368.351-.362.567-.385.878.008.374.471,1.162.809,1.142,1.324-.017.436-.709.854-1.117,1.264-1.736,1.744-3.488,3.473-5.211,5.23-.338.345-.528.389-.882.012-.937-1-1.923-1.951-2.961-2.994" transform="translate(-238.378 -84.072)" fill="#090909"/>
    <path id="Trazado_786804" data-name="Trazado 786804" d="M112.077,283.188a3.541,3.541,0,0,1,3.565-3.606,3.454,3.454,0,0,1,3.719,3.6,3.6,3.6,0,0,1-3.906,3.68,3.738,3.738,0,0,1-3.377-3.677m4.88.047a1.22,1.22,0,1,0-1.287,1.191,1.207,1.207,0,0,0,1.287-1.191" transform="translate(-94.935 -236.827)" fill="#808d9a"/>
    <path id="Trazado_786805" data-name="Trazado 786805" d="M33.5,295.306a1.22,1.22,0,1,1-1.229,1.172,1.207,1.207,0,0,1,1.229-1.172" transform="translate(-27.336 -250.146)" fill="#090909"/>
    <path id="Trazado_786806" data-name="Trazado 786806" d="M288.315,261.639a3.428,3.428,0,0,0-.24,1.213,3.05,3.05,0,0,0,1.736,2.889,1.177,1.177,0,0,1,.73,1.238c-.048,1.269-.027,2.54-.008,3.81a.889.889,0,0,1-.547.954,3.211,3.211,0,0,0-1.677,4.074.8.8,0,0,1-.243,1.012c-1,.975-1.983,1.968-2.968,2.96a.906.906,0,0,1-1.161.239,3.031,3.031,0,0,0-3.774,1.486,1.184,1.184,0,0,1-1.244.727c-1.345-.045-2.693-.024-4.039-.007a.7.7,0,0,1-.762-.453c-.826-1.862-2.459-2.171-4.278-1.634a.4.4,0,0,1-.5-.126q-1.723-1.726-3.45-3.447c-.167-.166-.284-.3-.181-.582a3.074,3.074,0,0,0-1.64-4.238.6.6,0,0,1-.4-.641c.009-1.524.015-3.049,0-4.573a.708.708,0,0,1,.492-.746c1.641-.71,2.217-2.28,1.573-4.145a.533.533,0,0,1,.173-.65c1.078-1.077,2.162-2.149,3.229-3.236a.72.72,0,0,1,.873-.144,3.15,3.15,0,0,0,4.051-1.712.914.914,0,0,1,.893-.534q2.058.017,4.116,0a1.1,1.1,0,0,1,1.065.663,3.061,3.061,0,0,0,3.877,1.591c.348-.117.6-.169.882.114,1.089,1.1,2.19,2.192,3.283,3.29.1.1.248.2.137.61M267.338,268.8a9.748,9.748,0,1,0,19.5-.017,9.748,9.748,0,0,0-19.5.017" transform="translate(-223.346 -216.318)" fill="#ffb300"/>
    <path id="Trazado_786807" data-name="Trazado 786807" d="M130.485,296.546a1.22,1.22,0,1,1-1.154-1.248,1.211,1.211,0,0,1,1.154,1.248" transform="translate(-108.463 -250.137)" fill="#090909"/>
    <path id="Trazado_786808" data-name="Trazado 786808" d="M287.635,289.232a9.748,9.748,0,0,1,19.5-.017,9.748,9.748,0,1,1-19.5.017m9.712,7.327a7.307,7.307,0,1,0-7.26-6.75,7.346,7.346,0,0,0,7.26,6.75" transform="translate(-243.643 -236.754)" fill="#050605"/>
    <path id="Trazado_786809" data-name="Trazado 786809" d="M310.886,310.139a7.346,7.346,0,0,1-7.26-6.75,7.307,7.307,0,1,1,7.26,6.75m4.479-9.432c-1.588-2.406-3.345-3.137-5.96-2.473a4.608,4.608,0,0,0-3.277,5.6,4.714,4.714,0,0,0,5.288,3.835,4.866,4.866,0,0,0,4.279-3.885,8.027,8.027,0,0,0-.211-2.956c.025-.1-.017-.143-.12-.124" transform="translate(-257.183 -250.334)" fill="#ffc845"/>
    <path id="Trazado_786810" data-name="Trazado 786810" d="M328.748,314.527a8.03,8.03,0,0,1,.21,2.956,4.866,4.866,0,0,1-4.279,3.885,4.714,4.714,0,0,1-5.288-3.835,4.608,4.608,0,0,1,3.277-5.6c2.614-.665,4.372.067,5.96,2.473l.12.124m-6.987,1.987a2.442,2.442,0,0,0,2.326,2.438,2.564,2.564,0,0,0,2.553-2.405,2.5,2.5,0,0,0-2.482-2.444,2.319,2.319,0,0,0-2.4,2.411" transform="translate(-270.447 -264.03)" fill="#050605"/>
    <path id="Trazado_786811" data-name="Trazado 786811" d="M380.575,329.492l-.12-.124c.1-.019.145.019.12.124" transform="translate(-322.273 -278.995)" fill="#090a07"/>
    <path id="Trazado_786812" data-name="Trazado 786812" d="M335.549,329.831a2.319,2.319,0,0,1,2.4-2.411,2.5,2.5,0,0,1,2.482,2.444,2.565,2.565,0,0,1-2.553,2.405,2.442,2.442,0,0,1-2.326-2.438" transform="translate(-284.235 -277.347)" fill="#a6c95d"/>
  </g>
</svg>
