<svg id="Grupo_1043196" data-name="Grupo 1043196" xmlns="http://www.w3.org/2000/svg" xmlns:xlink="http://www.w3.org/1999/xlink" width="72.801" height="72.762" viewBox="0 0 72.801 72.762">
  <defs>
    <clipPath id="clip-path">
      <rect id="Rectángulo_372040" data-name="Rectángulo 372040" width="72.8" height="72.762" fill="none"/>
    </clipPath>
  </defs>
  <g id="Grupo_1043195" data-name="Grupo 1043195" clip-path="url(#clip-path)">
    <path id="Trazado_786813" data-name="Trazado 786813" d="M30.167.315a1.439,1.439,0,0,1,1.948.139c1.073.805,2.162,1.589,3.233,2.4a.7.7,0,0,0,.45.138c.915.015,1.828.062,2.743.113a37.631,37.631,0,0,1,6.018.949A31.438,31.438,0,0,1,55.291,8.832,36.535,36.535,0,0,1,59.574,12.4a32.493,32.493,0,0,1,6.021,7.771c.255.456.445.949.665,1.424l-.1.1.106.017a20.061,20.061,0,0,1,1.861,4.245,17.921,17.921,0,0,1,.833,3.216.456.456,0,0,0,.524.429c.566-.006,1.134-.032,1.7.007a1.7,1.7,0,0,1,1.483.932.294.294,0,0,0,.138.3v.853a31.622,31.622,0,0,0-2.318,2.9,2.642,2.642,0,0,0-.674,2.1c.077,1.162-.375,2.288-.28,3.456a.257.257,0,0,1-.055.2c-.285.218-.211.438-.105.735a1.466,1.466,0,0,1-.029.829c-.244.947-.427,1.91-.655,2.861a26.784,26.784,0,0,1-1.429,4.353,1.463,1.463,0,0,1-1.964.912,1.885,1.885,0,0,1-.817-1.881c.061-.537.552-.69.621-1.159.135-.913.573-1.743.79-2.645a4.8,4.8,0,0,1,.423-1.579c.113-.092.111-.183,0-.272l-.156-.292.114-.11a4.328,4.328,0,0,0,.442-2.583c.118-.054.188-.182.072-.235s-.194.11-.248.222a30.78,30.78,0,0,0-2.457,2.825c-.664.839-1.836,1.335-2.641.031l-.14-.147h0l-.079-.132-1.347-2.127-.043-.2-.094.156a.919.919,0,0,0-.285.6,21.32,21.32,0,0,1-2.427,7.042,23.414,23.414,0,0,1-6.6,7.591,22.826,22.826,0,0,1-8.141,3.935c-.547.143-1.25.221-1.611-.374-.374-.618-.649-.327-1-.046-.238.191-.485.374-.74.543-1.614,1.069-3.232,2.131-4.846,3.2-.427.283-.528.589-.048.933a10.681,10.681,0,0,1,1.32.99c1.177,1.176,2.536,2.125,3.781,3.211.344.3.637.755,1.181.842a1.589,1.589,0,0,1,1.161-1.861,26.98,26.98,0,0,0,4.571-1.143A29.721,29.721,0,0,0,57.5,58.433a1.619,1.619,0,0,1,2.321-.241c.465.846.477,1.6-.031,2.054-1.036.924-2.052,1.88-3.157,2.715a32.814,32.814,0,0,1-12.582,5.945c-.65.148-.971.348-.86,1.057a4.1,4.1,0,0,1,0,1.2c-.089.612-.185,1.254-.934,1.456a.288.288,0,0,0-.294.138h-.853L37.7,70.167l-.159-.107a1.018,1.018,0,0,0-.746-.29,27.786,27.786,0,0,1-9.41-1.161,30.737,30.737,0,0,1-8.763-3.915c-.8-.53-1.625-1.031-2.379-1.632l-.151-.1-.418-.331-.106-.1a41.117,41.117,0,0,1-4.532-4.4,36.265,36.265,0,0,1-4.4-6.456A25.4,25.4,0,0,1,5.439,48.9l-.115-.151a18.769,18.769,0,0,1-1.21-4.188c-.044-.389-.35-.77-.439-1.2-.045-.219-.3-.186-.485-.186-.568,0-1.137.014-1.705,0A1.4,1.4,0,0,1,.322,40.854c.761-1.183,1.619-2.306,2.472-3.427a1.09,1.09,0,0,0,.231-.769A30.966,30.966,0,0,1,4.881,25.273a33.376,33.376,0,0,1,4.032-7.919,32.525,32.525,0,0,1,6.647-7.076c.182-.144.346-.311.519-.468l.16-.107a26.5,26.5,0,0,1,4.118-2.6l.146-.113A32.563,32.563,0,0,1,26.475,4.5a16.381,16.381,0,0,0,2.674-.755.714.714,0,0,0,.489-.759A4.983,4.983,0,0,1,29.911.507c.021-.035.069-.054.1-.081l.151-.111M11.691,36.1l0,0-.089-.14c-.113-.19-.347-.307-.337-.569l-.144-.146,0,0-.089-.141c-.113-.189-.345-.308-.336-.569l-.145-.145,0,0-.09-.141-.477-.574c-.016-.056-.03-.159-.049-.16-.121-.008-.073.1-.091.163-.339.2-.39.633-.7.852L9,34.652,7.854,36.1l-.136.116c-1.066,1.241-2.146,2.47-3.187,3.731-.281.34.005.441.316.415.882-.075,1.337.545,1.472,1.354s.292,1.592.5,2.372a30.834,30.834,0,0,0,3.426,8.13,29.958,29.958,0,0,0,7.6,8.484,30.435,30.435,0,0,0,7.779,4.313,28.821,28.821,0,0,0,7.252,1.745l.71.037c.1-.047.1-.1,0-.144l-.154-.046-.107-.087-.171-.152c-1.02-.892-2.061-1.763-3.054-2.683a1.283,1.283,0,0,1,.1-2.1c.361-.291.806-.479,1.155-.781.478-.413,1.173-.545,1.566-1.2a15.126,15.126,0,0,1-2.9-.54A35.767,35.767,0,0,1,25,56.914a24.086,24.086,0,0,1-7.512-6.678,24.428,24.428,0,0,1-3.831-8.018,1.338,1.338,0,0,1,.461-1.595c.518-.342.287-.527.08-.835-.793-1.178-1.577-2.362-2.365-3.543l-.145-.145M38.959,9.667c-2.2-1.681-4.168-3.636-6.523-5.382.118,1.143-.3,1.832-1.307,2.064-.271.062-.574-.007-.842.063a37.305,37.305,0,0,0-7.061,2.381,30.775,30.775,0,0,0-8.048,5.553,33.412,33.412,0,0,0-2.869,3.163A28.763,28.763,0,0,0,8.9,22.989a29.112,29.112,0,0,0-2.526,7.687,10.636,10.636,0,0,0-.335,2.907c1.088-1.245,2.072-2.407,3.1-3.532a1.414,1.414,0,0,1,2.131.205c.525.785,1.043,1.575,1.538,2.379.089.145.152.217.311.19s.131-.167.148-.276a23.532,23.532,0,0,1,8.564-14.572,22.523,22.523,0,0,1,8.485-4.266,1.813,1.813,0,0,1,1.557.15c.792.551.984.547,1.788-.075.309-.239.653-.434.961-.675a9.49,9.49,0,0,0,1.65-1.174l.151-.1.263-.178.163-.107.263-.177.164-.108.262-.177.164-.108.261-.176.165-.109.271-.183.155-.1.474-.461c.1-.015.286.036.275-.112s-.2-.163-.34-.173m26.165,26.89,3.31-3.987a1.836,1.836,0,0,1-1.995-1.514c-.059-.248.02-.53-.047-.774a39.251,39.251,0,0,0-3.074-8.354,31.827,31.827,0,0,0-9.705-10.834c-.061-.131-.179-.146-.3-.148a30,30,0,0,0-6.725-3.318A25.984,25.984,0,0,0,39.7,6.109c-.145-.227-.344-.131-.6-.092l.437.259a.511.511,0,0,0,.077.114c.922.789,1.81,1.622,2.778,2.349a1.542,1.542,0,0,1-.026,2.62,17.588,17.588,0,0,0-2.026,1.31c-.175.121-.559.136-.466.416.049.147.411.237.642.268a20.9,20.9,0,0,1,6.994,2.388A23.926,23.926,0,0,1,59.118,30.508a1.357,1.357,0,0,1-.5,1.63c-.4.256-.317.394-.085.732,1.152,1.674,2.26,3.378,3.384,5.071a3.093,3.093,0,0,0,.794,1.031c.16.211.318.4.421-.037l.426-.557c0-.037,0-.074,0-.111l.6-.6a.233.233,0,0,0,.25-.244c.293-.176.357-.533.6-.753Zm-22.777,17.7a1.21,1.21,0,0,1,.74,1.013c.011.523.212.51.6.359a19.014,19.014,0,0,0,4.214-2.192l.166-.112c.66-.506,1.359-.968,1.974-1.524a20.434,20.434,0,0,0,5.838-8.824,15.03,15.03,0,0,0,.98-5.9c-.05-.649.258-1.334-.247-1.965-.747-.934-1.405-1.939-2.126-2.9-.83-1.1-.62-2.191.841-2.648a2.133,2.133,0,0,1,.443-.037,20.831,20.831,0,0,0-2.589-5.073c.006-.281-.183-.3-.393-.3a5.152,5.152,0,0,0-1-1.468,16.533,16.533,0,0,0-3.343-2.876c.022-.036.149-.015.06-.111l-.076.1c-.273.03-.15-.335-.363-.365l-.163-.109a27.191,27.191,0,0,0-2.675-1.506,22.958,22.958,0,0,0-5.922-1.786c-1.068-.2-2.149.066-3.2-.25a1.029,1.029,0,0,0-.9.265c-1.049.781-2.115,1.538-3.161,2.323-.963.723-2.262.4-2.4-.72-.106-.887-.488-.565-.88-.4A22.046,22.046,0,0,0,22.9,20.809a19.1,19.1,0,0,0-4.921,6.341C16.952,29.3,15.928,31.5,16.09,33.993c-.57.816-.138,1.738-.272,2.6a1.7,1.7,0,0,0,.464,1.332c.675.879,1.339,1.768,1.974,2.675.884,1.264.288,2.5-1.3,2.646a20.773,20.773,0,0,0,6.122,8.879,21.764,21.764,0,0,0,6.651,3.783,18.483,18.483,0,0,0,6.607,1.1,2.088,2.088,0,0,0,1.634-.59l.152-.107c.59-.43,1.214-.821,1.761-1.3a2.375,2.375,0,0,1,2.442-.753Z" transform="translate(0 0)" fill="#040504"/>
    <path id="Trazado_786814" data-name="Trazado 786814" d="M294.9,509.856a.171.171,0,0,0-.01.138H294.6a.288.288,0,0,1,.294-.138" transform="translate(-252.64 -437.232)" fill="#0c0b0b"/>
    <path id="Trazado_786815" data-name="Trazado 786815" d="M510.267,214.732a.293.293,0,0,1-.138-.3.216.216,0,0,0,.138.012Z" transform="translate(-437.466 -183.891)" fill="#090a09"/>
    <path id="Trazado_786816" data-name="Trazado 786816" d="M464.566,151.719l-.107-.017.1-.1q0,.06,0,.12" transform="translate(-398.302 -130.005)" fill="#f9f9f9"/>
    <path id="Trazado_786817" data-name="Trazado 786817" d="M37.332,342.231l.115.151c-.082-.017-.144-.049-.115-.151" transform="translate(-32.008 -293.484)" fill="#0c0b0b"/>
    <path id="Trazado_786818" data-name="Trazado 786818" d="M113.043,68.057l-.16.107c.029-.072.055-.15.16-.107" transform="translate(-96.804 -58.352)" fill="#090a09"/>
    <path id="Trazado_786819" data-name="Trazado 786819" d="M109.226,439.011l.106.1c-.1.039-.126,0-.106-.1" transform="translate(-93.662 -376.478)" fill="#090a09"/>
    <path id="Trazado_786820" data-name="Trazado 786820" d="M112.942,442.02l.151.1c-.1.042-.127-.028-.151-.1" transform="translate(-96.855 -379.059)" fill="#090a09"/>
    <path id="Trazado_786821" data-name="Trazado 786821" d="M143.066,49.055l-.146.113c.014-.082.046-.142.146-.113" transform="translate(-122.562 -42.061)" fill="#090a09"/>
    <path id="Trazado_786822" data-name="Trazado 786822" d="M210.874,2.162l-.151.111c.019-.079.05-.144.151-.111" transform="translate(-180.708 -1.846)" fill="#090a09"/>
    <path id="Trazado_786823" data-name="Trazado 786823" d="M263.532,491.862l.159.107c-.1.042-.131-.035-.159-.107" transform="translate(-225.995 -421.801)" fill="#0c0b0b"/>
    <path id="Trazado_786824" data-name="Trazado 786824" d="M265.032,293.343l-2.264,2.668a1.619,1.619,0,0,0-2.321.241,29.723,29.723,0,0,1-11.46,6.943,26.985,26.985,0,0,1-4.571,1.143,1.589,1.589,0,0,0-1.161,1.861c-.544-.087-.837-.542-1.181-.842-1.246-1.086-2.6-2.035-3.781-3.211a10.7,10.7,0,0,0-1.32-.99c-.48-.344-.379-.65.048-.933,1.614-1.069,3.233-2.13,4.846-3.2.255-.169.5-.351.74-.543.35-.281.624-.572,1,.046.36.6,1.064.516,1.611.374a22.824,22.824,0,0,0,8.141-3.935,23.414,23.414,0,0,0,6.6-7.591,21.321,21.321,0,0,0,2.427-7.042.919.919,0,0,1,.285-.6l.137.041,1.347,2.127c-.048.089.023.106.079.132h0a.142.142,0,0,0,.14.147c.806,1.3,1.977.808,2.641-.031a30.738,30.738,0,0,1,2.457-2.825l.176.013a4.328,4.328,0,0,1-.442,2.583c-.1-.022-.131.017-.114.111l.156.292q0,.136,0,.272a4.8,4.8,0,0,0-.423,1.579c-.217.9-.655,1.732-.79,2.645-.069.469-.56.622-.621,1.159a1.885,1.885,0,0,0,.816,1.881,10.425,10.425,0,0,1-1.707,2.979,1.531,1.531,0,0,0-1.942.567,1.44,1.44,0,0,0,.446,1.943" transform="translate(-202.945 -237.818)" fill="#afafaf"/>
    <path id="Trazado_786825" data-name="Trazado 786825" d="M277.742,42.89a25.987,25.987,0,0,1,6.885,1.518,29.994,29.994,0,0,1,6.725,3.318c.041.173.2.111.3.148a31.83,31.83,0,0,1,9.705,10.834,39.253,39.253,0,0,1,3.074,8.355c.066.244-.012.526.047.774a1.836,1.836,0,0,0,1.995,1.514l-3.31,3.987c-.1-.026-.131.014-.112.109-.238.22-.3.577-.6.753a.264.264,0,0,0-.25.244l-.6.6-.1.013.1.1-.426.557-.421.037a3.09,3.09,0,0,1-.794-1.031c-1.124-1.693-2.232-3.4-3.384-5.071-.232-.338-.312-.475.085-.732a1.357,1.357,0,0,0,.5-1.63,23.927,23.927,0,0,0-11.606-14.767,20.9,20.9,0,0,0-6.994-2.388c-.232-.031-.593-.121-.642-.268-.093-.28.291-.295.466-.416a17.587,17.587,0,0,1,2.026-1.31,1.542,1.542,0,0,0,.026-2.62c-.968-.727-1.857-1.56-2.778-2.349a.516.516,0,0,1-.077-.114l.163-.167" transform="translate(-238.041 -36.781)" fill="#2d54fe"/>
    <path id="Trazado_786826" data-name="Trazado 786826" d="M74.176,36.605l-.261.176c-.106-.041-.133.035-.164.108l-.263.177c-.106-.042-.133.035-.164.108l-.263.177c-.106-.043-.133.035-.163.107l-.263.178c-.1-.044-.128.025-.151.1a9.485,9.485,0,0,1-1.65,1.174c-.308.241-.652.436-.961.675-.8.622-1,.626-1.788.075a1.813,1.813,0,0,0-1.557-.15,22.524,22.524,0,0,0-8.485,4.266A23.532,23.532,0,0,0,49.48,58.348c-.017.109.016.248-.148.276s-.222-.045-.311-.189c-.5-.8-1.013-1.594-1.538-2.379a1.414,1.414,0,0,0-2.131-.2c-1.025,1.125-2.01,2.287-3.1,3.532a10.636,10.636,0,0,1,.335-2.907,29.115,29.115,0,0,1,2.526-7.687,28.77,28.77,0,0,1,3.411-5.48A33.431,33.431,0,0,1,51.4,40.146a30.777,30.777,0,0,1,8.048-5.553,37.312,37.312,0,0,1,7.061-2.381c.268-.07.571,0,.842-.063,1.011-.232,1.425-.922,1.307-2.065,2.354,1.746,4.327,3.7,6.523,5.382l.065.285-.474.461c-.1-.044-.13.026-.155.1l-.271.183c-.106-.041-.134.036-.165.109" transform="translate(-36.218 -25.8)" fill="#ffca00"/>
    <path id="Trazado_786827" data-name="Trazado 786827" d="M34.441,238.848l1.143-1.445c.1.024.132-.033.148-.115.314-.219.365-.654.7-.852l.07-.01.07.007.477.574c-.044.094.028.114.09.141l0,0,.145.145c-.009.261.223.38.336.569-.044.094.028.114.089.141l0,0,.144.145c-.01.262.224.38.337.569-.044.094.027.114.089.14l0,0,.144.145c.788,1.181,1.572,2.365,2.365,3.543.207.307.438.493-.08.835a1.338,1.338,0,0,0-.461,1.594,24.431,24.431,0,0,0,3.831,8.019,24.086,24.086,0,0,0,7.512,6.678,35.786,35.786,0,0,0,5.013,2.153,15.112,15.112,0,0,0,2.9.54c-.393.65-1.089.782-1.566,1.2-.349.3-.794.49-1.155.781a1.283,1.283,0,0,0-.1,2.1c.994.92,2.034,1.791,3.054,2.683l.171.152.107.087c-.186.05-.4.006-.557.154a28.834,28.834,0,0,1-7.252-1.745,30.438,30.438,0,0,1-7.778-4.313,29.96,29.96,0,0,1-7.6-8.484,30.837,30.837,0,0,1-3.426-8.13c-.207-.78-.365-1.576-.5-2.372s-.59-1.429-1.472-1.354c-.311.026-.6-.074-.316-.415,1.042-1.261,2.122-2.49,3.187-3.731.1.021.13-.031.136-.116" transform="translate(-26.587 -202.75)" fill="#fe502d"/>
    <path id="Trazado_786828" data-name="Trazado 786828" d="M371.018,169.917c-.189-.023-.363-.064-.393-.3.21-.005.4.017.393.3" transform="translate(-317.833 -145.458)" fill="#0c0b0b"/>
    <path id="Trazado_786829" data-name="Trazado 786829" d="M275.109,42.013l-.163.167-.437-.259c.256-.039.455-.134.6.092" transform="translate(-235.408 -35.903)" fill="#a7ceec"/>
    <path id="Trazado_786830" data-name="Trazado 786830" d="M230.794,467.751c.159-.148.371-.1.557-.154l.154.046,0,.144-.709-.037" transform="translate(-197.92 -400.992)" fill="#ec7984"/>
    <path id="Trazado_786831" data-name="Trazado 786831" d="M273.576,68.155l-.065-.285c.141.01.329.011.34.173s-.17.1-.275.112" transform="translate(-234.552 -58.203)" fill="#0c0b0b"/>
    <path id="Trazado_786832" data-name="Trazado 786832" d="M440.281,273.385l.421-.037c-.1.434-.261.247-.421.037" transform="translate(-377.567 -234.412)" fill="#0c0b0b"/>
    <path id="Trazado_786833" data-name="Trazado 786833" d="M467.236,275.921l-.176-.013c.054-.112.119-.281.248-.222s.046.181-.072.235" transform="translate(-400.532 -236.407)" fill="#81c8b9"/>
    <path id="Trazado_786834" data-name="Trazado 786834" d="M450.483,262.94a.264.264,0,0,1,.25-.244.233.233,0,0,1-.25.244" transform="translate(-386.316 -225.278)" fill="#0c0b0b"/>
    <path id="Trazado_786835" data-name="Trazado 786835" d="M374.57,76.992c-.107-.037-.263.025-.3-.148.124,0,.242.017.3.148" transform="translate(-320.956 -65.898)" fill="#090a09"/>
    <path id="Trazado_786836" data-name="Trazado 786836" d="M465.489,298.638q0-.136,0-.272.172.133,0,.272" transform="translate(-399.181 -255.867)" fill="#0c0b0b"/>
    <path id="Trazado_786837" data-name="Trazado 786837" d="M419.446,279.285l-.137-.041.094-.156.043.2" transform="translate(-359.583 -239.336)" fill="#090a09"/>
    <path id="Trazado_786838" data-name="Trazado 786838" d="M69.282,235.509l-.07-.007-.07.01c.017-.064-.03-.17.091-.163.02,0,.033.1.049.16" transform="translate(-59.293 -201.825)" fill="#0c0b0b"/>
    <path id="Trazado_786839" data-name="Trazado 786839" d="M78.226,247.6l-.144-.146.144.146" transform="translate(-66.96 -212.211)" fill="#0c0b0b"/>
    <path id="Trazado_786840" data-name="Trazado 786840" d="M74.233,241.619l-.145-.145.145.145" transform="translate(-63.535 -207.078)" fill="#0c0b0b"/>
    <path id="Trazado_786841" data-name="Trazado 786841" d="M63.308,242.475c-.016.081-.05.139-.148.115l.148-.115" transform="translate(-54.163 -207.937)" fill="#0c0b0b"/>
    <path id="Trazado_786842" data-name="Trazado 786842" d="M77.473,246.632c-.062-.026-.134-.047-.089-.14l.089.14" transform="translate(-66.349 -211.382)" fill="#0c0b0b"/>
    <path id="Trazado_786843" data-name="Trazado 786843" d="M257.517,81.132c.031-.072.058-.149.163-.107l-.163.107" transform="translate(-220.836 -69.473)" fill="#0c0b0b"/>
    <path id="Trazado_786844" data-name="Trazado 786844" d="M81.468,252.618c-.062-.026-.133-.046-.089-.14l.089.14" transform="translate(-69.775 -216.515)" fill="#0c0b0b"/>
    <path id="Trazado_786845" data-name="Trazado 786845" d="M54.321,253.425c-.006.085-.039.137-.136.116l.136-.116" transform="translate(-46.467 -217.327)" fill="#0c0b0b"/>
    <path id="Trazado_786846" data-name="Trazado 786846" d="M82.218,253.589l-.144-.145.144.145" transform="translate(-70.383 -217.343)" fill="#0c0b0b"/>
    <path id="Trazado_786847" data-name="Trazado 786847" d="M456.388,256.712c-.019-.094.015-.134.112-.108l-.112.108" transform="translate(-391.376 -220.046)" fill="#090a09"/>
    <path id="Trazado_786848" data-name="Trazado 786848" d="M260.508,79.134c.031-.072.058-.149.164-.108l-.164.108" transform="translate(-223.401 -67.76)" fill="#0c0b0b"/>
    <path id="Trazado_786849" data-name="Trazado 786849" d="M445.636,268.764l-.1-.1.1-.013c0,.037,0,.074,0,.111" transform="translate(-382.075 -230.386)" fill="#0c0b0b"/>
    <path id="Trazado_786850" data-name="Trazado 786850" d="M254.608,83.113c.023-.074.05-.144.151-.1l-.151.1" transform="translate(-218.342 -71.177)" fill="#0c0b0b"/>
    <path id="Trazado_786851" data-name="Trazado 786851" d="M263.5,77.139c.031-.073.058-.149.164-.108l-.164.108" transform="translate(-225.968 -66.048)" fill="#0c0b0b"/>
    <path id="Trazado_786852" data-name="Trazado 786852" d="M266.486,75.138c.031-.073.059-.15.165-.109Z" transform="translate(-228.528 -64.332)" fill="#0c0b0b"/>
    <path id="Trazado_786853" data-name="Trazado 786853" d="M336.5,135.8c-.106.042-.133-.036-.163-.109l.163.109" transform="translate(-288.433 -116.367)" fill="#0c0b0b"/>
    <path id="Trazado_786854" data-name="Trazado 786854" d="M429.711,295.534c-.056-.026-.127-.043-.079-.132l.079.132" transform="translate(-368.421 -253.325)" fill="#090a09"/>
    <path id="Trazado_786855" data-name="Trazado 786855" d="M464.366,295.616c-.017-.093.018-.133.114-.11l-.114.11" transform="translate(-398.218 -253.409)" fill="#0c0b0b"/>
    <path id="Trazado_786856" data-name="Trazado 786856" d="M430.425,296.479a.142.142,0,0,1-.14-.147l.14.147" transform="translate(-368.995 -254.122)" fill="#090a09"/>
    <path id="Trazado_786857" data-name="Trazado 786857" d="M340.035,138.443l.076-.1c.089.1-.038.075-.061.111l-.015-.015" transform="translate(-291.6 -118.641)" fill="#0c0b0b"/>
    <path id="Trazado_786858" data-name="Trazado 786858" d="M269.548,73.124c.025-.074.054-.144.155-.1l-.155.1" transform="translate(-231.154 -62.61)" fill="#0c0b0b"/>
    <path id="Trazado_786859" data-name="Trazado 786859" d="M336.325,374.421c.03-.074.058-.152.166-.112Z" transform="translate(-288.419 -320.984)" fill="#090a09"/>
    <path id="Trazado_786860" data-name="Trazado 786860" d="M297.1,380.128l-.009-.128.029.13-.02,0" transform="translate(-254.775 -325.873)" fill="#f9f9f9"/>
    <path id="Trazado_786861" data-name="Trazado 786861" d="M266.583,395.36c.022-.077.05-.144.152-.107l-.152.107" transform="translate(-228.611 -338.944)" fill="#090a09"/>
    <path id="Trazado_786862" data-name="Trazado 786862" d="M232.931,466.072l-.171-.152.171.152" transform="translate(-199.606 -399.554)" fill="#ec7984"/>
    <path id="Trazado_786863" data-name="Trazado 786863" d="M235.775,468.063c0-.048,0-.1,0-.144.1.049.094.1,0,.144" transform="translate(-202.191 -401.269)" fill="#090a09"/>
    <path id="Trazado_786864" data-name="Trazado 786864" d="M73.48,240.646c-.062-.027-.134-.047-.09-.141l.09.141" transform="translate(-62.925 -206.247)" fill="#0c0b0b"/>
    <path id="Trazado_786865" data-name="Trazado 786865" d="M431.929,373.9a1.44,1.44,0,0,1-.446-1.943,1.531,1.531,0,0,1,1.942-.567c.448.507.943.98.569,1.771a1.356,1.356,0,0,1-2.065.74" transform="translate(-369.842 -318.377)" fill="#040504"/>
  </g>
</svg>
