<svg id="Grupo_1043160" data-name="Grupo 1043160" xmlns="http://www.w3.org/2000/svg" xmlns:xlink="http://www.w3.org/1999/xlink" width="121.999" height="121.434" viewBox="0 0 121.999 121.434">
  <defs>
    <clipPath id="clip-path">
      <rect id="Rect치ngulo_372019" data-name="Rect치ngulo 372019" width="121.999" height="121.434" fill="none"/>
    </clipPath>
  </defs>
  <g id="Grupo_1043159" data-name="Grupo 1043159" transform="translate(0 0)" clip-path="url(#clip-path)">
    <path id="Trazado_786592" data-name="Trazado 786592" d="M86.888,75.253c-.9.725-1.746,1.434-2.623,2.1-.764.578-1.572,1.1-2.351,1.654a9.6,9.6,0,0,0-4.35,8.263c.023,2.356.034,4.713,0,7.069a8.645,8.645,0,0,1-3.717,7.4.929.929,0,0,0-.269.671c-.016,3.3.028,6.589-.023,9.883a8.947,8.947,0,0,1-3.048,6.928,8.855,8.855,0,0,1-5.931,2.111c-2.21.034-4.421.043-6.63,0a8.353,8.353,0,0,1-7.926-4.926,10.943,10.943,0,0,1-.928-4.16c-.132-3.268-.048-6.545-.034-9.818a.852.852,0,0,0-.4-.809,7.97,7.97,0,0,1-3.462-5.966c-.158-1.781-.105-3.58-.145-5.37-.006-.247,0-.494,0-.85-.193.155-.318.24-.424.345-.829.822-1.645,1.657-2.483,2.47a1.979,1.979,0,0,1-2.908.283c-1.635-1.078-3.243-2.2-4.866-3.292a6.959,6.959,0,0,0-.63-.342c-.417,2.084-.819,4.1-1.223,6.112a2.262,2.262,0,0,1-2.239,2.064c-2.686.065-5.375.044-8.061-.022a1.885,1.885,0,0,1-1.81-1.636c-.391-1.7-.746-3.415-1.122-5.121-.1-.443-.216-.879-.345-1.4a3.815,3.815,0,0,0-.466.224c-1.58,1.085-3.148,2.187-4.735,3.26-1.37.926-2.134.854-3.319-.316-1.735-1.713-3.452-3.447-5.175-5.173-.132-.132-.26-.271-.38-.415-.925-1.1-1-1.519-.226-2.727.862-1.351,1.808-2.649,2.709-3.975.289-.424.556-.862.879-1.367a8.92,8.92,0,0,0-1.187-.444c-1.155-.245-2.323-.435-3.48-.676a12.309,12.309,0,0,1-2.171-.558,2.09,2.09,0,0,1-1.365-2q-.033-3.784,0-7.568a2.362,2.362,0,0,1,2.1-2.361c1.831-.392,3.668-.754,5.5-1.133.2-.04.4-.1.7-.169-.168-.266-.288-.47-.421-.666Q6.15,60.239,4.4,57.652a1.538,1.538,0,0,1,.12-1.96,7.035,7.035,0,0,1,.6-.717c1.784-1.781,3.569-3.566,5.369-5.334,1.132-1.114,1.885-1.174,3.2-.278,1.567,1.066,3.122,2.151,4.685,3.225.167.115.343.216.583.364.406-1.939.795-3.8,1.186-5.668.052-.244.1-.489.168-.731a2,2,0,0,1,2.257-1.778c.123,0,.244-.021.309-.027.194-1.515.343-3,.578-4.47a35.545,35.545,0,0,1,2.864-9.335,37.393,37.393,0,0,1,17.393-18.22,60.388,60.388,0,0,1,6.041-2.481,35.59,35.59,0,0,1,9.276-1.757,23.86,23.86,0,0,1,5.481.172,1.64,1.64,0,0,0,1.3-.413c1.8-1.355,3.593-2.709,5.412-4.034a1.818,1.818,0,0,1,2.853.329c1.34,1.646,2.584,3.373,3.868,5.067.2.264.395.536.6.8a2.393,2.393,0,0,0,2.93.834A1.687,1.687,0,0,0,82.578,9.76c.33-2.265.657-4.533,1-6.8a6.462,6.462,0,0,1,.26-1.218,2.268,2.268,0,0,1,2.7-1.363c3.4.5,6.8.986,10.2,1.478.04.006.083.006.124.012,2.449.326,3.054,1.192,2.664,3.628-.354,2.217-.624,4.449-.939,6.675a1.848,1.848,0,0,0,1.177,1.946A1.993,1.993,0,0,0,102,13.951q2.548-1.917,5.113-3.81c.334-.248.673-.493,1.029-.709a1.907,1.907,0,0,1,2.824.389c.882,1.026,1.685,2.12,2.5,3.2,1.435,1.894,2.854,3.8,4.28,5.7.125.166.253.33.368.5a2.018,2.018,0,0,1-.488,3.1c-1.185.92-2.4,1.8-3.6,2.7-.833.627-1.654,1.266-2.483,1.9a1.911,1.911,0,0,0-.624,2.026,1.714,1.714,0,0,0,1.389,1.577c1.575.292,3.165.5,4.75.737.988.147,1.982.261,2.968.427a2.174,2.174,0,0,1,1.938,2.694q-.636,4.483-1.3,8.964c-.13.884-.26,1.771-.446,2.647a2.157,2.157,0,0,1-2.441,1.637q-3.793-.565-7.594-1.085a1.923,1.923,0,0,0-2.048.91,2.135,2.135,0,0,0,.2,2.466c1.309,1.754,2.634,3.5,3.951,5.242.2.267.4.531.589.808a2.029,2.029,0,0,1-.422,2.985c-.917.752-1.892,1.435-2.843,2.146-2.086,1.56-4.165,3.13-6.263,4.673-1.5,1.1-2.475.958-3.62-.531-1.4-1.816-2.757-3.662-4.156-5.477A2.026,2.026,0,0,0,93.09,59a2.251,2.251,0,0,0-1.463,2.054c-.036.579-.141,1.153-.223,1.727-.221,1.54-.473,3.077-.66,4.621A3.045,3.045,0,0,1,89.3,69.757a.905.905,0,0,1-.52.15c-1.446-.135-2.892-.275-4.334-.45-1.874-.228-3.744-.482-5.614-.741q-1.234-.171-2.46-.408a2.1,2.1,0,0,1-1.841-2.284c.067-1.137.269-2.266.415-3.4.188-1.461.4-2.921.562-4.387a1.975,1.975,0,0,0-1.183-2.025,1.874,1.874,0,0,0-2.2.283c-1.813,1.366-3.629,2.73-5.47,4.058a4.252,4.252,0,0,1-1.544.754,2.17,2.17,0,0,1-2.182-1.057c-1.1-1.415-2.215-2.817-3.292-4.248-1.19-1.583-2.349-3.189-3.512-4.79a2.2,2.2,0,0,1,.529-3.49q2.87-2.165,5.731-4.339a2.021,2.021,0,0,0,.169-3.2,1.31,1.31,0,0,0-.656-.329c-2.357-.362-4.717-.721-7.08-1.039-1.581-.212-2.765-1.168-2.748-2.407a17.42,17.42,0,0,1,.315-2.092q.627-4.5,1.244-9c.017-.124.044-.247.069-.369.386-2.014,1.176-2.616,3.493-2.275s4.612.624,6.924.9a1.786,1.786,0,0,0,1.738-.785,1.622,1.622,0,0,0,.126-1.981c-.773-1.11-1.55-2.219-2.346-3.314-.722-.995-1.517-1.939-2.192-2.965a11.421,11.421,0,0,1-.686-1.694c-.071-.162-.286-.384-.417-.373-1.615.131-3.244.2-4.836.475a34.894,34.894,0,0,0-13.054,5.02A33.747,33.747,0,0,0,32.085,28.37,31.474,31.474,0,0,0,28.747,35.2,31.871,31.871,0,0,0,27.158,41.5a27.341,27.341,0,0,0-.338,6.842A50.641,50.641,0,0,0,27.932,55.4a34.181,34.181,0,0,0,14.411,19.8,15.074,15.074,0,0,1,4.994,5.075,12.125,12.125,0,0,1,1.776,6.282c-.053,2.584-.067,5.172,0,7.754a4.494,4.494,0,0,0,3.478,4.61,6.8,6.8,0,0,0,1.61.148c4.9,0,9.8-.028,14.7-.04,2.5-.006,4-1.5,4.48-3.869a6.922,6.922,0,0,0,.12-1.361c.011-2.523-.048-5.047.02-7.568a12.567,12.567,0,0,1,2.855-7.505,20.723,20.723,0,0,1,4.588-4.023c.985-.7,1.933-1.448,2.872-2.207.289-.234.513-.271.746,0,.741.871,1.469,1.753,2.3,2.75M95.4,5.821c-.368-.038-.678-.05-.982-.1-1.865-.305-3.728-.625-5.595-.927-1.251-.2-1.4-.112-1.6,1.123-.25,1.58-.369,3.184-.692,4.747a5.965,5.965,0,0,1-3.874,4.567,5.725,5.725,0,0,1-6.625-1.7,54.132,54.132,0,0,1-3.37-4.413.66.66,0,0,0-1.05-.2c-.632.438-1.244.906-1.862,1.364-1.139.84-2.282,1.675-3.413,2.526-.629.476-.648.612-.195,1.21.731.961,1.477,1.912,2.212,2.871,1.47,1.913,2.531,3.868,1.821,6.478A6.284,6.284,0,0,1,64,27.761c-1.283-.117-2.553-.362-3.831-.541-.835-.118-1.673-.221-2.529-.334-.052.417-.083.746-.132,1.071q-.456,3.056-.921,6.1c-.072.467.054.741.571.813,1.626.232,3.239.6,4.871.711a6.641,6.641,0,0,1,5.439,4.85,5.607,5.607,0,0,1-1.714,5.419,59.109,59.109,0,0,1-4.967,3.878c-.289.218-.348.352-.135.634q2.171,2.866,4.322,5.743c.233.313.421.321.711.085.533-.433,1.084-.846,1.641-1.25A25.592,25.592,0,0,1,70.9,52.43a6.021,6.021,0,0,1,8.788,5.857c-.161,1.881-.489,3.75-.785,5.617-.07.444.013.587.456.649q3.523.484,7.036,1.022c.384.059.477-.088.518-.413.208-1.692.357-3.395.656-5.071a6.252,6.252,0,0,1,4.322-5.195,5.99,5.99,0,0,1,6.594,2.086c1.09,1.4,2.134,2.828,3.2,4.238.207.273.37.6.833.243q2.77-2.139,5.591-4.214c.385-.286.381-.508.1-.862-.79-.995-1.561-2.006-2.32-3.025a8.865,8.865,0,0,1-1.918-3.53,5.9,5.9,0,0,1,4.507-7.117c1.955-.511,3.873.023,5.8.318.747.114,1.5.19,2.255.283.443-2.747.9-5.331,1.082-7.891-1.922-.267-3.721-.456-5.5-.779a6.236,6.236,0,0,1-5.157-4.285,6.159,6.159,0,0,1,2.205-6.685c1.309-1,2.628-1.983,3.945-2.968.719-.538.728-.579.207-1.268-.579-.763-1.149-1.532-1.733-2.291-.785-1.026-1.578-2.043-2.372-3.062-.15-.193-.256-.424-.585-.164-1.388,1.1-2.772,2.2-4.2,3.238a6.138,6.138,0,0,1-8.064-.418A6.943,6.943,0,0,1,94.6,10.614c.222-1.577.521-3.144.8-4.793M12.265,88.609c.86-.594,1.51-1.044,2.161-1.49.67-.459,1.331-.932,2.016-1.367a3.768,3.768,0,0,1,2.821-.743A4.364,4.364,0,0,1,23.029,88.8c.249,1.285.552,2.559.867,3.83a.683.683,0,0,0,.461.437c1.354.023,2.709,0,4.063-.015.422,0,.567-.259.6-.645.047-.516.109-1.033.2-1.543s.229-1,.324-1.507a5.262,5.262,0,0,1,1.226-2.948,4.121,4.121,0,0,1,5.649-.592c1.158.816,2.328,1.615,3.515,2.387a.707.707,0,0,0,.668-.04c1.245-1.2,2.452-2.441,3.683-3.653a.749.749,0,0,0,.185-.95A10.247,10.247,0,0,0,41.1,79.3q-1.661-1.166-3.274-2.4c-.676-.516-.688-.538-1.175.179-.058.086-.1.183-.158.269a12.248,12.248,0,0,1-8.247,5.465,11.165,11.165,0,0,1-5.542-.423,12.012,12.012,0,0,1,1.111-23.257c.358-.075.711-.173.958-.234-.5-2.253-.987-4.44-1.489-6.692a8.986,8.986,0,0,0-.335,1.141,4.23,4.23,0,0,1-6.521,2.681c-1.285-.955-2.643-1.811-4.148-2.835-.986,1.046-1.968,2.15-3.027,3.178a.877.877,0,0,0-.092,1.37c.852,1.182,1.721,2.361,2.464,3.612a4.067,4.067,0,0,1-2.307,5.93c-1.571.454-3.207.681-4.807,1.039-.185.04-.468.26-.472.4-.034,1.5-.021,2.994-.021,4.547.953.2,1.863.389,2.772.585.791.17,1.589.315,2.368.532a4.2,4.2,0,0,1,2.409,6.15c-.763,1.215-1.615,2.377-2.459,3.538a.824.824,0,0,0,.114,1.28c.84.779,1.647,1.594,2.445,2.417a6.244,6.244,0,0,1,.6.841M26.48,78.793a5.5,5.5,0,0,0,2.967-.467,7.8,7.8,0,0,0,4.337-4.335.886.886,0,0,0-.082-.764A36.321,36.321,0,0,1,26.756,63.3a.814.814,0,0,0-.975-.51,8.176,8.176,0,0,0-7.345,9.923c.6,3.093,4.077,6.468,8.044,6.085m26.593,32.565c0,.552-.02,1.028,0,1.5a4.449,4.449,0,0,0,4.7,4.468c2.4,0,4.791.011,7.187.01,3.3,0,5.048-2.751,4.5-5.981Zm16.447-8.034c-.435-.027-.8-.066-1.175-.069q-2.436-.015-4.871-.01c-3.227,0-6.453.011-9.679,0-.493,0-.7.118-.676.667a25.78,25.78,0,0,1-.047,2.683c-.036.57.151.741.73.738,5.038-.021,10.076-.012,15.114-.013.2,0,.4-.023.6-.036Z" transform="translate(0 0.077)" fill="#1a1818"/>
    <path id="Trazado_786593" data-name="Trazado 786593" d="M26.84,42.628A28.5,28.5,0,0,1,32.647,25.39a29.022,29.022,0,0,1,6.962-6.5c.433-.288.648-.267.912.215a22.728,22.728,0,0,0,1.447,2.261c.365.511.245.811-.213,1.183-1.32,1.078-2.661,2.142-3.884,3.326a22.753,22.753,0,0,0-4.7,6.945,23.275,23.275,0,0,0-2.119,9.056,22.457,22.457,0,0,0,1.895,9.907,24.65,24.65,0,0,0,7.31,9.6,32.65,32.65,0,0,0,4.1,2.61c1.857,1.062,3.872,1.878,5.628,3.078a16.561,16.561,0,0,1,7.046,11.012c.14.735.188,1.485.309,2.223.069.416-.1.6-.484.61-1.063.015-2.127.016-3.19.018-.407,0-.586-.2-.612-.618a13,13,0,0,0-4.6-9.249,14.576,14.576,0,0,0-3.893-2.311,28.768,28.768,0,0,1-11.649-8.874,29.6,29.6,0,0,1-5.3-10.8,20.525,20.525,0,0,1-.556-2.873c-.132-1.175-.146-2.364-.213-3.58" transform="translate(6.076 4.233)" fill="#1a1818"/>
    <path id="Trazado_786594" data-name="Trazado 786594" d="M20.874,18.878l-2.288,3.176c-1.8-1.279-3.559-2.53-5.321-3.774-2.788-1.968-5.573-3.939-8.375-5.884-.363-.251-.354-.429-.135-.743.594-.85,1.156-1.722,1.767-2.558.065-.09.417-.082.551.009q1.911,1.293,3.79,2.636c3.321,2.362,6.638,4.733,10.012,7.139" transform="translate(1.042 2.044)" fill="#ffca00"/>
    <path id="Trazado_786595" data-name="Trazado 786595" d="M26.524,15.726c-.167.137-.313.343-.5.4-.855.255-1.721.473-2.585.7-.591.152-.782-.269-.9-.7-.262-.938-.492-1.887-.735-2.832Q20.32,7.551,18.839,1.816c-.22-.846-.213-.9.629-1.121.863-.228,1.737-.419,2.6-.656.472-.13.619.072.711.5.265,1.229.569,2.45.849,3.677.234,1.029.43,2.066.69,3.088.394,1.546.834,3.082,1.241,4.625.323,1.224.624,2.453.966,3.8" transform="translate(4.237 0)" fill="#ffca00"/>
    <path id="Trazado_786596" data-name="Trazado 786596" d="M2.7,32.878c-.292-1.177-.564-2.3-.852-3.427-.1-.4.175-.46.438-.526,1.837-.461,3.675-.915,5.513-1.374,3.17-.792,6.34-1.578,9.5-2.388.457-.117.619-.022.711.45.183.938.43,1.864.681,2.788.113.408-.017.533-.413.629-3.133.759-6.259,1.545-9.387,2.32-2.037.505-4.073,1-6.194,1.527" transform="translate(0.412 5.687)" fill="#ffca00"/>
    <path id="Trazado_786597" data-name="Trazado 786597" d="M90.734,82.879c-1.155-.946-2.272-1.844-3.373-2.763q-3.935-3.284-7.859-6.584c-.817-.684-.819-.686-.153-1.481.6-.719,1.2-1.435,1.863-2.22.927.735,1.863,1.447,2.767,2.2,2.98,2.477,5.946,4.973,8.927,7.45.27.224.314.413.1.673-.743.894-1.486,1.787-2.269,2.726" transform="translate(17.855 15.809)" fill="#ffca00"/>
    <rect id="Rect치ngulo_372018" data-name="Rect치ngulo 372018" width="14.303" height="3.953" transform="translate(99.767 74.92)" fill="#ffca00"/>
    <path id="Trazado_786598" data-name="Trazado 786598" d="M75.39,74.335v14.2H71.414v-.569c0-4.311.01-8.623-.013-12.933,0-.551.148-.727.7-.708,1.077.038,2.155.011,3.29.011" transform="translate(16.164 16.826)" fill="#ffca00"/>
    <path id="Trazado_786599" data-name="Trazado 786599" d="M48.233,75.771c0-.834.01-1.667,0-2.5-.009-.5.189-.727.7-.715,1,.023,2,.027,3,.02a.536.536,0,0,1,.617.607c.009,1.708.025,3.418-.013,5.126a.75.75,0,0,1-.509.527c-1.082.053-2.167.032-3.25.026-.428,0-.558-.239-.545-.652.026-.812.007-1.625.007-2.438h-.007" transform="translate(10.918 16.425)" fill="#1a1818"/>
    <path id="Trazado_786600" data-name="Trazado 786600" d="M84.959,5.013c-.278,1.649-.576,3.217-.8,4.8a6.943,6.943,0,0,0,1.759,6.126,6.136,6.136,0,0,0,8.065.419c1.431-1.038,2.816-2.141,4.2-3.238.33-.26.435-.028.585.163q1.19,1.529,2.373,3.062c.583.76,1.153,1.529,1.732,2.293.521.687.513.728-.206,1.266-1.318.986-2.637,1.971-3.947,2.968a6.165,6.165,0,0,0-2.205,6.687,6.242,6.242,0,0,0,5.157,4.285c1.776.321,3.575.51,5.5.778-.178,2.559-.64,5.145-1.082,7.892-.757-.094-1.51-.17-2.255-.285-1.923-.294-3.841-.829-5.8-.318a5.9,5.9,0,0,0-4.508,7.117,8.883,8.883,0,0,0,1.919,3.53q1.139,1.531,2.32,3.027c.281.354.283.576-.1.861-1.875,1.389-3.744,2.788-5.591,4.214-.461.356-.624.031-.833-.243-1.071-1.41-2.113-2.843-3.2-4.238a5.992,5.992,0,0,0-6.6-2.086,6.254,6.254,0,0,0-4.321,5.195c-.3,1.676-.449,3.38-.657,5.071-.039.325-.134.472-.516.413q-3.514-.537-7.036-1.022c-.443-.06-.527-.2-.456-.649.3-1.867.624-3.734.785-5.616a6.023,6.023,0,0,0-8.79-5.858,25.7,25.7,0,0,0-3.569,2.515c-.556.4-1.106.817-1.64,1.25-.292.237-.48.228-.711-.083q-2.149-2.883-4.322-5.743c-.215-.283-.156-.417.134-.634a59.085,59.085,0,0,0,4.968-3.879,5.605,5.605,0,0,0,1.714-5.419,6.644,6.644,0,0,0-5.439-4.85c-1.632-.112-3.246-.48-4.871-.71-.519-.074-.644-.346-.573-.813q.467-3.052.922-6.1c.048-.325.081-.652.131-1.069.856.112,1.694.216,2.529.332,1.278.179,2.548.424,3.831.541a6.285,6.285,0,0,0,6.176-4.392c.71-2.611-.35-4.565-1.821-6.479-.736-.958-1.481-1.907-2.211-2.87-.454-.6-.434-.736.195-1.209,1.129-.852,2.274-1.688,3.412-2.529.619-.456,1.231-.923,1.863-1.363a.66.66,0,0,1,1.049.2,54.151,54.151,0,0,0,3.37,4.414,5.728,5.728,0,0,0,6.625,1.7,5.965,5.965,0,0,0,3.874-4.567c.324-1.562.441-3.168.693-4.747.2-1.236.346-1.324,1.6-1.123,1.865.3,3.729.622,5.595.926.3.05.613.064.982.1M76.876,50.4a16.237,16.237,0,0,0,15.99-16.23c-.029-8.184-7.331-16.052-16.091-16.023A16.191,16.191,0,0,0,60.608,32.47a15.967,15.967,0,0,0,4.7,13.317A16.27,16.27,0,0,0,76.876,50.4" transform="translate(10.443 0.884)" fill="#2d54fe"/>
    <path id="Trazado_786601" data-name="Trazado 786601" d="M11.523,79.036a6.244,6.244,0,0,0-.6-.841c-.8-.823-1.605-1.638-2.445-2.417a.824.824,0,0,1-.114-1.28c.845-1.161,1.7-2.323,2.459-3.538a4.2,4.2,0,0,0-2.407-6.15c-.779-.217-1.577-.362-2.368-.532-.909-.2-1.82-.384-2.773-.585,0-1.554-.013-3.051.022-4.547,0-.142.286-.362.471-.4,1.6-.357,3.236-.585,4.809-1.038a4.068,4.068,0,0,0,2.306-5.931c-.742-1.251-1.61-2.429-2.464-3.612a.878.878,0,0,1,.092-1.37c1.058-1.028,2.041-2.133,3.027-3.176,1.5,1.023,2.864,1.879,4.148,2.834a4.231,4.231,0,0,0,6.522-2.681,8.6,8.6,0,0,1,.335-1.141c.5,2.253.987,4.44,1.489,6.694-.248.06-.6.157-.958.233a12.013,12.013,0,0,0-1.112,23.258,11.179,11.179,0,0,0,5.542.422,12.253,12.253,0,0,0,8.249-5.465c.058-.086.1-.183.158-.269.486-.717.5-.7,1.174-.179q1.613,1.234,3.276,2.4a10.254,10.254,0,0,1,3.365,4.264.749.749,0,0,1-.184.95c-1.233,1.214-2.439,2.453-3.684,3.653a.707.707,0,0,1-.668.04c-1.187-.771-2.356-1.571-3.515-2.387a4.119,4.119,0,0,0-5.648.592A5.257,5.257,0,0,0,28.8,79.786c-.1.505-.237,1-.325,1.507s-.151,1.026-.2,1.543c-.034.386-.178.641-.6.645-1.355.013-2.71.038-4.064.015a.683.683,0,0,1-.461-.437c-.315-1.269-.618-2.545-.866-3.83a4.364,4.364,0,0,0-3.767-3.794,3.761,3.761,0,0,0-2.819.744c-.687.434-1.348.908-2.017,1.366-.651.446-1.3.9-2.161,1.49" transform="translate(0.742 9.65)" fill="#fe502d"/>
    <path id="Trazado_786603" data-name="Trazado 786603" d="M43.277,90.866H59.664c.547,3.23-1.2,5.977-4.5,5.98-2.4,0-4.791-.007-7.187-.009a4.45,4.45,0,0,1-4.7-4.469c-.023-.475,0-.952,0-1.5" transform="translate(9.796 20.571)" fill="#dee4f0"/>
    <path id="Trazado_786604" data-name="Trazado 786604" d="M59.724,84.329v3.96c-.206.012-.4.036-.6.036-5.038,0-10.076-.007-15.114.013-.579,0-.765-.168-.73-.738a25.779,25.779,0,0,0,.047-2.683c-.023-.549.183-.668.676-.667,3.225.012,6.452,0,9.679,0q2.436,0,4.871.01c.37,0,.74.042,1.175.069" transform="translate(9.796 19.073)" fill="#dee4f0"/>
    <path id="Trazado_786605" data-name="Trazado 786605" d="M74.219,47.773a16.27,16.27,0,0,1-11.566-4.615,15.963,15.963,0,0,1-4.7-13.317A16.191,16.191,0,0,1,74.117,15.52c8.759-.029,16.062,7.839,16.091,16.023a16.238,16.238,0,0,1-15.99,16.23M86.155,31.641a14.527,14.527,0,0,0-.088-1.621c-1.036-6.3-6.309-10.179-10.6-10.277a13.507,13.507,0,0,0-8.832,2.449,11.524,11.524,0,0,0-4.605,9.094,10.7,10.7,0,0,0,2.258,7.42,12.688,12.688,0,0,0,7.734,4.768,10.475,10.475,0,0,0,5.2-.332,13.517,13.517,0,0,0,7.033-5.34,9.994,9.994,0,0,0,1.9-6.16" transform="translate(13.1 3.513)" fill="#1a1818"/>
  </g>
</svg>
