<svg xmlns="http://www.w3.org/2000/svg" xmlns:xlink="http://www.w3.org/1999/xlink" width="55.769" height="53.955" viewBox="0 0 55.769 53.955">
  <defs>
    <clipPath id="clip-path">
      <rect id="Rectángulo_361728" data-name="Rectángulo 361728" width="55.769" height="53.955" fill="#fff"/>
    </clipPath>
  </defs>
  <g id="Grupo_1037148" data-name="Grupo 1037148" clip-path="url(#clip-path)">
    <path id="Trazado_777017" data-name="Trazado 777017" d="M0,3.912A5.084,5.084,0,0,1,1.634,1.054,4.623,4.623,0,0,1,4.649.005Q24.261,0,43.872.007A4.463,4.463,0,0,1,48.519,4.58c.028,6.762.009,13.524.008,20.286,0,.07-.014.14-.026.246H46.72V24.4q0-9.789,0-19.579A2.707,2.707,0,0,0,44.709,1.9a4.212,4.212,0,0,0-1.024-.093q-19.421-.007-38.842,0A2.732,2.732,0,0,0,1.8,4.87q0,19.388,0,38.777a2.751,2.751,0,0,0,3.1,3.071q11.1,0,22.2,0h.733v1.8h-.552c-7.471,0-14.942-.022-22.413.012a4.614,4.614,0,0,1-4.8-3.844c0-.031-.04-.057-.061-.086V3.912" transform="translate(0 0.001)" fill="#fff"/>
    <path id="Trazado_777018" data-name="Trazado 777018" d="M277.308,274.4c-.627-.072-1.255-.136-1.881-.217a13.465,13.465,0,1,1,12.588-21.619c3.385,4.547,3.889,9.46,1.341,14.512a12.876,12.876,0,0,1-9.894,7.1c-.64.106-1.291.149-1.937.221Zm.2-25.2a11.676,11.676,0,1,0,11.6,11.78,11.7,11.7,0,0,0-11.6-11.78" transform="translate(-235.195 -220.442)" fill="#fff"/>
    <rect id="Rectángulo_361716" data-name="Rectángulo 361716" width="41.289" height="1.731" transform="translate(3.616 7.22)" fill="#fff"/>
    <path id="Trazado_777019" data-name="Trazado 777019" d="M42.072,200.527l1.306,1.227-2.16,2.124a17.564,17.564,0,0,1,.6,2.256,4.421,4.421,0,0,1-4.155,4.875,4.482,4.482,0,1,1,1.829-8.415.461.461,0,0,0,.654-.095c.63-.673,1.287-1.322,1.924-1.971m-3.6,3.613a2.58,2.58,0,0,0-3.253.8,2.728,2.728,0,0,0,.306,3.518,2.688,2.688,0,0,0,3.522.183,2.548,2.548,0,0,0,.659-3.312l-1.575,1.747-1.435-1.306,1.776-1.627" transform="translate(-29.299 -178.669)" fill="#fff"/>
    <path id="Trazado_777020" data-name="Trazado 777020" d="M43.359,300.707,41.236,302.8a16.208,16.208,0,0,1,.593,2.192,4.437,4.437,0,0,1-4.341,4.912,4.485,4.485,0,1,1,2.019-8.432.462.462,0,0,0,.652-.095c.635-.668,1.293-1.313,1.951-1.976l1.249,1.307m-4.788,2.355a2.616,2.616,0,0,0-3.389.81,2.706,2.706,0,0,0,.445,3.543,2.674,2.674,0,0,0,3.527.015,2.472,2.472,0,0,0,.578-3.15l-1.65,1.761-1.324-1.358,1.813-1.621" transform="translate(-29.31 -266.764)" fill="#fff"/>
    <path id="Trazado_777021" data-name="Trazado 777021" d="M41.968,101.9l1.332,1.22c-.663.664-1.291,1.315-1.945,1.937a.506.506,0,0,0-.123.73,4.455,4.455,0,0,1-.623,5.1,4.494,4.494,0,1,1-1.3-7,.572.572,0,0,0,.825-.133c.6-.646,1.241-1.262,1.834-1.859m-2.325,4.73-1.692,1.8L36.6,107.12l1.784-1.659a2.63,2.63,0,0,0-3.316.891,2.689,2.689,0,0,0,3.74,3.736,2.694,2.694,0,0,0,.836-3.454" transform="translate(-29.199 -90.794)" fill="#fff"/>
    <rect id="Rectángulo_361717" data-name="Rectángulo 361717" width="15.216" height="1.728" transform="translate(15.318 25.194)" fill="#fff"/>
    <rect id="Rectángulo_361718" data-name="Rectángulo 361718" width="15.215" height="1.729" transform="translate(15.318 14.413)" fill="#fff"/>
    <rect id="Rectángulo_361719" data-name="Rectángulo 361719" width="12.489" height="1.738" transform="translate(23.421 18.002)" fill="#fff"/>
    <path id="Trazado_777022" data-name="Trazado 777022" d="M151.68,329.632V331.4H140.009a14.651,14.651,0,0,1,.021-1.473c.012-.113.283-.282.437-.284,1.341-.023,2.682-.013,4.024-.013h7.189" transform="translate(-124.74 -293.699)" fill="#fff"/>
    <rect id="Rectángulo_361720" data-name="Rectángulo 361720" width="8.924" height="1.742" transform="translate(32.388 14.412)" fill="#fff"/>
    <rect id="Rectángulo_361721" data-name="Rectángulo 361721" width="7.114" height="1.731" transform="translate(23.416 28.781)" fill="#fff"/>
    <rect id="Rectángulo_361722" data-name="Rectángulo 361722" width="6.221" height="1.732" transform="translate(15.304 28.796)" fill="#fff"/>
    <rect id="Rectángulo_361723" data-name="Rectángulo 361723" width="6.218" height="1.729" transform="translate(15.301 39.574)" fill="#fff"/>
    <rect id="Rectángulo_361724" data-name="Rectángulo 361724" width="6.224" height="1.737" transform="translate(15.312 18.003)" fill="#fff"/>
    <rect id="Rectángulo_361725" data-name="Rectángulo 361725" width="3.522" height="1.748" transform="translate(32.372 25.185)" fill="#fff"/>
    <rect id="Rectángulo_361726" data-name="Rectángulo 361726" width="3.52" height="1.731" transform="translate(23.421 39.565)" fill="#fff"/>
    <path id="Trazado_777023" data-name="Trazado 777023" d="M99.154,35.01V33.231h1.776c0,.513.013,1.028-.013,1.542,0,.083-.178.221-.279.226-.482.024-.966.011-1.484.011" transform="translate(-88.346 -29.609)" fill="#fff"/>
    <path id="Trazado_777024" data-name="Trazado 777024" d="M66.189,33.209h1.777c0,.5.016,1-.014,1.5a.409.409,0,0,1-.289.271c-.481.029-.964.013-1.475.013Z" transform="translate(-58.974 -29.589)" fill="#fff"/>
    <rect id="Rectángulo_361727" data-name="Rectángulo 361727" width="1.731" height="1.733" transform="translate(3.619 3.624)" fill="#fff"/>
    <path id="Trazado_777025" data-name="Trazado 777025" d="M322.454,315.844l1.6-.8,1.242,2.468,9.847-9.864,1.252,1.289c-.087.094-.213.237-.347.372q-5.033,5.033-10.067,10.065c-.828.828-1.392.738-1.914-.3-.534-1.064-1.065-2.129-1.612-3.224" transform="translate(-287.305 -274.11)" fill="#fff"/>
  </g>
</svg>
