<svg xmlns="http://www.w3.org/2000/svg" xmlns:xlink="http://www.w3.org/1999/xlink" width="85" height="85" viewBox="0 0 85 85">
  <defs>
    <clipPath id="clip-path">
      <rect id="Rect치ngulo_371990" data-name="Rect치ngulo 371990" width="52.066" height="51.803" fill="#ffca00"/>
    </clipPath>
  </defs>
  <g id="Grupo_1043285" data-name="Grupo 1043285" transform="translate(-600 -1392)">
    <circle id="Elipse_8839" data-name="Elipse 8839" cx="42.5" cy="42.5" r="42.5" transform="translate(600 1392)" fill="#2d54fe"/>
    <g id="Grupo_1043140" data-name="Grupo 1043140" transform="translate(617.934 1407.518)">
      <g id="Grupo_1043139" data-name="Grupo 1043139" transform="translate(0 0)" clip-path="url(#clip-path)">
        <path id="Trazado_786470" data-name="Trazado 786470" d="M12.1,28.379A16.361,16.361,0,0,1,10.979,23.4c-.477,0-.949,0-1.422,0a2.794,2.794,0,0,1-2.218-.931,2.811,2.811,0,0,1-.621-1.927q-.01-2.6.005-5.207c0-.379.016-.379-.357-.433A7.639,7.639,0,0,1,.145,8.8,7.537,7.537,0,0,1,14.8,5.395a7.525,7.525,0,0,1-5.561,9.425,5.918,5.918,0,0,1-.613.093c-.153.018-.226.08-.225.248.009,1.908.007,3.817.019,5.725a.8.8,0,0,0,.745.848c.6.037,1.2.009,1.8.009A15.106,15.106,0,0,1,20.578,8.556a14.687,14.687,0,0,1,9.3-.54,15,15,0,0,1,7.917,5.106,5.18,5.18,0,0,1,.369-.471q.938-.949,1.892-1.883a.61.61,0,0,0,.2-.477c-.008-2.237-.005-4.474-.005-6.71V3.3h3.428V1.658H47.08V0h4.986V11.353c0,.334,0,.336-.348.335q-4.939,0-9.877-.014a.767.767,0,0,0-.6.233q-1.173,1.19-2.368,2.359c-.159.155-.111.272-.014.425A14.358,14.358,0,0,1,40.4,18.038a14.058,14.058,0,0,1,.677,3.62.485.485,0,0,0,.031.089h.31a15.655,15.655,0,0,1,1.761.025,2.5,2.5,0,0,1,2.14,2.238,6.9,6.9,0,0,1,.041.723q0,5.622,0,11.244a5.051,5.051,0,0,1-.019.595c-.025.208.071.276.257.3a7.5,7.5,0,1,1-6.577,12.543,7.393,7.393,0,0,1-2-4.23,7.532,7.532,0,0,1,6.112-8.269c.536-.091.539-.092.538-.648q0-5.972-.009-11.943c0-.645-.291-.921-.943-.921l-1.555,0a.166.166,0,0,0-.042.011,15.123,15.123,0,0,1-7.2,11.954A2.509,2.509,0,0,1,33.4,40a.748.748,0,0,0,.025.135,2.472,2.472,0,0,1-1.5,3.132c-.18.067-.234.14-.151.319a2.332,2.332,0,0,1-.963,2.7.905.905,0,0,0-.538.97,4.274,4.274,0,0,1-3.093,4.344,4.166,4.166,0,0,1-5.1-2.654,5.257,5.257,0,0,1-.295-2.012.449.449,0,0,0-.295-.5,2,2,0,0,1-.941-.861,2.133,2.133,0,0,1-.243-2c.067-.147.047-.233-.137-.307a2.493,2.493,0,0,1-1.672-2.23A4.737,4.737,0,0,1,18.647,40a2.511,2.511,0,0,1-.5-4.624,2.442,2.442,0,0,0-.209-.163,15.144,15.144,0,0,1-4.919-5.028.329.329,0,0,0-.236-.141q-2.191-.013-4.382,0a.854.854,0,0,0-.833.8c-.014.2-.009.4-.009.6q0,4.223,0,8.445c0,.157.017.233.207.229.509-.011,1.019,0,1.529.008a.4.4,0,0,0,.42-.257c.344-.714.7-1.425,1.075-2.122a1.753,1.753,0,0,1,1.608-.963,1.686,1.686,0,0,1,1.605.953,3.546,3.546,0,0,1,.3,1.137,9.761,9.761,0,0,1,.011,1.2,6.685,6.685,0,0,1,.947.269,2.422,2.422,0,0,1,1.531,2.3c.031,2.2.026,4.4,0,6.606a2.535,2.535,0,0,1-2.586,2.557q-5.808.02-11.614,0A2.583,2.583,0,0,1,.01,49.172q-.019-3.225,0-6.451a2.546,2.546,0,0,1,2.538-2.6c1.01-.037,2.023-.023,3.033-.015.244,0,.3-.074.295-.309q-.013-4.145,0-8.29A5.227,5.227,0,0,1,6,30.324a2.587,2.587,0,0,1,2.669-1.943c1.019-.011,2.039,0,3.059,0H12.1m8.027,8.389c-.316,0-.6-.02-.881,0a.816.816,0,0,0-.747.654.7.7,0,0,0,.318.811,1.357,1.357,0,0,0,.7.183q6.455.014,12.911,0a3.329,3.329,0,0,0,.337-.008.883.883,0,0,0,.8-.808.853.853,0,0,0-.8-.836,3.944,3.944,0,0,0-.6,0c-.18.011-.243-.053-.241-.236.009-.57.011-1.14,0-1.71a.394.394,0,0,1,.227-.387c.717-.445,1.451-.871,2.13-1.37a12.654,12.654,0,0,0,3.262-3.644,15.479,15.479,0,0,0,1.627-4,1.479,1.479,0,0,0,.018-.205c.032-.229.067-.457.1-.686a7.148,7.148,0,0,0,.1-.765,14.82,14.82,0,0,0-.611-5.41,12.657,12.657,0,0,0-1.571-3.218A13.595,13.595,0,0,0,24.713,9.26a14.291,14.291,0,0,0-2.834.578,13.456,13.456,0,0,0-7.3,5.744,10.733,10.733,0,0,0-1.319,2.882c-.159.578-.263,1.171-.431,1.747a5.723,5.723,0,0,0-.173,1.691c.007.639,0,1.279,0,1.918a1.822,1.822,0,0,0,.024.387c.182.813.328,1.637.569,2.432a12.737,12.737,0,0,0,3.175,5.268,13.615,13.615,0,0,0,3.45,2.536c.1.053.233.171.236.262.02.663.011,1.327.011,2.064M7.562,13.335a5.752,5.752,0,0,0,5.866-5.818A5.641,5.641,0,0,0,7.573,1.7,5.667,5.667,0,0,0,1.721,7.521a5.743,5.743,0,0,0,5.84,5.814M44.49,38.473a5.8,5.8,0,1,0,5.867,5.778,5.743,5.743,0,0,0-5.867-5.778M8.406,50.13h5.65c.751,0,1.082-.333,1.082-1.093q0-2.37,0-4.739c0-.492,0-.984,0-1.476a.944.944,0,0,0-1.03-1.025c-.369.031-.743.007-1.114.008-.344,0-.344,0-.344-.33,0-.889,0-1.778,0-2.667,0-.167-.038-.314-.2-.338-.075-.011-.2.1-.25.193-.475.918-.949,1.837-1.4,2.767a.557.557,0,0,1-.57.377c-2.488-.008-4.976,0-7.463,0-.793,0-1.1.3-1.1,1.087q0,3.095,0,6.189A.939.939,0,0,0,2.731,50.13H8.406m17.6-10.023h0q-2.331,0-4.663,0a3.941,3.941,0,0,0-.568.031.822.822,0,0,0-.573,1.1.913.913,0,0,0,.837.55c.18.012.362.007.543.006l8.341-.015c.371,0,.743.025,1.113.011a.9.9,0,0,0,.872-.651.705.705,0,0,0-.288-.821,1.263,1.263,0,0,0-.693-.2c-1.641-.016-3.281-.009-4.922-.009m-2.486,6.741a3.571,3.571,0,0,0,.146,1.6A2.409,2.409,0,0,0,26.18,50.1c2.068-.3,2.473-1.671,2.4-3.252ZM48.771,1.666c-.005.052-.013.094-.013.135q0,4,0,8c0,.2.087.223.254.217a10.177,10.177,0,0,1,1.086-.006c.237.016.31-.032.309-.283-.009-2.6-.006-5.192-.006-7.788V1.666ZM26.01,43.473v.006c-1.123,0-2.244,0-3.367,0a.786.786,0,0,0-.723,1.161.977.977,0,0,0,.941.521c2.123.007,4.247.01,6.371-.007a1.286,1.286,0,0,0,.695-.227.773.773,0,0,0,.35-.733.877.877,0,0,0-.9-.72q-1.684,0-3.366,0M47.058,6.615h.009c0-1.043,0-2.086,0-3.13,0-.142-.059-.177-.186-.176-.431,0-.863.008-1.295,0-.178,0-.217.071-.217.231q.008,3.092,0,6.183c0,.216.065.289.283.277.336-.019.673-.009,1.009-.011.385,0,.387,0,.388-.4q0-1.489,0-2.976M41.995,4.983a.355.355,0,0,0-.025.076c0,1.579,0,3.157-.007,4.735,0,.191.1.209.245.207.389-.006.777-.021,1.165-.009.228.007.29-.069.289-.3-.008-1.493,0-2.984,0-4.477,0-.075-.011-.15-.019-.237Z" transform="translate(0 -0.001)" fill="#ffca00"/>
        <path id="Trazado_786471" data-name="Trazado 786471" d="M15.155,66.889V65.567c0-.391,0-.393-.4-.393L6,65.171c-.267,0-.536-.007-.8.013-.077.006-.21.093-.212.147-.016.514-.009,1.029-.009,1.558Zm-10.172,3.3a.294.294,0,0,0,.069.026q3.267,0,6.533.007c.167,0,.2-.081.2-.225,0-.38-.011-.761.008-1.139.012-.254-.084-.32-.329-.319-2.074.008-4.148,0-6.223.005-.083,0-.166.008-.258.013Zm10.155-1.631H13.5v1.652h1.64Z" transform="translate(-1.658 -21.727)" fill="#ffca00"/>
        <path id="Trazado_786472" data-name="Trazado 786472" d="M39.081,38.207c-.143-.053-.252-.082-.35-.131-.33-.165-.647-.359-.987-.5-.239-.1-.408.122-.486.283a7.543,7.543,0,0,0-.425,1.158c-.043.147-.1.206-.235.208-.32.005-.639.018-.959.017-1.642,0-3.283-.013-4.925-.013-.186,0-.262-.055-.314-.245a8.868,8.868,0,0,0-.383-1.069.452.452,0,0,0-.711-.231c-.3.154-.6.307-.9.443a.419.419,0,0,1-.515-.091q-2-1.977-4.014-3.934a.323.323,0,0,1-.075-.465c.178-.315.327-.645.484-.972.169-.354.082-.581-.279-.713s-.731-.261-1.1-.383c-.127-.042-.2-.089-.2-.247q.009-2.875,0-5.75c0-.274.188-.351.383-.417.3-.1.605-.186.908-.278a.506.506,0,0,0,.315-.709c-.174-.356-.341-.717-.522-1.069a.248.248,0,0,1,.049-.34q2.042-2.025,4.076-4.059a.312.312,0,0,1,.417-.059c.329.171.665.327,1,.483a.453.453,0,0,0,.692-.286c.134-.363.267-.727.374-1.1a.257.257,0,0,1,.3-.209c.518,0,1.037,0,1.555,0,1.4,0,2.8,0,4.2,0,.225,0,.323.061.381.3a8.249,8.249,0,0,0,.406,1.141.441.441,0,0,0,.6.163c.351-.166.7-.334,1.047-.51a.309.309,0,0,1,.411.073c1.361,1.362,2.73,2.716,4.087,4.082a.343.343,0,0,1,.038.307c-.152.356-.329.7-.5,1.049a.511.511,0,0,0,.323.746c.3.084.592.179.887.273a.469.469,0,0,1,.365.514c-.012,1.857-.008,3.712,0,5.569,0,.175-.031.28-.225.335-.339.1-.668.231-1,.352-.427.155-.515.371-.322.772.161.334.318.67.483,1a.234.234,0,0,1-.051.317q-1.99,1.966-3.974,3.938a2.673,2.673,0,0,1-.335.245m2.388-14.894a1.274,1.274,0,0,0-.139-.213c-.8-.81-1.607-1.615-2.408-2.426a.221.221,0,0,0-.314-.041c-.233.131-.483.231-.717.359a.46.46,0,0,1-.464,0,4.861,4.861,0,0,0-.923-.4.972.972,0,0,1-.772-.8,1.427,1.427,0,0,0-.056-.171c-.157-.415-.157-.413-.59-.391-.138.007-.276.013-.415.012-.889-.005-1.779-.01-2.669-.021-.2,0-.345.03-.4.265a2.284,2.284,0,0,1-.223.6.921.921,0,0,1-.349.378,12.384,12.384,0,0,1-1.261.53.68.68,0,0,1-.435-.012,5.968,5.968,0,0,1-.744-.36.2.2,0,0,0-.289.055c-.235.252-.484.492-.729.736-.531.531-1.056,1.069-1.6,1.588a.4.4,0,0,0-.086.6c.106.155.171.338.267.5a.527.527,0,0,1,0,.535c-.2.429-.357.875-.545,1.308a.4.4,0,0,1-.2.2,8.221,8.221,0,0,1-.837.261c-.149.037-.186.109-.186.253q.008,1.723,0,3.444a.247.247,0,0,0,.2.278c.231.069.459.149.687.225a.528.528,0,0,1,.377.385,5.224,5.224,0,0,0,.3.771c.326.705.331.7-.023,1.4-.2.4-.2.393.126.717.745.745,1.49,1.49,2.227,2.242.1.1.175.134.307.061.226-.125.466-.225.693-.347a.546.546,0,0,1,.517-.012c.394.172.8.312,1.193.492a.78.78,0,0,1,.345.316c.12.225.172.487.285.717a.366.366,0,0,0,.263.176q1.737.018,3.473,0a.332.332,0,0,0,.238-.165c.1-.2.155-.419.231-.629a.621.621,0,0,1,.437-.437,1.728,1.728,0,0,0,.437-.147,1.494,1.494,0,0,1,1.835-.021.209.209,0,0,0,.114.057c.087,0,.206.007.257-.043.817-.807,1.624-1.624,2.439-2.432a.245.245,0,0,0,.055-.339c-.123-.227-.223-.467-.352-.691a.467.467,0,0,1-.015-.463c.183-.418.339-.849.536-1.26a.736.736,0,0,1,.333-.316c.231-.11.491-.159.729-.261a.329.329,0,0,0,.184-.225c.012-1.174.01-2.348,0-3.522a.255.255,0,0,0-.117-.2,4.055,4.055,0,0,0-.782-.258.4.4,0,0,1-.336-.3c-.107-.281-.215-.564-.344-.835-.337-.707-.342-.705.045-1.391l.184-.331" transform="translate(-7.572 -5.845)" fill="#ffca00"/>
        <path id="Trazado_786473" data-name="Trazado 786473" d="M7.674,11.086c.146-.132.231-.2.309-.28q2-1.991,4-3.986c.125-.125.236-.135.356-.017.289.285.579.569.859.862.14.146.067.274-.059.4q-1.353,1.34-2.7,2.688c-.859.863-1.711,1.733-2.575,2.59a.274.274,0,0,1-.269.01c-.675-.657-1.337-1.325-2-1.991a.217.217,0,0,1,0-.355c.284-.278.562-.562.844-.841.148-.147.283-.124.419.028.263.3.532.585.811.891" transform="translate(-1.836 -2.241)" fill="#ffca00"/>
        <path id="Trazado_786474" data-name="Trazado 786474" d="M63.167,66.172c.784-.78,1.579-1.57,2.372-2.361.606-.6,1.217-1.2,1.811-1.816.18-.186.3-.167.465.007.267.283.544.555.827.822.133.127.122.216,0,.341q-2.452,2.419-4.9,4.845c-.147.146-.3.29-.437.442-.1.109-.2.133-.311.025-.687-.68-1.374-1.361-2.052-2.049a.23.23,0,0,1,.011-.225c.3-.31.618-.6.919-.909.141-.144.243-.141.384,0,.291.3.6.573.914.874" transform="translate(-20.308 -20.625)" fill="#ffca00"/>
        <path id="Trazado_786475" data-name="Trazado 786475" d="M15.155,66.889H4.974c0-.529-.007-1.043.009-1.558,0-.053.135-.141.212-.147.267-.02.535-.013.8-.012l8.755,0c.4,0,.4,0,.4.393v1.321" transform="translate(-1.658 -21.727)" fill="#ffca00"/>
        <path id="Trazado_786476" data-name="Trazado 786476" d="M4.989,71.871V70.239c.092-.005.175-.014.259-.014,2.074,0,4.148,0,6.222-.005.245,0,.341.065.329.319-.019.379-.011.76-.007,1.14,0,.143-.033.226-.2.225Q8.324,71.9,5.058,71.9a.285.285,0,0,1-.069-.026" transform="translate(-1.663 -23.411)" fill="#ffca00"/>
        <rect id="Rect치ngulo_371989" data-name="Rect치ngulo 371989" width="1.64" height="1.652" transform="translate(11.84 46.829)" fill="#ffca00"/>
        <path id="Trazado_786477" data-name="Trazado 786477" d="M35.706,37.159a6.675,6.675,0,1,1,6.718-6.639,6.654,6.654,0,0,1-6.718,6.639M35.69,25.547a4.961,4.961,0,1,0,5.036,4.946,4.9,4.9,0,0,0-5.036-4.946" transform="translate(-9.655 -7.938)" fill="#ffca00"/>
        <path id="Trazado_786478" data-name="Trazado 786478" d="M38.212,31.381a1.617,1.617,0,0,0-1.667,1.661,1.671,1.671,0,0,0,1.665,1.641,1.692,1.692,0,0,0,1.682-1.659,1.6,1.6,0,0,0-1.679-1.643" transform="translate(-12.184 -10.46)" fill="#ffca00"/>
      </g>
    </g>
  </g>
</svg>
