<svg id="Grupo_1043164" data-name="Grupo 1043164" xmlns="http://www.w3.org/2000/svg" xmlns:xlink="http://www.w3.org/1999/xlink" width="157.086" height="128.115" viewBox="0 0 157.086 128.115">
  <defs>
    <clipPath id="clip-path">
      <rect id="Rectángulo_372023" data-name="Rectángulo 372023" width="157.086" height="128.115" fill="none"/>
    </clipPath>
  </defs>
  <g id="Grupo_1043163" data-name="Grupo 1043163" clip-path="url(#clip-path)">
    <path id="Trazado_786622" data-name="Trazado 786622" d="M30.462,54.051a24.442,24.442,0,0,1,3.151-.962,5.959,5.959,0,0,1,5.279,1.819c2.189,2.121,4.342,4.279,6.506,6.425,2.47,2.449,4.964,4.875,7.395,7.361A20.317,20.317,0,0,1,58.9,83.03c.033,2.365.005,4.731.005,7.1v.707c.664,0,1.281-.015,1.9,0a1.707,1.707,0,0,1,1.853,1.912q0,9.325,0,18.649a1.893,1.893,0,0,1-2,2.077c-.116.005-.234,0-.352,0q-14.592,0-29.183-.014a4.163,4.163,0,0,1-1.518-.328,1.631,1.631,0,0,1-.939-1.4,11.318,11.318,0,0,1-.1-1.519q-.006-8.357.008-16.715a5.784,5.784,0,0,1,.1-1.106,1.865,1.865,0,0,1,1.843-1.573c.507-.022,1.018.017,1.522-.028a.532.532,0,0,0,.37-.355c.039-.84.049-1.682.018-2.521a1.241,1.241,0,0,0-.306-.664q-4.095-5.018-8.207-10.02c-2.576-3.142-5.143-6.294-7.736-9.423a3.73,3.73,0,0,1-.891-2.52q.029-18.122.018-36.244a4.033,4.033,0,0,1,.131-1.156,1.672,1.672,0,0,1,1.414-1.33A18.111,18.111,0,0,1,23.988,27a9.173,9.173,0,0,1,6.422,8.57c.091,5.766.041,11.533.052,17.3,0,.422,0,.845,0,1.185M55.109,90.79a1.506,1.506,0,0,0,.036-.243c-.03-2.813-.033-5.628-.1-8.44A15.027,15.027,0,0,0,50.58,71.879c-3.01-3.151-6.147-6.178-9.229-9.259-1.687-1.685-3.357-3.388-5.065-5.05a2.526,2.526,0,0,0-3.462-.318c-1.2.985-2.273,2.127-3.412,3.211a3.752,3.752,0,0,0,.234.3q2.665,2.64,5.332,5.279c1.373,1.364,2.743,2.728,4.1,4.11.13.131.252.492.187.558-.8.815-1.647,1.6-2.5,2.4-.145-.125-.268-.218-.375-.324q-5.294-5.278-10.576-10.565A7.516,7.516,0,0,1,25,61.155a1.071,1.071,0,0,1,0-1.316,12.619,12.619,0,0,1,1.234-1.47,1.283,1.283,0,0,0,.421-1.03c-.048-2.168-.1-4.338-.1-6.506-.01-5.162.014-10.323,0-15.483a4.981,4.981,0,0,0-1.71-3.663c-1.637-1.548-3.688-1.452-5.763-1.369-.01.2-.027.372-.027.543q0,17.039.013,34.077a1.631,1.631,0,0,0,.355.935c1.454,1.812,2.941,3.6,4.414,5.395q2.748,3.353,5.494,6.711c2.092,2.553,4.207,5.091,6.263,7.674a3.2,3.2,0,0,1,.621,1.594,16.172,16.172,0,0,1,0,2.869c-.045.581.139.7.667.693,3.672-.021,7.346-.015,11.018-.018,2.382,0,4.765,0,7.211,0" transform="translate(4.396 7.597)" fill="#1a1818"/>
    <path id="Trazado_786623" data-name="Trazado 786623" d="M73.675,90.821v-.98c0-2.17-.012-4.34,0-6.51a19.636,19.636,0,0,1,5.613-14C84,64.463,88.848,59.718,93.673,54.954A6.376,6.376,0,0,1,101.59,53.9c.165.089.328.176.565.3V53.62c0-5.9.036-11.808,0-17.712a9.391,9.391,0,0,1,7.934-9.278,30.535,30.535,0,0,1,5.376-.126,1.9,1.9,0,0,1,1.814,1.949c.013.194.005.39.005.586q0,18.209.012,36.419a3.35,3.35,0,0,1-.8,2.252q-7.855,9.553-15.7,19.113a2.418,2.418,0,0,0-.646,1.852,14.12,14.12,0,0,1,.017,1.7c-.012.34.124.452.444.443.487-.013.976-.019,1.465,0a1.84,1.84,0,0,1,1.836,1.505,4.306,4.306,0,0,1,.106.988q.006,8.738,0,17.476c0,1.952-.73,2.679-2.694,2.679q-14.474,0-28.949-.008a4.346,4.346,0,0,1-1.316-.209,1.579,1.579,0,0,1-1.129-1.6q0-9.531,0-19.06a1.674,1.674,0,0,1,1.666-1.75c.332-.024.664-.015,1-.018s.662,0,1.088,0m3.757-.013h.684q5.744-.014,11.489-.026c2.05,0,4.1-.014,6.153.014.53.006.666-.173.643-.68-.04-.878.028-1.76-.013-2.638a2.806,2.806,0,0,1,.729-2.036c.646-.758,1.264-1.539,1.9-2.31Q106.1,74.5,113.172,65.865a1.682,1.682,0,0,0,.339-.993q.025-16.484.013-32.966c0-1.624,0-1.6-1.611-1.631a5.572,5.572,0,0,0-3.361.791,5.027,5.027,0,0,0-2.522,4.4c.024,2.6.005,5.2.005,7.8,0,4.4.026,8.8-.024,13.2A2.678,2.678,0,0,0,106.8,58.8c1.391,1.281,1.32,2.081-.033,3.433q-5.224,5.222-10.45,10.444c-.146.146-.313.269-.485.415-.83-.794-1.611-1.558-2.412-2.3-.269-.249-.18-.4.036-.615q4.6-4.566,9.186-9.139a6.365,6.365,0,0,1,.765-.538c-1.069-1.006-1.983-1.858-2.887-2.719a2.816,2.816,0,0,0-4.419.033q-6.882,6.839-13.742,13.7A16.478,16.478,0,0,0,77.434,83.6c-.005,2.17,0,4.34,0,6.51v.7" transform="translate(20.109 7.606)" fill="#1a1818"/>
    <path id="Trazado_786624" data-name="Trazado 786624" d="M100.288,46.609A27.846,27.846,0,0,1,97.656,53.6c-.281.536-.552,1.078-.858,1.6a.6.6,0,0,0,.126.872c.38.336.734.7,1.093,1.061,1.4,1.4,1.414,2.224.026,3.612-1.907,1.907-3.829,3.8-5.741,5.7-.541.537-1.057,1.1-1.615,1.618-1.114,1.04-1.96,1.037-3.058,0-.469-.443-.922-.9-1.362-1.373a.608.608,0,0,0-.9-.136A32.36,32.36,0,0,1,76.8,70.066c-.042.924-.04,1.844-.148,2.749a3.292,3.292,0,0,1-.489,1.23,1.406,1.406,0,0,1-1.329.684c-3.77-.021-7.54-.01-11.311-.01a1.906,1.906,0,0,1-2.109-1.9c-.068-.756-.015-1.522-.057-2.282-.01-.176-.156-.46-.292-.5a33.412,33.412,0,0,1-8.295-3.446.682.682,0,0,0-1.035.169,18.251,18.251,0,0,1-1.367,1.366,1.838,1.838,0,0,1-2.851.031c-1.921-1.863-3.795-3.775-5.69-5.665-.72-.718-1.47-1.406-2.159-2.152a1.791,1.791,0,0,1,.028-2.833c.465-.5.959-.975,1.464-1.437a.632.632,0,0,0,.133-.87c-.919-1.913-1.849-3.825-2.694-5.772a27.049,27.049,0,0,1-.886-2.867c-.664,0-1.443.049-2.211-.018a4.624,4.624,0,0,1-1.5-.4,1.554,1.554,0,0,1-.922-1.559c.019-3.792.006-7.585.017-11.377a1.614,1.614,0,0,1,1.609-1.792c.735-.071,1.481-.035,2.222-.044.288,0,.576,0,.8,0a29.727,29.727,0,0,1,2.7-7.265c.281-.536.574-1.065.886-1.582a.477.477,0,0,0-.091-.706c-.5-.462-.979-.955-1.458-1.443a1.944,1.944,0,0,1,0-3.116q3.842-3.828,7.708-7.629a1.831,1.831,0,0,1,2.838-.014c.64.627,1.228,1.307,1.764,1.881,1.5-.747,2.8-1.487,4.18-2.06,1.436-.6,2.928-1.061,4.414-1.527.53-.167.784-.363.712-.968A10.413,10.413,0,0,1,61.4,5.123a2.112,2.112,0,0,1,2.2-2.188q5.448-.052,10.9,0c1.375.015,2.18.993,2.253,2.562a12.48,12.48,0,0,1-.008,1.582c-.039.457.144.635.561.783C79.215,8.54,81.123,9.22,83,9.973a18.5,18.5,0,0,1,2.421,1.3.525.525,0,0,0,.76-.1c.458-.482.932-.946,1.406-1.412,1.133-1.114,2.081-1.1,3.234.05q3.077,3.059,6.15,6.121c.457.455.922.9,1.369,1.367a1.941,1.941,0,0,1,.036,3,19.624,19.624,0,0,1-1.419,1.4c-.342.3-.335.551-.143.952.917,1.913,1.83,3.831,2.665,5.78a28.793,28.793,0,0,1,.9,2.928c.388,0,.923-.008,1.46,0a12.76,12.76,0,0,1,1.692.07,1.6,1.6,0,0,1,1.46,1.644q.037,5.864.009,11.729c-.005.912-1.137,1.737-2.3,1.759-.782.014-1.563.009-2.343.015a.147.147,0,0,0-.075.035M72.8,70.942c.053-.1.088-.131.088-.165,0-.682-.009-1.366,0-2.05a1.94,1.94,0,0,1,1.664-2.02c1.38-.339,2.771-.664,4.115-1.115a27.972,27.972,0,0,0,6.267-3.134,1.794,1.794,0,0,1,2.585.236,17.8,17.8,0,0,1,1.29,1.28c.273.305.43.318.735.01q2.325-2.358,4.7-4.662c.261-.255.283-.412.019-.661-.467-.443-.926-.9-1.365-1.37a1.787,1.787,0,0,1-.255-2.53A51.137,51.137,0,0,0,95.269,49.8a32.136,32.136,0,0,0,1.6-5.123c.291-1.23.924-1.957,2.19-1.97.676-.006,1.351,0,2.037,0V35.237c-.849-.053-1.667-.061-2.473-.165A2.09,2.09,0,0,1,96.9,33.377c-.358-1.494-.73-2.99-1.222-4.442A27.326,27.326,0,0,0,92.655,23a1.719,1.719,0,0,1,.2-2.486c.2-.237.426-.457.652-.675.359-.344.726-.679,1.089-1.017l-.277.09c-1.568-1.664-3.143-3.321-4.7-5-.357-.384-.624-.366-.957.008-.312.35-.68.65-.988,1a1.894,1.894,0,0,1-1.94.662,4.111,4.111,0,0,1-1.317-.579,25.28,25.28,0,0,0-5.713-2.8c-1.4-.471-2.848-.784-4.264-1.2a1.827,1.827,0,0,1-1.567-2.122c0-.715,0-1.429,0-2.164H65.189c0,.886.032,1.741-.009,2.593a1.593,1.593,0,0,1-1.236,1.588c-.99.276-1.98.558-2.974.819a25.212,25.212,0,0,0-7.471,3.4,2.2,2.2,0,0,1-3.1-.221c-.342-.319-.673-.653-1-.994-.335-.357-.591-.37-.963.01-1.545,1.577-3.126,3.121-4.691,4.678a2.9,2.9,0,0,0-.232.34c.55.509,1.124.982,1.63,1.522a1.752,1.752,0,0,1,.288,2.526c-.212.373-.457.727-.684,1.093a27,27,0,0,0-3.523,8.874c-.33,1.624-.954,2.173-2.632,2.224-.538.015-1.078,0-1.626,0v7.548c.8,0,1.562-.027,2.319.006A1.988,1.988,0,0,1,41.15,44.44a21.331,21.331,0,0,0,1.692,5.521c.744,1.585,1.629,3.107,2.493,4.633.722,1.279.676,1.866-.359,2.9-.465.467-.931.934-1.277,1.281l5.28,5.412c.473-.449.964-.922,1.463-1.387a1.917,1.917,0,0,1,2.824-.287c.565.349,1.125.706,1.7,1.034a28.208,28.208,0,0,0,8.516,3.161,1.908,1.908,0,0,1,1.727,2.024,15.179,15.179,0,0,1-.014,1.642c-.028.435.116.579.559.574,1.934-.021,3.868-.009,5.8-.009H72.8" transform="translate(9.515 0.836)" fill="#1a1818"/>
    <path id="Trazado_786625" data-name="Trazado 786625" d="M54.266,89.928c-2.445,0-4.828,0-7.211,0-3.672,0-7.346,0-11.018.018-.528,0-.712-.112-.667-.693a16.172,16.172,0,0,0,0-2.869,3.2,3.2,0,0,0-.621-1.594c-2.056-2.583-4.171-5.121-6.263-7.674Q25.741,73.761,23,70.405c-1.473-1.8-2.96-3.583-4.414-5.395a1.631,1.631,0,0,1-.355-.935Q18.2,47.037,18.215,30c0-.171.017-.341.027-.543,2.076-.084,4.127-.179,5.763,1.369a4.981,4.981,0,0,1,1.71,3.663c.015,5.161-.009,10.321,0,15.483,0,2.168.052,4.338.1,6.506a1.283,1.283,0,0,1-.421,1.03,12.619,12.619,0,0,0-1.234,1.47,1.071,1.071,0,0,0,0,1.316,7.516,7.516,0,0,0,.811,1.067q5.277,5.292,10.576,10.565c.107.107.229.2.375.324.852-.807,1.694-1.588,2.5-2.4.066-.066-.057-.426-.187-.558-1.355-1.382-2.725-2.746-4.1-4.11Q31.472,62.535,28.8,59.9a3.752,3.752,0,0,1-.234-.3c1.14-1.084,2.211-2.226,3.412-3.211a2.526,2.526,0,0,1,3.462.318c1.709,1.662,3.379,3.364,5.065,5.05,3.082,3.081,6.219,6.108,9.229,9.259A15.027,15.027,0,0,1,54.2,81.244c.068,2.812.072,5.627.1,8.44a1.506,1.506,0,0,1-.036.243" transform="translate(5.238 8.46)" fill="#fff"/>
    <path id="Trazado_786626" data-name="Trazado 786626" d="M75.755,89.954v-.7c0-2.17,0-4.34,0-6.51a16.478,16.478,0,0,1,4.928-12.088q6.858-6.862,13.742-13.7a2.816,2.816,0,0,1,4.419-.033c.9.861,1.818,1.714,2.887,2.719a6.365,6.365,0,0,0-.765.538q-4.6,4.566-9.186,9.139c-.216.216-.305.367-.036.615.8.742,1.581,1.505,2.412,2.3.173-.146.34-.269.485-.415q5.228-5.221,10.45-10.444c1.353-1.352,1.424-2.152.033-3.433a2.678,2.678,0,0,1-.793-2.329c.05-4.4.024-8.8.024-13.2,0-2.6.019-5.2-.005-7.8a5.027,5.027,0,0,1,2.522-4.4,5.572,5.572,0,0,1,3.361-.791c1.611.035,1.611.008,1.611,1.631q0,16.482-.013,32.966a1.682,1.682,0,0,1-.339.993q-7.061,8.649-14.157,17.268c-.633.771-1.252,1.552-1.9,2.31a2.806,2.806,0,0,0-.729,2.036c.041.878-.027,1.76.013,2.638.023.507-.112.686-.643.68-2.051-.028-4.1-.018-6.153-.014q-5.744.008-11.489.026h-.684" transform="translate(21.786 8.46)" fill="#fff"/>
    <path id="Trazado_786627" data-name="Trazado 786627" d="M71.928,70.088H70.689c-1.934,0-3.868-.01-5.8.009-.443.005-.587-.139-.559-.574a15.489,15.489,0,0,0,.015-1.64,1.911,1.911,0,0,0-1.728-2.025A28.22,28.22,0,0,1,54.1,62.7c-.577-.328-1.137-.685-1.7-1.034a1.917,1.917,0,0,0-2.824.287c-.5.465-.989.939-1.463,1.388l-5.28-5.413,1.277-1.28c1.035-1.038,1.083-1.625.359-2.9-.863-1.526-1.749-3.046-2.493-4.631a21.406,21.406,0,0,1-1.692-5.522,1.984,1.984,0,0,0-1.862-1.7c-.757-.035-1.518-.008-2.318-.008V34.327c.547,0,1.087.014,1.625,0,1.678-.049,2.3-.6,2.632-2.224a26.982,26.982,0,0,1,3.524-8.874c.225-.364.47-.72.684-1.092a1.756,1.756,0,0,0-.288-2.528c-.507-.54-1.082-1.013-1.631-1.522a2.847,2.847,0,0,1,.232-.339c1.566-1.558,3.146-3.1,4.691-4.678.372-.38.628-.368.964-.012.321.341.652.675,1,.994a2.2,2.2,0,0,0,3.1.221,25.292,25.292,0,0,1,7.471-3.4c1-.261,1.984-.543,2.976-.819a1.593,1.593,0,0,0,1.235-1.588c.042-.852.01-1.707.01-2.593h7.684c0,.735,0,1.45,0,2.166a1.826,1.826,0,0,0,1.567,2.121c1.418.416,2.867.729,4.264,1.2a25.253,25.253,0,0,1,5.713,2.8,4.143,4.143,0,0,0,1.317.581,1.9,1.9,0,0,0,1.942-.663c.306-.353.675-.653.986-1,.332-.375.6-.393.957-.008,1.555,1.675,3.131,3.332,4.7,5l.277-.09c-.364.34-.731.673-1.089,1.018-.225.216-.449.436-.653.673a1.72,1.72,0,0,0-.2,2.486,27.355,27.355,0,0,1,3.026,5.932c.492,1.452.864,2.949,1.222,4.442a2.09,2.09,0,0,0,1.715,1.694c.806.1,1.625.113,2.473.166v7.471c-.685,0-1.361-.005-2.037,0-1.264.012-1.9.739-2.19,1.969A32.051,32.051,0,0,1,94.4,48.949a51.71,51.71,0,0,1-2.624,4.959,1.785,1.785,0,0,0,.255,2.53c.438.473.9.927,1.365,1.37.263.25.242.406-.021.661q-2.374,2.31-4.7,4.662c-.3.309-.461.295-.735-.01a17.8,17.8,0,0,0-1.29-1.28,1.8,1.8,0,0,0-2.585-.236A27.963,27.963,0,0,1,77.8,64.738c-1.346.452-2.735.778-4.116,1.115a1.938,1.938,0,0,0-1.662,2.02c-.012.684,0,1.367,0,2.051,0,.033-.033.066-.088.164M68.2,60.748A22.684,22.684,0,0,0,90.9,38.581C91.128,25.045,80.618,15.744,68.443,15.2c-12.859.341-22.722,9.836-23.017,22.369A22.741,22.741,0,0,0,68.2,60.748" transform="translate(10.383 1.69)" fill="#2d54fe"/>
    <path id="Trazado_786628" data-name="Trazado 786628" d="M66.123,58.664A22.742,22.742,0,0,1,43.344,35.49c.3-12.532,10.158-22.028,23.018-22.369,12.174.539,22.683,9.841,22.458,23.376a22.683,22.683,0,0,1-22.7,22.167m-.6-3.829A18.924,18.924,0,1,0,66.39,17,18.679,18.679,0,0,0,47.127,34.8a18.791,18.791,0,0,0,18.4,20.034" transform="translate(12.464 3.773)" fill="#1a1818"/>
    <path id="Trazado_786629" data-name="Trazado 786629" d="M64.688,53.971a18.791,18.791,0,0,1-18.4-20.035,19,19,0,1,1,37.917,2.542,18.884,18.884,0,0,1-19.52,17.493m.606-5.58c1.719,0,3.443.081,5.156-.031a8.761,8.761,0,0,0,2.987-.7c2.331-1.052,3.189-3.113,3.276-5.521.076-2.108.022-4.222.012-6.334a7.214,7.214,0,0,0-.113-1.163,5.91,5.91,0,0,0-3.385-4.682.7.7,0,0,1-.246-.56,13.189,13.189,0,0,0-.442-3.825,7.544,7.544,0,0,0-14.563-.091,12.057,12.057,0,0,0-.386,3.773.893.893,0,0,1-.295.716c-2.481,1.129-3.408,3.229-3.52,5.757-.094,2.148-.071,4.3,0,6.451a6.461,6.461,0,0,0,1.376,4.025,6.3,6.3,0,0,0,4.988,2.176c1.718.044,3.438.009,5.157.009" transform="translate(13.3 4.638)" fill="#dee4f0"/>
    <path id="Trazado_786630" data-name="Trazado 786630" d="M63.628,47.535c-1.72,0-3.44.035-5.158-.009a6.306,6.306,0,0,1-4.988-2.176,6.459,6.459,0,0,1-1.375-4.025c-.07-2.148-.093-4.3,0-6.45.111-2.529,1.038-4.629,3.519-5.758a.89.89,0,0,0,.3-.716,12.057,12.057,0,0,1,.386-3.773,7.543,7.543,0,0,1,14.561.091,13.194,13.194,0,0,1,.442,3.825.7.7,0,0,0,.247.56,5.913,5.913,0,0,1,3.385,4.682,7.069,7.069,0,0,1,.112,1.163c.012,2.112.066,4.226-.01,6.334-.088,2.408-.946,4.469-3.277,5.521a8.761,8.761,0,0,1-2.986.7c-1.712.112-3.437.031-5.156.031m-7.634-9.626c0,1.172,0,2.345,0,3.516,0,.319.068.523.449.52,2.2-.022,4.414.048,6.614-.066,2.589-.131,4.4-1.66,4.387-4.468-.005-1.427-.015-2.852.008-4.279.009-.5-.144-.7-.666-.693-2.888.017-5.777,0-8.667.012A1.965,1.965,0,0,0,56,34.567c-.01,1.114,0,2.228,0,3.341m7.579-9.334v-.006c1.132,0,2.264-.015,3.394.008.353.008.506-.073.489-.446-.023-.507.015-1.017-.019-1.522a3.861,3.861,0,0,0-3.467-3.731,3.705,3.705,0,0,0-4.082,2.909,16.173,16.173,0,0,0-.175,2.327c-.032.4.151.48.524.471,1.111-.026,2.224-.009,3.336-.009" transform="translate(14.968 5.493)" fill="#1a1818"/>
    <path id="Trazado_786631" data-name="Trazado 786631" d="M55.113,34.93c0-1.114-.009-2.228,0-3.341a1.965,1.965,0,0,1,2.121-2.116c2.889-.012,5.779.005,8.667-.013.523,0,.675.2.666.694-.023,1.425-.013,2.852-.008,4.279.012,2.808-1.8,4.337-4.387,4.468-2.2.112-4.41.044-6.614.064-.381,0-.451-.2-.449-.519.008-1.173,0-2.345,0-3.516M62.672,37.1a14.33,14.33,0,0,0,1.579-.021.656.656,0,0,0,.453-.435c.04-1,.019-1.992.014-2.987,0-.363-.192-.52-.555-.518-.976.006-1.951,0-2.927,0-.4,0-.558.2-.546.585.031.976.057,1.952.07,2.928,0,.318.12.465.448.456.488-.013.976,0,1.464,0" transform="translate(15.849 8.472)" fill="#ffca00"/>
    <path id="Trazado_786632" data-name="Trazado 786632" d="M61.861,27.736c-1.112,0-2.225-.017-3.336.009-.373.009-.556-.068-.524-.471a16.173,16.173,0,0,1,.175-2.327,3.705,3.705,0,0,1,4.082-2.909,3.861,3.861,0,0,1,3.467,3.731c.035.5,0,1.015.019,1.522.017.372-.136.453-.489.446-1.131-.023-2.262-.008-3.394-.008v.006" transform="translate(16.679 6.332)" fill="#ffca00"/>
    <path id="Trazado_786633" data-name="Trazado 786633" d="M61.426,36.276c-.488,0-.976-.01-1.464,0-.328.008-.444-.14-.448-.457-.013-.975-.039-1.951-.07-2.927-.012-.39.148-.587.546-.585.976.005,1.951.01,2.927,0,.363,0,.554.157.555.518.005,1,.026,1.994-.014,2.987a.653.653,0,0,1-.453.436,14.654,14.654,0,0,1-1.579.022" transform="translate(17.095 9.293)" fill="#1a1818"/>
  </g>
</svg>
